<?xml version="1.0" encoding="UTF-8"?>
<!--Generator: Apple Native CoreSVG 149-->
<!DOCTYPE svg
PUBLIC "-//W3C//DTD SVG 1.1//EN"
       "http://www.w3.org/Graphics/SVG/1.1/DTD/svg11.dtd">
<svg version="1.1" xmlns="http://www.w3.org/2000/svg" xmlns:xlink="http://www.w3.org/1999/xlink" width="3300" height="2200">
 <!--glyph: "uni1002CA.medium", point size: 100.000000, font version: "Version 16.0d18e1", template writer version: "8"-->
 <g id="Notes">
  <rect height="2200" id="artboard" style="fill:white;opacity:1" width="3300" x="0" y="0"/>
  <line id="" style="fill:none;stroke:black;opacity:1;stroke-width:0.5;" x1="263" x2="3036" y1="292" y2="292"/>
  <text style="stroke:none;fill:black;font-family:-apple-system,&quot;SF Pro Display&quot;,&quot;SF Pro Text&quot;,Helvetica,sans-serif;font-weight:bold;" transform="matrix(1 0 0 1 263 322)">Weight/Scale Variations</text>
  <text style="stroke:none;fill:black;font-family:-apple-system,&quot;SF Pro Display&quot;,&quot;SF Pro Text&quot;,Helvetica,sans-serif;text-anchor:middle;" transform="matrix(1 0 0 1 559.711 322)">Ultralight</text>
  <text style="stroke:none;fill:black;font-family:-apple-system,&quot;SF Pro Display&quot;,&quot;SF Pro Text&quot;,Helvetica,sans-serif;text-anchor:middle;" transform="matrix(1 0 0 1 856.422 322)">Thin</text>
  <text style="stroke:none;fill:black;font-family:-apple-system,&quot;SF Pro Display&quot;,&quot;SF Pro Text&quot;,Helvetica,sans-serif;text-anchor:middle;" transform="matrix(1 0 0 1 1153.13 322)">Light</text>
  <text style="stroke:none;fill:black;font-family:-apple-system,&quot;SF Pro Display&quot;,&quot;SF Pro Text&quot;,Helvetica,sans-serif;text-anchor:middle;" transform="matrix(1 0 0 1 1449.84 322)">Regular</text>
  <text style="stroke:none;fill:black;font-family:-apple-system,&quot;SF Pro Display&quot;,&quot;SF Pro Text&quot;,Helvetica,sans-serif;text-anchor:middle;" transform="matrix(1 0 0 1 1746.56 322)">Medium</text>
  <text style="stroke:none;fill:black;font-family:-apple-system,&quot;SF Pro Display&quot;,&quot;SF Pro Text&quot;,Helvetica,sans-serif;text-anchor:middle;" transform="matrix(1 0 0 1 2043.27 322)">Semibold</text>
  <text style="stroke:none;fill:black;font-family:-apple-system,&quot;SF Pro Display&quot;,&quot;SF Pro Text&quot;,Helvetica,sans-serif;text-anchor:middle;" transform="matrix(1 0 0 1 2339.98 322)">Bold</text>
  <text style="stroke:none;fill:black;font-family:-apple-system,&quot;SF Pro Display&quot;,&quot;SF Pro Text&quot;,Helvetica,sans-serif;text-anchor:middle;" transform="matrix(1 0 0 1 2636.69 322)">Heavy</text>
  <text style="stroke:none;fill:black;font-family:-apple-system,&quot;SF Pro Display&quot;,&quot;SF Pro Text&quot;,Helvetica,sans-serif;text-anchor:middle;" transform="matrix(1 0 0 1 2933.4 322)">Black</text>
  <line id="" style="fill:none;stroke:black;opacity:1;stroke-width:0.5;" x1="263" x2="3036" y1="1903" y2="1903"/>
  <g id="" transform="matrix(1 0 0 1 263 1933)">
   <path d="M9.24805 0.830078C13.5547 0.830078 17.1387-2.74414 17.1387-7.05078C17.1387-11.3574 13.5449-14.9316 9.23828-14.9316C4.94141-14.9316 1.36719-11.3574 1.36719-7.05078C1.36719-2.74414 4.95117 0.830078 9.24805 0.830078ZM9.24805-0.654297C5.70312-0.654297 2.87109-3.49609 2.87109-7.05078C2.87109-10.6055 5.69336-13.4473 9.23828-13.4473C12.793-13.4473 15.6348-10.6055 15.6445-7.05078C15.6543-3.49609 12.8027-0.654297 9.24805-0.654297ZM6.39648-6.31836L8.50586-6.31836L8.50586-4.19922C8.50586-3.75977 8.79883-3.45703 9.22852-3.45703C9.67773-3.45703 9.9707-3.75977 9.9707-4.19922L9.9707-6.31836L12.0996-6.31836C12.5391-6.31836 12.8418-6.61133 12.8418-7.04102C12.8418-7.48047 12.5391-7.7832 12.0996-7.7832L9.9707-7.7832L9.9707-9.89258C9.9707-10.3418 9.67773-10.6445 9.22852-10.6445C8.79883-10.6445 8.50586-10.3418 8.50586-9.89258L8.50586-7.7832L6.39648-7.7832C5.94727-7.7832 5.64453-7.48047 5.64453-7.04102C5.64453-6.61133 5.94727-6.31836 6.39648-6.31836Z"/>
  </g>
  <g id="" transform="matrix(1 0 0 1 281.506 1933)">
   <path d="M11.709 2.91016C17.1582 2.91016 21.6699-1.61133 21.6699-7.05078C21.6699-12.5 17.1484-17.0117 11.6992-17.0117C6.25977-17.0117 1.74805-12.5 1.74805-7.05078C1.74805-1.61133 6.26953 2.91016 11.709 2.91016ZM11.709 1.25C7.09961 1.25 3.41797-2.44141 3.41797-7.05078C3.41797-11.6602 7.08984-15.3516 11.6992-15.3516C16.3086-15.3516 20-11.6602 20.0098-7.05078C20.0195-2.44141 16.3184 1.25 11.709 1.25ZM7.98828-6.23047L10.8789-6.23047L10.8789-3.32031C10.8789-2.83203 11.2109-2.5 11.6895-2.5C12.1777-2.5 12.5195-2.83203 12.5195-3.32031L12.5195-6.23047L15.4297-6.23047C15.918-6.23047 16.25-6.5625 16.25-7.04102C16.25-7.5293 15.918-7.87109 15.4297-7.87109L12.5195-7.87109L12.5195-10.7617C12.5195-11.2695 12.1777-11.6016 11.6895-11.6016C11.2109-11.6016 10.8789-11.2598 10.8789-10.7617L10.8789-7.87109L7.98828-7.87109C7.48047-7.87109 7.14844-7.5293 7.14844-7.04102C7.14844-6.5625 7.49023-6.23047 7.98828-6.23047Z"/>
  </g>
  <g id="" transform="matrix(1 0 0 1 304.924 1933)">
   <path d="M14.9707 5.66406C21.9336 5.66406 27.6953-0.0976562 27.6953-7.05078C27.6953-14.0137 21.9238-19.7754 14.9609-19.7754C8.00781-19.7754 2.25586-14.0137 2.25586-7.05078C2.25586-0.0976562 8.01758 5.66406 14.9707 5.66406ZM14.9707 3.84766C8.93555 3.84766 4.08203-1.01562 4.08203-7.05078C4.08203-13.0957 8.92578-17.9492 14.9609-17.9492C21.0059-17.9492 25.8594-13.0957 25.8691-7.05078C25.8789-1.01562 21.0156 3.84766 14.9707 3.84766ZM10.0586-6.14258L14.0625-6.14258L14.0625-2.12891C14.0625-1.5918 14.4336-1.2207 14.9512-1.2207C15.4883-1.2207 15.8594-1.5918 15.8594-2.12891L15.8594-6.14258L19.8828-6.14258C20.4102-6.14258 20.791-6.51367 20.791-7.03125C20.791-7.56836 20.4199-7.94922 19.8828-7.94922L15.8594-7.94922L15.8594-11.9531C15.8594-12.5098 15.4883-12.8809 14.9512-12.8809C14.4336-12.8809 14.0625-12.5 14.0625-11.9531L14.0625-7.94922L10.0586-7.94922C9.50195-7.94922 9.13086-7.56836 9.13086-7.03125C9.13086-6.51367 9.51172-6.14258 10.0586-6.14258Z"/>
  </g>
  <text style="stroke:none;fill:black;font-family:-apple-system,&quot;SF Pro Display&quot;,&quot;SF Pro Text&quot;,Helvetica,sans-serif;font-weight:bold;" transform="matrix(1 0 0 1 263 1953)">Design Variations</text>
  <text style="stroke:none;fill:black;font-family:-apple-system,&quot;SF Pro Display&quot;,&quot;SF Pro Text&quot;,Helvetica,sans-serif;" transform="matrix(1 0 0 1 263 1971)">Symbols are supported in up to nine weights and three scales.</text>
  <text style="stroke:none;fill:black;font-family:-apple-system,&quot;SF Pro Display&quot;,&quot;SF Pro Text&quot;,Helvetica,sans-serif;" transform="matrix(1 0 0 1 263 1989)">For optimal layout with text and other symbols, vertically align</text>
  <text style="stroke:none;fill:black;font-family:-apple-system,&quot;SF Pro Display&quot;,&quot;SF Pro Text&quot;,Helvetica,sans-serif;" transform="matrix(1 0 0 1 263 2007)">symbols with the adjacent text.</text>
  <line id="" style="fill:none;stroke:#00AEEF;stroke-width:0.5;opacity:1.0;" x1="776" x2="776" y1="1919" y2="1933"/>
  <g id="" transform="matrix(1 0 0 1 776 1933)">
   <path d="M3.31055 0.126953C3.82812 0.126953 4.08203-0.0683594 4.26758-0.605469L5.52734-4.0625L11.2891-4.0625L12.5488-0.605469C12.7344-0.0683594 12.9883 0.126953 13.4961 0.126953C14.0137 0.126953 14.3457-0.185547 14.3457-0.673828C14.3457-0.839844 14.3164-0.986328 14.2383-1.20117L9.6582-13.3887C9.43359-13.9941 9.0332-14.2871 8.4082-14.2871C7.80273-14.2871 7.39258-13.9941 7.17773-13.3984L2.59766-1.19141C2.51953-0.976562 2.49023-0.830078 2.49023-0.664062C2.49023-0.175781 2.80273 0.126953 3.31055 0.126953ZM6.00586-5.53711L8.37891-12.1094L8.42773-12.1094L10.8008-5.53711Z"/>
  </g>
  <line id="" style="fill:none;stroke:#00AEEF;stroke-width:0.5;opacity:1.0;" x1="792.836" x2="792.836" y1="1919" y2="1933"/>
  <text style="stroke:none;fill:black;font-family:-apple-system,&quot;SF Pro Display&quot;,&quot;SF Pro Text&quot;,Helvetica,sans-serif;font-weight:bold;" transform="matrix(1 0 0 1 776 1953)">Margins</text>
  <text style="stroke:none;fill:black;font-family:-apple-system,&quot;SF Pro Display&quot;,&quot;SF Pro Text&quot;,Helvetica,sans-serif;" transform="matrix(1 0 0 1 776 1971)">Leading and trailing margins on the left and right side of each symbol</text>
  <text style="stroke:none;fill:black;font-family:-apple-system,&quot;SF Pro Display&quot;,&quot;SF Pro Text&quot;,Helvetica,sans-serif;" transform="matrix(1 0 0 1 776 1989)">can be adjusted by modifying the x-location of the margin guidelines.</text>
  <text style="stroke:none;fill:black;font-family:-apple-system,&quot;SF Pro Display&quot;,&quot;SF Pro Text&quot;,Helvetica,sans-serif;" transform="matrix(1 0 0 1 776 2007)">Modifications are automatically applied proportionally to all</text>
  <text style="stroke:none;fill:black;font-family:-apple-system,&quot;SF Pro Display&quot;,&quot;SF Pro Text&quot;,Helvetica,sans-serif;" transform="matrix(1 0 0 1 776 2025)">scales and weights.</text>
  <g id="" transform="matrix(1 0 0 1 1289 1933)">
   <path d="M2.8418 1.86523L4.54102 3.57422C5.40039 4.44336 6.38672 4.38477 7.31445 3.35938L17.4902-7.85156C17.7539-7.76367 18.0273-7.7832 18.3398-7.8418L19.4043-8.03711L20.0684-7.36328L20.0293-6.80664C19.9902-6.30859 20.1172-5.92773 20.6055-5.44922L21.3672-4.70703C21.8457-4.22852 22.4609-4.19922 22.9297-4.66797L25.8398-7.58789C26.3086-8.05664 26.2891-8.65234 25.8105-9.13086L25.0391-9.89258C24.5605-10.3711 24.1895-10.5273 23.7109-10.4883L23.1348-10.4395L22.4902-11.0742L22.7344-12.1973C22.8613-12.7637 22.7051-13.2031 22.1191-13.7891L19.9219-15.9766C16.582-19.2969 12.1484-19.2188 9.25781-16.3281C8.83789-15.918 8.80859-15.3418 9.04297-14.9512C9.27734-14.5898 9.73633-14.3555 10.3809-14.5215C11.8457-14.8633 13.3691-14.9219 14.7949-13.9844L14.209-12.5293C14.0137-12.0508 13.9844-11.6504 14.1113-11.2891L3.04688-0.898438C2.06055 0.0195312 1.98242 0.996094 2.8418 1.86523ZM10.752-15.957C13.1836-17.7344 16.4746-17.4316 18.7012-15.2051L21.1328-12.793C21.3672-12.5586 21.4062-12.373 21.3379-12.0312L21.0156-10.5469L22.5195-9.0625L23.5059-9.12109C23.7598-9.13086 23.8379-9.11133 24.0332-8.91602L24.6094-8.33984L22.168-5.89844L21.5918-6.47461C21.3965-6.66992 21.3672-6.74805 21.377-7.01172L21.4453-7.98828L19.9512-9.47266L18.4277-9.21875C18.1055-9.15039 17.959-9.17969 17.7148-9.41406L15.7129-11.416C15.459-11.6504 15.4297-11.8164 15.5859-12.1875L16.4648-14.2773C14.9023-15.7324 12.8711-16.3574 10.8398-15.7617C10.6836-15.7227 10.625-15.8496 10.752-15.957ZM5.27344 2.30469L4.10156 1.14258C3.63281 0.683594 3.74023 0.341797 4.14062-0.0195312L14.9512-10.1953L16.416-8.71094L6.42578 2.27539C6.07422 2.67578 5.74219 2.77344 5.27344 2.30469Z"/>
  </g>
  <text style="stroke:none;fill:black;font-family:-apple-system,&quot;SF Pro Display&quot;,&quot;SF Pro Text&quot;,Helvetica,sans-serif;font-weight:bold;" transform="matrix(1 0 0 1 1289 1953)">Exporting</text>
  <text style="stroke:none;fill:black;font-family:-apple-system,&quot;SF Pro Display&quot;,&quot;SF Pro Text&quot;,Helvetica,sans-serif;" transform="matrix(1 0 0 1 1289 1971)">Symbols should be outlined when exporting to ensure the</text>
  <text style="stroke:none;fill:black;font-family:-apple-system,&quot;SF Pro Display&quot;,&quot;SF Pro Text&quot;,Helvetica,sans-serif;" transform="matrix(1 0 0 1 1289 1989)">design is preserved when submitting to Xcode.</text>
  <text id="template-version" style="stroke:none;fill:black;font-family:-apple-system,&quot;SF Pro Display&quot;,&quot;SF Pro Text&quot;,Helvetica,sans-serif;text-anchor:end;" transform="matrix(1 0 0 1 3036 1933)">Template v.2.0</text>
  <text style="stroke:none;fill:black;font-family:-apple-system,&quot;SF Pro Display&quot;,&quot;SF Pro Text&quot;,Helvetica,sans-serif;text-anchor:end;" transform="matrix(1 0 0 1 3036 1951)">Requires Xcode 12 or greater</text>
  <text style="stroke:none;fill:black;font-family:-apple-system,&quot;SF Pro Display&quot;,&quot;SF Pro Text&quot;,Helvetica,sans-serif;text-anchor:end;" transform="matrix(1 0 0 1 3036 1969)">Generated from flag.fill</text>
  <text style="stroke:none;fill:black;font-family:-apple-system,&quot;SF Pro Display&quot;,&quot;SF Pro Text&quot;,Helvetica,sans-serif;text-anchor:end;" transform="matrix(1 0 0 1 3036 1987)">Typeset at 100 points</text>
  <text style="stroke:none;fill:black;font-family:-apple-system,&quot;SF Pro Display&quot;,&quot;SF Pro Text&quot;,Helvetica,sans-serif;" transform="matrix(1 0 0 1 263 726)">Small</text>
  <text style="stroke:none;fill:black;font-family:-apple-system,&quot;SF Pro Display&quot;,&quot;SF Pro Text&quot;,Helvetica,sans-serif;" transform="matrix(1 0 0 1 263 1156)">Medium</text>
  <text style="stroke:none;fill:black;font-family:-apple-system,&quot;SF Pro Display&quot;,&quot;SF Pro Text&quot;,Helvetica,sans-serif;" transform="matrix(1 0 0 1 263 1586)">Large</text>
 </g>
 <g id="Guides">
  <g id="H-reference" style="fill:#27AAE1;stroke:none;" transform="matrix(1 0 0 1 339 696)">
   <path d="M0.976562 0L3.66211 0L12.9883-24.4629L45.752-24.4629L55.127 0L57.7637 0L30.6152-70.459L28.125-70.459ZM29.3457-67.1387L29.4434-67.1387L44.873-26.709L13.8672-26.709Z"/>
  </g>
  <line id="Baseline-S" style="fill:none;stroke:#27AAE1;opacity:1;stroke-width:0.5;" x1="263" x2="3036" y1="696" y2="696"/>
  <line id="Capline-S" style="fill:none;stroke:#27AAE1;opacity:1;stroke-width:0.5;" x1="263" x2="3036" y1="625.541" y2="625.541"/>
  <g id="H-reference" style="fill:#27AAE1;stroke:none;" transform="matrix(1 0 0 1 339 1126)">
   <path d="M0.976562 0L3.66211 0L12.9883-24.4629L45.752-24.4629L55.127 0L57.7637 0L30.6152-70.459L28.125-70.459ZM29.3457-67.1387L29.4434-67.1387L44.873-26.709L13.8672-26.709Z"/>
  </g>
  <line id="Baseline-M" style="fill:none;stroke:#27AAE1;opacity:1;stroke-width:0.5;" x1="263" x2="3036" y1="1126" y2="1126"/>
  <line id="Capline-M" style="fill:none;stroke:#27AAE1;opacity:1;stroke-width:0.5;" x1="263" x2="3036" y1="1055.54" y2="1055.54"/>
  <g id="H-reference" style="fill:#27AAE1;stroke:none;" transform="matrix(1 0 0 1 339 1556)">
   <path d="M0.976562 0L3.66211 0L12.9883-24.4629L45.752-24.4629L55.127 0L57.7637 0L30.6152-70.459L28.125-70.459ZM29.3457-67.1387L29.4434-67.1387L44.873-26.709L13.8672-26.709Z"/>
  </g>
  <line id="Baseline-L" style="fill:none;stroke:#27AAE1;opacity:1;stroke-width:0.5;" x1="263" x2="3036" y1="1556" y2="1556"/>
  <line id="Capline-L" style="fill:none;stroke:#27AAE1;opacity:1;stroke-width:0.5;" x1="263" x2="3036" y1="1485.54" y2="1485.54"/>
  <line id="left-margin" style="fill:none;stroke:#00AEEF;stroke-width:0.5;opacity:1.0;" x1="1393.69" x2="1393.69" y1="1030.79" y2="1150.12"/>
  <line id="right-margin" style="fill:none;stroke:#00AEEF;stroke-width:0.5;opacity:1.0;" x1="1506" x2="1506" y1="1030.79" y2="1150.12"/>
 </g>
 <g id="Symbols">
  <g id="Black-L" transform="matrix(1 0 0 1 2858.86 1556)">
   <path d="M27.5391 29.541C32.7148 29.541 37.0605 25.3418 37.0605 20.0195L37.0605-12.3047C39.1113-12.8418 42.627-13.5742 46.875-13.5742C68.5547-13.5742 86.3281-1.9043 108.643-1.9043C118.018-1.9043 124.756-3.61328 129.932-6.05469C135.01-8.49609 137.158-13.3789 137.158-19.6289L137.158-79.0039C137.158-85.4492 132.959-90.0391 126.709-90.0391C121.631-90.0391 116.406-88.3789 108.447-88.3789C87.3047-88.3789 68.3594-100.049 46.6797-100.049C37.8906-100.049 31.7383-98.584 25.6348-95.752C20.6543-93.4082 18.1152-90.1367 18.1152-84.2285L18.1152 20.0195C18.1152 25.2441 22.4121 29.541 27.5391 29.541Z"/>
  </g>
  <g id="Heavy-L" transform="matrix(1 0 0 1 2562.91 1556)">
   <path d="M26.7578 28.6133C31.25 28.6133 34.9609 24.9512 34.9609 20.3613L34.9609-12.8418C36.9629-13.3789 41.0156-14.502 46.582-14.502C68.5547-14.502 85.5469-2.92969 107.812-2.92969C117.188-2.92969 123.242-4.44336 128.271-6.83594C133.105-9.13086 135.4-13.5742 135.4-19.5312L135.4-79.834C135.4-85.498 131.592-89.4043 126.025-89.4043C121.436-89.4043 116.064-87.4512 107.422-87.4512C86.084-87.4512 68.2129-99.0723 46.1914-99.0723C37.2559-99.0723 31.6895-97.7051 25.9277-95.0684C21.1426-92.8223 18.6035-89.5996 18.6035-83.9355L18.6035 20.3613C18.6035 24.9023 22.3145 28.6133 26.7578 28.6133Z"/>
  </g>
  <g id="Bold-L" transform="matrix(1 0 0 1 2267 1556)">
   <path d="M25.8789 27.5879C29.5898 27.5879 32.666 24.5605 32.666 20.752L32.666-13.4277C34.5703-13.9648 39.2578-15.5762 46.2402-15.5762C68.6035-15.5762 84.6191-4.05273 106.836-4.05273C116.26-4.05273 121.533-5.41992 126.416-7.71484C131.006-9.86328 133.447-13.7695 133.447-19.4336L133.447-80.7129C133.447-85.5469 130.078-88.6719 125.293-88.6719C121.24-88.6719 115.723-86.4746 106.348-86.4746C84.668-86.4746 68.0664-97.998 45.7031-97.998C36.5723-97.998 31.5918-96.7285 26.2207-94.2871C21.7285-92.1875 19.0918-89.0625 19.0918-83.5449L19.0918 20.752C19.0918 24.4629 22.168 27.5879 25.8789 27.5879Z"/>
  </g>
  <g id="Semibold-L" transform="matrix(1 0 0 1 1970.88 1556)">
   <path d="M25.2441 26.8555C28.4668 26.8555 31.0547 24.2676 31.0547 21.0449L31.0547-13.8184C32.959-14.4043 38.0859-16.2598 45.9961-16.2598C68.6035-16.2598 83.9844-4.83398 106.152-4.83398C115.625-4.83398 120.361-6.10352 125.146-8.30078C129.541-10.3516 132.08-13.916 132.08-19.3848L132.08-81.3477C132.08-85.5469 129.004-88.1836 124.756-88.1836C121.094-88.1836 115.479-85.791 105.566-85.791C83.7402-85.791 67.9688-97.2656 45.3613-97.2656C36.084-97.2656 31.543-96.0449 26.4648-93.75C22.0703-91.748 19.4824-88.6719 19.4824-83.3008L19.4824 21.0449C19.4824 24.2188 22.1191 26.8555 25.2441 26.8555Z"/>
  </g>
  <g id="Medium-L" transform="matrix(1 0 0 1 1674.58 1556)">
   <path d="M24.8047 26.3184C27.5879 26.3184 29.834 24.0723 29.834 21.2402L29.834-14.1602C31.6895-14.6973 37.1582-16.8457 45.8008-16.8457C68.6035-16.8457 83.4961-5.41992 105.664-5.41992C115.137-5.41992 119.482-6.5918 124.219-8.74023C128.467-10.6934 131.055-14.0137 131.055-19.3359L131.055-81.8359C131.055-85.5469 128.223-87.8418 124.365-87.8418C120.996-87.8418 115.283-85.3027 104.98-85.3027C83.0078-85.3027 67.9199-96.6797 45.1172-96.6797C35.7422-96.6797 31.4941-95.5566 26.6113-93.3594C22.3633-91.4062 19.7266-88.3789 19.7266-83.1055L19.7266 21.2402C19.7266 23.9746 22.0215 26.3184 24.8047 26.3184Z"/>
  </g>
  <g id="Regular-L" transform="matrix(1 0 0 1 1378.43 1556)">
   <path d="M24.1699 25.6348C26.4648 25.6348 28.2715 23.7793 28.2715 21.4844L28.2715-14.5508C30.0781-15.0879 35.9375-17.5293 45.5566-17.5293C68.6523-17.5293 82.9102-6.20117 104.98-6.20117C114.502-6.20117 118.359-7.27539 122.949-9.32617C127.002-11.1816 129.688-14.1602 129.688-19.2871L129.688-82.4219C129.688-85.5957 127.148-87.3535 123.877-87.3535C120.85-87.3535 115.039-84.6191 104.199-84.6191C82.0801-84.6191 67.8223-95.9473 44.7754-95.9473C35.2539-95.9473 31.4453-94.873 26.8555-92.8223C22.7539-90.9668 20.0684-87.9883 20.0684-82.8613L20.0684 21.4844C20.0684 23.7305 21.9727 25.6348 24.1699 25.6348Z"/>
  </g>
  <g id="Light-L" transform="matrix(1 0 0 1 1083.16 1556)">
   <path d="M23.7305 24.2188C25.4883 24.2188 26.9043 22.8027 26.9043 21.0449L26.9043-16.5039C28.9551-16.8457 34.8145-19.4824 44.9219-19.4824C67.5781-19.4824 81.3965-8.20312 103.467-8.20312C112.5-8.20312 116.553-9.32617 120.898-11.2793C124.609-12.9883 127.051-15.5273 127.051-19.7266L127.051-81.7871C127.051-84.6191 125-86.0352 122.266-86.0352C119.336-86.0352 113.574-83.252 102.686-83.252C80.6152-83.252 66.7969-94.4824 44.1406-94.4824C35.1074-94.4824 31.0547-93.4082 26.709-91.4551C22.998-89.7461 20.5566-87.207 20.5566-82.959L20.5566 21.0449C20.5566 22.7539 22.0215 24.2188 23.7305 24.2188Z"/>
  </g>
  <g id="Thin-L" transform="matrix(1 0 0 1 788.356 1556)">
   <path d="M23.1445 22.4121C24.2188 22.4121 25.0977 21.5332 25.0977 20.4102L25.0977-19.0918C27.4902-19.1406 33.3008-22.0215 44.043-22.0215C66.2109-22.0215 79.3945-10.9375 101.367-10.9375C109.814-10.9375 114.16-12.0117 118.115-13.8184C121.387-15.332 123.584-17.334 123.584-20.3613L123.584-80.957C123.584-83.3008 122.168-84.375 120.166-84.375C117.383-84.375 111.572-81.4453 100.684-81.4453C78.6133-81.4453 65.4297-92.5781 43.3105-92.5781C34.8633-92.5781 30.5176-91.4551 26.5625-89.6484C23.3398-88.1348 21.1426-86.1328 21.1426-83.1055L21.1426 20.4102C21.1426 21.4355 22.1191 22.4121 23.1445 22.4121Z"/>
  </g>
  <g id="Ultralight-L" transform="matrix(1 0 0 1 492.621 1556)">
   <path d="M22.8516 21.4355C23.584 21.4355 24.1699 20.8496 24.1699 20.0684L24.1699-20.3613C26.7578-20.3125 32.5195-23.3398 43.6035-23.3398C65.5273-23.3398 78.418-12.3047 100.342-12.3047C108.447-12.3047 112.988-13.4277 116.748-15.1367C119.775-16.5527 121.777-18.2617 121.777-20.7031L121.777-80.5176C121.777-82.6172 120.752-83.4961 119.043-83.4961C116.357-83.4961 110.547-80.5176 99.6094-80.5176C77.5879-80.5176 64.6973-91.5527 42.9199-91.5527C34.7656-91.5527 30.2734-90.4297 26.5137-88.7207C23.4863-87.3047 21.4844-85.5957 21.4844-83.1543L21.4844 20.0684C21.4844 20.8008 22.1191 21.4355 22.8516 21.4355Z"/>
  </g>
  <g id="Black-M" transform="matrix(1 0 0 1 2875.42 1126)">
   <path d="M22.2168 15.4297C26.8555 15.4297 30.7617 11.6699 30.7617 6.88477L30.7617-17.7734C32.6172-18.0664 34.5215-18.2129 36.4258-18.2129C52.5391-18.2129 67.1875-9.13086 84.5215-9.13086C91.5039-9.13086 97.7539-10.6445 101.807-12.6465C105.859-14.6484 107.275-18.7988 107.275-23.5352L107.275-67.7246C107.275-73.584 103.76-77.9297 98.2422-77.9297C93.7012-77.9297 89.8438-76.8555 84.5703-76.8555C68.5059-76.8555 52.5879-85.9863 36.4258-85.9863C30.0781-85.9863 24.4629-84.7168 19.3848-82.3242C15.4785-80.4688 13.6719-78.0273 13.6719-73.6816L13.6719 6.88477C13.6719 11.6211 17.5293 15.4297 22.2168 15.4297Z"/>
  </g>
  <g id="Heavy-M" transform="matrix(1 0 0 1 2579.14 1126)">
   <path d="M21.4355 14.7949C25.4883 14.7949 28.8574 11.5234 28.8574 7.37305L28.8574-17.8711C30.5664-18.2129 33.1055-18.75 36.2305-18.75C52.832-18.75 66.6992-9.7168 83.9844-9.7168C91.1133-9.7168 96.582-11.0352 100.537-12.9883C104.443-14.8438 106.055-18.6523 106.055-23.291L106.055-68.7988C106.055-73.877 102.832-77.5391 97.9004-77.5391C93.8965-77.5391 89.8926-76.2695 83.8867-76.2695C67.5293-76.2695 52.6855-85.3027 36.084-85.3027C29.4922-85.3027 24.5117-84.1309 19.7754-81.9336C15.9668-80.127 14.0625-77.6855 14.0625-73.3398L14.0625 7.37305C14.0625 11.4746 17.3828 14.7949 21.4355 14.7949Z"/>
  </g>
  <g id="Bold-M" transform="matrix(1 0 0 1 2282.9 1126)">
   <path d="M20.6055 14.0625C23.9746 14.0625 26.709 11.377 26.709 7.95898L26.709-17.9199C28.2715-18.3594 31.543-19.3359 36.0352-19.3359C53.1738-19.3359 66.1621-10.3516 83.3984-10.3516C90.6738-10.3516 95.2637-11.5234 99.1211-13.3301C102.832-15.0879 104.639-18.457 104.639-23.0469L104.639-69.9707C104.639-74.2188 101.758-77.0996 97.5586-77.0996C94.0918-77.0996 89.9414-75.5859 83.1055-75.5859C66.5039-75.5859 52.8809-84.5215 35.7422-84.5215C28.7598-84.5215 24.5117-83.4961 20.1172-81.4941C16.5039-79.7852 14.502-77.2949 14.502-72.9004L14.502 7.95898C14.502 11.3281 17.2363 14.0625 20.6055 14.0625Z"/>
  </g>
  <g id="Semibold-M" transform="matrix(1 0 0 1 1986.53 1126)">
   <path d="M20.0195 13.5742C22.9004 13.5742 25.2441 11.2793 25.2441 8.34961L25.2441-18.0176C26.709-18.457 30.4199-19.7266 35.8887-19.7266C53.3691-19.7266 65.7715-10.791 82.959-10.791C90.3809-10.791 94.3359-11.8164 98.1445-13.623C101.758-15.2832 103.711-18.3105 103.711-22.9004L103.711-70.752C103.711-74.4141 101.025-76.8555 97.3145-76.8555C94.2383-76.8555 89.9414-75.0977 82.5684-75.0977C65.7715-75.0977 52.9785-84.0332 35.498-84.0332C28.2715-84.0332 24.5605-83.0566 20.4102-81.1523C16.8457-79.541 14.7949-77.0508 14.7949-72.6074L14.7949 8.34961C14.7949 11.1816 17.1387 13.5742 20.0195 13.5742Z"/>
  </g>
  <g id="Medium-M" transform="matrix(1 0 0 1 1690.06 1126)">
   <path d="M19.5801 13.1836C22.0703 13.1836 24.1211 11.1816 24.1211 8.64258L24.1211-18.0664C25.4883-18.5547 29.5898-20.0195 35.791-20.0195C53.5645-20.0195 65.4785-11.1328 82.666-11.1328C90.1855-11.1328 93.6523-12.0605 97.4121-13.8184C100.928-15.3809 102.979-18.2617 102.979-22.7539L102.979-71.3867C102.979-74.6094 100.488-76.6113 97.168-76.6113C94.3848-76.6113 89.9902-74.7559 82.1777-74.7559C65.1855-74.7559 53.0273-83.6426 35.3027-83.6426C27.9297-83.6426 24.5605-82.7148 20.6055-80.957C17.1387-79.3457 14.9902-76.8066 14.9902-72.3633L14.9902 8.64258C14.9902 11.1328 17.0898 13.1836 19.5801 13.1836Z"/>
  </g>
  <g id="Regular-M" transform="matrix(1 0 0 1 1393.69 1126)">
   <path d="M18.9941 12.6953C21.0449 12.6953 22.7051 11.084 22.7051 9.0332L22.7051-18.1152C23.9258-18.6523 28.5156-20.4102 35.6934-20.4102C53.7598-20.4102 65.0879-11.5723 82.2754-11.5723C89.8926-11.5723 92.7246-12.4023 96.4355-14.0625C99.8047-15.5762 102.002-18.1152 102.002-22.6074L102.002-72.168C102.002-74.8047 99.7559-76.3184 96.9238-76.3184C94.5312-76.3184 90.0391-74.2676 81.6406-74.2676C64.4531-74.2676 53.1738-83.1055 35.0586-83.1055C27.4414-83.1055 24.5605-82.2754 20.8496-80.6152C17.4805-79.1016 15.2832-76.5625 15.2832-72.1191L15.2832 9.0332C15.2832 11.0352 16.9922 12.6953 18.9941 12.6953Z"/>
  </g>
  <g id="Light-M" transform="matrix(1 0 0 1 1098.27 1126)">
   <path d="M18.6035 11.4746C20.166 11.4746 21.4355 10.2051 21.4355 8.59375L21.4355-19.8242C22.9492-20.2148 27.4902-22.168 35.1074-22.168C52.832-22.168 63.7695-13.3789 80.8594-13.3789C88.0859-13.3789 91.1133-14.209 94.5801-15.8203C97.6562-17.1875 99.6582-19.3359 99.6582-22.998L99.6582-71.582C99.6582-73.9258 97.8516-75.1953 95.459-75.1953C93.1641-75.1953 88.6719-73.0469 80.2734-73.0469C63.1348-73.0469 52.2461-81.7871 34.5215-81.7871C27.2949-81.7871 24.2188-80.957 20.752-79.3945C17.7246-78.0273 15.7227-75.8301 15.7227-72.168L15.7227 8.59375C15.7227 10.1562 17.041 11.4746 18.6035 11.4746Z"/>
  </g>
  <g id="Thin-M" transform="matrix(1 0 0 1 803.273 1126)">
   <path d="M18.0664 9.81445C19.043 9.81445 19.8242 9.0332 19.8242 8.00781L19.8242-22.168C21.6309-22.2656 26.123-24.4629 34.3262-24.4629C51.6113-24.4629 61.9629-15.8203 79.0039-15.8203C85.6934-15.8203 89.0137-16.6504 92.1387-18.1152C94.7754-19.2871 96.5332-20.9961 96.5332-23.584L96.5332-70.8496C96.5332-72.7539 95.3125-73.6816 93.5547-73.6816C91.4062-73.6816 86.9141-71.4355 78.4668-71.4355C61.3281-71.4355 50.9766-80.0781 33.7402-80.0781C27.0996-80.0781 23.7793-79.1992 20.6055-77.7832C18.0176-76.5625 16.2598-74.9023 16.2598-72.3145L16.2598 8.00781C16.2598 8.98438 17.0898 9.81445 18.0664 9.81445Z"/>
  </g>
  <g id="Ultralight-M" transform="matrix(1 0 0 1 507.441 1126)">
   <path d="M17.8223 8.98438C18.457 8.98438 18.9941 8.44727 18.9941 7.71484L18.9941-23.3398C20.9473-23.3398 25.4395-25.6348 33.9355-25.6348C50.9766-25.6348 61.084-17.041 78.0762-17.041C84.4727-17.041 87.8906-17.9199 90.8691-19.2871C93.3105-20.4102 94.9219-21.8262 94.9219-23.877L94.9219-70.459C94.9219-72.168 93.9941-72.9004 92.5781-72.9004C90.4785-72.9004 85.9863-70.6055 77.5391-70.6055C60.4492-70.6055 50.3906-79.1992 33.3984-79.1992C27.002-79.1992 23.5352-78.3203 20.5566-76.9531C18.1641-75.8301 16.5527-74.4141 16.5527-72.3633L16.5527 7.71484C16.5527 8.39844 17.1387 8.98438 17.8223 8.98438Z"/>
  </g>
  <g id="Black-S" transform="matrix(1 0 0 1 2887.99 696)">
   <path d="M17.334 4.44336C20.9473 4.44336 23.9746 1.51367 23.9746-2.19727L23.9746-21.5332C25.3906-21.7773 26.9531-21.9238 28.5156-21.9238C41.2109-21.9238 52.6367-14.7949 66.2109-14.7949C71.6797-14.7949 76.5137-15.9668 79.6875-17.5293C82.8613-19.0918 83.9844-22.3145 83.9844-26.0254L83.9844-60.791C83.9844-65.332 81.25-68.6523 76.9531-68.6523C73.4375-68.6523 70.4102-67.8223 66.2109-67.8223C53.6133-67.8223 41.2109-74.9512 28.5156-74.9512C23.5352-74.9512 19.1895-73.9746 15.2344-72.1191C12.1582-70.6543 10.7422-68.75 10.7422-65.332L10.7422-2.19727C10.7422 1.46484 13.7207 4.44336 17.334 4.44336Z"/>
  </g>
  <g id="Heavy-S" transform="matrix(1 0 0 1 2591.47 696)">
   <path d="M16.7969 4.10156C19.9707 4.10156 22.6562 1.51367 22.6562-1.75781L22.6562-21.3867C23.9258-21.7285 25.9766-22.1191 28.4668-22.1191C41.5527-22.1191 52.3926-15.0391 65.9668-15.0391C71.582-15.0391 75.7812-16.0645 78.9062-17.5781C82.0312-19.0918 83.3008-22.0703 83.3008-25.8301L83.3008-61.6699C83.3008-65.625 80.7617-68.5059 76.8555-68.5059C73.7305-68.5059 70.6055-67.4805 65.8203-67.4805C53.0273-67.4805 41.4062-74.5605 28.3203-74.5605C23.0469-74.5605 19.2383-73.6816 15.5273-71.9238C12.5-70.5566 10.9863-68.5547 10.9863-65.0391L10.9863-1.75781C10.9863 1.46484 13.623 4.10156 16.7969 4.10156Z"/>
  </g>
  <g id="Bold-S" transform="matrix(1 0 0 1 2294.96 696)">
   <path d="M16.2109 3.71094C18.9453 3.71094 21.1914 1.51367 21.1914-1.26953L21.1914-21.2402C22.3145-21.6309 24.9023-22.3633 28.3691-22.3633C41.8945-22.3633 52.1484-15.2832 65.6738-15.2832C71.4844-15.2832 74.9512-16.2109 78.0762-17.6758C81.0547-19.0918 82.5195-21.7773 82.5195-25.5859L82.5195-62.6465C82.5195-66.0156 80.1758-68.3105 76.8066-68.3105C74.0723-68.3105 70.8008-67.1387 65.4297-67.1387C52.3926-67.1387 41.6504-74.1699 28.125-74.1699C22.5586-74.1699 19.2871-73.3398 15.8203-71.7773C12.8906-70.4102 11.2793-68.3594 11.2793-64.6973L11.2793-1.26953C11.2793 1.46484 13.5254 3.71094 16.2109 3.71094Z"/>
  </g>
  <g id="Semibold-S" transform="matrix(1 0 0 1 1998.39 696)">
   <path d="M15.7715 3.41797C18.2129 3.41797 20.166 1.46484 20.166-0.927734L20.166-21.1426C21.1914-21.582 24.1699-22.5098 28.3203-22.5098C42.1387-22.5098 51.9531-15.4785 65.4785-15.4785C71.4355-15.4785 74.4141-16.3086 77.4902-17.7246C80.4199-19.043 81.9824-21.582 81.9824-25.3906L81.9824-63.2812C81.9824-66.2598 79.7852-68.2129 76.7578-68.2129C74.3164-68.2129 70.9473-66.8457 65.1367-66.8457C51.9531-66.8457 41.7969-73.877 27.9785-73.877C22.168-73.877 19.3359-73.1445 16.0156-71.6309C13.1348-70.3125 11.4746-68.2129 11.4746-64.4531L11.4746-0.927734C11.4746 1.41602 13.4277 3.41797 15.7715 3.41797Z"/>
  </g>
  <g id="Medium-S" transform="matrix(1 0 0 1 1701.78 696)">
   <path d="M15.4785 3.22266C17.627 3.22266 19.3848 1.46484 19.3848-0.683594L19.3848-21.0938C20.3613-21.5332 23.584-22.6074 28.2715-22.6074C42.334-22.6074 51.8066-15.625 65.332-15.625C71.3867-15.625 73.9746-16.3574 77.0508-17.7734C79.8828-19.043 81.5918-21.4355 81.5918-25.293L81.5918-63.8184C81.5918-66.4062 79.4922-68.1152 76.709-68.1152C74.4629-68.1152 71.0449-66.6504 64.8926-66.6504C51.6113-66.6504 41.9434-73.6816 27.8809-73.6816C21.9238-73.6816 19.3848-72.9492 16.1621-71.5332C13.3301-70.2148 11.5723-68.1152 11.5723-64.3066L11.5723-0.683594C11.5723 1.41602 13.3789 3.22266 15.4785 3.22266Z"/>
  </g>
  <g id="Regular-S" transform="matrix(1 0 0 1 1405.22 696)">
   <path d="M15.0879 2.92969C16.8945 2.92969 18.3594 1.46484 18.3594-0.341797L18.3594-20.9961C19.2383-21.4844 22.8516-22.8027 28.2227-22.8027C42.5781-22.8027 51.6602-15.8203 65.1367-15.8203C71.2891-15.8203 73.4375-16.4551 76.4648-17.8223C79.248-19.043 81.0547-21.2402 81.0547-25.0977L81.0547-64.4531C81.0547-66.6504 79.1016-67.9688 76.6113-67.9688C74.707-67.9688 71.1914-66.4062 64.6484-66.4062C51.1719-66.4062 42.0898-73.3887 27.7344-73.3887C21.582-73.3887 19.4336-72.7539 16.4062-71.3867C13.623-70.166 11.7676-67.9688 11.7676-64.0625L11.7676-0.341797C11.7676 1.41602 13.2812 2.92969 15.0879 2.92969Z"/>
  </g>
  <g id="Light-S" transform="matrix(1 0 0 1 1109.65 696)">
   <path d="M14.7461 1.85547C16.1621 1.85547 17.2852 0.683594 17.2852-0.732422L17.2852-22.5098C18.3594-22.8516 21.9238-24.3164 27.7344-24.3164C41.748-24.3164 50.4395-17.4316 63.8672-17.4316C69.7266-17.4316 72.0215-18.0664 74.8047-19.3359C77.3438-20.459 79.0039-22.3145 79.0039-25.4883L79.0039-63.9648C79.0039-65.8691 77.3926-66.9922 75.3418-66.9922C73.4863-66.9922 69.9707-65.332 63.4277-65.332C49.9512-65.332 41.2598-72.2168 27.2461-72.2168C21.4355-72.2168 19.1406-71.582 16.3086-70.3125C13.8184-69.1895 12.1582-67.334 12.1582-64.1602L12.1582-0.732422C12.1582 0.634766 13.3301 1.85547 14.7461 1.85547Z"/>
  </g>
  <g id="Thin-S" transform="matrix(1 0 0 1 814.454 696)">
   <path d="M14.2578 0.390625C15.1367 0.390625 15.8691-0.341797 15.8691-1.2207L15.8691-24.5605C17.1875-24.6582 20.752-26.3672 27.0508-26.3672C40.6738-26.3672 48.877-19.5312 62.2559-19.5312C67.5781-19.5312 70.1172-20.2148 72.6562-21.3867C74.8047-22.3633 76.2207-23.7305 76.2207-25.9766L76.2207-63.2812C76.2207-64.8438 75.1465-65.625 73.6816-65.625C71.9238-65.625 68.4082-63.916 61.8164-63.916C48.3887-63.916 40.1855-70.7031 26.6113-70.7031C21.2402-70.7031 18.7012-70.0195 16.2109-68.8965C14.0625-67.9199 12.6465-66.5039 12.6465-64.2578L12.6465-1.2207C12.6465-0.390625 13.3789 0.390625 14.2578 0.390625Z"/>
  </g>
  <g id="Ultralight-S" transform="matrix(1 0 0 1 518.525 696)">
   <path d="M14.0137-0.341797C14.5996-0.341797 15.0879-0.878906 15.0879-1.51367L15.0879-25.5859C16.6016-25.6348 20.1172-27.3926 26.709-27.3926C40.1367-27.3926 48.0957-20.6543 61.4258-20.6543C66.5039-20.6543 69.1895-21.3379 71.5332-22.4121C73.4863-23.291 74.8047-24.5117 74.8047-26.2695L74.8047-62.9395C74.8047-64.3066 73.9746-64.9414 72.8027-64.9414C71.1426-64.9414 67.627-63.1348 60.9863-63.1348C47.6074-63.1348 39.6484-69.9219 26.2695-69.9219C21.1426-69.9219 18.5059-69.2383 16.1133-68.1152C14.1602-67.2363 12.8906-66.0645 12.8906-64.3066L12.8906-1.51367C12.8906-0.927734 13.4277-0.341797 14.0137-0.341797Z"/>
  </g>
 </g>
</svg>
