<?xml version="1.0" encoding="UTF-8"?>
<!--Generator: Apple Native CoreSVG 149-->
<!DOCTYPE svg
PUBLIC "-//W3C//DTD SVG 1.1//EN"
       "http://www.w3.org/Graphics/SVG/1.1/DTD/svg11.dtd">
<svg version="1.1" xmlns="http://www.w3.org/2000/svg" xmlns:xlink="http://www.w3.org/1999/xlink" width="3300" height="2200">
 <!--glyph: "uni1002CC.medium", point size: 100.000000, font version: "Version 16.0d18e1", template writer version: "8"-->
 <g id="Notes">
  <rect height="2200" id="artboard" style="fill:white;opacity:1" width="3300" x="0" y="0"/>
  <line id="" style="fill:none;stroke:black;opacity:1;stroke-width:0.5;" x1="263" x2="3036" y1="292" y2="292"/>
  <text style="stroke:none;fill:black;font-family:-apple-system,&quot;SF Pro Display&quot;,&quot;SF Pro Text&quot;,Helvetica,sans-serif;font-weight:bold;" transform="matrix(1 0 0 1 263 322)">Weight/Scale Variations</text>
  <text style="stroke:none;fill:black;font-family:-apple-system,&quot;SF Pro Display&quot;,&quot;SF Pro Text&quot;,Helvetica,sans-serif;text-anchor:middle;" transform="matrix(1 0 0 1 559.711 322)">Ultralight</text>
  <text style="stroke:none;fill:black;font-family:-apple-system,&quot;SF Pro Display&quot;,&quot;SF Pro Text&quot;,Helvetica,sans-serif;text-anchor:middle;" transform="matrix(1 0 0 1 856.422 322)">Thin</text>
  <text style="stroke:none;fill:black;font-family:-apple-system,&quot;SF Pro Display&quot;,&quot;SF Pro Text&quot;,Helvetica,sans-serif;text-anchor:middle;" transform="matrix(1 0 0 1 1153.13 322)">Light</text>
  <text style="stroke:none;fill:black;font-family:-apple-system,&quot;SF Pro Display&quot;,&quot;SF Pro Text&quot;,Helvetica,sans-serif;text-anchor:middle;" transform="matrix(1 0 0 1 1449.84 322)">Regular</text>
  <text style="stroke:none;fill:black;font-family:-apple-system,&quot;SF Pro Display&quot;,&quot;SF Pro Text&quot;,Helvetica,sans-serif;text-anchor:middle;" transform="matrix(1 0 0 1 1746.56 322)">Medium</text>
  <text style="stroke:none;fill:black;font-family:-apple-system,&quot;SF Pro Display&quot;,&quot;SF Pro Text&quot;,Helvetica,sans-serif;text-anchor:middle;" transform="matrix(1 0 0 1 2043.27 322)">Semibold</text>
  <text style="stroke:none;fill:black;font-family:-apple-system,&quot;SF Pro Display&quot;,&quot;SF Pro Text&quot;,Helvetica,sans-serif;text-anchor:middle;" transform="matrix(1 0 0 1 2339.98 322)">Bold</text>
  <text style="stroke:none;fill:black;font-family:-apple-system,&quot;SF Pro Display&quot;,&quot;SF Pro Text&quot;,Helvetica,sans-serif;text-anchor:middle;" transform="matrix(1 0 0 1 2636.69 322)">Heavy</text>
  <text style="stroke:none;fill:black;font-family:-apple-system,&quot;SF Pro Display&quot;,&quot;SF Pro Text&quot;,Helvetica,sans-serif;text-anchor:middle;" transform="matrix(1 0 0 1 2933.4 322)">Black</text>
  <line id="" style="fill:none;stroke:black;opacity:1;stroke-width:0.5;" x1="263" x2="3036" y1="1903" y2="1903"/>
  <g id="" transform="matrix(1 0 0 1 263 1933)">
   <path d="M9.24805 0.830078C13.5547 0.830078 17.1387-2.74414 17.1387-7.05078C17.1387-11.3574 13.5449-14.9316 9.23828-14.9316C4.94141-14.9316 1.36719-11.3574 1.36719-7.05078C1.36719-2.74414 4.95117 0.830078 9.24805 0.830078ZM9.24805-0.654297C5.70312-0.654297 2.87109-3.49609 2.87109-7.05078C2.87109-10.6055 5.69336-13.4473 9.23828-13.4473C12.793-13.4473 15.6348-10.6055 15.6445-7.05078C15.6543-3.49609 12.8027-0.654297 9.24805-0.654297ZM6.39648-6.31836L8.50586-6.31836L8.50586-4.19922C8.50586-3.75977 8.79883-3.45703 9.22852-3.45703C9.67773-3.45703 9.9707-3.75977 9.9707-4.19922L9.9707-6.31836L12.0996-6.31836C12.5391-6.31836 12.8418-6.61133 12.8418-7.04102C12.8418-7.48047 12.5391-7.7832 12.0996-7.7832L9.9707-7.7832L9.9707-9.89258C9.9707-10.3418 9.67773-10.6445 9.22852-10.6445C8.79883-10.6445 8.50586-10.3418 8.50586-9.89258L8.50586-7.7832L6.39648-7.7832C5.94727-7.7832 5.64453-7.48047 5.64453-7.04102C5.64453-6.61133 5.94727-6.31836 6.39648-6.31836Z"/>
  </g>
  <g id="" transform="matrix(1 0 0 1 281.506 1933)">
   <path d="M11.709 2.91016C17.1582 2.91016 21.6699-1.61133 21.6699-7.05078C21.6699-12.5 17.1484-17.0117 11.6992-17.0117C6.25977-17.0117 1.74805-12.5 1.74805-7.05078C1.74805-1.61133 6.26953 2.91016 11.709 2.91016ZM11.709 1.25C7.09961 1.25 3.41797-2.44141 3.41797-7.05078C3.41797-11.6602 7.08984-15.3516 11.6992-15.3516C16.3086-15.3516 20-11.6602 20.0098-7.05078C20.0195-2.44141 16.3184 1.25 11.709 1.25ZM7.98828-6.23047L10.8789-6.23047L10.8789-3.32031C10.8789-2.83203 11.2109-2.5 11.6895-2.5C12.1777-2.5 12.5195-2.83203 12.5195-3.32031L12.5195-6.23047L15.4297-6.23047C15.918-6.23047 16.25-6.5625 16.25-7.04102C16.25-7.5293 15.918-7.87109 15.4297-7.87109L12.5195-7.87109L12.5195-10.7617C12.5195-11.2695 12.1777-11.6016 11.6895-11.6016C11.2109-11.6016 10.8789-11.2598 10.8789-10.7617L10.8789-7.87109L7.98828-7.87109C7.48047-7.87109 7.14844-7.5293 7.14844-7.04102C7.14844-6.5625 7.49023-6.23047 7.98828-6.23047Z"/>
  </g>
  <g id="" transform="matrix(1 0 0 1 304.924 1933)">
   <path d="M14.9707 5.66406C21.9336 5.66406 27.6953-0.0976562 27.6953-7.05078C27.6953-14.0137 21.9238-19.7754 14.9609-19.7754C8.00781-19.7754 2.25586-14.0137 2.25586-7.05078C2.25586-0.0976562 8.01758 5.66406 14.9707 5.66406ZM14.9707 3.84766C8.93555 3.84766 4.08203-1.01562 4.08203-7.05078C4.08203-13.0957 8.92578-17.9492 14.9609-17.9492C21.0059-17.9492 25.8594-13.0957 25.8691-7.05078C25.8789-1.01562 21.0156 3.84766 14.9707 3.84766ZM10.0586-6.14258L14.0625-6.14258L14.0625-2.12891C14.0625-1.5918 14.4336-1.2207 14.9512-1.2207C15.4883-1.2207 15.8594-1.5918 15.8594-2.12891L15.8594-6.14258L19.8828-6.14258C20.4102-6.14258 20.791-6.51367 20.791-7.03125C20.791-7.56836 20.4199-7.94922 19.8828-7.94922L15.8594-7.94922L15.8594-11.9531C15.8594-12.5098 15.4883-12.8809 14.9512-12.8809C14.4336-12.8809 14.0625-12.5 14.0625-11.9531L14.0625-7.94922L10.0586-7.94922C9.50195-7.94922 9.13086-7.56836 9.13086-7.03125C9.13086-6.51367 9.51172-6.14258 10.0586-6.14258Z"/>
  </g>
  <text style="stroke:none;fill:black;font-family:-apple-system,&quot;SF Pro Display&quot;,&quot;SF Pro Text&quot;,Helvetica,sans-serif;font-weight:bold;" transform="matrix(1 0 0 1 263 1953)">Design Variations</text>
  <text style="stroke:none;fill:black;font-family:-apple-system,&quot;SF Pro Display&quot;,&quot;SF Pro Text&quot;,Helvetica,sans-serif;" transform="matrix(1 0 0 1 263 1971)">Symbols are supported in up to nine weights and three scales.</text>
  <text style="stroke:none;fill:black;font-family:-apple-system,&quot;SF Pro Display&quot;,&quot;SF Pro Text&quot;,Helvetica,sans-serif;" transform="matrix(1 0 0 1 263 1989)">For optimal layout with text and other symbols, vertically align</text>
  <text style="stroke:none;fill:black;font-family:-apple-system,&quot;SF Pro Display&quot;,&quot;SF Pro Text&quot;,Helvetica,sans-serif;" transform="matrix(1 0 0 1 263 2007)">symbols with the adjacent text.</text>
  <line id="" style="fill:none;stroke:#00AEEF;stroke-width:0.5;opacity:1.0;" x1="776" x2="776" y1="1919" y2="1933"/>
  <g id="" transform="matrix(1 0 0 1 776 1933)">
   <path d="M3.31055 0.126953C3.82812 0.126953 4.08203-0.0683594 4.26758-0.605469L5.52734-4.0625L11.2891-4.0625L12.5488-0.605469C12.7344-0.0683594 12.9883 0.126953 13.4961 0.126953C14.0137 0.126953 14.3457-0.185547 14.3457-0.673828C14.3457-0.839844 14.3164-0.986328 14.2383-1.20117L9.6582-13.3887C9.43359-13.9941 9.0332-14.2871 8.4082-14.2871C7.80273-14.2871 7.39258-13.9941 7.17773-13.3984L2.59766-1.19141C2.51953-0.976562 2.49023-0.830078 2.49023-0.664062C2.49023-0.175781 2.80273 0.126953 3.31055 0.126953ZM6.00586-5.53711L8.37891-12.1094L8.42773-12.1094L10.8008-5.53711Z"/>
  </g>
  <line id="" style="fill:none;stroke:#00AEEF;stroke-width:0.5;opacity:1.0;" x1="792.836" x2="792.836" y1="1919" y2="1933"/>
  <text style="stroke:none;fill:black;font-family:-apple-system,&quot;SF Pro Display&quot;,&quot;SF Pro Text&quot;,Helvetica,sans-serif;font-weight:bold;" transform="matrix(1 0 0 1 776 1953)">Margins</text>
  <text style="stroke:none;fill:black;font-family:-apple-system,&quot;SF Pro Display&quot;,&quot;SF Pro Text&quot;,Helvetica,sans-serif;" transform="matrix(1 0 0 1 776 1971)">Leading and trailing margins on the left and right side of each symbol</text>
  <text style="stroke:none;fill:black;font-family:-apple-system,&quot;SF Pro Display&quot;,&quot;SF Pro Text&quot;,Helvetica,sans-serif;" transform="matrix(1 0 0 1 776 1989)">can be adjusted by modifying the x-location of the margin guidelines.</text>
  <text style="stroke:none;fill:black;font-family:-apple-system,&quot;SF Pro Display&quot;,&quot;SF Pro Text&quot;,Helvetica,sans-serif;" transform="matrix(1 0 0 1 776 2007)">Modifications are automatically applied proportionally to all</text>
  <text style="stroke:none;fill:black;font-family:-apple-system,&quot;SF Pro Display&quot;,&quot;SF Pro Text&quot;,Helvetica,sans-serif;" transform="matrix(1 0 0 1 776 2025)">scales and weights.</text>
  <g id="" transform="matrix(1 0 0 1 1289 1933)">
   <path d="M2.8418 1.86523L4.54102 3.57422C5.40039 4.44336 6.38672 4.38477 7.31445 3.35938L17.4902-7.85156C17.7539-7.76367 18.0273-7.7832 18.3398-7.8418L19.4043-8.03711L20.0684-7.36328L20.0293-6.80664C19.9902-6.30859 20.1172-5.92773 20.6055-5.44922L21.3672-4.70703C21.8457-4.22852 22.4609-4.19922 22.9297-4.66797L25.8398-7.58789C26.3086-8.05664 26.2891-8.65234 25.8105-9.13086L25.0391-9.89258C24.5605-10.3711 24.1895-10.5273 23.7109-10.4883L23.1348-10.4395L22.4902-11.0742L22.7344-12.1973C22.8613-12.7637 22.7051-13.2031 22.1191-13.7891L19.9219-15.9766C16.582-19.2969 12.1484-19.2188 9.25781-16.3281C8.83789-15.918 8.80859-15.3418 9.04297-14.9512C9.27734-14.5898 9.73633-14.3555 10.3809-14.5215C11.8457-14.8633 13.3691-14.9219 14.7949-13.9844L14.209-12.5293C14.0137-12.0508 13.9844-11.6504 14.1113-11.2891L3.04688-0.898438C2.06055 0.0195312 1.98242 0.996094 2.8418 1.86523ZM10.752-15.957C13.1836-17.7344 16.4746-17.4316 18.7012-15.2051L21.1328-12.793C21.3672-12.5586 21.4062-12.373 21.3379-12.0312L21.0156-10.5469L22.5195-9.0625L23.5059-9.12109C23.7598-9.13086 23.8379-9.11133 24.0332-8.91602L24.6094-8.33984L22.168-5.89844L21.5918-6.47461C21.3965-6.66992 21.3672-6.74805 21.377-7.01172L21.4453-7.98828L19.9512-9.47266L18.4277-9.21875C18.1055-9.15039 17.959-9.17969 17.7148-9.41406L15.7129-11.416C15.459-11.6504 15.4297-11.8164 15.5859-12.1875L16.4648-14.2773C14.9023-15.7324 12.8711-16.3574 10.8398-15.7617C10.6836-15.7227 10.625-15.8496 10.752-15.957ZM5.27344 2.30469L4.10156 1.14258C3.63281 0.683594 3.74023 0.341797 4.14062-0.0195312L14.9512-10.1953L16.416-8.71094L6.42578 2.27539C6.07422 2.67578 5.74219 2.77344 5.27344 2.30469Z"/>
  </g>
  <text style="stroke:none;fill:black;font-family:-apple-system,&quot;SF Pro Display&quot;,&quot;SF Pro Text&quot;,Helvetica,sans-serif;font-weight:bold;" transform="matrix(1 0 0 1 1289 1953)">Exporting</text>
  <text style="stroke:none;fill:black;font-family:-apple-system,&quot;SF Pro Display&quot;,&quot;SF Pro Text&quot;,Helvetica,sans-serif;" transform="matrix(1 0 0 1 1289 1971)">Symbols should be outlined when exporting to ensure the</text>
  <text style="stroke:none;fill:black;font-family:-apple-system,&quot;SF Pro Display&quot;,&quot;SF Pro Text&quot;,Helvetica,sans-serif;" transform="matrix(1 0 0 1 1289 1989)">design is preserved when submitting to Xcode.</text>
  <text id="template-version" style="stroke:none;fill:black;font-family:-apple-system,&quot;SF Pro Display&quot;,&quot;SF Pro Text&quot;,Helvetica,sans-serif;text-anchor:end;" transform="matrix(1 0 0 1 3036 1933)">Template v.2.0</text>
  <text style="stroke:none;fill:black;font-family:-apple-system,&quot;SF Pro Display&quot;,&quot;SF Pro Text&quot;,Helvetica,sans-serif;text-anchor:end;" transform="matrix(1 0 0 1 3036 1951)">Requires Xcode 12 or greater</text>
  <text style="stroke:none;fill:black;font-family:-apple-system,&quot;SF Pro Display&quot;,&quot;SF Pro Text&quot;,Helvetica,sans-serif;text-anchor:end;" transform="matrix(1 0 0 1 3036 1969)">Generated from flag.circle.fill</text>
  <text style="stroke:none;fill:black;font-family:-apple-system,&quot;SF Pro Display&quot;,&quot;SF Pro Text&quot;,Helvetica,sans-serif;text-anchor:end;" transform="matrix(1 0 0 1 3036 1987)">Typeset at 100 points</text>
  <text style="stroke:none;fill:black;font-family:-apple-system,&quot;SF Pro Display&quot;,&quot;SF Pro Text&quot;,Helvetica,sans-serif;" transform="matrix(1 0 0 1 263 726)">Small</text>
  <text style="stroke:none;fill:black;font-family:-apple-system,&quot;SF Pro Display&quot;,&quot;SF Pro Text&quot;,Helvetica,sans-serif;" transform="matrix(1 0 0 1 263 1156)">Medium</text>
  <text style="stroke:none;fill:black;font-family:-apple-system,&quot;SF Pro Display&quot;,&quot;SF Pro Text&quot;,Helvetica,sans-serif;" transform="matrix(1 0 0 1 263 1586)">Large</text>
 </g>
 <g id="Guides">
  <g id="H-reference" style="fill:#27AAE1;stroke:none;" transform="matrix(1 0 0 1 339 696)">
   <path d="M0.976562 0L3.66211 0L12.9883-24.4629L45.752-24.4629L55.127 0L57.7637 0L30.6152-70.459L28.125-70.459ZM29.3457-67.1387L29.4434-67.1387L44.873-26.709L13.8672-26.709Z"/>
  </g>
  <line id="Baseline-S" style="fill:none;stroke:#27AAE1;opacity:1;stroke-width:0.5;" x1="263" x2="3036" y1="696" y2="696"/>
  <line id="Capline-S" style="fill:none;stroke:#27AAE1;opacity:1;stroke-width:0.5;" x1="263" x2="3036" y1="625.541" y2="625.541"/>
  <g id="H-reference" style="fill:#27AAE1;stroke:none;" transform="matrix(1 0 0 1 339 1126)">
   <path d="M0.976562 0L3.66211 0L12.9883-24.4629L45.752-24.4629L55.127 0L57.7637 0L30.6152-70.459L28.125-70.459ZM29.3457-67.1387L29.4434-67.1387L44.873-26.709L13.8672-26.709Z"/>
  </g>
  <line id="Baseline-M" style="fill:none;stroke:#27AAE1;opacity:1;stroke-width:0.5;" x1="263" x2="3036" y1="1126" y2="1126"/>
  <line id="Capline-M" style="fill:none;stroke:#27AAE1;opacity:1;stroke-width:0.5;" x1="263" x2="3036" y1="1055.54" y2="1055.54"/>
  <g id="H-reference" style="fill:#27AAE1;stroke:none;" transform="matrix(1 0 0 1 339 1556)">
   <path d="M0.976562 0L3.66211 0L12.9883-24.4629L45.752-24.4629L55.127 0L57.7637 0L30.6152-70.459L28.125-70.459ZM29.3457-67.1387L29.4434-67.1387L44.873-26.709L13.8672-26.709Z"/>
  </g>
  <line id="Baseline-L" style="fill:none;stroke:#27AAE1;opacity:1;stroke-width:0.5;" x1="263" x2="3036" y1="1556" y2="1556"/>
  <line id="Capline-L" style="fill:none;stroke:#27AAE1;opacity:1;stroke-width:0.5;" x1="263" x2="3036" y1="1485.54" y2="1485.54"/>
  <line id="left-margin" style="fill:none;stroke:#00AEEF;stroke-width:0.5;opacity:1.0;" x1="1391.3" x2="1391.3" y1="1030.79" y2="1150.12"/>
  <line id="right-margin" style="fill:none;stroke:#00AEEF;stroke-width:0.5;opacity:1.0;" x1="1508.39" x2="1508.39" y1="1030.79" y2="1150.12"/>
 </g>
 <g id="Symbols">
  <g id="Black-L" transform="matrix(1 0 0 1 2854.05 1556)">
   <path d="M79.3457 32.9102C116.748 32.9102 147.412 2.29492 147.412-35.1074C147.412-72.5586 116.748-103.174 79.2969-103.174C41.8945-103.174 11.2793-72.5586 11.2793-35.1074C11.2793 2.29492 41.9434 32.9102 79.3457 32.9102ZM56.1035-0.732422C53.5156-0.732422 51.2207-2.92969 51.2207-5.61523L51.2207-57.959C51.2207-61.6211 52.8809-64.3555 56.25-65.8203C58.9355-66.9922 61.2793-67.5293 66.0645-67.5293C77.7832-67.5293 84.9609-62.0117 94.9219-62.0117C99.6094-62.0117 102.295-63.2812 104.541-63.2812C108.057-63.2812 110.01-61.377 110.01-58.3008L110.01-27.4902C110.01-23.6328 108.447-21.1426 105.029-19.4824C102.344-18.2129 99.9023-17.8223 95.166-17.8223C84.082-17.8223 77.002-23.2422 66.3086-23.2422C64.1113-23.2422 62.1582-22.9004 60.8398-22.4609L60.8398-5.61523C60.8398-2.83203 58.8379-0.732422 56.1035-0.732422Z"/>
  </g>
  <g id="Heavy-L" transform="matrix(1 0 0 1 2558.39 1556)">
   <path d="M78.2715 31.8848C115.088 31.8848 145.312 1.66016 145.312-35.1562C145.312-71.9238 115.039-102.148 78.2715-102.148C41.4551-102.148 11.2793-71.9238 11.2793-35.1562C11.2793 1.66016 41.5039 31.8848 78.2715 31.8848ZM54.6875-0.732422C52.3438-0.732422 50.293-2.68555 50.293-5.07812L50.293-57.9102C50.293-61.3281 51.9043-63.8184 55.0293-65.2344C57.666-66.3574 59.9121-66.9434 64.7461-66.9434C76.4648-66.9434 83.6914-61.3281 93.8477-61.3281C98.7305-61.3281 101.465-62.6465 103.613-62.6465C106.836-62.6465 108.594-60.8887 108.594-58.1055L108.594-27.0508C108.594-23.4863 107.129-21.1914 103.906-19.6289C101.27-18.3594 98.9258-17.9688 94.1406-17.9688C83.0078-17.9688 75.9277-23.4863 64.9902-23.4863C62.3535-23.4863 60.2051-22.998 58.9355-22.5586L58.9355-5.07812C58.9355-2.63672 57.1289-0.732422 54.6875-0.732422Z"/>
  </g>
  <g id="Bold-L" transform="matrix(1 0 0 1 2262.88 1556)">
   <path d="M77.0996 30.6641C113.232 30.6641 142.92 0.927734 142.92-35.1562C142.92-71.2891 113.184-100.977 77.0508-100.977C40.9668-100.977 11.2793-71.2891 11.2793-35.1562C11.2793 0.927734 41.0156 30.6641 77.0996 30.6641ZM53.0762-0.683594C51.0254-0.683594 49.2676-2.44141 49.2676-4.49219L49.2676-57.9102C49.2676-60.9863 50.7812-63.2812 53.7109-64.5996C56.2012-65.6738 58.3984-66.2598 63.2812-66.2598C74.9512-66.2598 82.2266-60.5957 92.7246-60.5957C97.8027-60.5957 100.586-61.9629 102.588-61.9629C105.518-61.9629 106.982-60.3516 106.982-57.9102L106.982-26.5625C106.982-23.291 105.615-21.1914 102.588-19.7266C100.049-18.5547 97.7539-18.1152 93.0176-18.1152C81.7871-18.1152 74.6582-23.6816 63.5742-23.6816C60.3516-23.6816 58.0566-23.0957 56.7871-22.6562L56.7871-4.49219C56.7871-2.39258 55.2734-0.683594 53.0762-0.683594Z"/>
  </g>
  <g id="Semibold-L" transform="matrix(1 0 0 1 1966.97 1556)">
   <path d="M76.2695 29.834C111.914 29.834 141.309 0.439453 141.309-35.1562C141.309-70.8008 111.865-100.195 76.2695-100.195C40.625-100.195 11.2793-70.8008 11.2793-35.1562C11.2793 0.439453 40.6738 29.834 76.2695 29.834ZM52.002-0.683594C50.1465-0.683594 48.584-2.24609 48.584-4.05273L48.584-57.8613C48.584-60.7422 50-62.8906 52.7832-64.1113C55.1758-65.1855 57.373-65.7715 62.2559-65.7715C73.9258-65.7715 81.2012-60.0586 91.9434-60.0586C97.1191-60.0586 99.9512-61.4258 101.904-61.4258C104.59-61.4258 105.908-59.9609 105.908-57.7637L105.908-26.2207C105.908-23.1934 104.59-21.2402 101.709-19.873C99.2188-18.7012 96.9727-18.2129 92.2363-18.2129C80.957-18.2129 73.8281-23.877 62.5488-23.877C59.0332-23.877 56.5918-23.1934 55.3223-22.7051L55.3223-4.05273C55.3223-2.19727 53.9551-0.683594 52.002-0.683594Z"/>
  </g>
  <g id="Medium-L" transform="matrix(1 0 0 1 1670.87 1556)">
   <path d="M75.6836 29.1992C110.938 29.1992 140.088 0.0976562 140.088-35.1562C140.088-70.459 110.889-99.5605 75.6348-99.5605C40.3809-99.5605 11.2793-70.459 11.2793-35.1562C11.2793 0.0976562 40.3809 29.1992 75.6836 29.1992ZM51.1719-0.683594C49.4629-0.683594 48.0469-2.09961 48.0469-3.75977L48.0469-57.8613C48.0469-60.5469 49.4141-62.5977 52.0996-63.7695C54.4434-64.8438 56.5918-65.4297 61.4746-65.4297C73.1934-65.4297 80.4199-59.668 91.3086-59.668C96.6309-59.668 99.4629-61.084 101.367-61.084C103.906-61.084 105.078-59.7168 105.078-57.666L105.078-25.9766C105.078-23.0957 103.809-21.2402 101.074-19.9219C98.584-18.7988 96.3867-18.3105 91.6504-18.3105C80.3223-18.3105 73.1934-23.9746 61.7676-23.9746C57.959-23.9746 55.4688-23.2422 54.1992-22.7539L54.1992-3.75977C54.1992-2.05078 52.9785-0.683594 51.1719-0.683594Z"/>
  </g>
  <g id="Regular-L" transform="matrix(1 0 0 1 1374.97 1556)">
   <path d="M74.8535 28.418C109.668 28.418 138.477-0.390625 138.477-35.2051C138.477-69.9707 109.619-98.7793 74.8047-98.7793C40.0391-98.7793 11.2793-69.9707 11.2793-35.2051C11.2793-0.390625 40.0879 28.418 74.8535 28.418ZM50.0977-0.683594C48.584-0.683594 47.3633-1.95312 47.3633-3.36914L47.3633-57.8125C47.3633-60.3516 48.6328-62.207 51.1719-63.3301C53.418-64.3555 55.5664-64.9902 60.4492-64.9902C72.168-64.9902 79.4434-59.1309 90.5273-59.1309C95.9473-59.1309 98.8281-60.5957 100.635-60.5957C103.027-60.5957 104.004-59.3262 104.004-57.5195L104.004-25.6348C104.004-22.9492 102.783-21.2891 100.195-20.0195C97.7539-18.8965 95.6055-18.4082 90.8691-18.4082C79.541-18.4082 72.3145-24.1211 60.791-24.1211C56.6406-24.1211 54.0039-23.3398 52.7344-22.8027L52.7344-3.36914C52.7344-1.9043 51.6602-0.683594 50.0977-0.683594Z"/>
  </g>
  <g id="Light-L" transform="matrix(1 0 0 1 1079.18 1556)">
   <path d="M73.9258 27.4902C108.301 27.4902 136.621-0.830078 136.621-35.2051C136.621-69.5312 108.252-97.8516 73.9258-97.8516C39.5508-97.8516 11.2793-69.5312 11.2793-35.2051C11.2793-0.830078 39.5996 27.4902 73.9258 27.4902ZM49.1699-1.17188C47.8516-1.17188 46.8262-2.24609 46.8262-3.41797L46.8262-57.8125C46.8262-59.9609 48.0469-61.6211 50.4395-62.6953C52.5879-63.6719 54.834-64.2578 59.5215-64.2578C71.2402-64.2578 78.3691-58.4473 89.5996-58.4473C95.0684-58.4473 98.0469-59.9121 99.7559-59.9121C101.758-59.9121 102.637-58.8379 102.637-57.1777L102.637-25.3906C102.637-23.1445 101.514-21.6797 99.1211-20.5078C96.6797-19.3848 94.3848-18.8965 89.9414-18.8965C78.4668-18.8965 71.3867-24.707 59.8633-24.707C55.4688-24.707 52.7832-23.8281 51.416-23.291L51.416-3.41797C51.416-2.24609 50.5371-1.17188 49.1699-1.17188Z"/>
  </g>
  <g id="Thin-L" transform="matrix(1 0 0 1 783.693 1556)">
   <path d="M72.7051 26.2695C106.494 26.2695 134.18-1.41602 134.18-35.2051C134.18-68.9453 106.494-96.6309 72.7051-96.6309C38.9648-96.6309 11.2793-68.9453 11.2793-35.2051C11.2793-1.41602 38.9648 26.2695 72.7051 26.2695ZM47.9492-1.85547C46.8262-1.85547 46.1914-2.68555 46.1914-3.4668L46.1914-57.8613C46.1914-59.5215 47.2656-60.8887 49.4141-61.8164C51.4648-62.6953 53.8574-63.3301 58.3008-63.3301C70.0684-63.3301 76.9531-57.4707 88.3789-57.4707C93.9453-57.4707 97.0215-58.9844 98.584-58.9844C100.098-58.9844 100.83-58.1055 100.83-56.6895L100.83-25.0488C100.83-23.3887 99.8535-22.2656 97.7051-21.1914C95.2637-19.9707 92.7734-19.5801 88.7207-19.5801C77.0508-19.5801 70.166-25.4395 58.6426-25.4395C53.9551-25.4395 51.1719-24.4629 49.707-23.9258L49.707-3.4668C49.707-2.68555 49.0723-1.85547 47.9492-1.85547Z"/>
  </g>
  <g id="Ultralight-L" transform="matrix(1 0 0 1 487.616 1556)">
   <path d="M72.1191 25.6348C105.566 25.6348 132.91-1.70898 132.91-35.2051C132.91-68.6523 105.566-95.9961 72.1191-95.9961C38.623-95.9961 11.2793-68.6523 11.2793-35.2051C11.2793-1.70898 38.623 25.6348 72.1191 25.6348ZM47.3145-2.24609C46.3379-2.24609 45.8496-2.88086 45.8496-3.51562L45.8496-57.8613C45.8496-59.2773 46.875-60.498 48.9258-61.3281C50.8789-62.207 53.3203-62.8418 57.7148-62.8418C69.4336-62.8418 76.2207-56.9824 87.793-56.9824C93.3594-56.9824 96.4844-58.5449 97.998-58.5449C99.2676-58.5449 99.9512-57.7637 99.9512-56.4453L99.9512-24.9023C99.9512-23.4863 99.0234-22.5586 96.9727-21.5332C94.5801-20.3125 91.9434-19.9219 88.0859-19.9219C76.3184-19.9219 69.5312-25.7812 58.0078-25.7812C53.2227-25.7812 50.3418-24.8047 48.7793-24.2676L48.7793-3.51562C48.7793-2.88086 48.291-2.24609 47.3145-2.24609Z"/>
  </g>
  <g id="Black-M" transform="matrix(1 0 0 1 2870.97 1126)">
   <path d="M62.4023 18.5547C91.9922 18.5547 116.113-5.56641 116.113-35.1562C116.113-64.7461 91.9922-88.8184 62.4023-88.8184C32.8125-88.8184 8.74023-64.7461 8.74023-35.1562C8.74023-5.56641 32.8125 18.5547 62.4023 18.5547ZM44.873-8.78906C42.627-8.78906 40.6738-10.6934 40.6738-12.9883L40.6738-52.8809C40.6738-55.9082 42.041-58.1543 44.8242-59.375C46.9727-60.3027 48.9258-60.7422 52.4902-60.7422C61.5723-60.7422 67.041-56.4941 74.4629-56.4941C77.9297-56.4941 79.9805-57.4707 81.7871-57.4707C84.668-57.4707 86.4258-55.8594 86.4258-53.1738L86.4258-29.6875C86.4258-26.5625 85.2051-24.5117 82.373-23.0957C80.1758-22.0703 78.1738-21.8262 74.6094-21.8262C66.0156-21.8262 60.6934-25.9766 52.6367-25.9766C51.4648-25.9766 50.0977-25.7812 49.0234-25.4883L49.0234-12.9883C49.0234-10.5957 47.2656-8.78906 44.873-8.78906Z"/>
  </g>
  <g id="Heavy-M" transform="matrix(1 0 0 1 2575.19 1126)">
   <path d="M61.5234 17.627C90.5273 17.627 114.258-6.10352 114.258-35.1562C114.258-64.1602 90.5273-87.8906 61.4746-87.8906C32.4707-87.8906 8.74023-64.1602 8.74023-35.1562C8.74023-6.10352 32.4707 17.627 61.5234 17.627ZM43.5547-8.64258C41.5527-8.64258 39.7949-10.3516 39.7949-12.4023L39.7949-52.8809C39.7949-55.6641 41.1133-57.7637 43.7012-58.8867C45.8008-59.8145 47.6562-60.2539 51.2695-60.2539C60.3516-60.2539 65.918-55.957 73.584-55.957C77.1973-55.957 79.2969-56.9824 81.0059-56.9824C83.6914-56.9824 85.2539-55.4688 85.2539-53.0273L85.2539-29.248C85.2539-26.3184 84.0332-24.4141 81.3965-23.1445C79.2969-22.1191 77.3926-21.8262 73.7793-21.8262C65.1367-21.8262 59.7168-26.0742 51.4648-26.0742C49.8047-26.0742 48.3398-25.7812 47.2656-25.4395L47.2656-12.4023C47.2656-10.3027 45.7031-8.64258 43.5547-8.64258Z"/>
  </g>
  <g id="Bold-M" transform="matrix(1 0 0 1 2279.5 1126)">
   <path d="M60.498 16.5527C88.8672 16.5527 112.207-6.73828 112.207-35.1562C112.207-63.5742 88.8672-86.9141 60.4492-86.9141C32.0312-86.9141 8.74023-63.5742 8.74023-35.1562C8.74023-6.73828 32.0801 16.5527 60.498 16.5527ZM42.1387-8.49609C40.3809-8.49609 38.8184-9.96094 38.8184-11.7676L38.8184-52.832C38.8184-55.4199 40.0391-57.3242 42.4316-58.3984C44.4336-59.2773 46.1914-59.7168 49.9512-59.7168C59.0332-59.7168 64.5996-55.3223 72.5586-55.3223C76.3672-55.3223 78.5156-56.3965 80.1758-56.3965C82.6172-56.3965 83.8867-55.0293 83.8867-52.9297L83.8867-28.8086C83.8867-26.0742 82.7637-24.3164 80.3223-23.1445C78.2715-22.168 76.4648-21.875 72.8027-21.875C64.1113-21.875 58.6426-26.123 50.1465-26.123C47.998-26.123 46.3379-25.7812 45.3125-25.3906L45.3125-11.7676C45.3125-9.91211 43.9941-8.49609 42.1387-8.49609Z"/>
  </g>
  <g id="Semibold-M" transform="matrix(1 0 0 1 1983.5 1126)">
   <path d="M59.7656 15.8691C87.7441 15.8691 110.791-7.22656 110.791-35.1562C110.791-63.1348 87.6953-86.2305 59.7656-86.2305C31.7871-86.2305 8.74023-63.1348 8.74023-35.1562C8.74023-7.22656 31.7871 15.8691 59.7656 15.8691ZM41.1133-8.34961C39.5508-8.34961 38.1348-9.7168 38.1348-11.2793L38.1348-52.7832C38.1348-55.2246 39.3066-57.0312 41.6016-58.0078C43.5059-58.8867 45.2148-59.3262 49.0234-59.3262C58.0566-59.3262 63.7207-54.9316 71.875-54.9316C75.8301-54.9316 77.9785-55.957 79.541-55.957C81.8848-55.957 82.959-54.7363 82.959-52.832L82.959-28.4668C82.959-25.9277 81.8848-24.2676 79.5898-23.1445C77.5879-22.2168 75.8789-21.875 72.1191-21.875C63.4277-21.875 57.9102-26.2207 49.2188-26.2207C46.7285-26.2207 44.9707-25.7324 43.9941-25.3906L43.9941-11.2793C43.9941-9.66797 42.7734-8.34961 41.1133-8.34961Z"/>
  </g>
  <g id="Medium-M" transform="matrix(1 0 0 1 1687.3 1126)">
   <path d="M59.2285 15.332C86.9141 15.332 109.766-7.51953 109.766-35.2051C109.766-62.8418 86.8652-85.6934 59.1797-85.6934C31.543-85.6934 8.74023-62.8418 8.74023-35.2051C8.74023-7.51953 31.5918 15.332 59.2285 15.332ZM40.332-8.25195C38.916-8.25195 37.6465-9.52148 37.6465-10.9375L37.6465-52.7344C37.6465-55.0781 38.7695-56.7871 40.9668-57.7637C42.8223-58.5938 44.4824-59.0332 48.291-59.0332C57.373-59.0332 63.0371-54.5898 71.3867-54.5898C75.3906-54.5898 77.5879-55.6641 79.1016-55.6641C81.2988-55.6641 82.2754-54.4922 82.2754-52.7832L82.2754-28.2227C82.2754-25.7812 81.25-24.2188 79.0039-23.1445C77.0508-22.2656 75.3906-21.875 71.6309-21.875C62.9395-21.875 57.3242-26.2695 48.5352-26.2695C45.8008-26.2695 43.8965-25.7324 42.9688-25.3418L42.9688-10.9375C42.9688-9.47266 41.8945-8.25195 40.332-8.25195Z"/>
  </g>
  <g id="Regular-M" transform="matrix(1 0 0 1 1391.3 1126)">
   <path d="M58.5449 14.5996C85.791 14.5996 108.35-7.95898 108.35-35.2051C108.35-62.4023 85.7422-85.0098 58.4961-85.0098C31.2988-85.0098 8.74023-62.4023 8.74023-35.2051C8.74023-7.95898 31.3477 14.5996 58.5449 14.5996ZM39.3555-8.1543C38.0859-8.1543 36.9629-9.22852 36.9629-10.498L36.9629-52.7344C36.9629-54.8828 38.0371-56.4453 40.0879-57.373C41.8945-58.252 43.457-58.6914 47.4121-58.6914C56.4453-58.6914 62.1582-54.1992 70.7031-54.1992C74.8535-54.1992 77.0508-55.2734 78.5156-55.2734C80.5664-55.2734 81.3477-54.1992 81.3477-52.6855L81.3477-27.9297C81.3477-25.6348 80.3711-24.1699 78.2715-23.1445C76.3672-22.3145 74.8047-21.9238 70.9473-21.9238C62.2559-21.9238 56.5918-26.3184 47.6562-26.3184C44.5312-26.3184 42.5781-25.7324 41.6016-25.3418L41.6016-10.498C41.6016-9.17969 40.7227-8.1543 39.3555-8.1543Z"/>
  </g>
  <g id="Light-M" transform="matrix(1 0 0 1 1095.42 1126)">
   <path d="M57.7148 13.7695C84.5215 13.7695 106.689-8.34961 106.689-35.2051C106.689-62.0117 84.5215-84.1797 57.666-84.1797C30.8594-84.1797 8.74023-62.0117 8.74023-35.2051C8.74023-8.34961 30.9082 13.7695 57.7148 13.7695ZM38.5254-8.64258C37.4023-8.64258 36.5234-9.52148 36.5234-10.5469L36.5234-52.7344C36.5234-54.5898 37.5-55.957 39.4043-56.7871C41.1621-57.5684 42.8223-58.0566 46.582-58.0566C55.6152-58.0566 61.2305-53.5156 69.873-53.5156C74.0723-53.5156 76.3672-54.6387 77.7344-54.6387C79.4434-54.6387 80.127-53.7598 80.127-52.3926L80.127-27.6855C80.127-25.7812 79.248-24.5605 77.2949-23.584C75.4395-22.7539 73.6816-22.3633 70.1172-22.3633C61.2793-22.3633 55.7617-26.8066 46.8262-26.8066C43.5059-26.8066 41.4551-26.1719 40.4297-25.7812L40.4297-10.5469C40.4297-9.52148 39.6973-8.64258 38.5254-8.64258Z"/>
  </g>
  <g id="Thin-M" transform="matrix(1 0 0 1 799.806 1126)">
   <path d="M56.6406 12.6953C82.9102 12.6953 104.492-8.88672 104.492-35.2051C104.492-61.4746 82.9102-83.0566 56.5918-83.0566C30.3223-83.0566 8.74023-61.4746 8.74023-35.2051C8.74023-8.88672 30.3223 12.6953 56.6406 12.6953ZM37.4512-9.22852C36.5234-9.22852 35.9375-9.91211 35.9375-10.5957L35.9375-52.7832C35.9375-54.1504 36.8164-55.2734 38.5254-56.0059C40.1367-56.7383 41.9434-57.2266 45.459-57.2266C54.541-57.2266 59.9609-52.6855 68.7988-52.6855C73.0469-52.6855 75.4395-53.8574 76.6602-53.8574C77.9297-53.8574 78.5645-53.125 78.5645-51.9531L78.5645-27.4414C78.5645-25.9766 77.7344-25.0488 76.0254-24.2188C74.1699-23.291 72.2656-22.9492 69.043-22.9492C60.0098-22.9492 54.6387-27.4902 45.7031-27.4902C42.1875-27.4902 40.0391-26.7578 38.916-26.3184L38.916-10.5957C38.916-9.91211 38.3301-9.22852 37.4512-9.22852Z"/>
  </g>
  <g id="Ultralight-M" transform="matrix(1 0 0 1 503.656 1126)">
   <path d="M56.0547 12.1094C82.0801 12.1094 103.369-9.17969 103.369-35.2051C103.369-61.2305 82.0801-82.5195 56.0547-82.5195C30.0293-82.5195 8.74023-61.2305 8.74023-35.2051C8.74023-9.17969 30.0293 12.1094 56.0547 12.1094ZM36.8652-9.57031C36.084-9.57031 35.6445-10.1074 35.6445-10.6445L35.6445-52.7832C35.6445-53.9551 36.4258-54.9316 38.0371-55.6152C39.5996-56.2988 41.5039-56.7871 44.9219-56.7871C54.0039-56.7871 59.2773-52.2461 68.2129-52.2461C72.5098-52.2461 74.9512-53.418 76.123-53.418C77.1973-53.418 77.7344-52.832 77.7344-51.7578L77.7344-27.2949C77.7344-26.123 77.002-25.293 75.3906-24.5117C73.4863-23.584 71.4844-23.2422 68.457-23.2422C59.375-23.2422 54.0527-27.832 45.166-27.832C41.4551-27.832 39.3066-27.0508 38.0859-26.6113L38.0859-10.6445C38.0859-10.1074 37.6465-9.57031 36.8652-9.57031Z"/>
  </g>
  <g id="Black-S" transform="matrix(1 0 0 1 2884.57 696)">
   <path d="M48.8281 6.83594C71.9727 6.83594 90.8203-12.0117 90.8203-35.1562C90.8203-58.3008 71.9727-77.1484 48.8281-77.1484C25.6836-77.1484 6.83594-58.3008 6.83594-35.1562C6.83594-12.0117 25.6836 6.83594 48.8281 6.83594ZM35.0586-14.502C33.3008-14.502 31.7871-15.9668 31.7871-17.7734L31.7871-49.0723C31.7871-51.416 32.8613-53.1738 35.0098-54.1016C36.7188-54.834 38.2324-55.1758 41.0156-55.1758C48.1445-55.1758 52.4414-51.8555 58.252-51.8555C60.9863-51.8555 62.5977-52.6367 64.0137-52.6367C66.2598-52.6367 67.627-51.3672 67.627-49.2676L67.627-30.8594C67.627-28.418 66.6504-26.8066 64.4531-25.7324C62.7441-24.9023 61.1816-24.707 58.3984-24.707C51.6602-24.707 47.4609-27.9785 41.1621-27.9785C40.1855-27.9785 39.1113-27.832 38.2812-27.5879L38.2812-17.7734C38.2812-15.918 36.9141-14.502 35.0586-14.502Z"/>
  </g>
  <g id="Heavy-S" transform="matrix(1 0 0 1 2588.47 696)">
   <path d="M48.2422 6.20117C70.9961 6.20117 89.5996-12.4023 89.5996-35.1562C89.5996-57.9102 70.9961-76.5625 48.1934-76.5625C25.4395-76.5625 6.83594-57.9102 6.83594-35.1562C6.83594-12.4023 25.4395 6.20117 48.2422 6.20117ZM34.1309-14.3555C32.5684-14.3555 31.1523-15.6738 31.1523-17.334L31.1523-49.0234C31.1523-51.2695 32.1777-52.9297 34.2285-53.8086C35.8887-54.541 37.3047-54.8828 40.1855-54.8828C47.3145-54.8828 51.6602-51.5137 57.666-51.5137C60.498-51.5137 62.1582-52.2949 63.5254-52.2949C65.625-52.2949 66.8457-51.123 66.8457-49.2188L66.8457-30.5664C66.8457-28.2227 65.918-26.709 63.8184-25.6836C62.1582-24.9023 60.6934-24.6582 57.8125-24.6582C51.0742-24.6582 46.8262-27.9785 40.332-27.9785C39.0625-27.9785 37.8906-27.7832 37.0605-27.4902L37.0605-17.334C37.0605-15.625 35.8398-14.3555 34.1309-14.3555Z"/>
  </g>
  <g id="Bold-S" transform="matrix(1 0 0 1 2292.44 696)">
   <path d="M47.5586 5.51758C69.873 5.51758 88.2324-12.8418 88.2324-35.2051C88.2324-57.5195 69.873-75.8789 47.5098-75.8789C25.1953-75.8789 6.83594-57.5195 6.83594-35.2051C6.83594-12.8418 25.1953 5.51758 47.5586 5.51758ZM33.1543-14.1602C31.7383-14.1602 30.4688-15.332 30.4688-16.7969L30.4688-49.0234C30.4688-51.123 31.4453-52.6367 33.3496-53.5156C34.9609-54.1992 36.2793-54.541 39.2578-54.541C46.3867-54.541 50.7812-51.123 57.0312-51.123C60.0098-51.123 61.6211-51.9531 62.9395-51.9531C64.9414-51.9531 65.9668-50.8301 65.9668-49.1699L65.9668-30.2246C65.9668-28.0273 65.0879-26.6113 63.0859-25.6348C61.5234-24.9023 60.1562-24.6582 57.1777-24.6582C50.4395-24.6582 46.0938-27.9785 39.4531-27.9785C37.793-27.9785 36.4746-27.6855 35.7422-27.4414L35.7422-16.7969C35.7422-15.2832 34.6191-14.1602 33.1543-14.1602Z"/>
  </g>
  <g id="Semibold-S" transform="matrix(1 0 0 1 1996.2 696)">
   <path d="M47.0703 5.0293C69.0918 5.0293 87.3047-13.1348 87.3047-35.2051C87.3047-57.2266 69.0918-75.4395 47.0215-75.4395C25-75.4395 6.83594-57.2266 6.83594-35.2051C6.83594-13.1348 25.0488 5.0293 47.0703 5.0293ZM32.4219-14.0137C31.1523-14.0137 30.0293-15.1367 30.0293-16.4551L30.0293-48.9746C30.0293-50.9766 30.957-52.4414 32.7637-53.2715C34.3262-53.9551 35.5957-54.2969 38.623-54.2969C45.752-54.2969 50.1953-50.8789 56.543-50.8789C59.6191-50.8789 61.2793-51.6602 62.5488-51.6602C64.4531-51.6602 65.3809-50.6348 65.3809-49.1211L65.3809-29.9805C65.3809-27.8809 64.502-26.5137 62.5977-25.6348C61.084-24.9023 59.7656-24.6094 56.7383-24.6094C50-24.6094 45.6055-27.9785 38.8184-27.9785C36.9141-27.9785 35.5469-27.6367 34.8145-27.3438L34.8145-16.4551C34.8145-15.0879 33.7891-14.0137 32.4219-14.0137Z"/>
  </g>
  <g id="Medium-S" transform="matrix(1 0 0 1 1699.83 696)">
   <path d="M46.7285 4.6875C68.5547 4.6875 86.6211-13.3789 86.6211-35.2051C86.6211-57.0312 68.5059-75.0977 46.6797-75.0977C24.8535-75.0977 6.83594-57.0312 6.83594-35.2051C6.83594-13.3789 24.9023 4.6875 46.7285 4.6875ZM31.9336-13.916C30.7129-13.916 29.6387-14.9414 29.6387-16.1621L29.6387-48.9746C29.6387-50.8789 30.5664-52.2949 32.3242-53.125C33.8379-53.8086 35.0586-54.1504 38.1348-54.1504C45.2148-54.1504 49.7559-50.6348 56.2012-50.6348C59.375-50.6348 61.0352-51.4648 62.2559-51.4648C64.1113-51.4648 64.8926-50.4883 64.8926-49.1211L64.8926-29.834C64.8926-27.7344 64.0625-26.4648 62.2559-25.5859C60.7422-24.9023 59.4727-24.6094 56.3965-24.6094C49.6582-24.6094 45.2148-27.9785 38.3301-27.9785C36.2305-27.9785 34.8145-27.5879 34.082-27.3438L34.082-16.1621C34.082-14.8926 33.2031-13.916 31.9336-13.916Z"/>
  </g>
  <g id="Regular-S" transform="matrix(1 0 0 1 1403.58 696)">
   <path d="M46.2402 4.19922C67.7734 4.19922 85.6934-13.6719 85.6934-35.2051C85.6934-56.7383 67.7246-74.6094 46.1914-74.6094C24.707-74.6094 6.83594-56.7383 6.83594-35.2051C6.83594-13.6719 24.7559 4.19922 46.2402 4.19922ZM31.2012-13.7695C30.1758-13.7695 29.1992-14.7461 29.1992-15.8203L29.1992-48.9258C29.1992-50.7812 30.0293-52.0996 31.7383-52.8809C33.2031-53.5645 34.375-53.9062 37.5-53.9062C44.5801-53.9062 49.1699-50.3906 55.7617-50.3906C59.0332-50.3906 60.6934-51.2207 61.8652-51.2207C63.623-51.2207 64.3066-50.3418 64.3066-49.0723L64.3066-29.5898C64.3066-27.6367 63.4766-26.3672 61.7676-25.5371C60.3027-24.9023 59.1309-24.5605 55.957-24.5605C49.2188-24.5605 44.7266-28.0273 37.6953-28.0273C35.4004-28.0273 33.8867-27.5391 33.1543-27.2461L33.1543-15.8203C33.1543-14.6973 32.373-13.7695 31.2012-13.7695Z"/>
  </g>
  <g id="Light-S" transform="matrix(1 0 0 1 1107.6 696)">
   <path d="M45.5078 3.4668C66.6992 3.4668 84.2285-14.0137 84.2285-35.2051C84.2285-56.3965 66.6504-73.877 45.5078-73.877C24.3164-73.877 6.83594-56.3965 6.83594-35.2051C6.83594-14.0137 24.3652 3.4668 45.5078 3.4668ZM30.4688-14.209C29.5898-14.209 28.7598-14.9902 28.7598-15.8691L28.7598-48.9258C28.7598-50.4883 29.5898-51.6602 31.1523-52.3438C32.5195-52.9785 33.7891-53.3691 36.7676-53.3691C43.8965-53.3691 48.3398-49.8047 55.0293-49.8047C58.3008-49.8047 60.0586-50.6836 61.1816-50.6836C62.6465-50.6836 63.2324-49.9023 63.2324-48.7793L63.2324-29.3945C63.2324-27.7832 62.5-26.709 60.9375-25.9766C59.4727-25.293 58.1543-25 55.2246-25C48.3887-25 43.9941-28.4668 36.9629-28.4668C34.4727-28.4668 32.9102-27.9785 32.1289-27.6367L32.1289-15.8691C32.1289-14.9414 31.4453-14.209 30.4688-14.209Z"/>
  </g>
  <g id="Thin-S" transform="matrix(1 0 0 1 811.867 696)">
   <path d="M44.5801 2.53906C65.2832 2.53906 82.2754-14.502 82.2754-35.2051C82.2754-55.9082 65.2344-72.9492 44.5312-72.9492C23.8281-72.9492 6.83594-55.9082 6.83594-35.2051C6.83594-14.502 23.877 2.53906 44.5801 2.53906ZM29.541-14.7461C28.7598-14.7461 28.2715-15.332 28.2715-15.918L28.2715-48.9746C28.2715-50.1465 28.9551-51.0742 30.3223-51.6602C31.6406-52.2461 33.0078-52.6367 35.8398-52.6367C42.9199-52.6367 47.2168-49.0723 54.1016-49.0723C57.4219-49.0723 59.2773-49.9512 60.2539-49.9512C61.3281-49.9512 61.8164-49.3652 61.8164-48.4375L61.8164-29.1504C61.8164-27.9297 61.1816-27.1484 59.8145-26.4648C58.3496-25.7812 56.8848-25.4883 54.2969-25.4883C47.2656-25.4883 43.0176-29.0039 36.0352-29.0039C33.3008-29.0039 31.6406-28.4668 30.7617-28.125L30.7617-15.918C30.7617-15.2832 30.2734-14.7461 29.541-14.7461Z"/>
  </g>
  <g id="Ultralight-S" transform="matrix(1 0 0 1 515.644 696)">
   <path d="M44.043 2.00195C64.502 2.00195 81.2988-14.7461 81.2988-35.2051C81.2988-55.6641 64.502-72.4121 44.043-72.4121C23.584-72.4121 6.83594-55.6641 6.83594-35.2051C6.83594-14.7461 23.584 2.00195 44.043 2.00195ZM29.0039-15.0391C28.3691-15.0391 27.9785-15.4785 27.9785-15.9668L27.9785-48.9746C27.9785-49.9512 28.6133-50.7324 29.9316-51.3184C31.1523-51.8555 32.6172-52.2461 35.3027-52.2461C42.4316-52.2461 46.6309-48.6816 53.5645-48.6816C56.9336-48.6816 58.8379-49.6094 59.7656-49.6094C60.6445-49.6094 61.084-49.0723 61.084-48.2422L61.084-29.0527C61.084-28.0762 60.498-27.3926 59.2285-26.7578C57.7637-26.0254 56.2012-25.7812 53.7598-25.7812C46.6797-25.7812 42.4805-29.3457 35.498-29.3457C32.666-29.3457 30.957-28.7598 30.0293-28.418L30.0293-15.9668C30.0293-15.4785 29.6875-15.0391 29.0039-15.0391Z"/>
  </g>
 </g>
</svg>
