<?xml version="1.0" encoding="UTF-8"?>
<!--Generator: Apple Native CoreSVG 175-->
<!DOCTYPE svg
PUBLIC "-//W3C//DTD SVG 1.1//EN"
       "http://www.w3.org/Graphics/SVG/1.1/DTD/svg11.dtd">
<svg version="1.1" xmlns="http://www.w3.org/2000/svg" xmlns:xlink="http://www.w3.org/1999/xlink" width="3300" height="2200">
 <!--glyph: "uni100C7B.medium", point size: 100.0, font version: "17.0d11e1", template writer version: "65.1"-->
 <g id="Notes">
  <rect height="2200" id="artboard" style="fill:white;opacity:1" width="3300" x="0" y="0"/>
  <line style="fill:none;stroke:black;opacity:1;stroke-width:0.5;" x1="263" x2="3036" y1="292" y2="292"/>
  <text style="stroke:none;fill:black;font-family:sans-serif;font-size:13;font-weight:bold;" transform="matrix(1 0 0 1 263 322)">Weight/Scale Variations</text>
  <text style="stroke:none;fill:black;font-family:sans-serif;font-size:13;text-anchor:middle;" transform="matrix(1 0 0 1 559.711 322)">Ultralight</text>
  <text style="stroke:none;fill:black;font-family:sans-serif;font-size:13;text-anchor:middle;" transform="matrix(1 0 0 1 856.422 322)">Thin</text>
  <text style="stroke:none;fill:black;font-family:sans-serif;font-size:13;text-anchor:middle;" transform="matrix(1 0 0 1 1153.13 322)">Light</text>
  <text style="stroke:none;fill:black;font-family:sans-serif;font-size:13;text-anchor:middle;" transform="matrix(1 0 0 1 1449.84 322)">Regular</text>
  <text style="stroke:none;fill:black;font-family:sans-serif;font-size:13;text-anchor:middle;" transform="matrix(1 0 0 1 1746.56 322)">Medium</text>
  <text style="stroke:none;fill:black;font-family:sans-serif;font-size:13;text-anchor:middle;" transform="matrix(1 0 0 1 2043.27 322)">Semibold</text>
  <text style="stroke:none;fill:black;font-family:sans-serif;font-size:13;text-anchor:middle;" transform="matrix(1 0 0 1 2339.98 322)">Bold</text>
  <text style="stroke:none;fill:black;font-family:sans-serif;font-size:13;text-anchor:middle;" transform="matrix(1 0 0 1 2636.69 322)">Heavy</text>
  <text style="stroke:none;fill:black;font-family:sans-serif;font-size:13;text-anchor:middle;" transform="matrix(1 0 0 1 2933.4 322)">Black</text>
  <line style="fill:none;stroke:black;opacity:1;stroke-width:0.5;" x1="263" x2="3036" y1="1903" y2="1903"/>
  <g transform="matrix(1 0 0 1 263 1933)">
   <path d="M9.24805 0.830078Q10.8691 0.830078 12.2949 0.214844Q13.7207-0.400391 14.8096-1.49414Q15.8984-2.58789 16.5186-4.01367Q17.1387-5.43945 17.1387-7.05078Q17.1387-8.66211 16.5186-10.0879Q15.8984-11.5137 14.8047-12.6074Q13.7109-13.7012 12.2852-14.3164Q10.8594-14.9316 9.23828-14.9316Q7.62695-14.9316 6.20117-14.3164Q4.77539-13.7012 3.69141-12.6074Q2.60742-11.5137 1.9873-10.0879Q1.36719-8.66211 1.36719-7.05078Q1.36719-5.43945 1.9873-4.01367Q2.60742-2.58789 3.69629-1.49414Q4.78516-0.400391 6.21094 0.214844Q7.63672 0.830078 9.24805 0.830078ZM9.24805-0.654297Q7.91992-0.654297 6.7627-1.14746Q5.60547-1.64062 4.73145-2.51953Q3.85742-3.39844 3.36426-4.56055Q2.87109-5.72266 2.87109-7.05078Q2.87109-8.37891 3.35938-9.54102Q3.84766-10.7031 4.72168-11.582Q5.5957-12.4609 6.75293-12.9541Q7.91016-13.4473 9.23828-13.4473Q10.5762-13.4473 11.7334-12.9541Q12.8906-12.4609 13.7695-11.582Q14.6484-10.7031 15.1465-9.54102Q15.6445-8.37891 15.6445-7.05078Q15.6445-5.72266 15.1514-4.56055Q14.6582-3.39844 13.7842-2.51953Q12.9102-1.64062 11.748-1.14746Q10.5859-0.654297 9.24805-0.654297ZM5.6543-7.05078Q5.6543-6.72852 5.85938-6.52832Q6.06445-6.32812 6.40625-6.32812L8.51562-6.32812L8.51562-4.20898Q8.51562-3.88672 8.71094-3.67676Q8.90625-3.4668 9.23828-3.4668Q9.56055-3.4668 9.77051-3.67676Q9.98047-3.88672 9.98047-4.20898L9.98047-6.32812L12.0898-6.32812Q12.4219-6.32812 12.627-6.52832Q12.832-6.72852 12.832-7.05078Q12.832-7.38281 12.627-7.58789Q12.4219-7.79297 12.0898-7.79297L9.98047-7.79297L9.98047-9.90234Q9.98047-10.2344 9.77051-10.4443Q9.56055-10.6543 9.23828-10.6543Q8.90625-10.6543 8.71094-10.4443Q8.51562-10.2344 8.51562-9.90234L8.51562-7.79297L6.40625-7.79297Q6.06445-7.79297 5.85938-7.58789Q5.6543-7.38281 5.6543-7.05078Z"/>
  </g>
  <g transform="matrix(1 0 0 1 281.867 1933)">
   <path d="M11.709 2.91016Q13.75 2.91016 15.5518 2.12891Q17.3535 1.34766 18.7305-0.0292969Q20.1074-1.40625 20.8887-3.20801Q21.6699-5.00977 21.6699-7.05078Q21.6699-9.0918 20.8887-10.8936Q20.1074-12.6953 18.7305-14.0723Q17.3535-15.4492 15.5469-16.2305Q13.7402-17.0117 11.6992-17.0117Q9.6582-17.0117 7.85645-16.2305Q6.05469-15.4492 4.68262-14.0723Q3.31055-12.6953 2.5293-10.8936Q1.74805-9.0918 1.74805-7.05078Q1.74805-5.00977 2.5293-3.20801Q3.31055-1.40625 4.6875-0.0292969Q6.06445 1.34766 7.86621 2.12891Q9.66797 2.91016 11.709 2.91016ZM11.709 1.25Q9.98047 1.25 8.47656 0.605469Q6.97266-0.0390625 5.83496-1.17676Q4.69727-2.31445 4.05762-3.81836Q3.41797-5.32227 3.41797-7.05078Q3.41797-8.7793 4.05762-10.2832Q4.69727-11.7871 5.83008-12.9297Q6.96289-14.0723 8.4668-14.7119Q9.9707-15.3516 11.6992-15.3516Q13.4277-15.3516 14.9316-14.7119Q16.4355-14.0723 17.5781-12.9297Q18.7207-11.7871 19.3652-10.2832Q20.0098-8.7793 20.0098-7.05078Q20.0098-5.32227 19.3701-3.81836Q18.7305-2.31445 17.5928-1.17676Q16.4551-0.0390625 14.9463 0.605469Q13.4375 1.25 11.709 1.25ZM7.17773-7.05078Q7.17773-6.69922 7.41211-6.47461Q7.64648-6.25 8.01758-6.25L10.8887-6.25L10.8887-3.36914Q10.8887-2.99805 11.1133-2.76855Q11.3379-2.53906 11.6895-2.53906Q12.0605-2.53906 12.29-2.76855Q12.5195-2.99805 12.5195-3.36914L12.5195-6.25L15.4004-6.25Q15.7715-6.25 16.001-6.47461Q16.2305-6.69922 16.2305-7.05078Q16.2305-7.42188 16.001-7.65137Q15.7715-7.88086 15.4004-7.88086L12.5195-7.88086L12.5195-10.752Q12.5195-11.1328 12.29-11.3623Q12.0605-11.5918 11.6895-11.5918Q11.3379-11.5918 11.1133-11.3574Q10.8887-11.123 10.8887-10.752L10.8887-7.88086L8.01758-7.88086Q7.63672-7.88086 7.40723-7.65137Q7.17773-7.42188 7.17773-7.05078Z"/>
  </g>
  <g transform="matrix(1 0 0 1 305.646 1933)">
   <path d="M14.9707 5.66406Q17.0605 5.66406 18.96 5.01465Q20.8594 4.36523 22.4512 3.19336Q24.043 2.02148 25.2197 0.429688Q26.3965-1.16211 27.0459-3.06641Q27.6953-4.9707 27.6953-7.05078Q27.6953-9.14062 27.0459-11.04Q26.3965-12.9395 25.2197-14.5312Q24.043-16.123 22.4512-17.2998Q20.8594-18.4766 18.9551-19.126Q17.0508-19.7754 14.9609-19.7754Q12.8711-19.7754 10.9717-19.126Q9.07227-18.4766 7.48535-17.2998Q5.89844-16.123 4.72168-14.5312Q3.54492-12.9395 2.90039-11.04Q2.25586-9.14062 2.25586-7.05078Q2.25586-4.9707 2.90527-3.06641Q3.55469-1.16211 4.72656 0.429688Q5.89844 2.02148 7.49023 3.19336Q9.08203 4.36523 10.9814 5.01465Q12.8809 5.66406 14.9707 5.66406ZM14.9707 3.84766Q13.1641 3.84766 11.5283 3.2959Q9.89258 2.74414 8.53516 1.74805Q7.17773 0.751953 6.17676-0.610352Q5.17578-1.97266 4.62891-3.6084Q4.08203-5.24414 4.08203-7.05078Q4.08203-8.86719 4.62891-10.5029Q5.17578-12.1387 6.17188-13.501Q7.16797-14.8633 8.52539-15.8594Q9.88281-16.8555 11.5186-17.4023Q13.1543-17.9492 14.9609-17.9492Q16.7773-17.9492 18.4131-17.4023Q20.0488-16.8555 21.4111-15.8594Q22.7734-14.8633 23.7695-13.501Q24.7656-12.1387 25.3174-10.5029Q25.8691-8.86719 25.8691-7.05078Q25.8789-5.24414 25.332-3.6084Q24.7852-1.97266 23.7842-0.610352Q22.7832 0.751953 21.4209 1.74805Q20.0586 2.74414 18.4229 3.2959Q16.7871 3.84766 14.9707 3.84766ZM9.19922-7.05078Q9.19922-6.66992 9.45801-6.4209Q9.7168-6.17188 10.1172-6.17188L14.0625-6.17188L14.0625-2.2168Q14.0625-1.81641 14.3115-1.55762Q14.5605-1.29883 14.9512-1.29883Q15.3516-1.29883 15.6104-1.55273Q15.8691-1.80664 15.8691-2.2168L15.8691-6.17188L19.8242-6.17188Q20.2246-6.17188 20.4785-6.4209Q20.7324-6.66992 20.7324-7.05078Q20.7324-7.46094 20.4785-7.71484Q20.2246-7.96875 19.8242-7.96875L15.8691-7.96875L15.8691-11.9141Q15.8691-12.3242 15.6104-12.583Q15.3516-12.8418 14.9512-12.8418Q14.5605-12.8418 14.3115-12.583Q14.0625-12.3242 14.0625-11.9141L14.0625-7.96875L10.1172-7.96875Q9.70703-7.96875 9.45312-7.71484Q9.19922-7.46094 9.19922-7.05078Z"/>
  </g>
  <text style="stroke:none;fill:black;font-family:sans-serif;font-size:13;font-weight:bold;" transform="matrix(1 0 0 1 263 1953)">Design Variations</text>
  <text style="stroke:none;fill:black;font-family:sans-serif;font-size:13;" transform="matrix(1 0 0 1 263 1971)">Symbols are supported in up to nine weights and three scales.</text>
  <text style="stroke:none;fill:black;font-family:sans-serif;font-size:13;" transform="matrix(1 0 0 1 263 1989)">For optimal layout with text and other symbols, vertically align</text>
  <text style="stroke:none;fill:black;font-family:sans-serif;font-size:13;" transform="matrix(1 0 0 1 263 2007)">symbols with the adjacent text.</text>
  <line style="fill:none;stroke:#00AEEF;stroke-width:0.5;opacity:1.0;" x1="776" x2="776" y1="1919" y2="1933"/>
  <g transform="matrix(1 0 0 1 776 1933)">
   <path d="M3.31055 0.15625Q3.70117 0.15625 3.91602-0.00976562Q4.13086-0.175781 4.26758-0.585938L5.52734-4.0332L11.2891-4.0332L12.5488-0.585938Q12.6855-0.175781 12.9004-0.00976562Q13.1152 0.15625 13.4961 0.15625Q13.8867 0.15625 14.1162-0.0585938Q14.3457-0.273438 14.3457-0.644531Q14.3457-0.869141 14.2383-1.17188L9.6582-13.3691Q9.48242-13.8184 9.17969-14.043Q8.87695-14.2676 8.4082-14.2676Q7.5-14.2676 7.17773-13.3789L2.59766-1.16211Q2.49023-0.859375 2.49023-0.634766Q2.49023-0.263672 2.70996-0.0537109Q2.92969 0.15625 3.31055 0.15625ZM6.00586-5.51758L8.37891-12.0898L8.42773-12.0898L10.8008-5.51758Z"/>
  </g>
  <line style="fill:none;stroke:#00AEEF;stroke-width:0.5;opacity:1.0;" x1="793.197" x2="793.197" y1="1919" y2="1933"/>
  <text style="stroke:none;fill:black;font-family:sans-serif;font-size:13;font-weight:bold;" transform="matrix(1 0 0 1 776 1953)">Margins</text>
  <text style="stroke:none;fill:black;font-family:sans-serif;font-size:13;" transform="matrix(1 0 0 1 776 1971)">Leading and trailing margins on the left and right side of each symbol</text>
  <text style="stroke:none;fill:black;font-family:sans-serif;font-size:13;" transform="matrix(1 0 0 1 776 1989)">can be adjusted by modifying the x-location of the margin guidelines.</text>
  <text style="stroke:none;fill:black;font-family:sans-serif;font-size:13;" transform="matrix(1 0 0 1 776 2007)">Modifications are automatically applied proportionally to all</text>
  <text style="stroke:none;fill:black;font-family:sans-serif;font-size:13;" transform="matrix(1 0 0 1 776 2025)">scales and weights.</text>
  <g transform="matrix(1 0 0 1 1289 1933)">
   <path d="M2.8418 1.86523L4.54102 3.57422Q5.18555 4.22852 5.90332 4.17969Q6.62109 4.13086 7.31445 3.35938L18.0078-8.42773L17.041-9.4043L6.42578 2.27539Q6.16211 2.57812 5.89355 2.61719Q5.625 2.65625 5.27344 2.30469L4.10156 1.14258Q3.75 0.791016 3.79395 0.522461Q3.83789 0.253906 4.14062-0.0195312L15.6152-10.8203L14.6387-11.7871L3.04688-0.898438Q2.30469-0.214844 2.25098 0.498047Q2.19727 1.21094 2.8418 1.86523ZM9.25781-16.3281Q8.94531-16.0254 8.90625-15.6348Q8.86719-15.2441 9.04297-14.9512Q9.21875-14.6777 9.55566-14.541Q9.89258-14.4043 10.3809-14.5215Q11.4746-14.7754 12.5977-14.7314Q13.7207-14.6875 14.7949-13.9844L14.209-12.5293Q13.9551-11.9043 14.0674-11.4404Q14.1797-10.9766 14.5801-10.5664L16.875-8.25195Q17.2363-7.88086 17.5781-7.82227Q17.9199-7.76367 18.3398-7.8418L19.4043-8.03711L20.0684-7.36328L20.0293-6.80664Q20-6.43555 20.1221-6.12305Q20.2441-5.81055 20.6055-5.44922L21.3672-4.70703Q21.7285-4.3457 22.1533-4.33105Q22.5781-4.31641 22.9297-4.66797L25.8398-7.58789Q26.1914-7.93945 26.1816-8.35449Q26.1719-8.76953 25.8105-9.13086L25.0391-9.89258Q24.6875-10.2539 24.3799-10.3857Q24.0723-10.5176 23.7109-10.4883L23.1348-10.4395L22.4902-11.0742L22.7344-12.1973Q22.832-12.6172 22.6953-12.9834Q22.5586-13.3496 22.1191-13.7891L19.9219-15.9766Q18.6719-17.2168 17.2607-17.8369Q15.8496-18.457 14.4189-18.4814Q12.9883-18.5059 11.665-17.959Q10.3418-17.4121 9.25781-16.3281ZM10.752-15.957Q11.6602-16.6211 12.7002-16.9043Q13.7402-17.1875 14.8047-17.085Q15.8691-16.9824 16.8701-16.5137Q17.8711-16.0449 18.7012-15.2051L21.1328-12.793Q21.3086-12.6172 21.3525-12.4512Q21.3965-12.2852 21.3379-12.0312L21.0156-10.5469L22.5195-9.0625L23.5059-9.12109Q23.6914-9.13086 23.7891-9.09668Q23.8867-9.0625 24.0332-8.91602L24.6094-8.33984L22.168-5.89844L21.5918-6.47461Q21.4453-6.62109 21.4062-6.71875Q21.3672-6.81641 21.377-7.01172L21.4453-7.98828L19.9512-9.47266L18.4277-9.21875Q18.1836-9.16992 18.042-9.2041Q17.9004-9.23828 17.7148-9.41406L15.7129-11.416Q15.5176-11.5918 15.4932-11.7529Q15.4688-11.9141 15.5859-12.1875L16.4648-14.2773Q15.293-15.3711 13.8281-15.791Q12.3633-16.2109 10.8398-15.7617Q10.7227-15.7324 10.6885-15.8057Q10.6543-15.8789 10.752-15.957Z"/>
  </g>
  <text style="stroke:none;fill:black;font-family:sans-serif;font-size:13;font-weight:bold;" transform="matrix(1 0 0 1 1289 1953)">Exporting</text>
  <text style="stroke:none;fill:black;font-family:sans-serif;font-size:13;" transform="matrix(1 0 0 1 1289 1971)">Symbols should be outlined when exporting to ensure the</text>
  <text style="stroke:none;fill:black;font-family:sans-serif;font-size:13;" transform="matrix(1 0 0 1 1289 1989)">design is preserved when submitting to Xcode.</text>
  <text id="template-version" style="stroke:none;fill:black;font-family:sans-serif;font-size:13;text-anchor:end;" transform="matrix(1 0 0 1 3036 1933)">Template v.3.0</text>
  <text style="stroke:none;fill:black;font-family:sans-serif;font-size:13;text-anchor:end;" transform="matrix(1 0 0 1 3036 1951)">Requires Xcode 13 or greater</text>
  <text id="descriptive-name" style="stroke:none;fill:black;font-family:sans-serif;font-size:13;text-anchor:end;" transform="matrix(1 0 0 1 3036 1969)">Generated from arrow.down.forward.and.arrow.up.backward</text>
  <text style="stroke:none;fill:black;font-family:sans-serif;font-size:13;text-anchor:end;" transform="matrix(1 0 0 1 3036 1987)">Typeset at 100 points</text>
  <text style="stroke:none;fill:black;font-family:sans-serif;font-size:13;" transform="matrix(1 0 0 1 263 726)">Small</text>
  <text style="stroke:none;fill:black;font-family:sans-serif;font-size:13;" transform="matrix(1 0 0 1 263 1156)">Medium</text>
  <text style="stroke:none;fill:black;font-family:sans-serif;font-size:13;" transform="matrix(1 0 0 1 263 1586)">Large</text>
 </g>
 <g id="Guides">
  <g id="H-reference" style="fill:#27AAE1;stroke:none;" transform="matrix(1 0 0 1 339 696)">
   <path d="M0.976562 0L3.66211 0L29.3457-67.1387L30.0293-67.1387L30.0293-70.459L28.125-70.459ZM11.6699-24.4629L46.9727-24.4629L46.2402-26.709L12.4512-26.709ZM55.127 0L57.7637 0L30.6152-70.459L29.4434-70.459L29.4434-67.1387Z"/>
  </g>
  <line id="Baseline-S" style="fill:none;stroke:#27AAE1;opacity:1;stroke-width:0.5;" x1="263" x2="3036" y1="696" y2="696"/>
  <line id="Capline-S" style="fill:none;stroke:#27AAE1;opacity:1;stroke-width:0.5;" x1="263" x2="3036" y1="625.541" y2="625.541"/>
  <g id="H-reference" style="fill:#27AAE1;stroke:none;" transform="matrix(1 0 0 1 339 1126)">
   <path d="M0.976562 0L3.66211 0L29.3457-67.1387L30.0293-67.1387L30.0293-70.459L28.125-70.459ZM11.6699-24.4629L46.9727-24.4629L46.2402-26.709L12.4512-26.709ZM55.127 0L57.7637 0L30.6152-70.459L29.4434-70.459L29.4434-67.1387Z"/>
  </g>
  <line id="Baseline-M" style="fill:none;stroke:#27AAE1;opacity:1;stroke-width:0.5;" x1="263" x2="3036" y1="1126" y2="1126"/>
  <line id="Capline-M" style="fill:none;stroke:#27AAE1;opacity:1;stroke-width:0.5;" x1="263" x2="3036" y1="1055.54" y2="1055.54"/>
  <g id="H-reference" style="fill:#27AAE1;stroke:none;" transform="matrix(1 0 0 1 339 1556)">
   <path d="M0.976562 0L3.66211 0L29.3457-67.1387L30.0293-67.1387L30.0293-70.459L28.125-70.459ZM11.6699-24.4629L46.9727-24.4629L46.2402-26.709L12.4512-26.709ZM55.127 0L57.7637 0L30.6152-70.459L29.4434-70.459L29.4434-67.1387Z"/>
  </g>
  <line id="Baseline-L" style="fill:none;stroke:#27AAE1;opacity:1;stroke-width:0.5;" x1="263" x2="3036" y1="1556" y2="1556"/>
  <line id="Capline-L" style="fill:none;stroke:#27AAE1;opacity:1;stroke-width:0.5;" x1="263" x2="3036" y1="1485.54" y2="1485.54"/>
  <line id="left-margin-Regular-M" style="fill:none;stroke:#00AEEF;stroke-width:0.5;opacity:1.0;" x1="1389.81" x2="1389.81" y1="1030.79" y2="1150.12"/>
  <line id="right-margin-Regular-M" style="fill:none;stroke:#00AEEF;stroke-width:0.5;opacity:1.0;" x1="1509.88" x2="1509.88" y1="1030.79" y2="1150.12"/>
 </g>
 <g id="Symbols">
  <g id="Black-L" transform="matrix(1 0 0 1 2851.95 1556)">
   <path d="M28.0762-37.1094L62.3535-37.1094Q69.873-37.1094 74.0479-41.2598Q78.2227-45.4102 78.2227-52.9785L78.2227-85.498Q78.2227-90.0879 75.1221-92.9932Q72.0215-95.8984 67.4316-95.8984Q62.8418-95.8984 59.7656-92.9932Q56.6895-90.0879 56.6895-85.498L56.6895-84.5215L58.2031-71.9727L50.2441-80.5176L36.4258-94.4824Q33.3496-97.5586 28.7109-97.5586Q23.7793-97.5586 20.7031-94.3848Q17.627-91.2109 17.627-86.2305Q17.627-84.1309 18.5059-82.2754Q19.3848-80.4199 20.8984-78.9062L34.8145-65.0391L43.4082-57.1289L30.5664-58.5938L28.0762-58.5938Q23.4863-58.5938 20.5566-55.5176Q17.627-52.4414 17.627-47.8516Q17.627-43.2129 20.5566-40.1611Q23.4863-37.1094 28.0762-37.1094ZM95.459 25.6348Q100.049 25.6348 103.125 22.7295Q106.201 19.8242 106.201 15.2344L106.201 14.2578L104.688 1.70898L112.646 10.3027L126.465 24.2188Q129.59 27.3438 134.18 27.3438Q139.111 27.3438 142.188 24.1455Q145.264 20.9473 145.264 16.0156Q145.264 13.8672 144.385 12.0117Q143.506 10.1562 141.992 8.64258L128.076-5.22461L119.482-13.1348L132.324-11.6211L134.863-11.6211Q139.453-11.6211 142.358-14.6973Q145.264-17.7734 145.264-22.3633Q145.264-27.002 142.358-30.0781Q139.453-33.1543 134.863-33.1543L100.537-33.1543Q93.0176-33.1543 88.8428-28.9795Q84.668-24.8047 84.668-17.2852L84.668 15.2344Q84.668 19.8242 87.7686 22.7295Q90.8691 25.6348 95.459 25.6348Z"/>
  </g>
  <g id="Heavy-L" transform="matrix(1 0 0 1 2556.15 1556)">
   <path d="M27.6855-38.2324L62.5-38.2324Q69.1895-38.2324 72.9248-41.9434Q76.6602-45.6543 76.6602-52.3926L76.6602-85.8887Q76.6602-89.8438 73.9502-92.4072Q71.2402-94.9707 67.2363-94.9707Q63.2324-94.9707 60.5713-92.4316Q57.9102-89.8926 57.9102-85.8887L57.9102-83.1055L59.3262-68.4082L48.9258-79.3945L33.6426-94.8242Q31.0059-97.5098 26.9531-97.5098Q22.6562-97.5098 19.9463-94.7754Q17.2363-92.041 17.2363-87.6953Q17.2363-85.8398 17.9932-84.1797Q18.75-82.5195 20.1172-81.2012L35.498-65.8691L46.4844-55.5664L31.5918-56.9336L27.6855-56.9336Q23.6816-56.9336 21.0938-54.2725Q18.5059-51.6113 18.5059-47.6074Q18.5059-43.5547 21.0693-40.8936Q23.6328-38.2324 27.6855-38.2324ZM93.6523 25.0488Q97.6562 25.0488 100.317 22.4854Q102.979 19.9219 102.979 15.918L102.979 12.8418L101.562-1.80664L111.963 9.17969L127.393 24.7559Q130.127 27.4902 134.082 27.4902Q138.428 27.4902 141.113 24.7314Q143.799 21.9727 143.799 17.6758Q143.799 15.7715 143.042 14.1357Q142.285 12.5 140.967 11.1328L125.391-4.3457L114.404-14.6973L129.297-13.2324L133.545-13.2324Q137.549-13.2324 140.112-15.918Q142.676-18.6035 142.676-22.6074Q142.676-26.6602 140.137-29.3213Q137.598-31.9824 133.545-31.9824L98.3887-31.9824Q91.6992-31.9824 87.9639-28.2715Q84.2285-24.5605 84.2285-17.8711L84.2285 15.918Q84.2285 19.9219 86.9385 22.4854Q89.6484 25.0488 93.6523 25.0488Z"/>
  </g>
  <g id="Bold-L" transform="matrix(1 0 0 1 2260.46 1556)">
   <path d="M27.1973-39.502L62.6465-39.502Q68.457-39.502 71.6797-42.7002Q74.9023-45.8984 74.9023-51.7578L74.9023-86.2793Q74.9023-89.5996 72.6562-91.7969Q70.4102-93.9941 67.041-93.9941Q63.6719-93.9941 61.4502-91.8213Q59.2285-89.6484 59.2285-86.2793L59.2285-81.4941L60.5469-64.4531L47.5098-78.125L30.5664-95.2148Q28.3691-97.4609 25-97.4609Q21.4355-97.4609 19.1406-95.1904Q16.8457-92.9199 16.8457-89.3066Q16.8457-87.7441 17.4805-86.3281Q18.1152-84.9121 19.2383-83.8379L36.2793-66.7969L49.9512-53.8086L32.7637-55.127L27.1973-55.127Q23.877-55.127 21.6797-52.9053Q19.4824-50.6836 19.4824-47.3145Q19.4824-43.9453 21.6553-41.7236Q23.8281-39.502 27.1973-39.502ZM91.6504 24.4141Q94.9707 24.4141 97.1924 22.2412Q99.4141 20.0684 99.4141 16.6992L99.4141 11.2793L98.0957-5.76172L111.182 7.95898L128.467 25.3906Q130.713 27.6367 134.033 27.6367Q137.646 27.6367 139.917 25.3662Q142.188 23.0957 142.188 19.4824Q142.188 17.9199 141.553 16.5039Q140.918 15.0879 139.795 13.9648L122.412-3.41797L108.691-16.4062L125.928-15.0879L132.129-15.0879Q135.449-15.0879 137.622-17.2852Q139.795-19.4824 139.844-22.9004Q139.844-26.2695 137.671-28.4912Q135.498-30.7129 132.129-30.7129L95.9961-30.7129Q90.2344-30.7129 87.0117-27.4902Q83.7891-24.2676 83.7891-18.5059L83.7891 16.6992Q83.7891 20.0195 86.0352 22.2168Q88.2812 24.4141 91.6504 24.4141Z"/>
  </g>
  <g id="Semibold-L" transform="matrix(1 0 0 1 1964.46 1556)">
   <path d="M26.8555-40.332L62.7441-40.332Q67.9199-40.332 70.8008-43.2129Q73.6816-46.0938 73.6816-51.2695L73.6816-86.5723Q73.6816-89.4043 71.7529-91.333Q69.8242-93.2617 66.8457-93.2617Q63.9648-93.2617 62.0605-91.3818Q60.1562-89.502 60.1562-86.5723L60.1562-80.3711L61.377-61.7188L46.4844-77.2461L28.418-95.459Q26.5137-97.4121 23.6328-97.4121Q20.5566-97.4121 18.5547-95.4834Q16.5527-93.5547 16.5527-90.3809Q16.5527-89.0137 17.0898-87.7686Q17.627-86.5234 18.6035-85.5957L36.7676-67.4316L52.3438-52.5879L33.5449-53.8086L26.8555-53.8086Q23.9746-53.8086 22.0703-51.9287Q20.166-50.0488 20.1172-47.1191Q20.1172-44.1895 22.0459-42.2607Q23.9746-40.332 26.8555-40.332ZM90.2344 23.9258Q93.1152 23.9258 95.0195 22.0459Q96.9238 20.166 96.9238 17.2363L96.9238 10.2051L95.7031-8.44727L110.596 7.12891L129.199 25.7812Q131.104 27.7344 133.936 27.7344Q137.061 27.7344 139.062 25.8057Q141.064 23.877 141.064 20.752Q141.064 19.3848 140.527 18.1396Q139.99 16.8945 139.014 15.918L120.361-2.73438L104.785-17.5781L123.584-16.3086L131.104-16.3086Q133.984-16.3086 135.889-18.2129Q137.793-20.1172 137.842-23.0469Q137.842-26.0254 135.938-27.9297Q134.033-29.834 131.104-29.834L94.3359-29.834Q89.209-29.834 86.3281-26.9531Q83.4473-24.0723 83.4473-18.8965L83.4473 17.2363Q83.4473 20.0684 85.376 21.9971Q87.3047 23.9258 90.2344 23.9258Z"/>
  </g>
  <g id="Medium-L" transform="matrix(1 0 0 1 1668.28 1556)">
   <path d="M26.6113-41.0156L62.8418-41.0156Q67.5293-41.0156 70.1416-43.6035Q72.7539-46.1914 72.7539-50.9277L72.7539-86.7676Q72.7539-89.3066 71.0693-91.0156Q69.3848-92.7246 66.748-92.7246Q64.209-92.7246 62.5244-91.04Q60.8398-89.3555 60.8398-86.7676L60.8398-79.541L62.0605-59.6191L45.7031-76.6113L26.8066-95.7031Q25.1465-97.4121 22.6074-97.4121Q19.873-97.4121 18.1152-95.7031Q16.3574-93.9941 16.3574-91.2598Q16.3574-90.0391 16.8213-88.916Q17.2852-87.793 18.1152-86.9629L37.1582-67.9199L54.1504-51.6602L34.1309-52.8809L26.6113-52.8809Q24.0723-52.8809 22.3633-51.2207Q20.6543-49.5605 20.6543-46.9727Q20.6543-44.3848 22.3389-42.7002Q24.0234-41.0156 26.6113-41.0156ZM89.1602 23.584Q91.6992 23.584 93.3838 21.8994Q95.0684 20.2148 95.0684 17.627L95.0684 9.375L93.8965-10.498L110.205 6.44531L129.736 26.123Q131.396 27.832 133.887 27.832Q136.67 27.832 138.452 26.1475Q140.234 24.4629 140.234 21.6797Q140.234 20.459 139.746 19.3604Q139.258 18.2617 138.379 17.3828L118.799-2.19727L101.807-18.5059L121.777-17.2852L130.322-17.2852Q132.91-17.2852 134.595-18.9209Q136.279-20.5566 136.328-23.1934Q136.328-25.7812 134.619-27.4658Q132.91-29.1504 130.322-29.1504L93.0664-29.1504Q88.4277-29.1504 85.8154-26.5381Q83.2031-23.9258 83.2031-19.2383L83.2031 17.627Q83.2031 20.166 84.8877 21.875Q86.5723 23.584 89.1602 23.584Z"/>
  </g>
  <g id="Regular-L" transform="matrix(1 0 0 1 1372.26 1556)">
   <path d="M26.3184-41.8457L62.9395-41.8457Q66.9922-41.8457 69.2627-44.1162Q71.5332-46.3867 71.5332-50.4883L71.5332-87.0605Q71.5332-89.1113 70.166-90.5762Q68.7988-92.041 66.6016-92.041Q64.502-92.041 63.1348-90.625Q61.7676-89.209 61.7676-87.0605L61.7676-78.4668L62.8906-56.9336L44.7266-75.7324L24.707-95.9473Q23.3398-97.3633 21.2891-97.3633Q19.043-97.3633 17.5537-95.9961Q16.0645-94.6289 16.0645-92.334Q16.0645-91.3086 16.4307-90.3564Q16.7969-89.4043 17.5293-88.7207L37.6953-68.5547L56.4941-50.4883L34.9121-51.6113L26.3184-51.6113Q24.2188-51.6113 22.7783-50.2686Q21.3379-48.9258 21.2891-46.7773Q21.2891-44.6289 22.7295-43.2373Q24.1699-41.8457 26.3184-41.8457ZM87.793 23.1445Q89.8926 23.1445 91.2598 21.7285Q92.627 20.3125 92.627 18.1641L92.627 8.30078L91.5039-13.1836L109.668 5.61523L130.469 26.5137Q131.787 27.9297 133.838 27.9297Q136.133 27.9297 137.622 26.5869Q139.111 25.2441 139.111 22.9492Q139.111 21.9238 138.721 20.9717Q138.33 20.0195 137.598 19.2871L116.748-1.5625L97.9004-19.6777L119.482-18.5059L129.346-18.5059Q131.445-18.5059 132.886-19.8486Q134.326-21.1914 134.375-23.3887Q134.375-25.5371 132.935-26.9043Q131.494-28.2715 129.346-28.2715L91.4551-28.2715Q87.4023-28.2715 85.1318-26.001Q82.8613-23.7305 82.8613-19.6777L82.8613 18.1641Q82.8613 20.2148 84.2529 21.6797Q85.6445 23.1445 87.793 23.1445Z"/>
  </g>
  <g id="Light-L" transform="matrix(1 0 0 1 1075.4 1556)">
   <path d="M24.8535-42.5781L63.6719-42.5781Q66.748-42.5781 68.457-44.3115Q70.166-46.0449 70.166-49.0723L70.166-87.8906Q70.166-89.4531 69.165-90.5762Q68.1641-91.6992 66.5039-91.6992Q64.8926-91.6992 63.8672-90.625Q62.8418-89.5508 62.8418-87.8906L62.8418-74.8047L63.7207-53.8574L43.457-74.5605L22.5098-95.6543Q21.4844-96.7285 19.9707-96.7285Q18.2617-96.7285 17.1631-95.7031Q16.0645-94.6777 16.0645-92.9688Q16.0645-92.1875 16.333-91.4795Q16.6016-90.7715 17.1875-90.2832L38.2812-69.1406L58.9355-49.0234L37.9395-49.9512L24.8535-49.9512Q23.291-49.9512 22.1924-48.9502Q21.0938-47.9492 21.0449-46.2891Q21.0449-44.6777 22.1191-43.6279Q23.1934-42.5781 24.8535-42.5781ZM87.7441 23.7793Q89.3555 23.7793 90.3809 22.7051Q91.4062 21.6309 91.4062 19.9707L91.4062 4.93164L90.5273-16.0156L110.791 4.6875L132.91 26.9043Q133.936 27.9785 135.449 27.9785Q137.158 27.9785 138.281 26.9775Q139.404 25.9766 139.404 24.2676Q139.404 23.4863 139.111 22.7783Q138.818 22.0703 138.232 21.5332L115.967-0.78125L95.3125-20.8984L116.309-19.9219L131.396-19.9219Q132.91-19.9219 134.009-20.9229Q135.107-21.9238 135.156-23.6328Q135.156-25.2441 134.082-26.2695Q133.008-27.2949 131.396-27.2949L90.5273-27.2949Q87.5-27.2949 85.7666-25.5615Q84.0332-23.8281 84.0332-20.8008L84.0332 19.9707Q84.0332 21.5332 85.0586 22.6562Q86.084 23.7793 87.7441 23.7793Z"/>
  </g>
  <g id="Thin-L" transform="matrix(1 0 0 1 778.517 1556)">
   <path d="M22.9492-43.5547L64.6973-43.5547Q66.4062-43.5547 67.4072-44.5557Q68.4082-45.5566 68.4082-47.2656L68.4082-89.0137Q68.4082-89.9414 67.8711-90.5762Q67.334-91.2109 66.3574-91.2109Q65.4297-91.2109 64.8438-90.6006Q64.2578-89.9902 64.2578-89.0137L64.2578-69.9707L64.8438-49.8535L41.7969-72.998L19.6289-95.2637Q19.043-95.8984 18.2129-95.8984Q17.2363-95.8984 16.6504-95.3125Q16.0645-94.7266 16.0645-93.7988Q16.0645-93.3594 16.2109-92.9932Q16.3574-92.627 16.6992-92.2852L39.1113-69.873L62.1582-47.0215L41.9434-47.7539L22.9492-47.7539Q22.0703-47.7539 21.4355-47.168Q20.8008-46.582 20.7031-45.6543Q20.7031-44.6777 21.3379-44.1162Q21.9727-43.5547 22.9492-43.5547ZM87.6465 24.6094Q88.623 24.6094 89.1846 23.999Q89.7461 23.3887 89.7461 22.3633L89.7461 0.439453L89.1602-19.7266L112.256 3.41797L136.182 27.4414Q136.768 28.0762 137.549 28.0762Q138.574 28.0762 139.16 27.5146Q139.746 26.9531 139.746 25.9766Q139.746 25.5859 139.575 25.1953Q139.404 24.8047 139.111 24.5117L114.941 0.292969L91.8457-22.5098L112.061-21.8262L134.033-21.8262Q134.912-21.8262 135.547-22.3877Q136.182-22.9492 136.23-23.9258Q136.23-24.9023 135.62-25.4639Q135.01-26.0254 134.033-26.0254L89.3066-26.0254Q87.6465-26.0254 86.6211-25.0244Q85.5957-24.0234 85.5957-22.3145L85.5957 22.3633Q85.5957 23.291 86.1572 23.9502Q86.7188 24.6094 87.6465 24.6094Z"/>
  </g>
  <g id="Ultralight-L" transform="matrix(1 0 0 1 481.708 1556)">
   <path d="M21.9727-44.043L65.1855-44.043Q66.2109-44.043 66.8457-44.7021Q67.4805-45.3613 67.4805-46.2891L67.4805-89.5996Q67.4805-90.1367 67.1875-90.5518Q66.8945-90.9668 66.2598-90.9668Q65.6738-90.9668 65.332-90.5762Q64.9902-90.1855 64.9902-89.5996L64.9902-67.5293L65.3809-47.7539L40.918-72.168L18.1641-95.0684Q17.8223-95.459 17.334-95.459Q16.748-95.459 16.4062-95.1172Q16.0645-94.7754 16.0645-94.1895Q16.0645-93.9941 16.1621-93.7744Q16.2598-93.5547 16.4551-93.3594L39.502-70.2637L63.8184-46.0449L43.9941-46.6309L21.9727-46.6309Q21.4355-46.6309 21.0449-46.2891Q20.6543-45.9473 20.5566-45.3125Q20.5566-44.7266 20.9229-44.3848Q21.2891-44.043 21.9727-44.043ZM87.5977 25Q88.2812 25 88.5986 24.6338Q88.916 24.2676 88.916 23.6328L88.916-1.85547L88.5254-21.6309L113.037 2.7832L137.842 27.7344Q138.184 28.125 138.672 28.125Q139.258 28.125 139.6 27.7832Q139.941 27.4414 139.941 26.8555Q139.941 26.6602 139.844 26.416Q139.746 26.1719 139.551 26.0254L114.404 0.830078L90.0879-23.3398L109.912-22.7539L135.449-22.7539Q135.889-22.7539 136.304-23.0957Q136.719-23.4375 136.768-24.0723Q136.768-24.707 136.401-25.0244Q136.035-25.3418 135.449-25.3418L88.6719-25.3418Q87.7441-25.3418 87.085-24.707Q86.4258-24.0723 86.4258-23.0957L86.4258 23.6328Q86.4258 24.1699 86.7188 24.585Q87.0117 25 87.5977 25Z"/>
  </g>
  <g id="Black-M" transform="matrix(1 0 0 1 2869.46 1126)">
   <path d="M21.582-35.9375L48.4375-35.9375Q54.6387-35.9375 58.0811-39.3799Q61.5234-42.8223 61.5234-49.0234L61.5234-74.1699Q61.5234-78.0273 58.8867-80.4688Q56.25-82.9102 52.3926-82.9102Q48.4863-82.9102 45.874-80.4688Q43.2617-78.0273 43.2617-74.1699L43.2617-73.3887L44.4336-65.7227L39.5996-70.8984L29.834-80.7617Q27.1973-83.3984 23.291-83.3984Q19.0918-83.3984 16.5283-80.6641Q13.9648-77.9297 13.9648-73.7305Q13.9648-71.9727 14.6973-70.4346Q15.4297-68.8965 16.6992-67.627L26.6113-57.8125L31.7871-53.0273L23.8281-54.1992L21.582-54.1992Q17.7246-54.1992 15.2832-51.5869Q12.8418-48.9746 12.8418-45.0684Q12.8418-41.1621 15.2832-38.5498Q17.7246-35.9375 21.582-35.9375ZM75.4883 12.6465Q79.3457 12.6465 81.9824 10.2295Q84.6191 7.8125 84.6191 3.90625L84.6191 3.17383L83.4473-4.54102L88.2812 0.683594L98.0469 10.498Q100.684 13.1348 104.59 13.1348Q108.74 13.1348 111.328 10.4004Q113.916 7.66602 113.916 3.51562Q113.916 1.70898 113.159 0.195312Q112.402-1.31836 111.133-2.58789L101.27-12.4512L96.0449-17.2363L104.053-16.0156L106.299-16.0156Q110.156-16.0156 112.598-18.6523Q115.039-21.2891 115.039-25.1465Q115.039-29.0527 112.598-31.665Q110.156-34.2773 106.299-34.2773L79.4434-34.2773Q73.2422-34.2773 69.7998-30.835Q66.3574-27.3926 66.3574-21.2402L66.3574 3.90625Q66.3574 7.8125 68.9941 10.2295Q71.6309 12.6465 75.4883 12.6465Z"/>
  </g>
  <g id="Heavy-M" transform="matrix(1 0 0 1 2573.68 1126)">
   <path d="M21.4844-36.8652L48.4375-36.8652Q54.0527-36.8652 57.1533-39.9902Q60.2539-43.1152 60.2539-48.7305L60.2539-74.3652Q60.2539-77.7344 57.9346-79.9072Q55.6152-82.0801 52.2461-82.0801Q48.7793-82.0801 46.4844-79.9072Q44.1895-77.7344 44.1895-74.3652L44.1895-72.7539L45.3613-62.8906L38.623-70.0684L27.5879-81.1523Q25.293-83.4961 21.875-83.4961Q18.1641-83.4961 15.8936-81.1035Q13.623-78.7109 13.623-75Q13.623-73.4375 14.2578-72.0703Q14.8926-70.7031 16.0156-69.5312L27.1484-58.4961L34.2773-51.8066L24.1699-52.9297L21.4844-52.9297Q18.1152-52.9297 15.918-50.6348Q13.7207-48.3398 13.7207-44.9219Q13.7207-41.4551 15.918-39.1602Q18.1152-36.8652 21.4844-36.8652ZM73.7305 11.9141Q77.1484 11.9141 79.4434 9.76562Q81.7383 7.61719 81.7383 4.19922L81.7383 2.53906L80.6152-7.37305L87.3535-0.195312L98.4375 10.9375Q100.732 13.2812 104.199 13.2812Q107.812 13.2812 110.132 10.8887Q112.451 8.49609 112.451 4.83398Q112.451 3.22266 111.792 1.87988Q111.133 0.537109 110.01-0.634766L98.8281-11.7676L91.6504-18.457L101.807-17.2852L104.59-17.2852Q108.008-17.2852 110.181-19.6045Q112.354-21.9238 112.354-25.3418Q112.354-28.7598 110.181-31.0547Q108.008-33.3496 104.59-33.3496L77.5391-33.3496Q71.9238-33.3496 68.8232-30.249Q65.7227-27.1484 65.7227-21.5332L65.7227 4.19922Q65.7227 7.61719 68.0176 9.76562Q70.3125 11.9141 73.7305 11.9141Z"/>
  </g>
  <g id="Bold-M" transform="matrix(1 0 0 1 2277.99 1126)">
   <path d="M21.4355-37.9395L48.3887-37.9395Q53.3691-37.9395 56.1279-40.6982Q58.8867-43.457 58.8867-48.4375L58.8867-74.5605Q58.8867-77.4414 56.9336-79.3213Q54.9805-81.2012 52.0508-81.2012Q49.1211-81.2012 47.1924-79.3213Q45.2637-77.4414 45.2637-74.5605L45.2637-72.1191L46.3867-59.7656L37.5-69.0918L25.1465-81.5918Q23.1934-83.5938 20.3125-83.5938Q17.1387-83.5938 15.1855-81.5918Q13.2324-79.5898 13.2324-76.4648Q13.2324-75.0977 13.7695-73.9014Q14.3066-72.7051 15.2832-71.7285L27.7344-59.2773L37.1094-50.4883L24.6094-51.5625L21.4355-51.5625Q18.5059-51.5625 16.626-49.6338Q14.7461-47.7051 14.7461-44.7754Q14.7461-41.8457 16.626-39.8926Q18.5059-37.9395 21.4355-37.9395ZM71.7773 11.1328Q74.6582 11.1328 76.6113 9.27734Q78.5645 7.42188 78.5645 4.49219L78.5645 1.80664L77.4902-10.5469L86.3281-1.17188L98.877 11.4746Q100.83 13.4277 103.711 13.4277Q106.836 13.4277 108.813 11.4258Q110.791 9.42383 110.791 6.34766Q110.791 4.93164 110.229 3.75977Q109.668 2.58789 108.74 1.61133L96.0938-11.0352L86.7188-19.873L99.2676-18.75L102.686-18.75Q105.615-18.75 107.495-20.6787Q109.375-22.6074 109.375-25.5371Q109.375-28.4668 107.495-30.3955Q105.615-32.3242 102.686-32.3242L75.4395-32.3242Q70.459-32.3242 67.7246-29.5898Q64.9902-26.8555 64.9902-21.875L64.9902 4.49219Q64.9902 7.42188 66.9434 9.27734Q68.8965 11.1328 71.7773 11.1328Z"/>
  </g>
  <g id="Semibold-M" transform="matrix(1 0 0 1 1981.99 1126)">
   <path d="M21.3379-38.6719L48.3887-38.6719Q52.9297-38.6719 55.4199-41.1865Q57.9102-43.7012 57.9102-48.2422L57.9102-74.6582Q57.9102-77.1973 56.2012-78.8818Q54.4922-80.5664 51.9043-80.5664Q49.3652-80.5664 47.6807-78.9062Q45.9961-77.2461 45.9961-74.6582L45.9961-71.6309L47.0703-57.5684L36.7188-68.457L23.3887-81.8848Q21.6797-83.6426 19.1895-83.6426Q16.4062-83.6426 14.6729-81.9092Q12.9395-80.1758 12.9395-77.4414Q12.9395-76.2207 13.4033-75.1465Q13.8672-74.0723 14.7461-73.1934L28.125-59.8145L39.0137-49.5117L24.8535-50.5859L21.3379-50.5859Q18.7988-50.5859 17.1143-48.9014Q15.4297-47.2168 15.4297-44.6289Q15.4297-42.041 17.1143-40.3564Q18.7988-38.6719 21.3379-38.6719ZM70.4102 10.5957Q72.9492 10.5957 74.6582 8.93555Q76.3672 7.27539 76.3672 4.6875L76.3672 1.31836L75.293-12.7441L85.5957-1.85547L99.1699 11.8164Q100.83 13.5254 103.369 13.5254Q106.104 13.5254 107.861 11.792Q109.619 10.0586 109.619 7.32422Q109.619 6.10352 109.155 5.0293Q108.691 3.95508 107.812 3.125L94.1895-10.498L83.3008-20.8008L97.5098-19.7266L101.367-19.7266Q103.906-19.7266 105.591-21.4111Q107.275-23.0957 107.275-25.6348Q107.275-28.2715 105.591-29.9316Q103.906-31.5918 101.367-31.5918L73.9746-31.5918Q69.4336-31.5918 66.9434-29.1016Q64.4531-26.6113 64.4531-22.1191L64.4531 4.6875Q64.4531 7.27539 66.1621 8.93555Q67.8711 10.5957 70.4102 10.5957Z"/>
  </g>
  <g id="Medium-M" transform="matrix(1 0 0 1 1685.81 1126)">
   <path d="M21.2891-39.209L48.3398-39.209Q52.5391-39.209 54.8584-41.5283Q57.1777-43.8477 57.1777-48.0469L57.1777-74.7559Q57.1777-77.002 55.6641-78.54Q54.1504-80.0781 51.8555-80.0781Q49.5117-80.0781 48.0225-78.5645Q46.5332-77.0508 46.5332-74.7559L46.5332-71.2891L47.6074-55.9082L36.1328-67.9199L22.1191-82.1289Q20.6055-83.6914 18.3594-83.6914Q15.8691-83.6914 14.3066-82.1533Q12.7441-80.6152 12.7441-78.1738Q12.7441-77.0508 13.1348-76.0742Q13.5254-75.0977 14.3555-74.3164L28.4668-60.2051L40.4785-48.8281L25.0488-49.8535L21.2891-49.8535Q18.9941-49.8535 17.4805-48.3643Q15.9668-46.875 15.9668-44.5312Q15.9668-42.2363 17.4805-40.7227Q18.9941-39.209 21.2891-39.209ZM69.3848 10.1562Q71.6797 10.1562 73.1934 8.66699Q74.707 7.17773 74.707 4.88281L74.707 0.927734L73.6328-14.4043L85.0586-2.34375L99.4141 12.0605Q100.879 13.623 103.125 13.623Q105.566 13.623 107.153 12.085Q108.74 10.5469 108.74 8.10547Q108.74 6.98242 108.325 6.00586Q107.91 5.0293 107.178 4.24805L92.7734-10.1074L80.7129-21.5332L96.1426-20.5078L100.391-20.5078Q102.686-20.5078 104.199-21.9727Q105.713-23.4375 105.713-25.7324Q105.713-28.0762 104.199-29.5654Q102.686-31.0547 100.391-31.0547L72.9004-31.0547Q68.7012-31.0547 66.3818-28.7598Q64.0625-26.4648 64.0625-22.2656L64.0625 4.88281Q64.0625 7.17773 65.5762 8.66699Q67.0898 10.1562 69.3848 10.1562Z"/>
  </g>
  <g id="Regular-M" transform="matrix(1 0 0 1 1389.81 1126)">
   <path d="M21.2402-39.9414L48.3398-39.9414Q52.0996-39.9414 54.1504-42.0166Q56.2012-44.0918 56.2012-47.8516L56.2012-74.9023Q56.2012-76.8066 54.9316-78.125Q53.6621-79.4434 51.709-79.4434Q49.7559-79.4434 48.5107-78.1494Q47.2656-76.8555 47.2656-74.9023L47.2656-70.8008L48.291-53.7598L35.4004-67.2852L20.4102-82.4219Q19.1406-83.7402 17.2852-83.7402Q15.1855-83.7402 13.8184-82.4707Q12.4512-81.2012 12.4512-79.1504Q12.4512-78.1738 12.793-77.3193Q13.1348-76.4648 13.8184-75.7812L28.8574-60.7422L42.3828-47.9004L25.3418-48.877L21.2402-48.877Q19.2871-48.877 17.9688-47.6318Q16.6504-46.3867 16.6504-44.4336Q16.6504-42.4805 17.9688-41.2109Q19.2871-39.9414 21.2402-39.9414ZM68.0664 9.61914Q69.9707 9.61914 71.2402 8.3252Q72.5098 7.03125 72.5098 5.07812L72.5098 0.439453L71.4844-16.5527L84.375-3.02734L99.707 12.4023Q100.928 13.7207 102.832 13.7207Q104.883 13.7207 106.25 12.4512Q107.617 11.1816 107.617 9.13086Q107.617 8.1543 107.275 7.2998Q106.934 6.44531 106.299 5.76172L90.918-9.61914L77.3438-22.4609L94.4336-21.4844L99.0723-21.4844Q101.025-21.4844 102.344-22.7051Q103.662-23.9258 103.662-25.8789Q103.662-27.8809 102.344-29.126Q101.025-30.3711 99.0723-30.3711L71.4355-30.3711Q67.6758-30.3711 65.625-28.3203Q63.5742-26.2695 63.5742-22.5098L63.5742 5.07812Q63.5742 7.03125 64.8438 8.3252Q66.1133 9.61914 68.0664 9.61914Z"/>
  </g>
  <g id="Light-M" transform="matrix(1 0 0 1 1092.98 1126)">
   <path d="M19.9219-40.5762L49.0234-40.5762Q51.8555-40.5762 53.418-42.1631Q54.9805-43.75 54.9805-46.6309L54.9805-75.6348Q54.9805-77.0996 54.0527-78.1006Q53.125-79.1016 51.6113-79.1016Q50.0977-79.1016 49.1699-78.125Q48.2422-77.1484 48.2422-75.6348L48.2422-67.5293L49.0234-51.0254L34.2285-66.2109L18.457-82.1777Q17.4805-83.1543 16.1133-83.1543Q14.502-83.1543 13.4766-82.2021Q12.4512-81.25 12.4512-79.6875Q12.4512-78.9551 12.7197-78.3203Q12.9883-77.6855 13.4766-77.1973L29.3945-61.2793L44.5801-46.582L28.0273-47.3633L19.9219-47.3633Q18.457-47.3633 17.4561-46.4355Q16.4551-45.5078 16.4551-43.9941Q16.4551-42.5293 17.4561-41.5527Q18.457-40.5762 19.9219-40.5762ZM68.0176 10.2051Q69.4824 10.2051 70.4346 9.2041Q71.3867 8.20312 71.3867 6.73828L71.3867-2.58789L70.6055-19.0918L85.3516-3.85742L101.904 12.7441Q102.832 13.7695 104.248 13.7695Q105.811 13.7695 106.836 12.8174Q107.861 11.8652 107.861 10.3027Q107.861 9.57031 107.617 8.93555Q107.373 8.30078 106.885 7.76367L90.2344-8.88672L75-23.584L91.5527-22.7539L100.879-22.7539Q102.344-22.7539 103.369-23.6816Q104.395-24.6094 104.395-26.123Q104.395-27.6367 103.394-28.5645Q102.393-29.4922 100.879-29.4922L70.6055-29.4922Q67.7734-29.4922 66.2109-27.9297Q64.6484-26.3672 64.6484-23.5352L64.6484 6.73828Q64.6484 8.20312 65.5762 9.2041Q66.5039 10.2051 68.0176 10.2051Z"/>
  </g>
  <g id="Thin-M" transform="matrix(1 0 0 1 796.095 1126)">
   <path d="M18.1641-41.4551L49.9023-41.4551Q51.5137-41.4551 52.4414-42.4072Q53.3691-43.3594 53.3691-44.9707L53.3691-76.6602Q53.3691-77.4902 52.8564-78.1006Q52.3438-78.7109 51.4648-78.7109Q50.5859-78.7109 50.0244-78.125Q49.4629-77.5391 49.4629-76.6602L49.4629-63.1836L50-47.4121L32.7148-64.8438L15.8203-81.8359Q15.2832-82.4219 14.502-82.4219Q13.5742-82.4219 13.0127-81.8848Q12.4512-81.3477 12.4512-80.4199Q12.4512-80.0293 12.5977-79.6631Q12.7441-79.2969 13.0371-79.0039L30.127-61.9141L47.4609-44.8242L31.6406-45.4102L18.1641-45.4102Q17.3828-45.4102 16.7969-44.873Q16.2109-44.3359 16.1621-43.457Q16.1621-42.5293 16.748-41.9922Q17.334-41.4551 18.1641-41.4551ZM67.9688 10.9375Q68.8477 10.9375 69.3848 10.3516Q69.9219 9.76562 69.9219 8.88672L69.9219-6.64062L69.4336-22.4121L86.7188-4.98047L104.785 13.2324Q105.371 13.8184 106.152 13.8184Q107.08 13.8184 107.642 13.2812Q108.203 12.7441 108.203 11.8164Q108.203 11.4258 108.057 11.0596Q107.91 10.6934 107.617 10.4492L89.3066-7.91016L71.9238-25.0488L87.793-24.4141L103.271-24.4141Q104.102-24.4141 104.712-24.9512Q105.322-25.4883 105.371-26.416Q105.371-27.2949 104.785-27.832Q104.199-28.3691 103.271-28.3691L69.4824-28.3691Q67.8711-28.3691 66.9434-27.4414Q66.0156-26.5137 66.0156-24.9023L66.0156 8.88672Q66.0156 9.76562 66.5283 10.3516Q67.041 10.9375 67.9688 10.9375Z"/>
  </g>
  <g id="Ultralight-M" transform="matrix(1 0 0 1 499.286 1126)">
   <path d="M17.2852-41.8945L50.3906-41.8945Q51.3672-41.8945 51.9775-42.5049Q52.5879-43.1152 52.5879-44.1406L52.5879-77.1484Q52.5879-77.7344 52.2949-78.1006Q52.002-78.4668 51.3672-78.4668Q50.7812-78.4668 50.4639-78.125Q50.1465-77.7832 50.1465-77.1484L50.1465-60.9863L50.5371-45.6055L31.9336-64.1113L14.502-81.6895Q14.1602-82.0312 13.7207-82.0312Q13.0859-82.0312 12.7686-81.7139Q12.4512-81.3965 12.4512-80.7617Q12.4512-80.5664 12.5488-80.3467Q12.6465-80.127 12.8418-79.9805L30.4688-62.3047L48.9746-43.8965L33.4473-44.3848L17.2852-44.3848Q16.8457-44.3848 16.4551-44.0674Q16.0645-43.75 16.0156-43.1641Q16.0156-42.5781 16.3818-42.2363Q16.748-41.8945 17.2852-41.8945ZM67.9199 11.3281Q68.5059 11.3281 68.8232 10.9619Q69.1406 10.5957 69.1406 10.0098L69.1406-8.69141L68.7988-24.1211L87.3535-5.56641L106.299 13.4766Q106.641 13.8672 107.129 13.8672Q107.715 13.8672 108.057 13.5254Q108.398 13.1836 108.398 12.6465Q108.398 12.3535 108.301 12.1582Q108.203 11.9629 108.008 11.8164L88.8184-7.42188L70.3613-25.7812L85.8398-25.293L104.541-25.293Q105.029-25.293 105.42-25.6348Q105.811-25.9766 105.859-26.5625Q105.859-27.0996 105.493-27.4414Q105.127-27.7832 104.541-27.7832L68.9453-27.7832Q67.9688-27.7832 67.3584-27.1973Q66.748-26.6113 66.748-25.5859L66.748 10.0098Q66.748 10.5957 67.041 10.9619Q67.334 11.3281 67.9199 11.3281Z"/>
  </g>
  <g id="Black-S" transform="matrix(1 0 0 1 2883.03 696)">
   <path d="M16.8457-35.5469L37.9883-35.5469Q42.9688-35.5469 45.7275-38.3057Q48.4863-41.0645 48.4863-46.0449L48.4863-65.7227Q48.4863-68.8965 46.3623-70.8496Q44.2383-72.8027 41.0645-72.8027Q37.9395-72.8027 35.791-70.8496Q33.6426-68.8965 33.6426-65.7227L33.6426-65.1367L34.5703-59.8145L31.25-63.3789L23.9258-70.752Q21.7773-72.9004 18.6035-72.9004Q15.1855-72.9004 13.1104-70.6787Q11.0352-68.457 11.0352-65.0391Q11.0352-63.623 11.6455-62.3779Q12.2559-61.1328 13.2812-60.1074L20.7031-52.7344L24.2676-49.4629L18.7012-50.3906L16.8457-50.3906Q13.7207-50.3906 11.7432-48.2666Q9.76562-46.1426 9.76562-42.9688Q9.76562-39.7949 11.7432-37.6709Q13.7207-35.5469 16.8457-35.5469ZM59.668 2.53906Q62.8418 2.53906 64.9658 0.561523Q67.0898-1.41602 67.0898-4.54102L67.0898-5.12695L66.1621-10.4492L69.4824-6.88477L76.8066 0.488281Q78.9551 2.63672 82.1289 2.63672Q85.5469 2.63672 87.6221 0.415039Q89.6973-1.80664 89.6973-5.22461Q89.6973-6.64062 89.0869-7.88574Q88.4766-9.13086 87.4512-10.1562L80.0293-17.5293L76.4648-20.8008L82.0312-19.873L83.8867-19.873Q87.0605-19.873 89.0137-22.0215Q90.9668-24.1699 90.9668-27.2949Q90.9668-30.4688 89.0137-32.5928Q87.0605-34.7168 83.8867-34.7168L62.7441-34.7168Q57.7637-34.7168 55.0049-31.958Q52.2461-29.1992 52.2461-24.2188L52.2461-4.54102Q52.2461-1.41602 54.3945 0.561523Q56.543 2.53906 59.668 2.53906Z"/>
  </g>
  <g id="Heavy-S" transform="matrix(1 0 0 1 2587.13 696)">
   <path d="M16.9434-36.2793L37.8906-36.2793Q42.4805-36.2793 45.0195-38.8184Q47.5586-41.3574 47.5586-45.9473L47.5586-65.7715Q47.5586-68.6035 45.6787-70.3857Q43.7988-72.168 40.9668-72.168Q38.1348-72.168 36.2305-70.3857Q34.3262-68.6035 34.3262-65.7715L34.3262-65.0391L35.2539-57.7637L30.5664-62.793L22.2656-71.1426Q20.3613-73.0469 17.5293-73.0469Q14.502-73.0469 12.6221-71.0693Q10.7422-69.0918 10.7422-66.0645Q10.7422-64.7949 11.2793-63.6475Q11.8164-62.5 12.7441-61.5723L21.0938-53.2715L26.123-48.584L18.6523-49.5117L16.9434-49.5117Q14.1602-49.5117 12.3535-47.6318Q10.5469-45.752 10.5469-42.9199Q10.5469-40.0391 12.3535-38.1592Q14.1602-36.2793 16.9434-36.2793ZM58.2031 1.85547Q60.9863 1.85547 62.8906 0.0732422Q64.7949-1.70898 64.7949-4.54102L64.7949-5.27344L63.8672-12.5488L68.5547-7.51953L76.8555 0.830078Q78.7598 2.73438 81.5918 2.73438Q84.668 2.73438 86.5479 0.78125Q88.4277-1.17188 88.4277-4.24805Q88.4277-5.51758 87.8662-6.66504Q87.3047-7.8125 86.4258-8.74023L78.0273-17.041L72.998-21.7285L80.4688-20.8008L82.2266-20.8008Q85.0586-20.8008 86.8164-22.7051Q88.5742-24.6094 88.5742-27.4414Q88.5742-30.2734 86.8164-32.1533Q85.0586-34.0332 82.2266-34.0332L61.2305-34.0332Q56.6406-34.0332 54.1016-31.4941Q51.5625-28.9551 51.5625-24.3652L51.5625-4.54102Q51.5625-1.70898 53.4668 0.0732422Q55.3711 1.85547 58.2031 1.85547Z"/>
  </g>
  <g id="Bold-S" transform="matrix(1 0 0 1 2291.3 696)">
   <path d="M17.0898-37.1094L37.793-37.1094Q41.9434-37.1094 44.2627-39.4043Q46.582-41.6992 46.582-45.8984L46.582-65.8203Q46.582-68.3105 44.9463-69.873Q43.3105-71.4355 40.8203-71.4355Q38.3789-71.4355 36.7432-69.873Q35.1074-68.3105 35.1074-65.8203L35.1074-64.9414L36.0352-55.4688L29.7852-62.1582L20.459-71.5332Q18.7988-73.1934 16.3574-73.1934Q13.7207-73.1934 12.0605-71.5332Q10.4004-69.873 10.4004-67.2363Q10.4004-66.0645 10.8643-65.0635Q11.3281-64.0625 12.1582-63.2324L21.5332-53.8574L28.2227-47.6562L18.6523-48.5352L17.0898-48.5352Q14.6484-48.5352 13.0615-46.9238Q11.4746-45.3125 11.4746-42.8223Q11.4746-40.3809 13.0615-38.7451Q14.6484-37.1094 17.0898-37.1094ZM56.543 1.12305Q58.9844 1.12305 60.5957-0.463867Q62.207-2.05078 62.207-4.49219L62.207-5.46875L61.3281-14.9414L67.5781-8.25195L76.9531 1.2207Q78.5645 2.88086 81.0059 2.88086Q83.6426 2.88086 85.3027 1.19629Q86.9629-0.488281 86.9629-3.125Q86.9629-4.29688 86.499-5.29785Q86.0352-6.29883 85.2539-7.12891L75.8301-16.5527L69.1406-22.7539L78.7109-21.875L80.3223-21.875Q82.8125-21.875 84.375-23.5107Q85.9375-25.1465 85.9375-27.5879Q85.9375-30.0293 84.375-31.665Q82.8125-33.3008 80.3223-33.3008L59.5703-33.3008Q55.3711-33.3008 53.0762-30.9814Q50.7812-28.6621 50.7812-24.5117L50.7812-4.49219Q50.7812-2.05078 52.4414-0.463867Q54.1016 1.12305 56.543 1.12305Z"/>
  </g>
  <g id="Semibold-S" transform="matrix(1 0 0 1 1995.2 696)">
   <path d="M17.1387-37.6465L37.6953-37.6465Q41.5527-37.6465 43.7012-39.7949Q45.8496-41.9434 45.8496-45.8008L45.8496-65.8691Q45.8496-68.0664 44.3848-69.4824Q42.9199-70.8984 40.7227-70.8984Q38.5254-70.8984 37.085-69.4824Q35.6445-68.0664 35.6445-65.8691L35.6445-64.8438L36.5234-53.8574L29.1992-61.6699L19.1406-71.8262Q17.7246-73.291 15.5273-73.291Q13.1836-73.291 11.6699-71.8262Q10.1562-70.3613 10.1562-68.0176Q10.1562-66.9434 10.5713-66.0156Q10.9863-65.0879 11.7188-64.3555L21.8262-54.248L29.6387-46.9727L18.6035-47.8027L17.1387-47.8027Q14.9414-47.8027 13.501-46.3867Q12.0605-44.9707 12.0605-42.7734Q12.0605-40.5762 13.501-39.1113Q14.9414-37.6465 17.1387-37.6465ZM55.3711 0.585938Q57.5684 0.585938 59.0088-0.854492Q60.4492-2.29492 60.4492-4.49219L60.4492-5.61523L59.5215-16.5527L66.8457-8.74023L76.9531 1.46484Q78.418 2.92969 80.6152 2.92969Q82.959 2.92969 84.4727 1.46484Q85.9863 0 85.9863-2.34375Q85.9863-3.41797 85.5713-4.3457Q85.1562-5.27344 84.4238-6.00586L74.2676-16.1621L66.4551-23.4863L77.4902-22.5586L79.0039-22.5586Q81.25-22.5586 82.666-24.0234Q84.082-25.4883 84.082-27.6855Q84.082-29.8828 82.666-31.3232Q81.25-32.7637 79.0039-32.7637L58.3984-32.7637Q54.4922-32.7637 52.3438-30.6152Q50.1953-28.4668 50.1953-24.6094L50.1953-4.49219Q50.1953-2.29492 51.6846-0.854492Q53.1738 0.585938 55.3711 0.585938Z"/>
  </g>
  <g id="Medium-S" transform="matrix(1 0 0 1 1698.95 696)">
   <path d="M17.1875-38.0859L37.6465-38.0859Q41.3086-38.0859 43.3105-40.0879Q45.3125-42.0898 45.3125-45.752L45.3125-65.8691Q45.3125-67.8711 43.9941-69.1895Q42.6758-70.5078 40.6738-70.5078Q38.6719-70.5078 37.3535-69.1895Q36.0352-67.8711 36.0352-65.8691L36.0352-64.7949L36.9141-52.6367L28.8086-61.3281L18.2129-72.0215Q16.8945-73.3887 14.9414-73.3887Q12.793-73.3887 11.4014-72.0703Q10.0098-70.752 10.0098-68.6035Q10.0098-67.627 10.376-66.7725Q10.7422-65.918 11.377-65.1855L22.0703-54.5898L30.7617-46.4355L18.6035-47.3145L17.1875-47.3145Q15.1855-47.3145 13.8672-46.0205Q12.5488-44.7266 12.5488-42.7246Q12.5488-40.7227 13.8672-39.4043Q15.1855-38.0859 17.1875-38.0859ZM54.4922 0.195312Q56.4941 0.195312 57.7881-1.12305Q59.082-2.44141 59.082-4.44336L59.082-5.66406L58.2031-17.7734L66.3086-9.13086L77.002 1.66016Q78.3203 2.97852 80.2734 2.97852Q82.4219 2.97852 83.8135 1.66016Q85.2051 0.341797 85.2051-1.75781Q85.2051-2.73438 84.8389-3.61328Q84.4727-4.49219 83.7891-5.17578L73.0957-15.8691L64.4043-24.0234L76.5625-23.0957L78.0273-23.0957Q80.0293-23.0957 81.3477-24.4141Q82.666-25.7324 82.666-27.7344Q82.666-29.7363 81.3477-31.0547Q80.0293-32.373 78.0273-32.373L57.5195-32.373Q53.8574-32.373 51.8311-30.3467Q49.8047-28.3203 49.8047-24.6582L49.8047-4.44336Q49.8047-2.44141 51.1475-1.12305Q52.4902 0.195312 54.4922 0.195312Z"/>
  </g>
  <g id="Regular-S" transform="matrix(1 0 0 1 1402.85 696)">
   <path d="M17.2852-38.623L37.5488-38.623Q40.918-38.623 42.7734-40.4785Q44.6289-42.334 44.6289-45.7031L44.6289-65.918Q44.6289-67.6758 43.4814-68.8477Q42.334-70.0195 40.5762-70.0195Q38.8184-70.0195 37.6953-68.8477Q36.5723-67.6758 36.5723-65.918L36.5723-64.6973L37.4512-51.0742L28.2715-60.8887L16.9434-72.3145Q15.8203-73.4863 14.1113-73.4863Q12.2559-73.4863 11.0107-72.3633Q9.76562-71.2402 9.76562-69.3848Q9.76562-68.5059 10.083-67.7246Q10.4004-66.9434 10.9863-66.3086L22.3633-54.9805L32.1777-45.8008L18.5547-46.6309L17.2852-46.6309Q15.5273-46.6309 14.3311-45.5322Q13.1348-44.4336 13.1348-42.6758Q13.1348-40.918 14.3311-39.7705Q15.5273-38.623 17.2852-38.623ZM53.3691-0.341797Q55.0781-0.341797 56.2012-1.51367Q57.3242-2.68555 57.3242-4.44336L57.3242-5.81055L56.4453-19.3848L65.625-9.61914L77.0508 1.9043Q78.1738 3.07617 79.8828 3.07617Q81.7383 3.07617 82.9834 1.95312Q84.2285 0.830078 84.2285-1.02539Q84.2285-1.9043 83.9111-2.68555Q83.5938-3.4668 83.0078-4.10156L71.582-15.5273L61.7676-24.707L75.3906-23.8281L76.7578-23.8281Q78.5156-23.8281 79.6875-24.9512Q80.8594-26.0742 80.8594-27.832Q80.8594-29.5898 79.6875-30.7129Q78.5156-31.8359 76.7578-31.8359L56.3477-31.8359Q52.9785-31.8359 51.123-29.9805Q49.2676-28.125 49.2676-24.7559L49.2676-4.44336Q49.2676-2.68555 50.4395-1.51367Q51.6113-0.341797 53.3691-0.341797Z"/>
  </g>
  <g id="Light-S" transform="matrix(1 0 0 1 1106.04 696)">
   <path d="M16.1133-39.209L38.1348-39.209Q40.7227-39.209 42.1387-40.625Q43.5547-42.041 43.5547-44.5801L43.5547-66.6016Q43.5547-67.9199 42.7002-68.8232Q41.8457-69.7266 40.4785-69.7266Q39.1602-69.7266 38.2812-68.8477Q37.4023-67.9688 37.4023-66.6016L37.4023-61.8164L38.1348-48.6816L27.2949-59.9609L15.2344-72.1191Q14.3555-72.998 13.0371-72.998Q11.6211-72.998 10.6934-72.1436Q9.76562-71.2891 9.76562-69.873Q9.76562-69.1895 10.0098-68.6035Q10.2539-68.0176 10.6934-67.5293L22.8516-55.4199L34.1309-44.6289L20.9473-45.3125L16.1133-45.3125Q14.7949-45.3125 13.8672-44.4824Q12.9395-43.6523 12.9395-42.2852Q12.9395-40.918 13.8672-40.0635Q14.7949-39.209 16.1133-39.209ZM53.3203 0.146484Q54.6387 0.146484 55.4932-0.756836Q56.3477-1.66016 56.3477-2.97852L56.3477-8.49609L55.6641-21.6309L66.5039-10.3516L79.0039 2.24609Q79.834 3.125 81.1523 3.125Q82.5684 3.125 83.4961 2.27051Q84.4238 1.41602 84.4238 0Q84.4238-0.683594 84.2041-1.26953Q83.9844-1.85547 83.5449-2.29492L70.9473-14.8926L59.7168-25.6836L72.8516-24.9512L78.3691-24.9512Q79.6875-24.9512 80.5908-25.8057Q81.4941-26.6602 81.4941-28.0273Q81.4941-29.3457 80.5908-30.2246Q79.6875-31.1035 78.3691-31.1035L55.6152-31.1035Q53.0762-31.1035 51.6357-29.6631Q50.1953-28.2227 50.1953-25.6836L50.1953-2.97852Q50.1953-1.66016 51.0742-0.756836Q51.9531 0.146484 53.3203 0.146484Z"/>
  </g>
  <g id="Thin-S" transform="matrix(1 0 0 1 809.181 696)">
   <path d="M14.5996-39.9414L38.9648-39.9414Q40.4297-39.9414 41.2842-40.7959Q42.1387-41.6504 42.1387-43.1152L42.1387-67.4805Q42.1387-68.2617 41.6504-68.8232Q41.1621-69.3848 40.3809-69.3848Q39.5508-69.3848 39.0381-68.8477Q38.5254-68.3105 38.5254-67.4805L38.5254-57.959L39.0137-45.5078L25.9277-58.6914L12.9395-71.8262Q12.4023-72.3145 11.6699-72.3145Q10.791-72.3145 10.2783-71.8262Q9.76562-71.3379 9.76562-70.5078Q9.76562-70.1172 9.91211-69.7998Q10.0586-69.4824 10.3027-69.1895L23.4863-56.0547L36.6699-43.0664L24.1211-43.5547L14.5996-43.5547Q13.8184-43.5547 13.2568-43.0908Q12.6953-42.627 12.6953-41.748Q12.6953-40.9668 13.2324-40.4541Q13.7695-39.9414 14.5996-39.9414ZM53.2715 0.830078Q54.0527 0.830078 54.5654 0.292969Q55.0781-0.244141 55.0781-1.07422L55.0781-12.0605L54.6387-24.5605L67.6758-11.3281L81.5918 2.63672Q82.0801 3.17383 82.8125 3.17383Q83.6914 3.17383 84.2041 2.68555Q84.7168 2.19727 84.7168 1.31836Q84.7168 0.976562 84.5947 0.634766Q84.4727 0.292969 84.1797 0.0488281L70.1172-14.0137L56.9336-26.9531L69.4824-26.4648L80.4688-26.4648Q81.25-26.4648 81.7871-26.9531Q82.3242-27.4414 82.373-28.2715Q82.373-29.0527 81.8359-29.5654Q81.2988-30.0781 80.4688-30.0781L54.6387-30.0781Q53.1738-30.0781 52.3193-29.2236Q51.4648-28.3691 51.4648-26.8555L51.4648-1.07422Q51.4648-0.292969 51.9531 0.268555Q52.4414 0.830078 53.2715 0.830078Z"/>
  </g>
  <g id="Ultralight-S" transform="matrix(1 0 0 1 512.397 696)">
   <path d="M13.7695-40.332L39.3555-40.332Q40.2832-40.332 40.8447-40.8936Q41.4062-41.4551 41.4062-42.3828L41.4062-67.9688Q41.4062-68.457 41.1133-68.8232Q40.8203-69.1895 40.2832-69.1895Q39.7949-69.1895 39.4531-68.8477Q39.1113-68.5059 39.1113-67.9688L39.1113-56.0059L39.4531-43.8477L25.293-58.0566L11.7676-71.6797Q11.4258-71.9727 10.9375-71.9727Q10.4004-71.9727 10.083-71.6797Q9.76562-71.3867 9.76562-70.8496Q9.76562-70.6055 9.86328-70.4102Q9.96094-70.2148 10.1074-70.0195L23.8281-56.3477L37.9883-42.2363L25.7324-42.6758L13.7695-42.6758Q13.3301-42.6758 12.9639-42.3828Q12.5977-42.0898 12.5977-41.5039Q12.5977-40.9668 12.9395-40.6494Q13.2812-40.332 13.7695-40.332ZM53.2227 1.17188Q53.7598 1.17188 54.0771 0.805664Q54.3945 0.439453 54.3945-0.0976562L54.3945-13.916L54.1016-26.0742L68.2617-11.8652L82.9102 2.88086Q83.2031 3.22266 83.6914 3.22266Q84.2285 3.22266 84.5459 2.90527Q84.8633 2.58789 84.8633 2.00195Q84.8633 1.80664 84.79 1.61133Q84.7168 1.41602 84.5703 1.26953L69.7266-13.5742L55.5664-27.6367L67.7734-27.2461L81.5918-27.2461Q82.0801-27.2461 82.4219-27.5391Q82.7637-27.832 82.8125-28.3691Q82.8125-28.9062 82.4463-29.248Q82.0801-29.5898 81.5918-29.5898L54.1504-29.5898Q53.2715-29.5898 52.6855-29.0283Q52.0996-28.4668 52.0996-27.4902L52.0996-0.0976562Q52.0996 0.390625 52.3926 0.78125Q52.6855 1.17188 53.2227 1.17188Z"/>
  </g>
 </g>
</svg>
