<?xml version="1.0" encoding="UTF-8"?>
<!--Generator: Apple Native CoreSVG 149-->
<!DOCTYPE svg
PUBLIC "-//W3C//DTD SVG 1.1//EN"
       "http://www.w3.org/Graphics/SVG/1.1/DTD/svg11.dtd">
<svg version="1.1" xmlns="http://www.w3.org/2000/svg" xmlns:xlink="http://www.w3.org/1999/xlink" width="3300" height="2200">
 <!--glyph: "uni100682.medium", point size: 100.000000, font version: "Version 16.0d18e1", template writer version: "8"-->
 <g id="Notes">
  <rect height="2200" id="artboard" style="fill:white;opacity:1" width="3300" x="0" y="0"/>
  <line id="" style="fill:none;stroke:black;opacity:1;stroke-width:0.5;" x1="263" x2="3036" y1="292" y2="292"/>
  <text style="stroke:none;fill:black;font-family:-apple-system,&quot;SF Pro Display&quot;,&quot;SF Pro Text&quot;,Helvetica,sans-serif;font-weight:bold;" transform="matrix(1 0 0 1 263 322)">Weight/Scale Variations</text>
  <text style="stroke:none;fill:black;font-family:-apple-system,&quot;SF Pro Display&quot;,&quot;SF Pro Text&quot;,Helvetica,sans-serif;text-anchor:middle;" transform="matrix(1 0 0 1 559.711 322)">Ultralight</text>
  <text style="stroke:none;fill:black;font-family:-apple-system,&quot;SF Pro Display&quot;,&quot;SF Pro Text&quot;,Helvetica,sans-serif;text-anchor:middle;" transform="matrix(1 0 0 1 856.422 322)">Thin</text>
  <text style="stroke:none;fill:black;font-family:-apple-system,&quot;SF Pro Display&quot;,&quot;SF Pro Text&quot;,Helvetica,sans-serif;text-anchor:middle;" transform="matrix(1 0 0 1 1153.13 322)">Light</text>
  <text style="stroke:none;fill:black;font-family:-apple-system,&quot;SF Pro Display&quot;,&quot;SF Pro Text&quot;,Helvetica,sans-serif;text-anchor:middle;" transform="matrix(1 0 0 1 1449.84 322)">Regular</text>
  <text style="stroke:none;fill:black;font-family:-apple-system,&quot;SF Pro Display&quot;,&quot;SF Pro Text&quot;,Helvetica,sans-serif;text-anchor:middle;" transform="matrix(1 0 0 1 1746.56 322)">Medium</text>
  <text style="stroke:none;fill:black;font-family:-apple-system,&quot;SF Pro Display&quot;,&quot;SF Pro Text&quot;,Helvetica,sans-serif;text-anchor:middle;" transform="matrix(1 0 0 1 2043.27 322)">Semibold</text>
  <text style="stroke:none;fill:black;font-family:-apple-system,&quot;SF Pro Display&quot;,&quot;SF Pro Text&quot;,Helvetica,sans-serif;text-anchor:middle;" transform="matrix(1 0 0 1 2339.98 322)">Bold</text>
  <text style="stroke:none;fill:black;font-family:-apple-system,&quot;SF Pro Display&quot;,&quot;SF Pro Text&quot;,Helvetica,sans-serif;text-anchor:middle;" transform="matrix(1 0 0 1 2636.69 322)">Heavy</text>
  <text style="stroke:none;fill:black;font-family:-apple-system,&quot;SF Pro Display&quot;,&quot;SF Pro Text&quot;,Helvetica,sans-serif;text-anchor:middle;" transform="matrix(1 0 0 1 2933.4 322)">Black</text>
  <line id="" style="fill:none;stroke:black;opacity:1;stroke-width:0.5;" x1="263" x2="3036" y1="1903" y2="1903"/>
  <g id="" transform="matrix(1 0 0 1 263 1933)">
   <path d="M9.24805 0.830078C13.5547 0.830078 17.1387-2.74414 17.1387-7.05078C17.1387-11.3574 13.5449-14.9316 9.23828-14.9316C4.94141-14.9316 1.36719-11.3574 1.36719-7.05078C1.36719-2.74414 4.95117 0.830078 9.24805 0.830078ZM9.24805-0.654297C5.70312-0.654297 2.87109-3.49609 2.87109-7.05078C2.87109-10.6055 5.69336-13.4473 9.23828-13.4473C12.793-13.4473 15.6348-10.6055 15.6445-7.05078C15.6543-3.49609 12.8027-0.654297 9.24805-0.654297ZM6.39648-6.31836L8.50586-6.31836L8.50586-4.19922C8.50586-3.75977 8.79883-3.45703 9.22852-3.45703C9.67773-3.45703 9.9707-3.75977 9.9707-4.19922L9.9707-6.31836L12.0996-6.31836C12.5391-6.31836 12.8418-6.61133 12.8418-7.04102C12.8418-7.48047 12.5391-7.7832 12.0996-7.7832L9.9707-7.7832L9.9707-9.89258C9.9707-10.3418 9.67773-10.6445 9.22852-10.6445C8.79883-10.6445 8.50586-10.3418 8.50586-9.89258L8.50586-7.7832L6.39648-7.7832C5.94727-7.7832 5.64453-7.48047 5.64453-7.04102C5.64453-6.61133 5.94727-6.31836 6.39648-6.31836Z"/>
  </g>
  <g id="" transform="matrix(1 0 0 1 281.506 1933)">
   <path d="M11.709 2.91016C17.1582 2.91016 21.6699-1.61133 21.6699-7.05078C21.6699-12.5 17.1484-17.0117 11.6992-17.0117C6.25977-17.0117 1.74805-12.5 1.74805-7.05078C1.74805-1.61133 6.26953 2.91016 11.709 2.91016ZM11.709 1.25C7.09961 1.25 3.41797-2.44141 3.41797-7.05078C3.41797-11.6602 7.08984-15.3516 11.6992-15.3516C16.3086-15.3516 20-11.6602 20.0098-7.05078C20.0195-2.44141 16.3184 1.25 11.709 1.25ZM7.98828-6.23047L10.8789-6.23047L10.8789-3.32031C10.8789-2.83203 11.2109-2.5 11.6895-2.5C12.1777-2.5 12.5195-2.83203 12.5195-3.32031L12.5195-6.23047L15.4297-6.23047C15.918-6.23047 16.25-6.5625 16.25-7.04102C16.25-7.5293 15.918-7.87109 15.4297-7.87109L12.5195-7.87109L12.5195-10.7617C12.5195-11.2695 12.1777-11.6016 11.6895-11.6016C11.2109-11.6016 10.8789-11.2598 10.8789-10.7617L10.8789-7.87109L7.98828-7.87109C7.48047-7.87109 7.14844-7.5293 7.14844-7.04102C7.14844-6.5625 7.49023-6.23047 7.98828-6.23047Z"/>
  </g>
  <g id="" transform="matrix(1 0 0 1 304.924 1933)">
   <path d="M14.9707 5.66406C21.9336 5.66406 27.6953-0.0976562 27.6953-7.05078C27.6953-14.0137 21.9238-19.7754 14.9609-19.7754C8.00781-19.7754 2.25586-14.0137 2.25586-7.05078C2.25586-0.0976562 8.01758 5.66406 14.9707 5.66406ZM14.9707 3.84766C8.93555 3.84766 4.08203-1.01562 4.08203-7.05078C4.08203-13.0957 8.92578-17.9492 14.9609-17.9492C21.0059-17.9492 25.8594-13.0957 25.8691-7.05078C25.8789-1.01562 21.0156 3.84766 14.9707 3.84766ZM10.0586-6.14258L14.0625-6.14258L14.0625-2.12891C14.0625-1.5918 14.4336-1.2207 14.9512-1.2207C15.4883-1.2207 15.8594-1.5918 15.8594-2.12891L15.8594-6.14258L19.8828-6.14258C20.4102-6.14258 20.791-6.51367 20.791-7.03125C20.791-7.56836 20.4199-7.94922 19.8828-7.94922L15.8594-7.94922L15.8594-11.9531C15.8594-12.5098 15.4883-12.8809 14.9512-12.8809C14.4336-12.8809 14.0625-12.5 14.0625-11.9531L14.0625-7.94922L10.0586-7.94922C9.50195-7.94922 9.13086-7.56836 9.13086-7.03125C9.13086-6.51367 9.51172-6.14258 10.0586-6.14258Z"/>
  </g>
  <text style="stroke:none;fill:black;font-family:-apple-system,&quot;SF Pro Display&quot;,&quot;SF Pro Text&quot;,Helvetica,sans-serif;font-weight:bold;" transform="matrix(1 0 0 1 263 1953)">Design Variations</text>
  <text style="stroke:none;fill:black;font-family:-apple-system,&quot;SF Pro Display&quot;,&quot;SF Pro Text&quot;,Helvetica,sans-serif;" transform="matrix(1 0 0 1 263 1971)">Symbols are supported in up to nine weights and three scales.</text>
  <text style="stroke:none;fill:black;font-family:-apple-system,&quot;SF Pro Display&quot;,&quot;SF Pro Text&quot;,Helvetica,sans-serif;" transform="matrix(1 0 0 1 263 1989)">For optimal layout with text and other symbols, vertically align</text>
  <text style="stroke:none;fill:black;font-family:-apple-system,&quot;SF Pro Display&quot;,&quot;SF Pro Text&quot;,Helvetica,sans-serif;" transform="matrix(1 0 0 1 263 2007)">symbols with the adjacent text.</text>
  <line id="" style="fill:none;stroke:#00AEEF;stroke-width:0.5;opacity:1.0;" x1="776" x2="776" y1="1919" y2="1933"/>
  <g id="" transform="matrix(1 0 0 1 776 1933)">
   <path d="M3.31055 0.126953C3.82812 0.126953 4.08203-0.0683594 4.26758-0.605469L5.52734-4.0625L11.2891-4.0625L12.5488-0.605469C12.7344-0.0683594 12.9883 0.126953 13.4961 0.126953C14.0137 0.126953 14.3457-0.185547 14.3457-0.673828C14.3457-0.839844 14.3164-0.986328 14.2383-1.20117L9.6582-13.3887C9.43359-13.9941 9.0332-14.2871 8.4082-14.2871C7.80273-14.2871 7.39258-13.9941 7.17773-13.3984L2.59766-1.19141C2.51953-0.976562 2.49023-0.830078 2.49023-0.664062C2.49023-0.175781 2.80273 0.126953 3.31055 0.126953ZM6.00586-5.53711L8.37891-12.1094L8.42773-12.1094L10.8008-5.53711Z"/>
  </g>
  <line id="" style="fill:none;stroke:#00AEEF;stroke-width:0.5;opacity:1.0;" x1="792.836" x2="792.836" y1="1919" y2="1933"/>
  <text style="stroke:none;fill:black;font-family:-apple-system,&quot;SF Pro Display&quot;,&quot;SF Pro Text&quot;,Helvetica,sans-serif;font-weight:bold;" transform="matrix(1 0 0 1 776 1953)">Margins</text>
  <text style="stroke:none;fill:black;font-family:-apple-system,&quot;SF Pro Display&quot;,&quot;SF Pro Text&quot;,Helvetica,sans-serif;" transform="matrix(1 0 0 1 776 1971)">Leading and trailing margins on the left and right side of each symbol</text>
  <text style="stroke:none;fill:black;font-family:-apple-system,&quot;SF Pro Display&quot;,&quot;SF Pro Text&quot;,Helvetica,sans-serif;" transform="matrix(1 0 0 1 776 1989)">can be adjusted by modifying the x-location of the margin guidelines.</text>
  <text style="stroke:none;fill:black;font-family:-apple-system,&quot;SF Pro Display&quot;,&quot;SF Pro Text&quot;,Helvetica,sans-serif;" transform="matrix(1 0 0 1 776 2007)">Modifications are automatically applied proportionally to all</text>
  <text style="stroke:none;fill:black;font-family:-apple-system,&quot;SF Pro Display&quot;,&quot;SF Pro Text&quot;,Helvetica,sans-serif;" transform="matrix(1 0 0 1 776 2025)">scales and weights.</text>
  <g id="" transform="matrix(1 0 0 1 1289 1933)">
   <path d="M2.8418 1.86523L4.54102 3.57422C5.40039 4.44336 6.38672 4.38477 7.31445 3.35938L17.4902-7.85156C17.7539-7.76367 18.0273-7.7832 18.3398-7.8418L19.4043-8.03711L20.0684-7.36328L20.0293-6.80664C19.9902-6.30859 20.1172-5.92773 20.6055-5.44922L21.3672-4.70703C21.8457-4.22852 22.4609-4.19922 22.9297-4.66797L25.8398-7.58789C26.3086-8.05664 26.2891-8.65234 25.8105-9.13086L25.0391-9.89258C24.5605-10.3711 24.1895-10.5273 23.7109-10.4883L23.1348-10.4395L22.4902-11.0742L22.7344-12.1973C22.8613-12.7637 22.7051-13.2031 22.1191-13.7891L19.9219-15.9766C16.582-19.2969 12.1484-19.2188 9.25781-16.3281C8.83789-15.918 8.80859-15.3418 9.04297-14.9512C9.27734-14.5898 9.73633-14.3555 10.3809-14.5215C11.8457-14.8633 13.3691-14.9219 14.7949-13.9844L14.209-12.5293C14.0137-12.0508 13.9844-11.6504 14.1113-11.2891L3.04688-0.898438C2.06055 0.0195312 1.98242 0.996094 2.8418 1.86523ZM10.752-15.957C13.1836-17.7344 16.4746-17.4316 18.7012-15.2051L21.1328-12.793C21.3672-12.5586 21.4062-12.373 21.3379-12.0312L21.0156-10.5469L22.5195-9.0625L23.5059-9.12109C23.7598-9.13086 23.8379-9.11133 24.0332-8.91602L24.6094-8.33984L22.168-5.89844L21.5918-6.47461C21.3965-6.66992 21.3672-6.74805 21.377-7.01172L21.4453-7.98828L19.9512-9.47266L18.4277-9.21875C18.1055-9.15039 17.959-9.17969 17.7148-9.41406L15.7129-11.416C15.459-11.6504 15.4297-11.8164 15.5859-12.1875L16.4648-14.2773C14.9023-15.7324 12.8711-16.3574 10.8398-15.7617C10.6836-15.7227 10.625-15.8496 10.752-15.957ZM5.27344 2.30469L4.10156 1.14258C3.63281 0.683594 3.74023 0.341797 4.14062-0.0195312L14.9512-10.1953L16.416-8.71094L6.42578 2.27539C6.07422 2.67578 5.74219 2.77344 5.27344 2.30469Z"/>
  </g>
  <text style="stroke:none;fill:black;font-family:-apple-system,&quot;SF Pro Display&quot;,&quot;SF Pro Text&quot;,Helvetica,sans-serif;font-weight:bold;" transform="matrix(1 0 0 1 1289 1953)">Exporting</text>
  <text style="stroke:none;fill:black;font-family:-apple-system,&quot;SF Pro Display&quot;,&quot;SF Pro Text&quot;,Helvetica,sans-serif;" transform="matrix(1 0 0 1 1289 1971)">Symbols should be outlined when exporting to ensure the</text>
  <text style="stroke:none;fill:black;font-family:-apple-system,&quot;SF Pro Display&quot;,&quot;SF Pro Text&quot;,Helvetica,sans-serif;" transform="matrix(1 0 0 1 1289 1989)">design is preserved when submitting to Xcode.</text>
  <text id="template-version" style="stroke:none;fill:black;font-family:-apple-system,&quot;SF Pro Display&quot;,&quot;SF Pro Text&quot;,Helvetica,sans-serif;text-anchor:end;" transform="matrix(1 0 0 1 3036 1933)">Template v.2.0</text>
  <text style="stroke:none;fill:black;font-family:-apple-system,&quot;SF Pro Display&quot;,&quot;SF Pro Text&quot;,Helvetica,sans-serif;text-anchor:end;" transform="matrix(1 0 0 1 3036 1951)">Requires Xcode 12 or greater</text>
  <text style="stroke:none;fill:black;font-family:-apple-system,&quot;SF Pro Display&quot;,&quot;SF Pro Text&quot;,Helvetica,sans-serif;text-anchor:end;" transform="matrix(1 0 0 1 3036 1969)">Generated from arrow.clockwise.circle.fill</text>
  <text style="stroke:none;fill:black;font-family:-apple-system,&quot;SF Pro Display&quot;,&quot;SF Pro Text&quot;,Helvetica,sans-serif;text-anchor:end;" transform="matrix(1 0 0 1 3036 1987)">Typeset at 100 points</text>
  <text style="stroke:none;fill:black;font-family:-apple-system,&quot;SF Pro Display&quot;,&quot;SF Pro Text&quot;,Helvetica,sans-serif;" transform="matrix(1 0 0 1 263 726)">Small</text>
  <text style="stroke:none;fill:black;font-family:-apple-system,&quot;SF Pro Display&quot;,&quot;SF Pro Text&quot;,Helvetica,sans-serif;" transform="matrix(1 0 0 1 263 1156)">Medium</text>
  <text style="stroke:none;fill:black;font-family:-apple-system,&quot;SF Pro Display&quot;,&quot;SF Pro Text&quot;,Helvetica,sans-serif;" transform="matrix(1 0 0 1 263 1586)">Large</text>
 </g>
 <g id="Guides">
  <g id="H-reference" style="fill:#27AAE1;stroke:none;" transform="matrix(1 0 0 1 339 696)">
   <path d="M0.976562 0L3.66211 0L12.9883-24.4629L45.752-24.4629L55.127 0L57.7637 0L30.6152-70.459L28.125-70.459ZM29.3457-67.1387L29.4434-67.1387L44.873-26.709L13.8672-26.709Z"/>
  </g>
  <line id="Baseline-S" style="fill:none;stroke:#27AAE1;opacity:1;stroke-width:0.5;" x1="263" x2="3036" y1="696" y2="696"/>
  <line id="Capline-S" style="fill:none;stroke:#27AAE1;opacity:1;stroke-width:0.5;" x1="263" x2="3036" y1="625.541" y2="625.541"/>
  <g id="H-reference" style="fill:#27AAE1;stroke:none;" transform="matrix(1 0 0 1 339 1126)">
   <path d="M0.976562 0L3.66211 0L12.9883-24.4629L45.752-24.4629L55.127 0L57.7637 0L30.6152-70.459L28.125-70.459ZM29.3457-67.1387L29.4434-67.1387L44.873-26.709L13.8672-26.709Z"/>
  </g>
  <line id="Baseline-M" style="fill:none;stroke:#27AAE1;opacity:1;stroke-width:0.5;" x1="263" x2="3036" y1="1126" y2="1126"/>
  <line id="Capline-M" style="fill:none;stroke:#27AAE1;opacity:1;stroke-width:0.5;" x1="263" x2="3036" y1="1055.54" y2="1055.54"/>
  <g id="H-reference" style="fill:#27AAE1;stroke:none;" transform="matrix(1 0 0 1 339 1556)">
   <path d="M0.976562 0L3.66211 0L12.9883-24.4629L45.752-24.4629L55.127 0L57.7637 0L30.6152-70.459L28.125-70.459ZM29.3457-67.1387L29.4434-67.1387L44.873-26.709L13.8672-26.709Z"/>
  </g>
  <line id="Baseline-L" style="fill:none;stroke:#27AAE1;opacity:1;stroke-width:0.5;" x1="263" x2="3036" y1="1556" y2="1556"/>
  <line id="Capline-L" style="fill:none;stroke:#27AAE1;opacity:1;stroke-width:0.5;" x1="263" x2="3036" y1="1485.54" y2="1485.54"/>
  <line id="left-margin" style="fill:none;stroke:#00AEEF;stroke-width:0.5;opacity:1.0;" x1="1391.3" x2="1391.3" y1="1030.79" y2="1150.12"/>
  <line id="right-margin" style="fill:none;stroke:#00AEEF;stroke-width:0.5;opacity:1.0;" x1="1508.39" x2="1508.39" y1="1030.79" y2="1150.12"/>
 </g>
 <g id="Symbols">
  <g id="Black-L" transform="matrix(1 0 0 1 2854.05 1556)">
   <path d="M79.3457 32.9102C116.748 32.9102 147.412 2.29492 147.412-35.1074C147.412-72.5586 116.748-103.174 79.2969-103.174C41.8945-103.174 11.2793-72.5586 11.2793-35.1074C11.2793 2.29492 41.9434 32.9102 79.3457 32.9102ZM49.9512-32.2266C49.9512-46.7773 60.6934-59.1309 73.9258-60.9375C74.2188-61.0352 74.6582-61.084 74.9512-61.1328L73.877-62.3535C73.1934-63.3301 72.3145-64.4043 72.3145-66.3574C72.3145-69.1406 74.5117-72.0215 78.5156-72.0215C80.4199-72.0215 82.0801-70.9473 83.2031-69.7754L94.4824-58.3984C96.8262-56.0547 96.9238-51.9531 94.4336-49.5117L83.1543-38.1348C82.0801-37.0605 80.3223-36.2793 78.6621-36.2793C75.1953-36.2793 72.4609-38.4277 72.4609-42.334C72.4609-43.5547 72.7051-44.7266 73.2422-45.4102L74.707-47.0703C74.1699-46.7773 73.7305-46.6309 73.3398-46.4844C67.5781-45.4102 63.3301-39.0625 63.3301-32.1289C63.3301-23.3398 70.4102-16.1133 79.2969-16.1133C88.1836-16.1133 95.3125-23.1934 95.3125-32.1289C95.3125-35.8398 98.291-38.8184 102.051-38.8184C105.713-38.8184 108.691-35.8398 108.691-32.1289C108.691-15.918 95.5078-2.68555 79.2969-2.68555C63.1348-2.68555 49.9512-15.918 49.9512-32.2266Z"/>
  </g>
  <g id="Heavy-L" transform="matrix(1 0 0 1 2558.39 1556)">
   <path d="M78.2715 31.8848C115.088 31.8848 145.312 1.66016 145.312-35.1562C145.312-71.9238 115.039-102.148 78.2715-102.148C41.4551-102.148 11.2793-71.9238 11.2793-35.1562C11.2793 1.66016 41.5039 31.8848 78.2715 31.8848ZM49.0723-32.2266C49.0723-47.0215 60.3516-59.375 73.877-60.791C74.3652-60.8398 74.9023-60.8398 75.3418-60.8398L73.1445-63.2324C72.4609-64.1113 71.7285-65.1367 71.7285-66.8945C71.7285-69.4824 73.7793-72.0703 77.2949-72.0703C79.0039-72.0703 80.4688-71.1426 81.543-70.0684L93.1152-58.3008C95.2637-56.2012 95.3125-52.4414 93.1152-50.2441L81.4453-38.5254C80.4688-37.5488 78.9062-36.8164 77.4414-36.8164C74.2676-36.8164 71.8262-38.8672 71.8262-42.334C71.8262-43.5059 72.1191-44.5801 72.7051-45.3125L75.5859-48.3398C74.9512-48.1445 74.3164-48.0469 73.6816-47.9492C66.5527-47.1191 61.1816-40.1367 61.1816-32.1289C61.1816-22.6562 68.7012-14.9902 78.2715-14.9902C87.7441-14.9902 95.3125-22.5586 95.3125-32.1289C95.3125-35.4492 98.0469-38.1348 101.416-38.1348C104.688-38.1348 107.422-35.4492 107.422-32.1289C107.422-16.0156 94.3359-2.88086 78.2715-2.88086C62.1582-2.88086 49.0723-16.0156 49.0723-32.2266Z"/>
  </g>
  <g id="Bold-L" transform="matrix(1 0 0 1 2262.88 1556)">
   <path d="M77.0996 30.6641C113.232 30.6641 142.92 0.927734 142.92-35.1562C142.92-71.2891 113.184-100.977 77.0508-100.977C40.9668-100.977 11.2793-71.2891 11.2793-35.1562C11.2793 0.927734 41.0156 30.6641 77.0996 30.6641ZM48.1445-32.2266C48.1445-47.3633 59.9121-59.668 73.877-60.5957C74.5117-60.5957 75.1953-60.5957 75.7812-60.5469L72.3145-64.1602C71.6797-64.9902 71.0449-65.9668 71.0449-67.4805C71.0449-69.873 72.9004-72.1191 75.9277-72.1191C77.3926-72.1191 78.7109-71.3379 79.6387-70.4102L91.6016-58.252C93.457-56.3477 93.5547-52.9785 91.6016-51.0742L79.4922-38.916C78.7109-38.0859 77.3438-37.4512 76.0254-37.4512C73.2422-37.4512 71.0938-39.3066 71.0938-42.2852C71.0938-43.4082 71.4355-44.4824 72.0703-45.166L76.5625-49.7559C75.7812-49.707 74.9512-49.6582 74.0723-49.6094C65.4297-49.0234 58.7402-41.3086 58.7402-32.0801C58.7402-21.9238 66.8457-13.7207 77.0508-13.7207C87.2559-13.7207 95.3613-21.875 95.3613-32.0801C95.3613-35.0098 97.7539-37.3535 100.732-37.3535C103.564-37.3535 105.957-35.0098 105.957-32.0801C105.957-16.1133 93.0664-3.07617 77.0508-3.07617C61.084-3.07617 48.1445-16.1133 48.1445-32.2266Z"/>
  </g>
  <g id="Semibold-L" transform="matrix(1 0 0 1 1966.97 1556)">
   <path d="M76.2695 29.834C111.914 29.834 141.309 0.439453 141.309-35.1562C141.309-70.8008 111.865-100.195 76.2695-100.195C40.625-100.195 11.2793-70.8008 11.2793-35.1562C11.2793 0.439453 40.6738 29.834 76.2695 29.834ZM47.5098-32.2266C47.5098-47.5586 59.668-59.8633 73.8281-60.4492C74.6094-60.4492 75.4395-60.4004 76.0742-60.3516L71.7773-64.7949C71.0938-65.5762 70.5566-66.5527 70.5566-67.8711C70.5566-70.1172 72.3145-72.168 75-72.168C76.3184-72.168 77.4902-71.4844 78.3203-70.6055L90.5762-58.1543C92.2363-56.4453 92.2852-53.3691 90.5273-51.6602L78.1738-39.209C77.4414-38.4766 76.2207-37.8906 75.0977-37.8906C72.5586-37.8906 70.6055-39.6484 70.6055-42.2852C70.6055-43.3594 70.9961-44.3848 71.6797-45.1172L77.2461-50.6836C76.3672-50.7324 75.3906-50.7812 74.3652-50.7324C64.6484-50.3906 57.0801-42.0898 57.0801-32.0801C57.0801-21.3867 65.5762-12.8418 76.2207-12.8418C86.9141-12.8418 95.4102-21.3867 95.4102-32.0801C95.4102-34.7168 97.5586-36.8164 100.244-36.8164C102.783-36.8164 104.98-34.7168 104.98-32.0801C104.98-16.1621 92.1875-3.27148 76.2207-3.27148C60.3516-3.27148 47.5098-16.1621 47.5098-32.2266Z"/>
  </g>
  <g id="Medium-L" transform="matrix(1 0 0 1 1670.87 1556)">
   <path d="M75.6836 29.1992C110.938 29.1992 140.088 0.0976562 140.088-35.1562C140.088-70.459 110.889-99.5605 75.6348-99.5605C40.3809-99.5605 11.2793-70.459 11.2793-35.1562C11.2793 0.0976562 40.3809 29.1992 75.6836 29.1992ZM47.0215-32.2266C47.0215-47.7051 59.4727-60.0098 73.8281-60.3516C74.6582-60.3516 75.5859-60.2539 76.2695-60.2051L71.3379-65.2832C70.7031-66.0156 70.2148-66.9922 70.2148-68.1641C70.2148-70.3125 71.875-72.168 74.3164-72.168C75.4883-72.168 76.5625-71.582 77.3438-70.752L89.7461-58.1055C91.3086-56.4941 91.3574-53.6621 89.7461-52.0996L77.1973-39.4043C76.5137-38.7695 75.3906-38.2324 74.3652-38.2324C72.0215-38.2324 70.2637-39.8926 70.2637-42.2852C70.2637-43.3594 70.6543-44.2871 71.3379-45.0195L77.7344-51.416C76.8066-51.5625 75.6836-51.6113 74.5605-51.5625C64.0625-51.3672 55.8105-42.7246 55.8105-32.0801C55.8105-20.9961 64.5508-12.1582 75.6348-12.1582C86.6211-12.1582 95.4102-20.9961 95.4102-32.0801C95.4102-34.4727 97.4121-36.4258 99.8535-36.4258C102.197-36.4258 104.199-34.4727 104.199-32.0801C104.199-16.2109 91.5039-3.36914 75.6348-3.36914C59.7656-3.36914 47.0215-16.2109 47.0215-32.2266Z"/>
  </g>
  <g id="Regular-L" transform="matrix(1 0 0 1 1374.97 1556)">
   <path d="M74.8535 28.418C109.668 28.418 138.477-0.390625 138.477-35.2051C138.477-69.9707 109.619-98.7793 74.8047-98.7793C40.0391-98.7793 11.2793-69.9707 11.2793-35.2051C11.2793-0.390625 40.0879 28.418 74.8535 28.418ZM46.3867-32.2266C46.3867-47.9492 59.1797-60.2051 73.8281-60.2051C74.7559-60.2051 75.7812-60.1074 76.5625-60.0098L70.752-65.918C70.166-66.6016 69.7266-67.5781 69.7266-68.5547C69.7266-70.6055 71.2891-72.2168 73.3887-72.2168C74.4141-72.2168 75.3906-71.7285 76.0742-70.9961L88.7207-58.0566C90.0879-56.5918 90.1367-54.0527 88.7207-52.6367L75.8789-39.6973C75.293-39.1113 74.3164-38.623 73.4375-38.623C71.3379-38.623 69.7754-40.2344 69.7754-42.2363C69.7754-43.3105 70.166-44.2383 70.9473-44.9707L78.418-52.3926C77.3926-52.5879 76.123-52.6855 74.8047-52.6855C63.2812-52.6855 54.1504-43.5547 54.1504-32.0312C54.1504-20.5078 63.2812-11.3281 74.8047-11.3281C86.2793-11.3281 95.459-20.5566 95.459-32.0312C95.459-34.1797 97.2168-35.8887 99.3652-35.8887C101.416-35.8887 103.223-34.1797 103.223-32.0312C103.223-16.2598 90.625-3.51562 74.8047-3.51562C59.0332-3.51562 46.3867-16.2598 46.3867-32.2266Z"/>
  </g>
  <g id="Light-L" transform="matrix(1 0 0 1 1079.18 1556)">
   <path d="M73.9258 27.4902C108.301 27.4902 136.621-0.830078 136.621-35.2051C136.621-69.5312 108.252-97.8516 73.9258-97.8516C39.5508-97.8516 11.2793-69.5312 11.2793-35.2051C11.2793-0.830078 39.5996 27.4902 73.9258 27.4902ZM46.1914-32.2754C46.1914-47.6074 58.5938-59.6191 73.291-59.6191C74.7559-59.6191 76.2207-59.4238 77.4414-59.2773L69.9219-66.8945C69.3359-67.4805 69.0918-68.2617 69.0918-69.043C69.0918-70.7031 70.3125-71.9727 72.0215-71.9727C72.8516-71.9727 73.6816-71.582 74.2676-70.8984L87.207-57.666C88.3789-56.3965 88.3301-54.2969 87.207-53.125L74.0234-39.6973C73.584-39.209 72.8027-38.8184 72.0703-38.8184C70.3613-38.8184 69.1406-40.1367 69.1406-41.6992C69.1406-42.627 69.4336-43.3594 70.166-44.0918L79.248-53.125C77.7344-53.4668 75.8789-53.6133 73.9258-53.6133C61.8652-53.6133 52.3438-44.1406 52.3438-32.1289C52.3438-20.0195 61.8652-10.498 73.9258-10.498C85.8887-10.498 95.4102-20.0684 95.4102-32.1289C95.4102-33.7891 96.7773-35.2051 98.5352-35.2051C100.146-35.2051 101.562-33.7891 101.562-32.1289C101.562-16.6992 89.3555-4.3457 73.9258-4.3457C58.4961-4.3457 46.1914-16.6992 46.1914-32.2754Z"/>
  </g>
  <g id="Thin-L" transform="matrix(1 0 0 1 783.693 1556)">
   <path d="M72.7051 26.2695C106.494 26.2695 134.18-1.41602 134.18-35.2051C134.18-68.9453 106.494-96.6309 72.7051-96.6309C38.9648-96.6309 11.2793-68.9453 11.2793-35.2051C11.2793-1.41602 38.9648 26.2695 72.7051 26.2695ZM45.9961-32.2754C45.9961-47.2168 57.8125-58.7891 72.5586-58.7891C74.707-58.7891 76.8066-58.4961 78.6133-58.3008L68.75-68.1641C68.2617-68.6523 68.2129-69.1895 68.2129-69.6777C68.2129-70.8496 69.043-71.6797 70.2148-71.6797C70.8496-71.6797 71.3867-71.3379 71.875-70.752L85.1562-57.1289C86.084-56.1035 85.9863-54.5898 85.1562-53.7109L71.582-39.6484C71.2891-39.3555 70.752-39.0625 70.3125-39.0625C69.0918-39.0625 68.2617-39.9902 68.2617-41.0156C68.2617-41.6992 68.457-42.2363 69.1406-42.9199L80.3711-54.1504C78.2227-54.6387 75.5859-54.8828 72.7051-54.8828C59.9609-54.8828 49.9512-44.9707 49.9512-32.2754C49.9512-19.4336 59.9609-9.42383 72.7051-9.42383C85.4004-9.42383 95.4102-19.4824 95.4102-32.2754C95.4102-33.3008 96.2402-34.2285 97.4609-34.2285C98.4375-34.2285 99.3652-33.3008 99.3652-32.2754C99.3652-17.2852 87.6953-5.46875 72.7051-5.46875C57.7637-5.46875 45.9961-17.2852 45.9961-32.2754Z"/>
  </g>
  <g id="Ultralight-L" transform="matrix(1 0 0 1 487.616 1556)">
   <path d="M72.1191 25.6348C105.566 25.6348 132.91-1.70898 132.91-35.2051C132.91-68.6523 105.566-95.9961 72.1191-95.9961C38.623-95.9961 11.2793-68.6523 11.2793-35.2051C11.2793-1.70898 38.623 25.6348 72.1191 25.6348ZM45.8984-32.3242C45.8984-46.9727 57.4219-58.3984 72.2168-58.3984C74.707-58.3984 77.0996-58.0566 79.1992-57.7637L68.1641-68.7988C67.7246-69.2383 67.7734-69.6777 67.7734-70.0195C67.7734-70.9473 68.3594-71.5332 69.2871-71.5332C69.8242-71.5332 70.2148-71.2402 70.7031-70.7031L84.1309-56.8359C84.9609-55.957 84.7656-54.7363 84.1309-54.0039L70.3613-39.5996C70.166-39.4043 69.7266-39.209 69.3848-39.209C68.457-39.209 67.8223-39.8926 67.8223-40.625C67.8223-41.2598 67.9688-41.6504 68.6035-42.2852L80.957-54.6387C78.4668-55.2734 75.4395-55.5176 72.1191-55.5176C58.9844-55.5176 48.7305-45.3613 48.7305-32.3242C48.7305-19.0918 58.9844-8.88672 72.1191-8.88672C85.1562-8.88672 95.4102-19.1895 95.4102-32.3242C95.4102-33.0566 95.9961-33.7402 96.875-33.7402C97.5586-33.7402 98.2422-33.0566 98.2422-32.3242C98.2422-17.5781 86.8652-6.00586 72.1191-6.00586C57.4219-6.00586 45.8984-17.5781 45.8984-32.3242Z"/>
  </g>
  <g id="Black-M" transform="matrix(1 0 0 1 2870.97 1126)">
   <path d="M62.4023 18.5547C91.9922 18.5547 116.113-5.56641 116.113-35.1562C116.113-64.7461 91.9922-88.8184 62.4023-88.8184C32.8125-88.8184 8.74023-64.7461 8.74023-35.1562C8.74023-5.56641 32.8125 18.5547 62.4023 18.5547ZM39.7461-32.9102C39.7461-43.6523 47.2168-53.0762 57.0312-55.0781C57.3242-55.127 57.7148-55.1758 58.0566-55.2734L57.7637-55.6641C57.2754-56.4453 56.543-57.2266 56.543-58.8867C56.543-61.084 58.252-63.5254 61.7188-63.5254C63.4277-63.5254 64.7949-62.5977 65.8203-61.5723L74.2676-53.0762C76.2695-51.0742 76.3184-47.6074 74.2188-45.5566L65.7715-36.9629C64.8926-36.0352 63.3789-35.4004 61.9141-35.4004C58.9844-35.4004 56.6406-37.0605 56.6406-40.4785C56.6406-41.4062 56.7871-42.2852 57.0801-42.7734L57.1777-43.1152C56.6406-42.8223 56.2988-42.627 55.9082-42.4805C52.9785-41.2598 51.0254-37.1094 51.0254-32.9102C51.0254-26.6602 56.0547-21.5332 62.4023-21.5332C68.75-21.5332 73.8281-26.5137 73.8281-32.9102C73.8281-36.0352 76.3184-38.5254 79.4922-38.5254C82.5684-38.5254 85.1074-36.0352 85.1074-32.9102C85.1074-20.3613 74.9023-10.1562 62.4023-10.1562C49.9512-10.1562 39.7461-20.3613 39.7461-32.9102Z"/>
  </g>
  <g id="Heavy-M" transform="matrix(1 0 0 1 2575.19 1126)">
   <path d="M61.5234 17.627C90.5273 17.627 114.258-6.10352 114.258-35.1562C114.258-64.1602 90.5273-87.8906 61.4746-87.8906C32.4707-87.8906 8.74023-64.1602 8.74023-35.1562C8.74023-6.10352 32.4707 17.627 61.5234 17.627ZM38.8672-32.9102C38.8672-43.9941 46.9727-53.5156 57.1289-55.0293C57.4707-55.0781 57.9102-55.127 58.252-55.1758L57.1777-56.2988C56.6895-57.0801 56.0059-57.8613 56.0059-59.375C56.0059-61.4258 57.7148-63.6719 60.791-63.6719C62.2559-63.6719 63.5254-62.8418 64.4531-61.9141L73.1934-53.0762C75-51.2695 75.0488-48.0957 73.1445-46.2402L64.3555-37.4023C63.5742-36.5234 62.207-35.9375 60.9375-35.9375C58.252-35.9375 56.1523-37.5488 56.1523-40.5762C56.1523-41.5039 56.2988-42.3828 56.6895-42.8711L57.9102-44.2871C57.4219-44.0918 56.9336-43.9453 56.543-43.8477C52.2461-42.9199 49.1211-38.0859 49.1211-32.8613C49.1211-26.0254 54.5898-20.5078 61.4746-20.5078C68.3594-20.5078 73.8281-25.9277 73.8281-32.8613C73.8281-35.6934 76.123-37.9883 79.0527-37.9883C81.8359-37.9883 84.1309-35.6934 84.1309-32.8613C84.1309-20.3613 73.9746-10.1562 61.4746-10.1562C49.0234-10.1562 38.8672-20.3613 38.8672-32.9102Z"/>
  </g>
  <g id="Bold-M" transform="matrix(1 0 0 1 2279.5 1126)">
   <path d="M60.498 16.5527C88.8672 16.5527 112.207-6.73828 112.207-35.1562C112.207-63.5742 88.8672-86.9141 60.4492-86.9141C32.0312-86.9141 8.74023-63.5742 8.74023-35.1562C8.74023-6.73828 32.0801 16.5527 60.498 16.5527ZM37.8906-32.9102C37.8906-44.4336 46.7285-54.0039 57.2754-55.0293C57.666-55.0293 58.1055-55.0293 58.4473-55.0781L56.543-57.0801C56.0547-57.7637 55.4688-58.5449 55.4688-59.8633C55.4688-61.8164 57.0312-63.7695 59.7168-63.7695C60.9863-63.7695 62.1094-63.0859 62.8906-62.3047L71.9727-53.125C73.5352-51.5137 73.584-48.6328 71.9238-47.0215L62.793-37.8418C62.1094-37.1094 60.9375-36.5723 59.8145-36.5723C57.4219-36.5723 55.5664-38.1348 55.5664-40.7227C55.5664-41.6504 55.8105-42.4805 56.25-43.0176L58.7402-45.6055C58.252-45.5078 57.7148-45.4102 57.2266-45.3613C51.416-44.7754 47.0215-39.209 47.0215-32.8125C47.0215-25.3418 52.9785-19.3359 60.4492-19.3359C67.9199-19.3359 73.877-25.293 73.877-32.8125C73.877-35.3027 75.9277-37.3535 78.5156-37.3535C80.957-37.3535 83.0078-35.3027 83.0078-32.8125C83.0078-20.3613 72.9004-10.1562 60.4492-10.1562C47.998-10.1562 37.8906-20.3613 37.8906-32.9102Z"/>
  </g>
  <g id="Semibold-M" transform="matrix(1 0 0 1 1983.5 1126)">
   <path d="M59.7656 15.8691C87.7441 15.8691 110.791-7.22656 110.791-35.1562C110.791-63.1348 87.6953-86.2305 59.7656-86.2305C31.7871-86.2305 8.74023-63.1348 8.74023-35.1562C8.74023-7.22656 31.7871 15.8691 59.7656 15.8691ZM37.207-32.9102C37.207-44.7266 46.5332-54.3457 57.373-54.9805C57.7637-55.0293 58.252-54.9805 58.5938-54.9805L56.1035-57.5684C55.6152-58.2031 55.0781-59.0332 55.0781-60.2051C55.0781-62.1094 56.5918-63.8672 58.9355-63.8672C60.1074-63.8672 61.1328-63.2812 61.8164-62.5488L71.0938-53.125C72.5586-51.6602 72.6074-49.0234 71.0938-47.5586L61.7188-38.1836C61.084-37.5 60.0098-37.0117 59.0332-37.0117C56.8359-37.0117 55.127-38.5254 55.127-40.8203C55.127-41.6992 55.4199-42.5293 55.957-43.1152L59.2773-46.5332C58.7891-46.4844 58.2031-46.4355 57.666-46.3867C50.8789-45.9961 45.5566-39.9902 45.5566-32.7637C45.5566-24.9023 51.8555-18.5547 59.7656-18.5547C67.627-18.5547 73.9258-24.8535 73.9258-32.7637C73.9258-35.0586 75.7812-36.9141 78.125-36.9141C80.3711-36.9141 82.2754-35.0586 82.2754-32.7637C82.2754-20.3125 72.2168-10.2051 59.7656-10.2051C47.3145-10.2051 37.207-20.3125 37.207-32.9102Z"/>
  </g>
  <g id="Medium-M" transform="matrix(1 0 0 1 1687.3 1126)">
   <path d="M59.2285 15.332C86.9141 15.332 109.766-7.51953 109.766-35.2051C109.766-62.8418 86.8652-85.6934 59.1797-85.6934C31.543-85.6934 8.74023-62.8418 8.74023-35.2051C8.74023-7.51953 31.5918 15.332 59.2285 15.332ZM36.7188-32.9102C36.7188-44.9707 46.3867-54.5898 57.4219-54.9805C57.8613-54.9805 58.3496-54.9316 58.6914-54.9316L55.7617-57.959C55.2734-58.5938 54.834-59.4238 54.834-60.4492C54.834-62.3047 56.25-63.916 58.3984-63.916C59.4238-63.916 60.3516-63.4277 61.0352-62.7441L70.459-53.125C71.7773-51.7578 71.875-49.3164 70.459-47.9492L60.9375-38.4277C60.3516-37.793 59.375-37.3535 58.4473-37.3535C56.3965-37.3535 54.834-38.7695 54.834-40.8691C54.834-41.7969 55.1758-42.627 55.7129-43.1641L59.7168-47.2168C59.2285-47.2168 58.5938-47.2168 58.0566-47.2168C50.4395-46.9727 44.4336-40.5762 44.4336-32.7637C44.4336-24.5605 50.9766-17.9199 59.2285-17.9199C67.3828-17.9199 73.9746-24.5117 73.9746-32.7637C73.9746-34.8633 75.6836-36.5723 77.8809-36.5723C79.9316-36.5723 81.6895-34.8633 81.6895-32.7637C81.6895-20.3125 71.6797-10.2051 59.2285-10.2051C46.7773-10.2051 36.7188-20.3125 36.7188-32.9102Z"/>
  </g>
  <g id="Regular-M" transform="matrix(1 0 0 1 1391.3 1126)">
   <path d="M58.5449 14.5996C85.791 14.5996 108.35-7.95898 108.35-35.2051C108.35-62.4023 85.7422-85.0098 58.4961-85.0098C31.2988-85.0098 8.74023-62.4023 8.74023-35.2051C8.74023-7.95898 31.3477 14.5996 58.5449 14.5996ZM36.0352-32.9102C36.0352-45.2637 46.1914-54.9316 57.5195-54.9316C57.959-54.9316 58.4961-54.8828 58.8867-54.834L55.3711-58.4473C54.834-59.0332 54.4434-59.9121 54.4434-60.791C54.4434-62.5977 55.8105-64.0137 57.666-64.0137C58.5449-64.0137 59.4238-63.623 59.9609-62.9883L69.6289-53.1738C70.8008-51.9043 70.8984-49.707 69.6289-48.4863L59.8633-38.7207C59.3262-38.1836 58.4961-37.7441 57.666-37.7441C55.8594-37.7441 54.4434-39.1602 54.4434-40.9668C54.4434-41.8457 54.834-42.6758 55.4199-43.2617L60.3027-48.0957C59.8145-48.1934 59.1309-48.2422 58.4961-48.2422C49.9023-48.2422 43.0176-41.3086 43.0176-32.7148C43.0176-24.0723 49.9023-17.1387 58.4961-17.1387C67.0898-17.1387 73.9746-24.0723 73.9746-32.7148C73.9746-34.6191 75.5859-36.1816 77.4902-36.1816C79.3457-36.1816 80.957-34.6191 80.957-32.7148C80.957-20.3125 70.9473-10.2051 58.4961-10.2051C46.0449-10.2051 36.0352-20.3125 36.0352-32.9102Z"/>
  </g>
  <g id="Light-M" transform="matrix(1 0 0 1 1095.42 1126)">
   <path d="M57.7148 13.7695C84.5215 13.7695 106.689-8.34961 106.689-35.2051C106.689-62.0117 84.5215-84.1797 57.666-84.1797C30.8594-84.1797 8.74023-62.0117 8.74023-35.2051C8.74023-8.34961 30.9082 13.7695 57.7148 13.7695ZM35.8887-32.9102C35.8887-44.9707 45.6543-54.3945 57.0312-54.3945C57.959-54.3945 58.8867-54.2969 59.6191-54.1992L54.5898-59.3262C54.1016-59.8145 53.8574-60.5469 53.8574-61.2305C53.8574-62.6953 54.9316-63.8184 56.4453-63.8184C57.1777-63.8184 57.8613-63.4766 58.3496-62.8906L68.2617-52.7832C69.2871-51.709 69.2871-49.9023 68.2617-48.877L58.2031-38.6719C57.8125-38.2812 57.0801-37.9395 56.4453-37.9395C54.9805-37.9395 53.8574-39.0625 53.8574-40.4785C53.8574-41.2598 54.1504-41.8945 54.7363-42.4805L61.0352-48.7793C60.1074-48.9746 58.9355-49.0723 57.666-49.0723C48.584-49.0723 41.3574-41.8457 41.3574-32.8125C41.3574-23.6816 48.584-16.4062 57.666-16.4062C66.748-16.4062 73.9746-23.6816 73.9746-32.8125C73.9746-34.2773 75.1953-35.498 76.7578-35.498C78.1738-35.498 79.4434-34.2773 79.4434-32.8125C79.4434-20.7031 69.8242-10.9375 57.666-10.9375C45.5566-10.9375 35.8887-20.7031 35.8887-32.9102Z"/>
  </g>
  <g id="Thin-M" transform="matrix(1 0 0 1 799.806 1126)">
   <path d="M56.6406 12.6953C82.9102 12.6953 104.492-8.88672 104.492-35.2051C104.492-61.4746 82.9102-83.0566 56.5918-83.0566C30.3223-83.0566 8.74023-61.4746 8.74023-35.2051C8.74023-8.88672 30.3223 12.6953 56.6406 12.6953ZM35.6934-32.959C35.6934-44.5801 44.9707-53.6621 56.3965-53.6621C57.9102-53.6621 59.4238-53.4668 60.6934-53.3203L53.5645-60.4492C53.125-60.8887 53.0762-61.377 53.0762-61.7676C53.0762-62.793 53.8086-63.5742 54.834-63.5742C55.3223-63.5742 55.8105-63.2812 56.25-62.793L66.4551-52.2949C67.2363-51.4648 67.1387-50.1465 66.4551-49.4141L56.0059-38.623C55.7617-38.3789 55.2734-38.1348 54.8828-38.1348C53.8574-38.1348 53.125-38.916 53.125-39.8438C53.125-40.4297 53.2715-40.918 53.8086-41.4062L62.0605-49.6582C60.5469-50.0488 58.6426-50.1953 56.5918-50.1953C46.875-50.1953 39.209-42.5781 39.209-32.9102C39.209-23.0957 46.875-15.4785 56.5918-15.4785C66.3086-15.4785 73.9258-23.1445 73.9258-32.9102C73.9258-33.8379 74.707-34.668 75.7812-34.668C76.6602-34.668 77.4902-33.8379 77.4902-32.9102C77.4902-21.1914 68.3594-11.9141 56.5918-11.9141C44.9219-11.9141 35.6934-21.1914 35.6934-32.959Z"/>
  </g>
  <g id="Ultralight-M" transform="matrix(1 0 0 1 503.656 1126)">
   <path d="M56.0547 12.1094C82.0801 12.1094 103.369-9.17969 103.369-35.2051C103.369-61.2305 82.0801-82.5195 56.0547-82.5195C30.0293-82.5195 8.74023-61.2305 8.74023-35.2051C8.74023-9.17969 30.0293 12.1094 56.0547 12.1094ZM35.5957-32.959C35.5957-44.3848 44.6289-53.3203 56.1035-53.3203C57.9102-53.3203 59.668-53.0273 61.1816-52.8809L53.0273-61.0352C52.6367-61.4258 52.6367-61.7676 52.6367-62.0605C52.6367-62.8906 53.1738-63.4277 54.0039-63.4277C54.3945-63.4277 54.7852-63.1836 55.127-62.7441L65.5273-52.0508C66.1621-51.3184 66.0645-50.293 65.5273-49.6582L54.8828-38.623C54.7363-38.4277 54.3457-38.2812 54.0527-38.2812C53.2715-38.2812 52.7344-38.8672 52.7344-39.5508C52.7344-40.0391 52.832-40.3809 53.3203-40.8691L62.5488-50.1465C60.7422-50.5859 58.5449-50.7812 56.0547-50.7812C45.9961-50.7812 38.1348-42.9688 38.1348-32.959C38.1348-22.8516 45.9961-14.9414 56.0547-14.9414C66.0645-14.9414 73.9258-22.9004 73.9258-32.959C73.9258-33.6426 74.4629-34.2285 75.2441-34.2285C75.8789-34.2285 76.4648-33.6426 76.4648-32.959C76.4648-21.4355 67.5781-12.4512 56.0547-12.4512C44.6289-12.4512 35.5957-21.4355 35.5957-32.959Z"/>
  </g>
  <g id="Black-S" transform="matrix(1 0 0 1 2884.57 696)">
   <path d="M48.8281 6.83594C71.9727 6.83594 90.8203-12.0117 90.8203-35.1562C90.8203-58.3008 71.9727-77.1484 48.8281-77.1484C25.6836-77.1484 6.83594-58.3008 6.83594-35.1562C6.83594-12.0117 25.6836 6.83594 48.8281 6.83594ZM31.0547-33.3984C31.0547-41.8457 36.9629-49.2676 44.6777-50.7812C44.9219-50.8301 45.2148-50.8789 45.459-50.9277L45.2148-51.2695C44.8242-51.9043 44.2383-52.4902 44.2383-53.8086C44.2383-55.5176 45.6055-57.4219 48.291-57.4219C49.6094-57.4219 50.6836-56.6895 51.4648-55.9082L58.1055-49.2188C59.668-47.6562 59.7168-44.9707 58.0566-43.3594L51.416-36.6211C50.7324-35.8887 49.5605-35.4004 48.4375-35.4004C46.1426-35.4004 44.3359-36.7188 44.3359-39.3555C44.3359-40.0879 44.4336-40.7715 44.6777-41.1621L44.8242-41.5039C44.4336-41.2598 44.1406-41.1133 43.8477-41.0156C41.4551-40.0879 39.8438-36.7676 39.8438-33.3984C39.8438-28.4668 43.7988-24.4141 48.8281-24.4141C53.8086-24.4141 57.8125-28.3691 57.8125-33.3984C57.8125-35.8398 59.7656-37.793 62.2559-37.793C64.6484-37.793 66.6016-35.8398 66.6016-33.3984C66.6016-23.584 58.5938-15.5762 48.8281-15.5762C39.0625-15.5762 31.0547-23.584 31.0547-33.3984Z"/>
  </g>
  <g id="Heavy-S" transform="matrix(1 0 0 1 2588.47 696)">
   <path d="M48.2422 6.20117C70.9961 6.20117 89.5996-12.4023 89.5996-35.1562C89.5996-57.9102 70.9961-76.5625 48.1934-76.5625C25.4395-76.5625 6.83594-57.9102 6.83594-35.1562C6.83594-12.4023 25.4395 6.20117 48.2422 6.20117ZM30.4199-33.3984C30.4199-42.1875 36.8164-49.6582 44.8242-50.8301C45.0195-50.8789 45.3125-50.8789 45.5078-50.9277L44.873-51.6602C44.4824-52.2949 43.9453-52.8809 43.9453-54.1016C43.9453-55.7617 45.2637-57.5195 47.7051-57.5195C48.877-57.5195 49.9023-56.8848 50.5859-56.1523L57.4219-49.2676C58.8379-47.8516 58.8867-45.3125 57.373-43.8477L50.5371-36.9629C49.9023-36.2793 48.8281-35.791 47.8027-35.791C45.6543-35.791 43.9941-37.1094 43.9941-39.502C43.9941-40.2344 44.1406-40.918 44.4336-41.3574L45.3125-42.334C44.9707-42.1387 44.6777-42.041 44.3848-41.9434C41.0156-41.2598 38.5742-37.4512 38.5742-33.3496C38.5742-28.0273 42.8223-23.7305 48.1934-23.7305C53.5645-23.7305 57.8613-27.9785 57.8613-33.3496C57.8613-35.6445 59.668-37.4512 61.9629-37.4512C64.209-37.4512 66.0156-35.6445 66.0156-33.3496C66.0156-23.5352 58.0078-15.4785 48.1934-15.4785C38.4277-15.4785 30.4199-23.5352 30.4199-33.3984Z"/>
  </g>
  <g id="Bold-S" transform="matrix(1 0 0 1 2292.44 696)">
   <path d="M47.5586 5.51758C69.873 5.51758 88.2324-12.8418 88.2324-35.2051C88.2324-57.5195 69.873-75.8789 47.5098-75.8789C25.1953-75.8789 6.83594-57.5195 6.83594-35.2051C6.83594-12.8418 25.1953 5.51758 47.5586 5.51758ZM29.6875-33.3984C29.6875-42.5293 36.7188-50.0977 44.9707-50.8789C45.166-50.8789 45.4102-50.9277 45.6055-50.9277L44.4824-52.1484C44.043-52.6855 43.6035-53.3691 43.6035-54.4434C43.6035-56.0547 44.873-57.666 47.0215-57.666C48.0469-57.666 48.9746-57.1289 49.6094-56.4453L56.6406-49.3164C57.959-48.0469 58.0078-45.7031 56.6406-44.3848L49.5605-37.3047C48.9746-36.7188 47.998-36.2793 47.1191-36.2793C45.166-36.2793 43.6523-37.5488 43.6523-39.6484C43.6523-40.4297 43.8477-41.1133 44.1895-41.5527L45.8496-43.2617C45.5566-43.1152 45.2637-43.0664 45.0195-43.0176C40.5762-42.5293 37.1582-38.2324 37.1582-33.3008C37.1582-27.5879 41.748-22.9004 47.5098-22.9004C53.2715-22.9004 57.8613-27.5391 57.8613-33.3008C57.8613-35.3516 59.5703-37.0117 61.6699-37.0117C63.6719-37.0117 65.3809-35.3516 65.3809-33.3008C65.3809-23.4863 57.373-15.4297 47.5098-15.4297C37.6953-15.4297 29.6875-23.4863 29.6875-33.3984Z"/>
  </g>
  <g id="Semibold-S" transform="matrix(1 0 0 1 1996.2 696)">
   <path d="M47.0703 5.0293C69.0918 5.0293 87.3047-13.1348 87.3047-35.2051C87.3047-57.2266 69.0918-75.4395 47.0215-75.4395C25-75.4395 6.83594-57.2266 6.83594-35.2051C6.83594-13.1348 25.0488 5.0293 47.0703 5.0293ZM29.1504-33.3984C29.1504-42.7734 36.6211-50.3906 45.1172-50.8789C45.2637-50.9277 45.5078-50.9277 45.6543-50.9277L44.1895-52.4414C43.7988-52.9785 43.3594-53.7109 43.3594-54.6387C43.3594-56.25 44.6289-57.7148 46.582-57.7148C47.5098-57.7148 48.3398-57.2754 48.9258-56.6895L56.1523-49.3652C57.3242-48.1445 57.373-45.9961 56.1035-44.7754L48.877-37.5488C48.3398-37.0117 47.4609-36.5723 46.6309-36.5723C44.7754-36.5723 43.3594-37.8418 43.3594-39.7949C43.3594-40.5273 43.6523-41.2109 44.043-41.6992L46.1914-43.8965C45.9473-43.7988 45.7031-43.75 45.459-43.75C40.2344-43.457 36.1816-38.7695 36.1816-33.252C36.1816-27.2461 41.0156-22.3633 47.0215-22.3633C53.0762-22.3633 57.9102-27.2461 57.9102-33.252C57.9102-35.2051 59.4727-36.7676 61.4258-36.7676C63.3301-36.7676 64.8926-35.2051 64.8926-33.252C64.8926-23.4375 56.9336-15.332 47.0215-15.332C37.1582-15.332 29.1504-23.4375 29.1504-33.3984Z"/>
  </g>
  <g id="Medium-S" transform="matrix(1 0 0 1 1699.83 696)">
   <path d="M46.7285 4.6875C68.5547 4.6875 86.6211-13.3789 86.6211-35.2051C86.6211-57.0312 68.5059-75.0977 46.6797-75.0977C24.8535-75.0977 6.83594-57.0312 6.83594-35.2051C6.83594-13.3789 24.9023 4.6875 46.7285 4.6875ZM28.8086-33.3984C28.8086-42.9688 36.5234-50.6348 45.166-50.9277C45.3125-50.9277 45.5566-50.9277 45.6543-50.9277L43.9941-52.6855C43.5547-53.2227 43.1641-53.9551 43.1641-54.834C43.1641-56.3965 44.4336-57.8125 46.1914-57.8125C47.0703-57.8125 47.9004-57.373 48.4375-56.8359L55.7129-49.4141C56.8359-48.291 56.9336-46.1914 55.7129-45.0684L48.3398-37.7441C47.8516-37.207 47.0215-36.8164 46.2402-36.8164C44.5312-36.8164 43.1641-38.0859 43.1641-39.8438C43.1641-40.625 43.457-41.3086 43.8965-41.7969L46.4844-44.3359C46.2891-44.3359 45.9961-44.2871 45.8008-44.2871C39.9902-44.1406 35.4492-39.209 35.4492-33.252C35.4492-27.002 40.4297-21.9727 46.6797-21.9727C52.9297-21.9727 57.9102-27.002 57.9102-33.252C57.9102-35.0586 59.4238-36.5723 61.2793-36.5723C63.0371-36.5723 64.5508-35.0586 64.5508-33.252C64.5508-23.3887 56.5918-15.332 46.6797-15.332C36.8164-15.332 28.8086-23.3887 28.8086-33.3984Z"/>
  </g>
  <g id="Regular-S" transform="matrix(1 0 0 1 1403.58 696)">
   <path d="M46.2402 4.19922C67.7734 4.19922 85.6934-13.6719 85.6934-35.2051C85.6934-56.7383 67.7246-74.6094 46.1914-74.6094C24.707-74.6094 6.83594-56.7383 6.83594-35.2051C6.83594-13.6719 24.7559 4.19922 46.2402 4.19922ZM28.3203-33.3984C28.3203-43.2129 36.4258-50.9277 45.2637-50.9277C45.4102-50.9277 45.6055-50.9277 45.7031-50.9277L43.75-53.0273C43.3105-53.5156 42.9199-54.248 42.9199-55.0293C42.9199-56.5918 44.1406-57.8613 45.752-57.8613C46.5332-57.8613 47.2656-57.5684 47.7539-57.0312L55.2246-49.4629C56.2012-48.3887 56.2988-46.4844 55.2246-45.4102L47.7051-37.9883C47.2168-37.5 46.4844-37.1582 45.752-37.1582C44.1406-37.1582 42.9199-38.3789 42.9199-39.9414C42.9199-40.7227 43.2617-41.4551 43.75-41.8945L46.8262-44.9707C46.6797-45.0195 46.3867-45.0195 46.1914-45.0195C39.6973-45.0195 34.4727-39.7461 34.4727-33.2031C34.4727-26.709 39.6973-21.4355 46.1914-21.4355C52.7344-21.4355 57.959-26.709 57.959-33.2031C57.959-34.9121 59.375-36.2793 61.084-36.2793C62.6953-36.2793 64.1113-34.9121 64.1113-33.2031C64.1113-23.3398 56.1035-15.2344 46.1914-15.2344C36.2793-15.2344 28.3203-23.3398 28.3203-33.3984Z"/>
  </g>
  <g id="Light-S" transform="matrix(1 0 0 1 1107.6 696)">
   <path d="M45.5078 3.4668C66.6992 3.4668 84.2285-14.0137 84.2285-35.2051C84.2285-56.3965 66.6504-73.877 45.5078-73.877C24.3164-73.877 6.83594-56.3965 6.83594-35.2051C6.83594-14.0137 24.3652 3.4668 45.5078 3.4668ZM28.1738-33.3984C28.1738-42.9688 35.9863-50.4395 44.873-50.4395C45.4102-50.4395 45.9473-50.3906 46.4355-50.3418L43.0176-53.7598C42.627-54.1992 42.3828-54.7852 42.3828-55.4199C42.3828-56.6895 43.3594-57.7148 44.6777-57.7148C45.3125-57.7148 45.8984-57.4219 46.3379-56.9336L54.0039-49.1211C54.834-48.2422 54.8828-46.6309 54.0039-45.752L46.2402-37.9395C45.8496-37.5977 45.2637-37.3047 44.6777-37.3047C43.4082-37.3047 42.4316-38.2812 42.4316-39.5508C42.4316-40.1855 42.6758-40.7715 43.1152-41.2109L47.5098-45.5566C46.9727-45.7031 46.2402-45.752 45.5078-45.752C38.5254-45.752 33.0078-40.2344 33.0078-33.3008C33.0078-26.3184 38.5254-20.752 45.5078-20.752C52.4414-20.752 57.959-26.3672 57.959-33.3008C57.959-34.6191 59.0332-35.6934 60.4004-35.6934C61.6699-35.6934 62.793-34.6191 62.793-33.3008C62.793-23.6816 55.127-15.918 45.5078-15.918C35.8887-15.918 28.1738-23.6816 28.1738-33.3984Z"/>
  </g>
  <g id="Thin-S" transform="matrix(1 0 0 1 811.867 696)">
   <path d="M44.5801 2.53906C65.2832 2.53906 82.2754-14.502 82.2754-35.2051C82.2754-55.9082 65.2344-72.9492 44.5312-72.9492C23.8281-72.9492 6.83594-55.9082 6.83594-35.2051C6.83594-14.502 23.877 2.53906 44.5801 2.53906ZM27.9785-33.4473C27.9785-42.627 35.3516-49.8047 44.2871-49.8047C45.3613-49.8047 46.4355-49.6582 47.3145-49.5605L42.1387-54.7852C41.7969-55.127 41.6992-55.5176 41.6992-55.9082C41.6992-56.7871 42.334-57.4707 43.2617-57.4707C43.7012-57.4707 44.0918-57.2266 44.4336-56.8359L52.3926-48.7305C53.0273-47.998 52.9785-46.875 52.3926-46.2402L44.2871-37.9395C44.043-37.6953 43.6523-37.4512 43.2617-37.4512C42.3828-37.4512 41.748-38.1836 41.748-38.9648C41.748-39.4531 41.8945-39.8926 42.334-40.2832L48.3887-46.3867C47.3145-46.6309 45.9961-46.7285 44.5312-46.7285C37.0605-46.7285 31.1523-40.8691 31.1523-33.3984C31.1523-25.8301 37.0605-19.9219 44.5312-19.9219C52.002-19.9219 57.9102-25.8789 57.9102-33.3984C57.9102-34.2285 58.6426-34.9609 59.5215-34.9609C60.3516-34.9609 61.084-34.2285 61.084-33.3984C61.084-24.1211 53.8086-16.7969 44.5312-16.7969C35.3027-16.7969 27.9785-24.1211 27.9785-33.4473Z"/>
  </g>
  <g id="Ultralight-S" transform="matrix(1 0 0 1 515.644 696)">
   <path d="M44.043 2.00195C64.502 2.00195 81.2988-14.7461 81.2988-35.2051C81.2988-55.6641 64.502-72.4121 44.043-72.4121C23.584-72.4121 6.83594-55.6641 6.83594-35.2051C6.83594-14.7461 23.584 2.00195 44.043 2.00195ZM27.8809-33.4473C27.8809-42.4805 35.0098-49.5117 43.9941-49.5117C45.3613-49.5117 46.6797-49.3164 47.8027-49.1699L41.6504-55.3223C41.3574-55.6152 41.3574-55.9082 41.3574-56.2012C41.3574-56.8848 41.7969-57.373 42.4805-57.373C42.8711-57.373 43.1641-57.1289 43.5059-56.7871L51.5625-48.4863C52.0996-47.9004 52.0508-46.9727 51.5625-46.4844L43.3105-37.8906C43.1152-37.7441 42.8223-37.5977 42.5293-37.5977C41.8457-37.5977 41.4062-38.0859 41.4062-38.6719C41.4062-39.1113 41.5039-39.4043 41.8945-39.7949L48.877-46.7773C47.5098-47.1191 45.8984-47.2656 44.043-47.2656C36.2793-47.2656 30.1758-41.1621 30.1758-33.4473C30.1758-25.5859 36.2793-19.4824 44.043-19.4824C51.8066-19.4824 57.9102-25.6348 57.9102-33.4473C57.9102-34.0332 58.3984-34.5703 59.082-34.5703C59.6191-34.5703 60.1562-34.0332 60.1562-33.4473C60.1562-24.3652 53.125-17.2363 44.043-17.2363C35.0098-17.2363 27.8809-24.3652 27.8809-33.4473Z"/>
  </g>
 </g>
</svg>
