<?xml version="1.0" encoding="UTF-8"?>
<!--Generator: Apple Native CoreSVG 149-->
<!DOCTYPE svg
PUBLIC "-//W3C//DTD SVG 1.1//EN"
       "http://www.w3.org/Graphics/SVG/1.1/DTD/svg11.dtd">
<svg version="1.1" xmlns="http://www.w3.org/2000/svg" xmlns:xlink="http://www.w3.org/1999/xlink" width="3300" height="2200">
 <!--glyph: "uni10010E.medium", point size: 100.000000, font version: "Version 16.0d18e1", template writer version: "8"-->
 <g id="Notes">
  <rect height="2200" id="artboard" style="fill:white;opacity:1" width="3300" x="0" y="0"/>
  <line id="" style="fill:none;stroke:black;opacity:1;stroke-width:0.5;" x1="263" x2="3036" y1="292" y2="292"/>
  <text style="stroke:none;fill:black;font-family:-apple-system,&quot;SF Pro Display&quot;,&quot;SF Pro Text&quot;,Helvetica,sans-serif;font-weight:bold;" transform="matrix(1 0 0 1 263 322)">Weight/Scale Variations</text>
  <text style="stroke:none;fill:black;font-family:-apple-system,&quot;SF Pro Display&quot;,&quot;SF Pro Text&quot;,Helvetica,sans-serif;text-anchor:middle;" transform="matrix(1 0 0 1 559.711 322)">Ultralight</text>
  <text style="stroke:none;fill:black;font-family:-apple-system,&quot;SF Pro Display&quot;,&quot;SF Pro Text&quot;,Helvetica,sans-serif;text-anchor:middle;" transform="matrix(1 0 0 1 856.422 322)">Thin</text>
  <text style="stroke:none;fill:black;font-family:-apple-system,&quot;SF Pro Display&quot;,&quot;SF Pro Text&quot;,Helvetica,sans-serif;text-anchor:middle;" transform="matrix(1 0 0 1 1153.13 322)">Light</text>
  <text style="stroke:none;fill:black;font-family:-apple-system,&quot;SF Pro Display&quot;,&quot;SF Pro Text&quot;,Helvetica,sans-serif;text-anchor:middle;" transform="matrix(1 0 0 1 1449.84 322)">Regular</text>
  <text style="stroke:none;fill:black;font-family:-apple-system,&quot;SF Pro Display&quot;,&quot;SF Pro Text&quot;,Helvetica,sans-serif;text-anchor:middle;" transform="matrix(1 0 0 1 1746.56 322)">Medium</text>
  <text style="stroke:none;fill:black;font-family:-apple-system,&quot;SF Pro Display&quot;,&quot;SF Pro Text&quot;,Helvetica,sans-serif;text-anchor:middle;" transform="matrix(1 0 0 1 2043.27 322)">Semibold</text>
  <text style="stroke:none;fill:black;font-family:-apple-system,&quot;SF Pro Display&quot;,&quot;SF Pro Text&quot;,Helvetica,sans-serif;text-anchor:middle;" transform="matrix(1 0 0 1 2339.98 322)">Bold</text>
  <text style="stroke:none;fill:black;font-family:-apple-system,&quot;SF Pro Display&quot;,&quot;SF Pro Text&quot;,Helvetica,sans-serif;text-anchor:middle;" transform="matrix(1 0 0 1 2636.69 322)">Heavy</text>
  <text style="stroke:none;fill:black;font-family:-apple-system,&quot;SF Pro Display&quot;,&quot;SF Pro Text&quot;,Helvetica,sans-serif;text-anchor:middle;" transform="matrix(1 0 0 1 2933.4 322)">Black</text>
  <line id="" style="fill:none;stroke:black;opacity:1;stroke-width:0.5;" x1="263" x2="3036" y1="1903" y2="1903"/>
  <g id="" transform="matrix(1 0 0 1 263 1933)">
   <path d="M9.24805 0.830078C13.5547 0.830078 17.1387-2.74414 17.1387-7.05078C17.1387-11.3574 13.5449-14.9316 9.23828-14.9316C4.94141-14.9316 1.36719-11.3574 1.36719-7.05078C1.36719-2.74414 4.95117 0.830078 9.24805 0.830078ZM9.24805-0.654297C5.70312-0.654297 2.87109-3.49609 2.87109-7.05078C2.87109-10.6055 5.69336-13.4473 9.23828-13.4473C12.793-13.4473 15.6348-10.6055 15.6445-7.05078C15.6543-3.49609 12.8027-0.654297 9.24805-0.654297ZM6.39648-6.31836L8.50586-6.31836L8.50586-4.19922C8.50586-3.75977 8.79883-3.45703 9.22852-3.45703C9.67773-3.45703 9.9707-3.75977 9.9707-4.19922L9.9707-6.31836L12.0996-6.31836C12.5391-6.31836 12.8418-6.61133 12.8418-7.04102C12.8418-7.48047 12.5391-7.7832 12.0996-7.7832L9.9707-7.7832L9.9707-9.89258C9.9707-10.3418 9.67773-10.6445 9.22852-10.6445C8.79883-10.6445 8.50586-10.3418 8.50586-9.89258L8.50586-7.7832L6.39648-7.7832C5.94727-7.7832 5.64453-7.48047 5.64453-7.04102C5.64453-6.61133 5.94727-6.31836 6.39648-6.31836Z"/>
  </g>
  <g id="" transform="matrix(1 0 0 1 281.506 1933)">
   <path d="M11.709 2.91016C17.1582 2.91016 21.6699-1.61133 21.6699-7.05078C21.6699-12.5 17.1484-17.0117 11.6992-17.0117C6.25977-17.0117 1.74805-12.5 1.74805-7.05078C1.74805-1.61133 6.26953 2.91016 11.709 2.91016ZM11.709 1.25C7.09961 1.25 3.41797-2.44141 3.41797-7.05078C3.41797-11.6602 7.08984-15.3516 11.6992-15.3516C16.3086-15.3516 20-11.6602 20.0098-7.05078C20.0195-2.44141 16.3184 1.25 11.709 1.25ZM7.98828-6.23047L10.8789-6.23047L10.8789-3.32031C10.8789-2.83203 11.2109-2.5 11.6895-2.5C12.1777-2.5 12.5195-2.83203 12.5195-3.32031L12.5195-6.23047L15.4297-6.23047C15.918-6.23047 16.25-6.5625 16.25-7.04102C16.25-7.5293 15.918-7.87109 15.4297-7.87109L12.5195-7.87109L12.5195-10.7617C12.5195-11.2695 12.1777-11.6016 11.6895-11.6016C11.2109-11.6016 10.8789-11.2598 10.8789-10.7617L10.8789-7.87109L7.98828-7.87109C7.48047-7.87109 7.14844-7.5293 7.14844-7.04102C7.14844-6.5625 7.49023-6.23047 7.98828-6.23047Z"/>
  </g>
  <g id="" transform="matrix(1 0 0 1 304.924 1933)">
   <path d="M14.9707 5.66406C21.9336 5.66406 27.6953-0.0976562 27.6953-7.05078C27.6953-14.0137 21.9238-19.7754 14.9609-19.7754C8.00781-19.7754 2.25586-14.0137 2.25586-7.05078C2.25586-0.0976562 8.01758 5.66406 14.9707 5.66406ZM14.9707 3.84766C8.93555 3.84766 4.08203-1.01562 4.08203-7.05078C4.08203-13.0957 8.92578-17.9492 14.9609-17.9492C21.0059-17.9492 25.8594-13.0957 25.8691-7.05078C25.8789-1.01562 21.0156 3.84766 14.9707 3.84766ZM10.0586-6.14258L14.0625-6.14258L14.0625-2.12891C14.0625-1.5918 14.4336-1.2207 14.9512-1.2207C15.4883-1.2207 15.8594-1.5918 15.8594-2.12891L15.8594-6.14258L19.8828-6.14258C20.4102-6.14258 20.791-6.51367 20.791-7.03125C20.791-7.56836 20.4199-7.94922 19.8828-7.94922L15.8594-7.94922L15.8594-11.9531C15.8594-12.5098 15.4883-12.8809 14.9512-12.8809C14.4336-12.8809 14.0625-12.5 14.0625-11.9531L14.0625-7.94922L10.0586-7.94922C9.50195-7.94922 9.13086-7.56836 9.13086-7.03125C9.13086-6.51367 9.51172-6.14258 10.0586-6.14258Z"/>
  </g>
  <text style="stroke:none;fill:black;font-family:-apple-system,&quot;SF Pro Display&quot;,&quot;SF Pro Text&quot;,Helvetica,sans-serif;font-weight:bold;" transform="matrix(1 0 0 1 263 1953)">Design Variations</text>
  <text style="stroke:none;fill:black;font-family:-apple-system,&quot;SF Pro Display&quot;,&quot;SF Pro Text&quot;,Helvetica,sans-serif;" transform="matrix(1 0 0 1 263 1971)">Symbols are supported in up to nine weights and three scales.</text>
  <text style="stroke:none;fill:black;font-family:-apple-system,&quot;SF Pro Display&quot;,&quot;SF Pro Text&quot;,Helvetica,sans-serif;" transform="matrix(1 0 0 1 263 1989)">For optimal layout with text and other symbols, vertically align</text>
  <text style="stroke:none;fill:black;font-family:-apple-system,&quot;SF Pro Display&quot;,&quot;SF Pro Text&quot;,Helvetica,sans-serif;" transform="matrix(1 0 0 1 263 2007)">symbols with the adjacent text.</text>
  <line id="" style="fill:none;stroke:#00AEEF;stroke-width:0.5;opacity:1.0;" x1="776" x2="776" y1="1919" y2="1933"/>
  <g id="" transform="matrix(1 0 0 1 776 1933)">
   <path d="M3.31055 0.126953C3.82812 0.126953 4.08203-0.0683594 4.26758-0.605469L5.52734-4.0625L11.2891-4.0625L12.5488-0.605469C12.7344-0.0683594 12.9883 0.126953 13.4961 0.126953C14.0137 0.126953 14.3457-0.185547 14.3457-0.673828C14.3457-0.839844 14.3164-0.986328 14.2383-1.20117L9.6582-13.3887C9.43359-13.9941 9.0332-14.2871 8.4082-14.2871C7.80273-14.2871 7.39258-13.9941 7.17773-13.3984L2.59766-1.19141C2.51953-0.976562 2.49023-0.830078 2.49023-0.664062C2.49023-0.175781 2.80273 0.126953 3.31055 0.126953ZM6.00586-5.53711L8.37891-12.1094L8.42773-12.1094L10.8008-5.53711Z"/>
  </g>
  <line id="" style="fill:none;stroke:#00AEEF;stroke-width:0.5;opacity:1.0;" x1="792.836" x2="792.836" y1="1919" y2="1933"/>
  <text style="stroke:none;fill:black;font-family:-apple-system,&quot;SF Pro Display&quot;,&quot;SF Pro Text&quot;,Helvetica,sans-serif;font-weight:bold;" transform="matrix(1 0 0 1 776 1953)">Margins</text>
  <text style="stroke:none;fill:black;font-family:-apple-system,&quot;SF Pro Display&quot;,&quot;SF Pro Text&quot;,Helvetica,sans-serif;" transform="matrix(1 0 0 1 776 1971)">Leading and trailing margins on the left and right side of each symbol</text>
  <text style="stroke:none;fill:black;font-family:-apple-system,&quot;SF Pro Display&quot;,&quot;SF Pro Text&quot;,Helvetica,sans-serif;" transform="matrix(1 0 0 1 776 1989)">can be adjusted by modifying the x-location of the margin guidelines.</text>
  <text style="stroke:none;fill:black;font-family:-apple-system,&quot;SF Pro Display&quot;,&quot;SF Pro Text&quot;,Helvetica,sans-serif;" transform="matrix(1 0 0 1 776 2007)">Modifications are automatically applied proportionally to all</text>
  <text style="stroke:none;fill:black;font-family:-apple-system,&quot;SF Pro Display&quot;,&quot;SF Pro Text&quot;,Helvetica,sans-serif;" transform="matrix(1 0 0 1 776 2025)">scales and weights.</text>
  <g id="" transform="matrix(1 0 0 1 1289 1933)">
   <path d="M2.8418 1.86523L4.54102 3.57422C5.40039 4.44336 6.38672 4.38477 7.31445 3.35938L17.4902-7.85156C17.7539-7.76367 18.0273-7.7832 18.3398-7.8418L19.4043-8.03711L20.0684-7.36328L20.0293-6.80664C19.9902-6.30859 20.1172-5.92773 20.6055-5.44922L21.3672-4.70703C21.8457-4.22852 22.4609-4.19922 22.9297-4.66797L25.8398-7.58789C26.3086-8.05664 26.2891-8.65234 25.8105-9.13086L25.0391-9.89258C24.5605-10.3711 24.1895-10.5273 23.7109-10.4883L23.1348-10.4395L22.4902-11.0742L22.7344-12.1973C22.8613-12.7637 22.7051-13.2031 22.1191-13.7891L19.9219-15.9766C16.582-19.2969 12.1484-19.2188 9.25781-16.3281C8.83789-15.918 8.80859-15.3418 9.04297-14.9512C9.27734-14.5898 9.73633-14.3555 10.3809-14.5215C11.8457-14.8633 13.3691-14.9219 14.7949-13.9844L14.209-12.5293C14.0137-12.0508 13.9844-11.6504 14.1113-11.2891L3.04688-0.898438C2.06055 0.0195312 1.98242 0.996094 2.8418 1.86523ZM10.752-15.957C13.1836-17.7344 16.4746-17.4316 18.7012-15.2051L21.1328-12.793C21.3672-12.5586 21.4062-12.373 21.3379-12.0312L21.0156-10.5469L22.5195-9.0625L23.5059-9.12109C23.7598-9.13086 23.8379-9.11133 24.0332-8.91602L24.6094-8.33984L22.168-5.89844L21.5918-6.47461C21.3965-6.66992 21.3672-6.74805 21.377-7.01172L21.4453-7.98828L19.9512-9.47266L18.4277-9.21875C18.1055-9.15039 17.959-9.17969 17.7148-9.41406L15.7129-11.416C15.459-11.6504 15.4297-11.8164 15.5859-12.1875L16.4648-14.2773C14.9023-15.7324 12.8711-16.3574 10.8398-15.7617C10.6836-15.7227 10.625-15.8496 10.752-15.957ZM5.27344 2.30469L4.10156 1.14258C3.63281 0.683594 3.74023 0.341797 4.14062-0.0195312L14.9512-10.1953L16.416-8.71094L6.42578 2.27539C6.07422 2.67578 5.74219 2.77344 5.27344 2.30469Z"/>
  </g>
  <text style="stroke:none;fill:black;font-family:-apple-system,&quot;SF Pro Display&quot;,&quot;SF Pro Text&quot;,Helvetica,sans-serif;font-weight:bold;" transform="matrix(1 0 0 1 1289 1953)">Exporting</text>
  <text style="stroke:none;fill:black;font-family:-apple-system,&quot;SF Pro Display&quot;,&quot;SF Pro Text&quot;,Helvetica,sans-serif;" transform="matrix(1 0 0 1 1289 1971)">Symbols should be outlined when exporting to ensure the</text>
  <text style="stroke:none;fill:black;font-family:-apple-system,&quot;SF Pro Display&quot;,&quot;SF Pro Text&quot;,Helvetica,sans-serif;" transform="matrix(1 0 0 1 1289 1989)">design is preserved when submitting to Xcode.</text>
  <text id="template-version" style="stroke:none;fill:black;font-family:-apple-system,&quot;SF Pro Display&quot;,&quot;SF Pro Text&quot;,Helvetica,sans-serif;text-anchor:end;" transform="matrix(1 0 0 1 3036 1933)">Template v.2.0</text>
  <text style="stroke:none;fill:black;font-family:-apple-system,&quot;SF Pro Display&quot;,&quot;SF Pro Text&quot;,Helvetica,sans-serif;text-anchor:end;" transform="matrix(1 0 0 1 3036 1951)">Requires Xcode 12 or greater</text>
  <text style="stroke:none;fill:black;font-family:-apple-system,&quot;SF Pro Display&quot;,&quot;SF Pro Text&quot;,Helvetica,sans-serif;text-anchor:end;" transform="matrix(1 0 0 1 3036 1969)">Generated from arrow.up.arrow.down.square</text>
  <text style="stroke:none;fill:black;font-family:-apple-system,&quot;SF Pro Display&quot;,&quot;SF Pro Text&quot;,Helvetica,sans-serif;text-anchor:end;" transform="matrix(1 0 0 1 3036 1987)">Typeset at 100 points</text>
  <text style="stroke:none;fill:black;font-family:-apple-system,&quot;SF Pro Display&quot;,&quot;SF Pro Text&quot;,Helvetica,sans-serif;" transform="matrix(1 0 0 1 263 726)">Small</text>
  <text style="stroke:none;fill:black;font-family:-apple-system,&quot;SF Pro Display&quot;,&quot;SF Pro Text&quot;,Helvetica,sans-serif;" transform="matrix(1 0 0 1 263 1156)">Medium</text>
  <text style="stroke:none;fill:black;font-family:-apple-system,&quot;SF Pro Display&quot;,&quot;SF Pro Text&quot;,Helvetica,sans-serif;" transform="matrix(1 0 0 1 263 1586)">Large</text>
 </g>
 <g id="Guides">
  <g id="H-reference" style="fill:#27AAE1;stroke:none;" transform="matrix(1 0 0 1 339 696)">
   <path d="M0.976562 0L3.66211 0L12.9883-24.4629L45.752-24.4629L55.127 0L57.7637 0L30.6152-70.459L28.125-70.459ZM29.3457-67.1387L29.4434-67.1387L44.873-26.709L13.8672-26.709Z"/>
  </g>
  <line id="Baseline-S" style="fill:none;stroke:#27AAE1;opacity:1;stroke-width:0.5;" x1="263" x2="3036" y1="696" y2="696"/>
  <line id="Capline-S" style="fill:none;stroke:#27AAE1;opacity:1;stroke-width:0.5;" x1="263" x2="3036" y1="625.541" y2="625.541"/>
  <g id="H-reference" style="fill:#27AAE1;stroke:none;" transform="matrix(1 0 0 1 339 1126)">
   <path d="M0.976562 0L3.66211 0L12.9883-24.4629L45.752-24.4629L55.127 0L57.7637 0L30.6152-70.459L28.125-70.459ZM29.3457-67.1387L29.4434-67.1387L44.873-26.709L13.8672-26.709Z"/>
  </g>
  <line id="Baseline-M" style="fill:none;stroke:#27AAE1;opacity:1;stroke-width:0.5;" x1="263" x2="3036" y1="1126" y2="1126"/>
  <line id="Capline-M" style="fill:none;stroke:#27AAE1;opacity:1;stroke-width:0.5;" x1="263" x2="3036" y1="1055.54" y2="1055.54"/>
  <g id="H-reference" style="fill:#27AAE1;stroke:none;" transform="matrix(1 0 0 1 339 1556)">
   <path d="M0.976562 0L3.66211 0L12.9883-24.4629L45.752-24.4629L55.127 0L57.7637 0L30.6152-70.459L28.125-70.459ZM29.3457-67.1387L29.4434-67.1387L44.873-26.709L13.8672-26.709Z"/>
  </g>
  <line id="Baseline-L" style="fill:none;stroke:#27AAE1;opacity:1;stroke-width:0.5;" x1="263" x2="3036" y1="1556" y2="1556"/>
  <line id="Capline-L" style="fill:none;stroke:#27AAE1;opacity:1;stroke-width:0.5;" x1="263" x2="3036" y1="1485.54" y2="1485.54"/>
  <line id="left-margin" style="fill:none;stroke:#00AEEF;stroke-width:0.5;opacity:1.0;" x1="1392.45" x2="1392.45" y1="1030.79" y2="1150.12"/>
  <line id="right-margin" style="fill:none;stroke:#00AEEF;stroke-width:0.5;opacity:1.0;" x1="1507.24" x2="1507.24" y1="1030.79" y2="1150.12"/>
 </g>
 <g id="Symbols">
  <g id="Black-L" transform="matrix(1 0 0 1 2855.62 1556)">
   <path d="M39.9902 26.5137L115.576 26.5137C130.811 26.5137 139.502 17.8711 139.502 2.68555L139.502-73.0957C139.502-88.2812 130.811-96.875 115.576-96.875L39.9902-96.875C24.7559-96.875 16.0645-88.2812 16.0645-73.0957L16.0645 2.68555C16.0645 17.8711 24.7559 26.5137 39.9902 26.5137ZM42.6758 6.29883C38.4766 6.29883 36.3281 4.39453 36.3281-0.146484L36.3281-70.2148C36.3281-74.7559 38.4766-76.6602 42.6758-76.6602L112.842-76.6602C117.09-76.6602 119.238-74.7559 119.238-70.2148L119.238-0.146484C119.238 4.39453 117.09 6.29883 112.842 6.29883ZM99.3164-6.98242L113.77-21.9238C114.648-22.9004 115.283-24.2676 115.283-25.6348C115.283-28.5645 113.184-30.6641 110.205-30.6641C108.789-30.6641 107.568-30.2246 106.641-29.1992L100.928-23.291L100.586-22.8516L100.635-26.0742L100.635-60.1074C100.635-63.0371 98.3887-65.2832 95.459-65.2832C92.4805-65.2832 90.2832-63.0371 90.2832-60.1074L90.2832-26.0742L90.332-22.8516L89.9414-23.291L84.3262-29.1992C83.3496-30.2246 82.0801-30.6641 80.7129-30.6641C77.7344-30.6641 75.6348-28.5645 75.6348-25.6348C75.6348-24.2676 76.2695-22.9004 77.1973-21.9238L91.6504-6.98242C93.7012-4.93164 97.1191-4.78516 99.3164-6.98242ZM56.3477-63.5742L41.8945-48.584C40.9668-47.6074 40.332-46.2402 40.332-44.9219C40.332-41.9922 42.4316-39.8926 45.4102-39.8926C46.8262-39.8926 47.998-40.332 48.9746-41.3086L54.6875-47.2656L55.0293-47.7051L54.9805-44.4336L54.9805-10.4492C54.9805-7.51953 57.2266-5.27344 60.1562-5.27344C63.1348-5.27344 65.332-7.51953 65.332-10.4492L65.332-44.4824L65.2832-47.7051L65.6738-47.2656L71.2891-41.3086C72.2656-40.332 73.5352-39.8926 74.9023-39.8926C77.8809-39.8926 80.0293-41.9922 80.0293-44.9219C80.0293-46.2891 79.3457-47.6562 78.418-48.584L63.916-63.5742C61.8652-65.625 58.4961-65.8203 56.3477-63.5742Z"/>
  </g>
  <g id="Heavy-L" transform="matrix(1 0 0 1 2559.93 1556)">
   <path d="M38.8184 25.4883L114.697 25.4883C129.346 25.4883 137.451 17.4316 137.451 2.88086L137.451-73.2422C137.451-87.793 129.346-95.8496 114.697-95.8496L38.8184-95.8496C24.2188-95.8496 16.0645-87.793 16.0645-73.2422L16.0645 2.88086C16.0645 17.4316 24.2188 25.4883 38.8184 25.4883ZM40.918 8.00781C36.084 8.00781 33.5938 5.71289 33.5938 0.585938L33.5938-70.9473C33.5938-76.0742 36.084-78.3691 40.918-78.3691L112.549-78.3691C117.383-78.3691 119.922-76.0742 119.922-70.9473L119.922 0.585938C119.922 5.71289 117.383 8.00781 112.549 8.00781ZM98.3887-6.5918L113.232-21.875C114.062-22.7539 114.697-24.0723 114.697-25.293C114.697-28.0273 112.744-29.9805 109.961-29.9805C108.643-29.9805 107.52-29.541 106.641-28.6621L100.635-22.3633L99.6094-21.2402L99.6582-24.5605L99.6582-60.6934C99.6582-63.4277 97.5586-65.4785 94.873-65.4785C92.0898-65.4785 90.0391-63.3789 90.0391-60.6934L90.0391-24.5117L90.1367-21.2402L89.0625-22.3633L83.1055-28.6621C82.1777-29.5898 81.0059-29.9805 79.7363-29.9805C76.9531-29.9805 75.0488-28.0273 75.0488-25.293C75.0488-24.0723 75.6348-22.8027 76.4648-21.875L91.3574-6.5918C93.2129-4.6875 96.3867-4.54102 98.3887-6.5918ZM55.1758-63.916L40.332-48.6328C39.502-47.7051 38.916-46.4355 38.916-45.2148C38.916-42.5293 40.8691-40.5273 43.6035-40.5273C44.9219-40.5273 46.0449-40.9668 46.9238-41.8945L52.9785-48.1445L54.0039-49.3164L53.9551-45.9473L53.9551-9.81445C53.9551-7.12891 56.0059-5.07812 58.7402-5.07812C61.4746-5.07812 63.5254-7.12891 63.5254-9.81445L63.5254-45.9473L63.4277-49.3164L64.502-48.1445L70.5078-41.8945C71.3867-40.9668 72.6074-40.5273 73.8281-40.5273C76.5625-40.5273 78.5645-42.4805 78.5645-45.2148C78.5645-46.4844 77.9297-47.7539 77.0996-48.6328L62.207-63.916C60.3027-65.8203 57.2266-66.0156 55.1758-63.916Z"/>
  </g>
  <g id="Bold-L" transform="matrix(1 0 0 1 2264.37 1556)">
   <path d="M37.5 24.3652L113.721 24.3652C127.637 24.3652 135.156 16.8945 135.156 3.07617L135.156-73.3887C135.156-87.207 127.637-94.7266 113.721-94.7266L37.5-94.7266C23.6328-94.7266 16.0645-87.2559 16.0645-73.3887L16.0645 3.07617C16.0645 16.8945 23.6328 24.3652 37.5 24.3652ZM38.9648 9.91211C33.4473 9.91211 30.5176 7.17773 30.5176 1.41602L30.5176-71.7285C30.5176-77.5391 33.4473-80.2734 38.9648-80.2734L112.256-80.2734C117.725-80.2734 120.703-77.5391 120.703-71.7285L120.703 1.41602C120.703 7.17773 117.725 9.91211 112.256 9.91211ZM97.4121-6.15234L112.646-21.8262C113.428-22.6562 114.014-23.8281 114.014-24.9512C114.014-27.4414 112.207-29.248 109.717-29.248C108.496-29.248 107.422-28.8086 106.641-27.9785L100.244-21.3867L98.4863-19.4824L98.5352-22.8516L98.5352-61.377C98.5352-63.8672 96.6309-65.7227 94.1895-65.7227C91.6992-65.7227 89.7949-63.8184 89.7949-61.377L89.7949-22.8516L89.8926-19.4336L88.0859-21.3867L81.7383-27.9785C80.9082-28.8574 79.7852-29.248 78.6621-29.248C76.123-29.248 74.3652-27.4414 74.3652-24.9512C74.3652-23.8281 74.9023-22.6562 75.6836-21.8262L90.9668-6.15234C92.627-4.49219 95.5566-4.29688 97.4121-6.15234ZM53.9062-64.3066L38.623-48.6816C37.8418-47.8027 37.3047-46.6309 37.3047-45.5078C37.3047-43.0664 39.1113-41.2598 41.6016-41.2598C42.7734-41.2598 43.7988-41.6992 44.6289-42.5293L51.0254-49.1699L52.832-51.0742L52.7832-47.6074L52.7832-9.13086C52.7832-6.64062 54.6387-4.78516 57.1289-4.78516C59.668-4.78516 61.4746-6.68945 61.4746-9.13086L61.4746-47.6562L61.377-51.0742L63.1836-49.1699L69.5801-42.5293C70.4102-41.6504 71.4844-41.2598 72.6562-41.2598C75.1465-41.2598 76.9531-43.0176 76.9531-45.5078C76.9531-46.6797 76.3672-47.8516 75.5859-48.6816L60.3027-64.3066C58.5938-66.0156 55.8105-66.2598 53.9062-64.3066Z"/>
  </g>
  <g id="Semibold-L" transform="matrix(1 0 0 1 1968.44 1556)">
   <path d="M36.6211 23.584L113.037 23.584C126.514 23.584 133.594 16.5039 133.594 3.17383L133.594-73.5352C133.594-86.8164 126.514-93.9453 113.037-93.9453L36.6211-93.9453C23.1934-93.9453 16.0645-86.8652 16.0645-73.5352L16.0645 3.17383C16.0645 16.5527 23.1934 23.584 36.6211 23.584ZM37.5977 11.2793C31.6406 11.2793 28.418 8.20312 28.418 1.95312L28.418-72.3145C28.418-78.5156 31.6406-81.5918 37.5977-81.5918L112.061-81.5918C117.969-81.5918 121.24-78.5156 121.24-72.3145L121.24 1.95312C121.24 8.20312 117.969 11.2793 112.061 11.2793ZM96.7285-5.85938L112.256-21.7773C112.988-22.5586 113.525-23.6816 113.525-24.707C113.525-27.0508 111.865-28.7109 109.521-28.7109C108.398-28.7109 107.373-28.3203 106.641-27.5391L100-20.6543L97.7051-18.2129L97.7539-21.7285L97.7539-61.8164C97.7539-64.1602 95.9961-65.8691 93.7012-65.8691C91.3574-65.8691 89.6484-64.1113 89.6484-61.8164L89.6484-21.6797L89.7461-18.2129L87.4023-20.6543L80.7617-27.5391C79.9805-28.3203 79.0039-28.7109 77.8809-28.7109C75.5371-28.7109 73.9258-27.0508 73.9258-24.707C73.9258-23.6816 74.3652-22.6074 75.0977-21.7773L90.7227-5.85938C92.2363-4.3457 95.0195-4.15039 96.7285-5.85938ZM53.0273-64.5996L37.4512-48.6816C36.7188-47.8516 36.1816-46.7285 36.1816-45.752C36.1816-43.457 37.8906-41.748 40.1855-41.748C41.3086-41.748 42.2852-42.1875 43.0664-42.9688L49.7559-49.8047L52.0508-52.2949L51.9531-48.7305L51.9531-8.64258C51.9531-6.34766 53.7109-4.63867 56.0059-4.63867C58.3984-4.63867 60.1074-6.34766 60.1074-8.64258L60.1074-48.7793L59.9609-52.2949L62.3047-49.8047L68.9453-42.9199C69.7266-42.1387 70.752-41.748 71.8262-41.748C74.1211-41.748 75.8301-43.4082 75.8301-45.752C75.8301-46.8262 75.293-47.9492 74.5605-48.6816L58.9844-64.5996C57.4219-66.1621 54.834-66.4062 53.0273-64.5996Z"/>
  </g>
  <g id="Medium-L" transform="matrix(1 0 0 1 1672.31 1556)">
   <path d="M35.9375 22.998L112.5 22.998C125.635 22.998 132.422 16.2109 132.422 3.27148L132.422-73.6328C132.422-86.5234 125.635-93.3105 112.5-93.3105L35.9375-93.3105C22.9004-93.3105 16.0645-86.5723 16.0645-73.6328L16.0645 3.27148C16.0645 16.2598 22.9004 22.998 35.9375 22.998ZM36.5723 12.2559C30.2246 12.2559 26.8066 8.98438 26.8066 2.39258L26.8066-72.7051C26.8066-79.2969 30.2246-82.6172 36.5723-82.6172L111.865-82.6172C118.115-82.6172 121.68-79.2969 121.68-72.7051L121.68 2.39258C121.68 8.98438 118.115 12.2559 111.865 12.2559ZM96.1914-5.66406L111.963-21.7285C112.695-22.4609 113.184-23.5352 113.184-24.5605C113.184-26.7578 111.572-28.3203 109.375-28.3203C108.35-28.3203 107.373-27.9297 106.641-27.1973L99.8047-20.166L97.1191-17.2852L97.2168-20.8008L97.2168-62.1582C97.2168-64.4043 95.5078-66.0156 93.3594-66.0156C91.1621-66.0156 89.502-64.3555 89.502-62.1582L89.502-20.8008L89.6484-17.2363L86.9141-20.166L80.0781-27.1973C79.2969-27.9297 78.3691-28.3203 77.2949-28.3203C75.0977-28.3203 73.584-26.7578 73.584-24.5605C73.584-23.584 73.9746-22.5098 74.707-21.7285L90.5273-5.66406C91.9434-4.19922 94.5801-4.00391 96.1914-5.66406ZM52.3926-64.7949L36.5723-48.6816C35.8398-47.9004 35.3516-46.875 35.3516-45.8984C35.3516-43.75 36.9629-42.1387 39.1602-42.1387C40.1855-42.1387 41.1133-42.5781 41.8945-43.3105L48.7305-50.3418L51.416-53.2227L51.3184-49.6094L51.3184-8.25195C51.3184-6.10352 53.0273-4.49219 55.1758-4.49219C57.4219-4.49219 59.0332-6.15234 59.0332-8.25195L59.0332-49.6582L58.8867-53.2227L61.6211-50.3418L68.457-43.2617C69.2383-42.5293 70.2148-42.1387 71.1914-42.1387C73.3887-42.1387 74.9512-43.7012 74.9512-45.8984C74.9512-46.9238 74.5117-47.998 73.7793-48.6816L57.959-64.7949C56.4941-66.2598 54.0527-66.5039 52.3926-64.7949Z"/>
  </g>
  <g id="Regular-L" transform="matrix(1 0 0 1 1376.38 1556)">
   <path d="M35.0586 22.2168L111.816 22.2168C124.463 22.2168 130.859 15.8691 130.859 3.41797L130.859-73.7305C130.859-86.1816 124.463-92.5293 111.816-92.5293L35.0586-92.5293C22.4609-92.5293 16.0645-86.2305 16.0645-73.7305L16.0645 3.41797C16.0645 15.918 22.4609 22.2168 35.0586 22.2168ZM35.2539 13.5742C28.418 13.5742 24.707 9.96094 24.707 2.97852L24.707-73.291C24.707-80.2734 28.418-83.8867 35.2539-83.8867L111.67-83.8867C118.359-83.8867 122.217-80.2734 122.217-73.291L122.217 2.97852C122.217 9.96094 118.359 13.5742 111.67 13.5742ZM51.5137-65.0879L35.4004-48.7305C34.7168-47.998 34.2773-46.9727 34.2773-46.1426C34.2773-44.1406 35.791-42.627 37.793-42.627C38.7207-42.627 39.6484-43.0664 40.332-43.75L47.4121-51.0254L50.6348-54.4434L50.5371-50.7324L50.5371-7.8125C50.5371-5.81055 52.0996-4.29688 54.1016-4.29688C56.1523-4.29688 57.666-5.81055 57.666-7.8125L57.666-50.7812L57.4707-54.4434L60.7422-51.0254L67.8711-43.7012C68.5547-43.0176 69.4824-42.627 70.4102-42.627C72.4121-42.627 73.877-44.0918 73.877-46.1426C73.877-47.0703 73.4375-48.0957 72.8027-48.7305L56.6895-65.0879C55.3223-66.4062 53.0762-66.6504 51.5137-65.0879ZM95.5078-5.37109L111.572-21.6797C112.256-22.4121 112.695-23.3887 112.695-24.3164C112.695-26.3184 111.23-27.7832 109.229-27.7832C108.252-27.7832 107.324-27.3926 106.641-26.7578L99.5605-19.4824L96.3379-16.0645L96.4355-19.6777L96.4355-62.6465C96.4355-64.6973 94.9219-66.1621 92.8711-66.1621C90.8691-66.1621 89.3066-64.6484 89.3066-62.6465L89.3066-19.6289L89.502-16.0156L86.2305-19.4824L79.1016-26.7578C78.418-27.4414 77.5391-27.7832 76.5625-27.7832C74.5117-27.7832 73.0957-26.3672 73.0957-24.3164C73.0957-23.3887 73.4863-22.4609 74.1211-21.6797L90.2344-5.37109C91.5527-4.05273 94.043-3.85742 95.5078-5.37109Z"/>
  </g>
  <g id="Light-L" transform="matrix(1 0 0 1 1080.5 1556)">
   <path d="M34.0332 21.4355L111.23 21.4355C123.096 21.4355 129.199 15.2344 129.199 3.56445L129.199-73.8281C129.199-85.5469 123.096-91.6992 111.23-91.6992L34.0332-91.6992C22.168-91.6992 16.0645-85.6445 16.0645-73.8281L16.0645 3.56445C16.0645 15.3809 22.168 21.4355 34.0332 21.4355ZM34.1797 14.7949C26.709 14.7949 22.7051 10.8398 22.7051 3.22266L22.7051-73.4863C22.7051-81.1523 26.709-85.0586 34.1797-85.0586L111.035-85.0586C118.359-85.0586 122.559-81.1523 122.559-73.4863L122.559 3.22266C122.559 10.8398 118.359 14.7949 111.035 14.7949ZM51.3672-65.625L34.4727-48.584C33.8867-47.998 33.5449-47.2168 33.5449-46.4355C33.5449-44.9219 34.7656-43.7012 36.3281-43.7012C37.0605-43.7012 37.8418-44.043 38.4277-44.6289L46.3379-52.6855L50.7324-57.1777L50.5859-52.6855L50.5859-6.83594C50.5859-5.22461 51.8555-4.05273 53.4668-4.05273C55.0781-4.05273 56.25-5.27344 56.25-6.83594L56.25-52.7344L56.1035-57.1777L60.4492-52.6855L68.4082-44.6289C68.9941-44.043 69.7754-43.7012 70.5078-43.7012C72.0703-43.7012 73.2422-44.873 73.2422-46.4355C73.2422-47.2656 72.9492-48.0469 72.4121-48.584L55.4688-65.625C54.3945-66.6992 52.5879-66.8457 51.3672-65.625ZM93.9453-4.88281L110.84-21.9238C111.426-22.5098 111.768-23.2422 111.768-24.0234C111.768-25.6348 110.596-26.8066 108.984-26.8066C108.203-26.8066 107.471-26.4648 106.885-25.9277L98.9746-17.8711L94.5801-13.3789L94.7266-17.8223L94.7266-63.623C94.7266-65.2832 93.457-66.4551 91.8457-66.4551C90.2832-66.4551 89.0625-65.2344 89.0625-63.623L89.0625-17.7734L89.209-13.3301L84.8633-17.8711L76.9043-25.9277C76.3184-26.5137 75.5859-26.8066 74.8047-26.8066C73.1934-26.8066 72.0703-25.6836 72.0703-24.0234C72.0703-23.2422 72.3145-22.5098 72.9004-21.9238L89.8438-4.88281C90.8691-3.85742 92.8223-3.71094 93.9453-4.88281Z"/>
  </g>
  <g id="Thin-L" transform="matrix(1 0 0 1 784.889 1556)">
   <path d="M32.666 20.3613L110.352 20.3613C121.24 20.3613 127.002 14.4531 127.002 3.75977L127.002-73.9746C127.002-84.7168 121.24-90.5762 110.352-90.5762L32.666-90.5762C21.7773-90.5762 16.0645-84.8633 16.0645-73.9746L16.0645 3.75977C16.0645 14.6484 21.7773 20.3613 32.666 20.3613ZM32.8125 16.4062C24.4141 16.4062 19.9707 12.0117 19.9707 3.56445L19.9707-73.7793C19.9707-82.2754 24.4141-86.6699 32.8125-86.6699L110.205-86.6699C118.359-86.6699 123.047-82.2754 123.047-73.7793L123.047 3.56445C123.047 12.0117 118.359 16.4062 110.205 16.4062ZM51.2207-66.3574L33.252-48.4375C32.8125-47.998 32.6172-47.5098 32.6172-46.875C32.6172-45.9473 33.4473-45.1172 34.375-45.1172C34.8633-45.1172 35.4492-45.3613 35.8887-45.8008L44.9219-54.8828L50.8301-60.8398L50.6836-55.2734L50.6836-5.61523C50.6836-4.49219 51.5625-3.75977 52.5879-3.75977C53.6133-3.75977 54.3945-4.58984 54.3945-5.61523L54.3945-55.2734L54.248-60.8398L60.1074-54.8828L69.1406-45.8008C69.5801-45.3613 70.2148-45.1172 70.6543-45.1172C71.6309-45.1172 72.4609-45.9473 72.4609-46.875C72.4609-47.5586 72.3145-47.998 71.875-48.4375L53.8574-66.3574C53.125-67.041 51.9531-67.1387 51.2207-66.3574ZM91.8945-4.24805L109.863-22.168C110.303-22.6074 110.498-23.0957 110.498-23.6816C110.498-24.6582 109.717-25.4883 108.74-25.4883C108.203-25.4883 107.666-25.2441 107.227-24.8535L98.1934-15.7227L92.2852-9.76562L92.4805-15.332L92.4805-64.9902C92.4805-66.1133 91.5527-66.8457 90.5273-66.8457C89.502-66.8457 88.7207-66.0156 88.7207-64.9902L88.7207-15.332L88.8672-9.76562L83.0078-15.7227L73.9746-24.8535C73.5352-25.293 72.998-25.4883 72.4609-25.4883C71.4355-25.4883 70.6543-24.7559 70.6543-23.6816C70.6543-23.0469 70.8008-22.6074 71.2402-22.168L89.2578-4.24805C89.9902-3.56445 91.1621-3.56445 91.8945-4.24805Z"/>
  </g>
  <g id="Ultralight-L" transform="matrix(1 0 0 1 488.739 1556)">
   <path d="M31.9824 19.7754L109.961 19.7754C120.312 19.7754 125.879 14.0625 125.879 3.85742L125.879-74.0723C125.879-84.2773 120.312-89.9902 109.961-89.9902L31.9824-89.9902C21.582-89.9902 16.0645-84.4727 16.0645-74.0723L16.0645 3.85742C16.0645 14.2578 21.582 19.7754 31.9824 19.7754ZM32.1289 17.2363C23.1934 17.2363 18.6035 12.6465 18.6035 3.75977L18.6035-73.9258C18.6035-82.8125 23.1934-87.4512 32.1289-87.4512L109.766-87.4512C118.359-87.4512 123.291-82.8125 123.291-73.9258L123.291 3.75977C123.291 12.6465 118.359 17.2363 109.766 17.2363ZM51.123-66.748L32.6172-48.3398C32.2266-47.998 32.1289-47.6562 32.1289-47.1191C32.1289-46.4844 32.7148-45.8496 33.3984-45.8496C33.7402-45.8496 34.2285-46.0449 34.6191-46.4355L44.2383-56.0059L50.8789-62.6953L50.6836-56.5918L50.6836-4.98047C50.6836-4.15039 51.416-3.56445 52.1484-3.56445C52.8809-3.56445 53.418-4.19922 53.418-4.98047L53.418-56.543L53.2715-62.6953L59.9121-56.0059L69.5312-46.4355C69.873-46.0449 70.4102-45.8496 70.752-45.8496C71.3867-45.8496 72.0215-46.4844 72.0215-47.1191C72.0215-47.7051 71.9727-47.9492 71.6309-48.3398L53.0273-66.748C52.4414-67.1875 51.6602-67.2852 51.123-66.748ZM90.8691-3.90625L109.375-22.3145C109.766-22.6562 109.863-22.998 109.863-23.5352C109.863-24.1699 109.229-24.8047 108.594-24.8047C108.154-24.8047 107.764-24.6094 107.373-24.3164L97.7539-14.6484L91.1133-7.91016L91.3086-14.0625L91.3086-65.6738C91.3086-66.5039 90.5762-67.041 89.8438-67.041C89.1113-67.041 88.5742-66.4062 88.5742-65.6738L88.5742-14.0625L88.7207-7.91016L82.0801-14.6484L72.4609-24.3164C72.1191-24.6582 71.6797-24.8047 71.2402-24.8047C70.5078-24.8047 69.9707-24.2676 69.9707-23.5352C69.9707-22.9004 70.0195-22.6562 70.3613-22.3145L88.9648-3.90625C89.5508-3.41797 90.332-3.4668 90.8691-3.90625Z"/>
  </g>
  <g id="Black-M" transform="matrix(1 0 0 1 2872.19 1126)">
   <path d="M31.9824 13.5742L90.4297 13.5742C102.686 13.5742 109.961 6.29883 109.961-5.95703L109.961-64.4043C109.961-76.6602 102.686-83.9355 90.4297-83.9355L31.9824-83.9355C19.7266-83.9355 12.4512-76.6602 12.4512-64.4043L12.4512-5.95703C12.4512 6.29883 19.7266 13.5742 31.9824 13.5742ZM34.9121-4.73633C32.0801-4.73633 30.7617-5.81055 30.7617-8.88672L30.7617-61.4746C30.7617-64.5508 32.0801-65.6738 34.9121-65.6738L87.5-65.6738C90.332-65.6738 91.6504-64.5508 91.6504-61.4746L91.6504-8.88672C91.6504-5.81055 90.332-4.73633 87.5-4.73633ZM77.3438-13.5742L88.4766-25.0977C89.1602-25.8789 89.6484-26.9043 89.6484-28.0762C89.6484-30.3711 87.9883-32.0312 85.5957-32.0312C84.4727-32.0312 83.5449-31.7383 82.8125-30.9082L78.3691-26.3184L78.418-26.3672L78.3691-29.1992L78.3691-54.248C78.3691-56.543 76.5625-58.3496 74.2676-58.3496C71.875-58.3496 70.166-56.543 70.166-54.248L70.166-26.3184L65.8203-30.9082C65.0391-31.7383 64.0137-32.0312 62.9395-32.0312C60.5469-32.0312 58.8867-30.3711 58.8867-28.0762C58.8867-26.9043 59.375-25.8789 60.1074-25.0977L71.2891-13.5742C72.9492-11.9141 75.5859-11.8652 77.3438-13.5742ZM45.1172-56.9824L34.0332-45.459C33.3008-44.7266 32.8125-43.6523 32.8125-42.5293C32.8125-40.2344 34.4727-38.5254 36.8652-38.5254C37.9883-38.5254 38.916-38.8672 39.6973-39.6484L44.0918-44.2871L44.0918-16.3574C44.0918-14.0137 45.8984-12.207 48.1934-12.207C50.5859-12.207 52.3438-14.0137 52.3438-16.3574L52.3438-44.2383L52.2949-44.2871L56.6406-39.6484C57.4219-38.8672 58.4961-38.5254 59.5215-38.5254C61.9141-38.5254 63.6719-40.2344 63.6719-42.5293C63.6719-43.6523 63.0859-44.7266 62.3535-45.459L51.2207-56.9824C49.5117-58.6914 46.8262-58.7891 45.1172-56.9824Z"/>
  </g>
  <g id="Heavy-M" transform="matrix(1 0 0 1 2576.39 1126)">
   <path d="M31.0059 12.6465L89.6484 12.6465C101.416 12.6465 108.154 5.9082 108.154-5.81055L108.154-64.5508C108.154-76.2695 101.416-83.0566 89.6484-83.0566L31.0059-83.0566C19.2383-83.0566 12.4512-76.3184 12.4512-64.5508L12.4512-5.81055C12.4512 5.9082 19.2383 12.6465 31.0059 12.6465ZM33.252-3.17383C29.9316-3.17383 28.2715-4.63867 28.2715-8.1543L28.2715-62.207C28.2715-65.7715 29.9316-67.2363 33.252-67.2363L87.3535-67.2363C90.6738-67.2363 92.334-65.7715 92.334-62.207L92.334-8.1543C92.334-4.63867 90.6738-3.17383 87.3535-3.17383ZM76.7578-13.2812L88.0859-25C88.7695-25.7324 89.2578-26.7578 89.2578-27.7832C89.2578-29.9805 87.6465-31.5918 85.4004-31.5918C84.3262-31.5918 83.4473-31.25 82.7148-30.5176L78.1738-25.7324L77.7344-25.293L77.7832-28.0273L77.7832-54.6387C77.7832-56.8359 76.0742-58.5449 73.877-58.5449C71.6309-58.5449 69.9707-56.8359 69.9707-54.6387L69.9707-25.293L69.5801-25.7324L65.0391-30.5176C64.3555-31.25 63.3301-31.5918 62.3047-31.5918C60.0586-31.5918 58.4961-29.9805 58.4961-27.7832C58.4961-26.7578 58.9355-25.7324 59.668-25L70.9961-13.2812C72.5586-11.7188 75.0977-11.6211 76.7578-13.2812ZM43.9453-57.2266L32.6172-45.5566C31.8848-44.8242 31.4453-43.7988 31.4453-42.7734C31.4453-40.5762 33.0078-38.9648 35.2539-38.9648C36.3281-38.9648 37.207-39.3066 37.9395-40.0391L42.5293-44.8242L42.9199-45.2637L42.9199-15.918C42.9199-13.7207 44.6289-12.0117 46.8262-12.0117C49.0723-12.0117 50.6836-13.7207 50.6836-15.918L50.6836-45.2637L51.123-44.8242L55.6152-40.0391C56.3477-39.2578 57.3242-38.9648 58.3496-38.9648C60.5957-38.9648 62.207-40.5762 62.207-42.7734C62.207-43.7988 61.7188-44.8242 60.9863-45.5566L49.6582-57.2266C48.0957-58.8379 45.5566-58.9844 43.9453-57.2266Z"/>
  </g>
  <g id="Bold-M" transform="matrix(1 0 0 1 2280.68 1126)">
   <path d="M29.8828 11.6699L88.7207 11.6699C99.9512 11.6699 106.152 5.46875 106.152-5.66406L106.152-64.6973C106.152-75.8789 99.9512-82.0312 88.7207-82.0312L29.8828-82.0312C18.6523-82.0312 12.4512-75.8789 12.4512-64.6973L12.4512-5.66406C12.4512 5.51758 18.6523 11.6699 29.8828 11.6699ZM31.3965-1.41602C27.5391-1.41602 25.5371-3.27148 25.5371-7.32422L25.5371-63.0371C25.5371-67.1387 27.5391-68.9453 31.3965-68.9453L87.207-68.9453C91.0156-68.9453 93.0664-67.1387 93.0664-63.0371L93.0664-7.32422C93.0664-3.27148 91.0156-1.41602 87.207-1.41602ZM76.123-12.9883L87.6953-24.8535C88.3301-25.5371 88.7695-26.5137 88.7695-27.4902C88.7695-29.541 87.3047-31.0547 85.1562-31.0547C84.1797-31.0547 83.3008-30.7129 82.666-30.0293L77.9297-25.0977L77.002-24.1211L77.0508-26.709L77.0508-55.0781C77.0508-57.1289 75.4883-58.6914 73.4375-58.6914C71.3379-58.6914 69.7754-57.1289 69.7754-55.0781L69.7754-26.6602L69.8242-24.1211L68.8965-25.0977L64.209-30.0293C63.5254-30.7129 62.5977-31.0547 61.6699-31.0547C59.5215-31.0547 58.0566-29.541 58.0566-27.4902C58.0566-26.5625 58.4961-25.5859 59.1309-24.8535L70.752-12.9883C72.168-11.5234 74.5605-11.4258 76.123-12.9883ZM42.5781-57.5195L31.0059-45.6055C30.3223-44.9219 29.8828-43.9453 29.8828-43.0176C29.8828-40.9668 31.3965-39.4531 33.4961-39.4531C34.4727-39.4531 35.3516-39.7949 35.9863-40.4785L40.7227-45.4102L41.6504-46.3867L41.6016-43.7988L41.6016-15.4297C41.6016-13.3789 43.2129-11.8164 45.2637-11.8164C47.3633-11.8164 48.9258-13.3789 48.9258-15.4297L48.9258-43.7988L48.8281-46.3867L49.7559-45.4102L54.4922-40.4785C55.127-39.7461 56.0547-39.4531 57.0312-39.4531C59.082-39.4531 60.6445-40.918 60.6445-43.0176C60.6445-43.9453 60.1562-44.9707 59.4727-45.6055L47.9004-57.5195C46.4844-58.9844 44.1406-59.1309 42.5781-57.5195Z"/>
  </g>
  <g id="Semibold-M" transform="matrix(1 0 0 1 1984.65 1126)">
   <path d="M29.1016 10.9863L88.0859 10.9863C98.9746 10.9863 104.785 5.17578 104.785-5.56641L104.785-64.8438C104.785-75.5859 98.9746-81.3477 88.0859-81.3477L29.1016-81.3477C18.2617-81.3477 12.4512-75.5859 12.4512-64.8438L12.4512-5.56641C12.4512 5.22461 18.2617 10.9863 29.1016 10.9863ZM30.127-0.195312C25.8789-0.195312 23.6328-2.34375 23.6328-6.78711L23.6328-63.623C23.6328-68.0664 25.8789-70.166 30.127-70.166L87.1094-70.166C91.2598-70.166 93.6035-68.0664 93.6035-63.623L93.6035-6.78711C93.6035-2.34375 91.2598-0.195312 87.1094-0.195312ZM75.6836-12.7441L87.4023-24.8047C87.9883-25.4395 88.4766-26.3672 88.4766-27.2949C88.4766-29.248 87.0605-30.6641 85.0098-30.6641C84.082-30.6641 83.252-30.3711 82.6172-29.6875L77.7832-24.707L76.5137-23.3398L76.5625-25.8301L76.5625-55.3711C76.5625-57.3242 75.0977-58.8379 73.0957-58.8379C71.1426-58.8379 69.6289-57.3242 69.6289-55.3711L69.6289-25.7812L69.7266-23.291L68.4082-24.707L63.623-29.6875C62.9395-30.3711 62.1094-30.6641 61.1816-30.6641C59.1797-30.6641 57.7637-29.248 57.7637-27.2949C57.7637-26.416 58.2031-25.4883 58.7891-24.8047L70.5566-12.7441C71.8262-11.4258 74.2188-11.2793 75.6836-12.7441ZM41.6504-57.7148L29.8828-45.6543C29.248-44.9707 28.8086-44.043 28.8086-43.1641C28.8086-41.2109 30.2734-39.7949 32.2754-39.7949C33.2031-39.7949 34.0332-40.1367 34.668-40.8203L39.502-45.8008L40.7715-47.168L40.7227-44.6289L40.7227-15.0879C40.7227-13.1348 42.1875-11.6699 44.1895-11.6699C46.1914-11.6699 47.6562-13.1348 47.6562-15.0879L47.6562-44.6777L47.5586-47.168L48.8281-45.8008L53.6621-40.7715C54.3457-40.0879 55.1758-39.7949 56.1035-39.7949C58.1055-39.7949 59.5215-41.2109 59.5215-43.1641C59.5215-44.0918 59.082-45.0684 58.4473-45.6543L46.7285-57.7148C45.3613-59.082 43.1152-59.2773 41.6504-57.7148Z"/>
  </g>
  <g id="Medium-M" transform="matrix(1 0 0 1 1688.47 1126)">
   <path d="M28.5156 10.4492L87.6465 10.4492C98.2422 10.4492 103.711 4.98047 103.711-5.46875L103.711-64.8926C103.711-75.3418 98.2422-80.8105 87.6465-80.8105L28.5156-80.8105C17.9688-80.8105 12.4512-75.3906 12.4512-64.8926L12.4512-5.46875C12.4512 4.98047 17.9688 10.4492 28.5156 10.4492ZM29.1504 0.732422C24.6582 0.732422 22.168-1.61133 22.168-6.34766L22.168-64.0137C22.168-68.75 24.6582-71.0938 29.1504-71.0938L87.0117-71.0938C91.4551-71.0938 93.9941-68.75 93.9941-64.0137L93.9941-6.34766C93.9941-1.61133 91.4551 0.732422 87.0117 0.732422ZM75.3418-12.5488L87.1582-24.707C87.793-25.3418 88.2324-26.2695 88.2324-27.0996C88.2324-29.0527 86.8652-30.4199 84.9121-30.4199C83.9844-30.4199 83.1543-30.0781 82.5684-29.4434L77.6367-24.3652L76.1719-22.7051L76.2207-25.1465L76.2207-55.6152C76.2207-57.5195 74.7559-58.9355 72.8516-58.9355C70.9473-58.9355 69.5312-57.4707 69.5312-55.6152L69.5312-25.0977L69.6289-22.7051L68.0664-24.3652L63.1836-29.4434C62.5488-30.0781 61.7188-30.4199 60.8398-30.4199C58.8867-30.4199 57.5684-29.0527 57.5684-27.0996C57.5684-26.3184 57.959-25.3906 58.5449-24.707L70.4102-12.5488C71.6309-11.3281 73.9258-11.1328 75.3418-12.5488ZM40.918-57.8613L29.0527-45.7031C28.4668-45.0195 28.0273-44.0918 28.0273-43.3105C28.0273-41.4062 29.4434-40.0391 31.3477-40.0391C32.2266-40.0391 33.0078-40.3809 33.6426-41.0156L38.5742-46.0938L40.0879-47.8027L40.0391-45.3125L40.0391-14.8438C40.0391-12.9395 41.4551-11.5723 43.3594-11.5723C45.3125-11.5723 46.7285-12.9883 46.7285-14.8438L46.7285-45.3613L46.6309-47.8027L48.1445-46.0938L53.0762-41.0156C53.7109-40.332 54.541-40.0391 55.4199-40.0391C57.3242-40.0391 58.6914-41.4062 58.6914-43.3105C58.6914-44.1406 58.252-45.1172 57.666-45.7031L45.8008-57.8613C44.5312-59.1309 42.3828-59.3262 40.918-57.8613Z"/>
  </g>
  <g id="Regular-M" transform="matrix(1 0 0 1 1392.45 1126)">
   <path d="M27.7832 9.76562L87.0117 9.76562C97.2656 9.76562 102.344 4.6875 102.344-5.37109L102.344-64.9902C102.344-75.0488 97.2656-80.127 87.0117-80.127L27.7832-80.127C17.5781-80.127 12.4512-75.0977 12.4512-64.9902L12.4512-5.37109C12.4512 4.73633 17.5781 9.76562 27.7832 9.76562ZM27.8809 1.9043C22.998 1.9043 20.3125-0.683594 20.3125-5.76172L20.3125-64.5996C20.3125-69.6777 22.998-72.2656 27.8809-72.2656L86.9141-72.2656C91.748-72.2656 94.4824-69.6777 94.4824-64.5996L94.4824-5.76172C94.4824-0.683594 91.748 1.9043 86.9141 1.9043ZM74.9023-12.3535L86.8652-24.6094C87.4512-25.2441 87.8906-26.123 87.8906-26.9043C87.8906-28.7598 86.6211-30.0293 84.7656-30.0293C83.8867-30.0293 83.0566-29.6875 82.5195-29.1016L77.4902-23.9258L75.6348-21.9238L75.7324-24.2188L75.7324-55.9082C75.7324-57.7148 74.3652-59.0332 72.5586-59.0332C70.752-59.0332 69.3848-57.7148 69.3848-55.9082L69.3848-24.1699L69.4824-21.875L67.627-23.9258L62.5977-29.1016C61.9629-29.7363 61.2305-30.0293 60.3516-30.0293C58.4961-30.0293 57.2754-28.7598 57.2754-26.9043C57.2754-26.1719 57.6172-25.293 58.2031-24.6094L70.2148-12.3535C71.3379-11.1816 73.584-10.9863 74.9023-12.3535ZM39.9902-58.0566L27.9297-45.752C27.3926-45.1172 26.9531-44.1895 26.9531-43.5059C26.9531-41.6992 28.3203-40.332 30.127-40.332C30.957-40.332 31.7383-40.7227 32.3242-41.3086L37.3535-46.5332L39.209-48.5352L39.1113-46.1426L39.1113-14.502C39.1113-12.7441 40.4785-11.4258 42.2852-11.4258C44.1406-11.4258 45.5078-12.7441 45.5078-14.502L45.5078-46.1914L45.3613-48.5352L47.2656-46.5332L52.2949-41.2598C52.8809-40.6738 53.6621-40.332 54.4922-40.332C56.2988-40.332 57.6172-41.6504 57.6172-43.5059C57.6172-44.2871 57.1777-45.2148 56.6406-45.752L44.6289-58.0566C43.457-59.2773 41.4062-59.4727 39.9902-58.0566Z"/>
  </g>
  <g id="Light-M" transform="matrix(1 0 0 1 1096.47 1126)">
   <path d="M26.8555 9.0332L86.4746 9.0332C95.9961 9.0332 100.879 4.15039 100.879-5.22461L100.879-65.0879C100.879-74.5117 95.9961-79.3945 86.4746-79.3945L26.8555-79.3945C17.334-79.3945 12.4512-74.5605 12.4512-65.0879L12.4512-5.22461C12.4512 4.19922 17.334 9.0332 26.8555 9.0332ZM26.9531 2.97852C21.4844 2.97852 18.5059 0.0976562 18.5059-5.56641L18.5059-64.7949C18.5059-70.4102 21.4844-73.3398 26.9531-73.3398L86.3281-73.3398C91.748-73.3398 94.8242-70.4102 94.8242-64.7949L94.8242-5.56641C94.8242 0.0976562 91.748 2.97852 86.3281 2.97852ZM39.8926-58.5449L27.0996-45.6543C26.6602-45.1172 26.3184-44.4336 26.3184-43.7988C26.3184-42.3828 27.3926-41.3086 28.8086-41.3086C29.4922-41.3086 30.127-41.6016 30.6152-42.1387L36.4258-47.998L39.2578-51.0254L39.209-47.9004L39.209-13.6719C39.209-12.2559 40.2832-11.1816 41.6992-11.1816C43.1641-11.1816 44.2383-12.2559 44.2383-13.6719L44.2383-47.9492L44.0918-51.0254L46.9727-47.998L52.7832-42.0898C53.2715-41.6016 53.9551-41.3086 54.5898-41.3086C56.0059-41.3086 57.0312-42.334 57.0312-43.7988C57.0312-44.4824 56.7383-45.166 56.2988-45.6543L43.5059-58.5449C42.5781-59.4727 41.0156-59.668 39.8926-58.5449ZM73.5352-11.9141L86.2305-24.8047C86.7188-25.293 87.0605-26.0254 87.0605-26.6602C87.0605-28.125 85.9863-29.1504 84.5703-29.1504C83.8867-29.1504 83.2031-28.8574 82.7148-28.3691L76.9531-22.4609L74.0723-19.4824L74.1699-22.5586L74.1699-56.7871C74.1699-58.252 73.0957-59.2773 71.6797-59.2773C70.2148-59.2773 69.1406-58.2031 69.1406-56.7871L69.1406-22.5098L69.2871-19.4824L66.3574-22.4609L60.5957-28.3691C60.1074-28.9062 59.4727-29.1504 58.7891-29.1504C57.3242-29.1504 56.3477-28.125 56.3477-26.6602C56.3477-26.0254 56.5918-25.3418 57.0312-24.8047L69.8242-11.9141C70.752-10.9863 72.4609-10.8887 73.5352-11.9141Z"/>
  </g>
  <g id="Thin-M" transform="matrix(1 0 0 1 800.758 1126)">
   <path d="M25.6348 8.05664L85.7422 8.05664C94.3848 8.05664 98.877 3.4668 98.877-5.0293L98.877-65.2344C98.877-73.7305 94.3848-78.3691 85.7422-78.3691L25.6348-78.3691C16.9922-78.3691 12.4512-73.877 12.4512-65.2344L12.4512-5.0293C12.4512 3.56445 16.9922 8.05664 25.6348 8.05664ZM25.7324 4.44336C19.3848 4.44336 16.0645 1.12305 16.0645-5.22461L16.0645-65.0391C16.0645-71.4355 19.3848-74.7559 25.7324-74.7559L85.5957-74.7559C91.748-74.7559 95.2637-71.4355 95.2637-65.0391L95.2637-5.22461C95.2637 1.12305 91.748 4.44336 85.5957 4.44336ZM39.7461-59.1797L26.0254-45.5078C25.6836-45.1172 25.4883-44.6777 25.4883-44.1895C25.4883-43.3105 26.2207-42.5781 27.0508-42.5781C27.4902-42.5781 28.0273-42.8223 28.3691-43.1641L35.1562-50L39.3555-54.2969L39.2578-50.1953L39.2578-12.5488C39.2578-11.5723 40.0391-10.8887 40.9668-10.8887C41.8945-10.8887 42.5781-11.6211 42.5781-12.5488L42.5781-50.1953L42.4316-54.2969L46.6797-50L53.418-43.1641C53.8086-42.7734 54.2969-42.5781 54.7363-42.5781C55.6152-42.5781 56.3477-43.3105 56.3477-44.1895C56.3477-44.7266 56.2012-45.1172 55.8105-45.5078L42.0898-59.1797C41.4551-59.8145 40.4297-59.9121 39.7461-59.1797ZM71.6797-11.3281L85.3516-25.0488C85.7422-25.4395 85.9375-25.8789 85.9375-26.3672C85.9375-27.2461 85.2051-27.9785 84.3262-27.9785C83.8379-27.9785 83.3984-27.7344 83.0078-27.4414L76.2695-20.5566L72.0215-16.2598L72.168-20.3613L72.168-58.0078C72.168-58.9844 71.3867-59.668 70.459-59.668C69.5312-59.668 68.8477-58.9355 68.8477-58.0078L68.8477-20.3125L68.9453-16.2598L64.7461-20.5566L57.959-27.4414C57.6172-27.7832 57.1289-27.9785 56.6406-27.9785C55.7129-27.9785 55.0781-27.2949 55.0781-26.3672C55.0781-25.8301 55.2246-25.4395 55.5664-25.0488L69.2871-11.3281C69.9219-10.7422 70.9961-10.6934 71.6797-11.3281Z"/>
  </g>
  <g id="Ultralight-M" transform="matrix(1 0 0 1 504.535 1126)">
   <path d="M25 7.56836L85.3516 7.56836C93.5059 7.56836 97.9004 3.125 97.9004-4.98047L97.9004-65.2832C97.9004-73.3887 93.5059-77.832 85.3516-77.832L25-77.832C16.7969-77.832 12.4512-73.4863 12.4512-65.2832L12.4512-4.98047C12.4512 3.22266 16.7969 7.56836 25 7.56836ZM25.0977 5.17578C18.3594 5.17578 14.8438 1.66016 14.8438-5.07812L14.8438-65.1855C14.8438-71.9727 18.3594-75.4395 25.0977-75.4395L85.2051-75.4395C91.748-75.4395 95.5078-71.9727 95.5078-65.1855L95.5078-5.07812C95.5078 1.66016 91.748 5.17578 85.2051 5.17578ZM39.6484-59.5215L25.4395-45.4102C25.1465-45.1172 25.0488-44.8242 25.0488-44.3848C25.0488-43.7988 25.5859-43.2129 26.1719-43.2129C26.4648-43.2129 26.9043-43.4082 27.1973-43.7012L34.4727-50.9766L39.4043-55.957L39.3066-51.3672L39.3066-11.9629C39.3066-11.2305 39.8926-10.7422 40.5762-10.7422C41.2109-10.7422 41.6992-11.2793 41.6992-11.9629L41.6992-51.3672L41.6016-55.957L46.4844-50.9766L53.7598-43.7012C54.0527-43.4082 54.4922-43.2129 54.7852-43.2129C55.4199-43.2129 55.957-43.7988 55.957-44.3848C55.957-44.873 55.9082-45.1172 55.6152-45.4102L41.3574-59.5215C40.8691-59.9609 40.1367-60.0098 39.6484-59.5215ZM70.752-11.0352L84.9121-25.1953C85.2539-25.4883 85.3516-25.7812 85.3516-26.2207C85.3516-26.8066 84.8145-27.3438 84.2285-27.3438C83.8379-27.3438 83.4961-27.1973 83.1543-26.9531L75.8789-19.5801L70.9961-14.5996L71.0938-19.1895L71.0938-58.6426C71.0938-59.3262 70.5078-59.8145 69.8242-59.8145C69.1895-59.8145 68.7012-59.2773 68.7012-58.6426L68.7012-19.2383L68.7988-14.5996L63.916-19.5801L56.6406-26.9531C56.2988-27.2461 55.957-27.3438 55.5664-27.3438C54.9316-27.3438 54.4434-26.8555 54.4434-26.2207C54.4434-25.7324 54.4922-25.4883 54.7852-25.1953L69.043-11.0352C69.5312-10.6445 70.2637-10.6445 70.752-11.0352Z"/>
  </g>
  <g id="Black-S" transform="matrix(1 0 0 1 2885.5 696)">
   <path d="M25 2.92969L70.8008 2.92969C80.3711 2.92969 86.0352-2.73438 86.0352-12.3047L86.0352-58.1055C86.0352-67.6758 80.3711-73.3398 70.8008-73.3398L25-73.3398C15.4297-73.3398 9.76562-67.6758 9.76562-58.1055L9.76562-12.3047C9.76562-2.73438 15.4297 2.92969 25 2.92969ZM27.2461-11.2305C25-11.2305 23.9258-12.1094 23.9258-14.5508L23.9258-55.8594C23.9258-58.3008 25-59.1797 27.2461-59.1797L68.5547-59.1797C70.8008-59.1797 71.875-58.3008 71.875-55.8594L71.875-14.5508C71.875-12.1094 70.8008-11.2305 68.5547-11.2305ZM60.5469-18.2617L69.2871-27.2949C69.8242-27.8809 70.2148-28.7109 70.2148-29.5898C70.2148-31.3965 68.8965-32.7148 67.041-32.7148C66.1621-32.7148 65.4297-32.4707 64.8438-31.8359L61.377-28.2227L61.377-50.1465C61.377-51.9531 59.9609-53.3691 58.1543-53.3691C56.2988-53.3691 54.9316-51.9531 54.9316-50.1465L54.9316-28.2227L51.5137-31.8359C50.9277-32.4707 50.0977-32.7148 49.2676-32.7148C47.4121-32.7148 46.0938-31.3965 46.0938-29.5898C46.0938-28.7109 46.4844-27.8809 47.0703-27.2949L55.8105-18.2617C57.1289-16.9434 59.1797-16.8945 60.5469-18.2617ZM35.2539-52.2949L26.5625-43.2617C25.9766-42.6758 25.5859-41.8457 25.5859-40.9668C25.5859-39.1602 26.9043-37.8418 28.7598-37.8418C29.6387-37.8418 30.3711-38.0859 30.957-38.7207L34.4238-42.334L34.4238-20.4102C34.4238-18.6035 35.8398-17.1875 37.6465-17.1875C39.502-17.1875 40.8691-18.6035 40.8691-20.4102L40.8691-42.334L44.2871-38.7207C44.873-38.0859 45.7031-37.8418 46.5332-37.8418C48.3887-37.8418 49.7559-39.1602 49.7559-40.9668C49.7559-41.8457 49.3164-42.6758 48.7305-43.2617L39.9902-52.2949C38.6719-53.6133 36.5723-53.7109 35.2539-52.2949Z"/>
  </g>
  <g id="Heavy-S" transform="matrix(1 0 0 1 2589.4 696)">
   <path d="M24.3652 2.34375L70.2637 2.34375C79.541 2.34375 84.8145-2.97852 84.8145-12.207L84.8145-58.2031C84.8145-67.4316 79.541-72.7539 70.2637-72.7539L24.3652-72.7539C15.0879-72.7539 9.76562-67.4316 9.76562-58.2031L9.76562-12.207C9.76562-2.97852 15.0879 2.34375 24.3652 2.34375ZM26.0742-10.1562C23.5352-10.1562 22.2656-11.2793 22.2656-14.0137L22.2656-56.3965C22.2656-59.1309 23.5352-60.2539 26.0742-60.2539L68.5059-60.2539C71.0449-60.2539 72.3633-59.1309 72.3633-56.3965L72.3633-14.0137C72.3633-11.2793 71.0449-10.1562 68.5059-10.1562ZM60.2539-18.0664L69.0918-27.1973C69.5801-27.7344 69.9707-28.5645 69.9707-29.3945C69.9707-31.2012 68.7012-32.4707 66.8945-32.4707C66.0645-32.4707 65.332-32.1777 64.7949-31.5918L61.2793-27.9297L61.0352-27.6855L61.084-29.7363L61.084-50.3418C61.084-52.0996 59.7168-53.4668 57.959-53.4668C56.1523-53.4668 54.834-52.0996 54.834-50.3418L54.834-27.6855L54.5898-27.9297L51.1719-31.5918C50.5859-32.1777 49.8047-32.4707 48.9746-32.4707C47.168-32.4707 45.8984-31.2012 45.8984-29.3945C45.8984-28.6133 46.2891-27.7832 46.8262-27.1973L55.6641-18.0664C56.8848-16.8457 58.9355-16.748 60.2539-18.0664ZM34.3262-52.4414L25.5371-43.3105C25-42.7246 24.6094-41.9434 24.6094-41.1133C24.6094-39.3555 25.8789-38.0371 27.6855-38.0371C28.5156-38.0371 29.248-38.3301 29.834-38.916L33.3008-42.5781L33.5449-42.8223L33.5449-20.166C33.5449-18.4082 34.8633-17.041 36.6699-17.041C38.4277-17.041 39.7949-18.4082 39.7949-20.166L39.7949-40.8203L39.7461-42.8223L39.9902-42.5781L43.457-38.916C43.9941-38.3301 44.8242-38.0371 45.6055-38.0371C47.4121-38.0371 48.7305-39.3555 48.7305-41.1133C48.7305-41.9434 48.291-42.7734 47.7539-43.3105L38.916-52.4414C37.6953-53.7109 35.6445-53.8086 34.3262-52.4414Z"/>
  </g>
  <g id="Bold-S" transform="matrix(1 0 0 1 2293.35 696)">
   <path d="M23.6328 1.66016L69.6289 1.66016C78.6133 1.66016 83.4961-3.22266 83.4961-12.1094L83.4961-58.3008C83.4961-67.1875 78.6133-72.0703 69.6289-72.0703L23.6328-72.0703C14.6973-72.0703 9.76562-67.1875 9.76562-58.3008L9.76562-12.1094C9.76562-3.22266 14.6973 1.66016 23.6328 1.66016ZM24.8047-8.93555C21.9238-8.93555 20.3613-10.3516 20.3613-13.4277L20.3613-56.9824C20.3613-60.0586 21.9238-61.4746 24.8047-61.4746L68.457-61.4746C71.3379-61.4746 72.9004-60.0586 72.9004-56.9824L72.9004-13.4277C72.9004-10.3516 71.3379-8.93555 68.457-8.93555ZM59.9609-17.8711L68.7988-27.0508C69.3359-27.6367 69.7266-28.418 69.7266-29.1992C69.7266-30.9082 68.5059-32.1777 66.748-32.1777C65.918-32.1777 65.2344-31.8848 64.6973-31.2988L61.1816-27.6367L60.6934-27.0996L60.7422-28.9062L60.7422-50.5371C60.7422-52.2461 59.4238-53.5645 57.7148-53.5645C56.0059-53.5645 54.6875-52.2461 54.6875-50.5371L54.6875-28.9062L54.7363-27.0996L54.248-27.6367L50.7324-31.2988C50.1953-31.8848 49.4629-32.1777 48.6328-32.1777C46.9238-32.1777 45.7031-30.957 45.7031-29.1992C45.7031-28.4668 46.0449-27.6367 46.582-27.0508L55.4688-17.8711C56.6406-16.6992 58.6914-16.6016 59.9609-17.8711ZM33.3008-52.5879L24.4141-43.4082C23.877-42.8223 23.4863-41.9922 23.4863-41.2598C23.4863-39.5508 24.7559-38.3301 26.4648-38.3301C27.2949-38.3301 27.9785-38.5742 28.5645-39.1602L32.0801-42.8223L32.5684-43.4082L32.5195-41.5527L32.5195-19.9219C32.5195-18.2129 33.8379-16.9434 35.5469-16.9434C37.2559-16.9434 38.5742-18.2129 38.5742-19.9219L38.5742-41.5527L38.5254-43.4082L39.0137-42.8223L42.4805-39.1602C43.0664-38.5742 43.7988-38.3301 44.5801-38.3301C46.3379-38.3301 47.5586-39.5508 47.5586-41.2598C47.5586-42.041 47.168-42.8711 46.6309-43.4082L37.7441-52.5879C36.5723-53.7598 34.6191-53.9062 33.3008-52.5879Z"/>
  </g>
  <g id="Semibold-S" transform="matrix(1 0 0 1 1997.1 696)">
   <path d="M23.0957 1.17188L69.1895 1.17188C77.9297 1.17188 82.5684-3.36914 82.5684-12.0117L82.5684-58.3984C82.5684-67.041 77.9297-71.582 69.1895-71.582L23.0957-71.582C14.4043-71.582 9.76562-67.041 9.76562-58.3984L9.76562-12.0117C9.76562-3.36914 14.4043 1.17188 23.0957 1.17188ZM23.877-8.10547C20.752-8.10547 19.0918-9.7168 19.0918-12.9883L19.0918-57.4219C19.0918-60.6934 20.752-62.3047 23.877-62.3047L68.4082-62.3047C71.5332-62.3047 73.2422-60.6934 73.2422-57.4219L73.2422-12.9883C73.2422-9.7168 71.5332-8.10547 68.4082-8.10547ZM59.7168-17.7734L68.6523-27.002C69.1895-27.5391 69.5801-28.3203 69.5801-29.0527C69.5801-30.7617 68.3594-31.9336 66.6504-31.9336C65.8691-31.9336 65.1367-31.6895 64.6484-31.1035L61.084-27.4414L60.4492-26.709L60.498-28.3691L60.498-50.7324C60.498-52.3926 59.2285-53.6133 57.5684-53.6133C55.8594-53.6133 54.5898-52.3926 54.5898-50.7324L54.5898-28.3691L54.6875-26.6602L54.0039-27.4414L50.4883-31.1035C49.9512-31.6895 49.2188-31.9336 48.4375-31.9336C46.7285-31.9336 45.5566-30.7617 45.5566-29.0527C45.5566-28.3691 45.8984-27.5391 46.4355-27.002L55.3711-17.7734C56.4453-16.6016 58.4961-16.5039 59.7168-17.7734ZM32.6172-52.6855L23.6328-43.457C23.1445-42.8711 22.7539-42.0898 22.7539-41.3574C22.7539-39.6973 23.9746-38.4766 25.6348-38.4766C26.4648-38.4766 27.1484-38.7695 27.6855-39.3555L31.2012-43.0176L31.8848-43.7988L31.8359-42.041L31.8359-19.7266C31.8359-18.0664 33.1055-16.8457 34.7656-16.8457C36.4746-16.8457 37.6953-18.0664 37.6953-19.7266L37.6953-42.0898L37.6465-43.7988L38.3301-43.0176L41.8457-39.3066C42.3828-38.7695 43.1152-38.4766 43.8965-38.4766C45.5566-38.4766 46.7773-39.6484 46.7773-41.3574C46.7773-42.0898 46.3867-42.9199 45.8496-43.457L36.9141-52.6855C35.791-53.8574 33.8867-54.0039 32.6172-52.6855Z"/>
  </g>
  <g id="Medium-S" transform="matrix(1 0 0 1 1700.75 696)">
   <path d="M22.7051 0.830078L68.8965 0.830078C77.4414 0.830078 81.8359-3.51562 81.8359-11.9629L81.8359-58.4473C81.8359-66.8945 77.4414-71.2402 68.8965-71.2402L22.7051-71.2402C14.209-71.2402 9.76562-66.8945 9.76562-58.4473L9.76562-11.9629C9.76562-3.51562 14.209 0.830078 22.7051 0.830078ZM23.1934-7.4707C19.9219-7.4707 18.0664-9.22852 18.0664-12.6953L18.0664-57.7148C18.0664-61.1816 19.9219-62.9395 23.1934-62.9395L68.4082-62.9395C71.6797-62.9395 73.5352-61.1816 73.5352-57.7148L73.5352-12.6953C73.5352-9.22852 71.6797-7.4707 68.4082-7.4707ZM59.5703-17.627L68.5059-26.9043C69.043-27.4414 69.4336-28.2715 69.4336-28.9551C69.4336-30.6152 68.2617-31.7871 66.6016-31.7871C65.8203-31.7871 65.0879-31.543 64.5996-31.0059L61.0352-27.2949L60.2539-26.3672L60.3027-27.9785L60.3027-50.8301C60.3027-52.4414 59.082-53.6621 57.4219-53.6621C55.8105-53.6621 54.541-52.4414 54.541-50.8301L54.541-27.9297L54.6387-26.3672L53.8086-27.2949L50.2441-31.0059C49.707-31.543 49.0234-31.7871 48.2422-31.7871C46.582-31.7871 45.459-30.6152 45.459-28.9551C45.459-28.2715 45.8008-27.4902 46.2891-26.9043L55.2734-17.627C56.3477-16.5527 58.3496-16.4062 59.5703-17.627ZM32.0801-52.7344L23.0469-43.5059C22.5586-42.9199 22.168-42.0898 22.168-41.4551C22.168-39.7949 23.3887-38.623 25.0488-38.623C25.7812-38.623 26.4648-38.916 27.002-39.4531L30.5664-43.1641L31.3477-44.0918L31.2988-42.4316L31.2988-19.5801C31.2988-17.9688 32.5195-16.748 34.1797-16.748C35.8398-16.748 37.0605-17.9688 37.0605-19.5801L37.0605-42.4805L36.9629-44.0918L37.793-43.1641L41.3574-39.4043C41.8945-38.8672 42.5781-38.623 43.3594-38.623C44.9707-38.623 46.1426-39.7949 46.1426-41.4551C46.1426-42.1387 45.8008-42.9688 45.2637-43.5059L36.2793-52.7344C35.2051-53.9062 33.3496-54.0527 32.0801-52.7344Z"/>
  </g>
  <g id="Regular-S" transform="matrix(1 0 0 1 1404.51 696)">
   <path d="M22.2168 0.390625L68.457 0.390625C76.8066 0.390625 80.9082-3.71094 80.9082-11.9141L80.9082-58.4961C80.9082-66.6992 76.8066-70.8008 68.457-70.8008L22.2168-70.8008C13.916-70.8008 9.76562-66.6992 9.76562-58.4961L9.76562-11.9141C9.76562-3.71094 13.916 0.390625 22.2168 0.390625ZM22.3145-6.68945C18.7988-6.68945 16.7969-8.54492 16.7969-12.2559L16.7969-58.1543C16.7969-61.8164 18.7988-63.7207 22.3145-63.7207L68.3594-63.7207C71.875-63.7207 73.877-61.8164 73.877-58.1543L73.877-12.2559C73.877-8.54492 71.875-6.68945 68.3594-6.68945ZM59.375-17.5293L68.3594-26.8555C68.8965-27.3438 69.2383-28.1738 69.2383-28.8086C69.2383-30.4688 68.1152-31.5918 66.4551-31.5918C65.7227-31.5918 64.9902-31.2988 64.5508-30.8105L60.9375-27.0508L60.0098-25.9766L60.0586-27.4414L60.0586-50.9766C60.0586-52.5879 58.8867-53.7598 57.2754-53.7598C55.6641-53.7598 54.4434-52.5879 54.4434-50.9766L54.4434-27.3926L54.541-25.9277L53.5645-27.0508L50-30.8105C49.4629-31.2988 48.7793-31.5918 48.0469-31.5918C46.3867-31.5918 45.3125-30.4688 45.3125-28.8086C45.3125-28.2227 45.6543-27.3926 46.0938-26.8555L55.1758-17.5293C56.1523-16.4551 58.1543-16.3086 59.375-17.5293ZM31.3965-52.8809L22.2656-43.5547C21.8262-42.9688 21.4355-42.1875 21.4355-41.5527C21.4355-39.9414 22.6074-38.7695 24.2188-38.7695C24.9512-38.7695 25.6348-39.1113 26.1719-39.6484L29.7363-43.3594L30.6641-44.4824L30.6152-42.9688L30.6152-19.3848C30.6152-17.8223 31.7871-16.6504 33.3984-16.6504C35.0586-16.6504 36.2305-17.8223 36.2305-19.3848L36.2305-42.9688L36.1328-44.4824L37.1094-43.3594L40.7227-39.5996C41.2109-39.0625 41.8945-38.7695 42.627-38.7695C44.2383-38.7695 45.3613-39.8926 45.3613-41.5527C45.3613-42.2363 45.0195-43.0664 44.5312-43.5547L35.498-52.8809C34.4238-53.9551 32.666-54.1504 31.3965-52.8809Z"/>
  </g>
  <g id="Light-S" transform="matrix(1 0 0 1 1108.46 696)">
   <path d="M21.3867-0.292969L67.9688-0.292969C75.7324-0.292969 79.5898-4.15039 79.5898-11.7676L79.5898-58.5938C79.5898-66.2109 75.7324-70.1172 67.9688-70.1172L21.3867-70.1172C13.6719-70.1172 9.76562-66.2598 9.76562-58.5938L9.76562-11.7676C9.76562-4.15039 13.6719-0.292969 21.3867-0.292969ZM21.4844-5.71289C17.4316-5.71289 15.1855-7.86133 15.1855-12.0605L15.1855-58.3008C15.1855-62.5 17.4316-64.6973 21.4844-64.6973L67.8711-64.6973C71.875-64.6973 74.1699-62.5 74.1699-58.3008L74.1699-12.0605C74.1699-7.86133 71.875-5.71289 67.8711-5.71289ZM31.2988-53.3203L21.5332-43.457C21.1426-42.9688 20.8496-42.334 20.8496-41.7969C20.8496-40.5762 21.8262-39.5996 23.0469-39.5996C23.6328-39.5996 24.2188-39.8926 24.6582-40.332L28.9062-44.6777L30.7129-46.6797L30.6641-44.4824L30.6641-18.6523C30.6641-17.3828 31.6406-16.4551 32.9102-16.4551C34.1797-16.4551 35.1074-17.4316 35.1074-18.6523L35.1074-44.5312L35.0098-46.6797L36.9141-44.6777L41.1621-40.2832C41.5527-39.8438 42.1387-39.5996 42.7246-39.5996C43.9941-39.5996 44.873-40.5273 44.873-41.7969C44.873-42.3828 44.6289-43.0176 44.2383-43.457L34.5215-53.3203C33.6914-54.1504 32.2754-54.2969 31.2988-53.3203ZM58.1055-17.1387L67.7734-27.002C68.2129-27.4414 68.5059-28.0762 68.5059-28.6133C68.5059-29.8828 67.5781-30.8105 66.3086-30.8105C65.7227-30.8105 65.1367-30.5664 64.7461-30.127L60.498-25.7812L58.6426-23.8281L58.6914-25.9277L58.6914-51.7578C58.6914-53.0762 57.7148-54.0039 56.4941-54.0039C55.2246-54.0039 54.248-53.0273 54.248-51.7578L54.248-25.9277L54.3457-23.7793L52.4902-25.7812L48.2422-30.127C47.8027-30.5664 47.2656-30.8105 46.6309-30.8105C45.3613-30.8105 44.4824-29.9316 44.4824-28.6133C44.4824-28.0762 44.7266-27.4414 45.1172-27.002L54.834-17.1387C55.6152-16.3086 57.1777-16.2109 58.1055-17.1387Z"/>
  </g>
  <g id="Thin-S" transform="matrix(1 0 0 1 812.599 696)">
   <path d="M20.3125-1.12305L67.334-1.12305C74.2676-1.12305 77.8809-4.78516 77.8809-11.6211L77.8809-58.6914C77.8809-65.5762 74.2676-69.2383 67.334-69.2383L20.3125-69.2383C13.3789-69.2383 9.76562-65.625 9.76562-58.6914L9.76562-11.6211C9.76562-4.6875 13.3789-1.12305 20.3125-1.12305ZM20.4102-4.44336C15.625-4.44336 13.0859-6.93359 13.0859-11.8164L13.0859-58.5449C13.0859-63.3789 15.625-65.918 20.4102-65.918L67.2363-65.918C71.875-65.918 74.5605-63.3789 74.5605-58.5449L74.5605-11.8164C74.5605-6.93359 71.875-4.44336 67.2363-4.44336ZM31.1523-53.8574L20.6055-43.3105C20.2637-42.9688 20.1172-42.5781 20.1172-42.1387C20.1172-41.3574 20.752-40.7227 21.5332-40.7227C21.9238-40.7227 22.3145-40.918 22.6562-41.2598L27.7832-46.3867L30.8105-49.5605L30.7129-46.5332L30.7129-17.6758C30.7129-16.8457 31.3965-16.2109 32.2266-16.2109C33.0566-16.2109 33.6426-16.8457 33.6426-17.6758L33.6426-46.5332L33.5449-49.5605L36.6211-46.3867L41.6992-41.2598C42.041-40.918 42.4805-40.7227 42.8223-40.7227C43.6523-40.7227 44.2383-41.3574 44.2383-42.1387C44.2383-42.627 44.1406-43.0176 43.7988-43.3105L33.252-53.8574C32.666-54.3945 31.7871-54.4922 31.1523-53.8574ZM56.4941-16.6504L67.041-27.1973C67.334-27.5391 67.5293-27.9297 67.5293-28.3691C67.5293-29.1504 66.8945-29.7852 66.1133-29.7852C65.6738-29.7852 65.2832-29.5898 64.9902-29.2969L59.8633-24.1211L56.8359-20.9961L56.8848-23.9746L56.8848-52.832C56.8848-53.7109 56.25-54.2969 55.4199-54.2969C54.5898-54.2969 54.0039-53.6621 54.0039-52.832L54.0039-23.9746L54.1016-20.9961L51.0254-24.1211L45.8984-29.2969C45.6055-29.6387 45.2148-29.7852 44.7754-29.7852C43.9453-29.7852 43.3594-29.1992 43.3594-28.3691C43.3594-27.8809 43.5059-27.5391 43.7988-27.1973L54.3945-16.6504C54.9316-16.1133 55.9082-16.0645 56.4941-16.6504Z"/>
  </g>
  <g id="Ultralight-S" transform="matrix(1 0 0 1 516.352 696)">
   <path d="M19.7754-1.5625L66.9922-1.5625C73.5352-1.5625 76.9531-5.12695 76.9531-11.5234L76.9531-58.7891C76.9531-65.2344 73.5352-68.75 66.9922-68.75L19.7754-68.75C13.2324-68.75 9.76562-65.2832 9.76562-58.7891L9.76562-11.5234C9.76562-5.0293 13.2324-1.5625 19.7754-1.5625ZM19.873-3.75977C14.6484-3.75977 11.9629-6.44531 11.9629-11.6699L11.9629-58.6426C11.9629-63.8672 14.6484-66.5527 19.873-66.5527L66.8945-66.5527C71.875-66.5527 74.7559-63.8672 74.7559-58.6426L74.7559-11.6699C74.7559-6.44531 71.875-3.75977 66.8945-3.75977ZM31.0547-54.1992L20.0684-43.2129C19.8242-42.9688 19.7266-42.6758 19.7266-42.334C19.7266-41.7969 20.2148-41.3086 20.752-41.3086C20.9961-41.3086 21.3867-41.4551 21.6309-41.748L27.1973-47.3145L30.8594-51.0254L30.7617-47.5586L30.7617-17.1387C30.7617-16.5039 31.2988-16.1133 31.8848-16.1133C32.4707-16.1133 32.9102-16.5527 32.9102-17.1387L32.9102-47.5586L32.8125-51.0254L36.4746-47.3145L42.041-41.748C42.2852-41.4551 42.627-41.3086 42.9199-41.3086C43.457-41.3086 43.9453-41.7969 43.9453-42.334C43.9453-42.7246 43.8477-42.9688 43.6035-43.2129L32.5684-54.1992C32.1289-54.541 31.4941-54.5898 31.0547-54.1992ZM55.6641-16.3574L66.6504-27.2949C66.8945-27.5879 66.9922-27.832 66.9922-28.2227C66.9922-28.7598 66.5527-29.248 66.0156-29.248C65.6738-29.248 65.3809-29.0527 65.0879-28.8574L59.5215-23.2422L55.8594-19.5312L55.957-22.998L55.957-53.3691C55.957-54.0039 55.4688-54.4434 54.8828-54.4434C54.248-54.4434 53.8574-54.0039 53.8574-53.3691L53.8574-22.998L53.9551-19.5312L50.293-23.2422L44.7266-28.8574C44.4336-29.1016 44.1406-29.248 43.7988-29.248C43.2129-29.248 42.8223-28.8086 42.8223-28.2227C42.8223-27.7832 42.8711-27.5879 43.1152-27.2949L54.1504-16.3574C54.5898-16.0156 55.2246-15.9668 55.6641-16.3574Z"/>
  </g>
 </g>
</svg>
