<?xml version="1.0" encoding="UTF-8"?>
<!--Generator: Apple Native CoreSVG 149-->
<!DOCTYPE svg
PUBLIC "-//W3C//DTD SVG 1.1//EN"
       "http://www.w3.org/Graphics/SVG/1.1/DTD/svg11.dtd">
<svg version="1.1" xmlns="http://www.w3.org/2000/svg" xmlns:xlink="http://www.w3.org/1999/xlink" width="3300" height="2200">
 <!--glyph: "uni100263.medium", point size: 100.000000, font version: "Version 16.0d18e1", template writer version: "8"-->
 <g id="Notes">
  <rect height="2200" id="artboard" style="fill:white;opacity:1" width="3300" x="0" y="0"/>
  <line id="" style="fill:none;stroke:black;opacity:1;stroke-width:0.5;" x1="263" x2="3036" y1="292" y2="292"/>
  <text style="stroke:none;fill:black;font-family:-apple-system,&quot;SF Pro Display&quot;,&quot;SF Pro Text&quot;,Helvetica,sans-serif;font-weight:bold;" transform="matrix(1 0 0 1 263 322)">Weight/Scale Variations</text>
  <text style="stroke:none;fill:black;font-family:-apple-system,&quot;SF Pro Display&quot;,&quot;SF Pro Text&quot;,Helvetica,sans-serif;text-anchor:middle;" transform="matrix(1 0 0 1 559.711 322)">Ultralight</text>
  <text style="stroke:none;fill:black;font-family:-apple-system,&quot;SF Pro Display&quot;,&quot;SF Pro Text&quot;,Helvetica,sans-serif;text-anchor:middle;" transform="matrix(1 0 0 1 856.422 322)">Thin</text>
  <text style="stroke:none;fill:black;font-family:-apple-system,&quot;SF Pro Display&quot;,&quot;SF Pro Text&quot;,Helvetica,sans-serif;text-anchor:middle;" transform="matrix(1 0 0 1 1153.13 322)">Light</text>
  <text style="stroke:none;fill:black;font-family:-apple-system,&quot;SF Pro Display&quot;,&quot;SF Pro Text&quot;,Helvetica,sans-serif;text-anchor:middle;" transform="matrix(1 0 0 1 1449.84 322)">Regular</text>
  <text style="stroke:none;fill:black;font-family:-apple-system,&quot;SF Pro Display&quot;,&quot;SF Pro Text&quot;,Helvetica,sans-serif;text-anchor:middle;" transform="matrix(1 0 0 1 1746.56 322)">Medium</text>
  <text style="stroke:none;fill:black;font-family:-apple-system,&quot;SF Pro Display&quot;,&quot;SF Pro Text&quot;,Helvetica,sans-serif;text-anchor:middle;" transform="matrix(1 0 0 1 2043.27 322)">Semibold</text>
  <text style="stroke:none;fill:black;font-family:-apple-system,&quot;SF Pro Display&quot;,&quot;SF Pro Text&quot;,Helvetica,sans-serif;text-anchor:middle;" transform="matrix(1 0 0 1 2339.98 322)">Bold</text>
  <text style="stroke:none;fill:black;font-family:-apple-system,&quot;SF Pro Display&quot;,&quot;SF Pro Text&quot;,Helvetica,sans-serif;text-anchor:middle;" transform="matrix(1 0 0 1 2636.69 322)">Heavy</text>
  <text style="stroke:none;fill:black;font-family:-apple-system,&quot;SF Pro Display&quot;,&quot;SF Pro Text&quot;,Helvetica,sans-serif;text-anchor:middle;" transform="matrix(1 0 0 1 2933.4 322)">Black</text>
  <line id="" style="fill:none;stroke:black;opacity:1;stroke-width:0.5;" x1="263" x2="3036" y1="1903" y2="1903"/>
  <g id="" transform="matrix(1 0 0 1 263 1933)">
   <path d="M9.24805 0.830078C13.5547 0.830078 17.1387-2.74414 17.1387-7.05078C17.1387-11.3574 13.5449-14.9316 9.23828-14.9316C4.94141-14.9316 1.36719-11.3574 1.36719-7.05078C1.36719-2.74414 4.95117 0.830078 9.24805 0.830078ZM9.24805-0.654297C5.70312-0.654297 2.87109-3.49609 2.87109-7.05078C2.87109-10.6055 5.69336-13.4473 9.23828-13.4473C12.793-13.4473 15.6348-10.6055 15.6445-7.05078C15.6543-3.49609 12.8027-0.654297 9.24805-0.654297ZM6.39648-6.31836L8.50586-6.31836L8.50586-4.19922C8.50586-3.75977 8.79883-3.45703 9.22852-3.45703C9.67773-3.45703 9.9707-3.75977 9.9707-4.19922L9.9707-6.31836L12.0996-6.31836C12.5391-6.31836 12.8418-6.61133 12.8418-7.04102C12.8418-7.48047 12.5391-7.7832 12.0996-7.7832L9.9707-7.7832L9.9707-9.89258C9.9707-10.3418 9.67773-10.6445 9.22852-10.6445C8.79883-10.6445 8.50586-10.3418 8.50586-9.89258L8.50586-7.7832L6.39648-7.7832C5.94727-7.7832 5.64453-7.48047 5.64453-7.04102C5.64453-6.61133 5.94727-6.31836 6.39648-6.31836Z"/>
  </g>
  <g id="" transform="matrix(1 0 0 1 281.506 1933)">
   <path d="M11.709 2.91016C17.1582 2.91016 21.6699-1.61133 21.6699-7.05078C21.6699-12.5 17.1484-17.0117 11.6992-17.0117C6.25977-17.0117 1.74805-12.5 1.74805-7.05078C1.74805-1.61133 6.26953 2.91016 11.709 2.91016ZM11.709 1.25C7.09961 1.25 3.41797-2.44141 3.41797-7.05078C3.41797-11.6602 7.08984-15.3516 11.6992-15.3516C16.3086-15.3516 20-11.6602 20.0098-7.05078C20.0195-2.44141 16.3184 1.25 11.709 1.25ZM7.98828-6.23047L10.8789-6.23047L10.8789-3.32031C10.8789-2.83203 11.2109-2.5 11.6895-2.5C12.1777-2.5 12.5195-2.83203 12.5195-3.32031L12.5195-6.23047L15.4297-6.23047C15.918-6.23047 16.25-6.5625 16.25-7.04102C16.25-7.5293 15.918-7.87109 15.4297-7.87109L12.5195-7.87109L12.5195-10.7617C12.5195-11.2695 12.1777-11.6016 11.6895-11.6016C11.2109-11.6016 10.8789-11.2598 10.8789-10.7617L10.8789-7.87109L7.98828-7.87109C7.48047-7.87109 7.14844-7.5293 7.14844-7.04102C7.14844-6.5625 7.49023-6.23047 7.98828-6.23047Z"/>
  </g>
  <g id="" transform="matrix(1 0 0 1 304.924 1933)">
   <path d="M14.9707 5.66406C21.9336 5.66406 27.6953-0.0976562 27.6953-7.05078C27.6953-14.0137 21.9238-19.7754 14.9609-19.7754C8.00781-19.7754 2.25586-14.0137 2.25586-7.05078C2.25586-0.0976562 8.01758 5.66406 14.9707 5.66406ZM14.9707 3.84766C8.93555 3.84766 4.08203-1.01562 4.08203-7.05078C4.08203-13.0957 8.92578-17.9492 14.9609-17.9492C21.0059-17.9492 25.8594-13.0957 25.8691-7.05078C25.8789-1.01562 21.0156 3.84766 14.9707 3.84766ZM10.0586-6.14258L14.0625-6.14258L14.0625-2.12891C14.0625-1.5918 14.4336-1.2207 14.9512-1.2207C15.4883-1.2207 15.8594-1.5918 15.8594-2.12891L15.8594-6.14258L19.8828-6.14258C20.4102-6.14258 20.791-6.51367 20.791-7.03125C20.791-7.56836 20.4199-7.94922 19.8828-7.94922L15.8594-7.94922L15.8594-11.9531C15.8594-12.5098 15.4883-12.8809 14.9512-12.8809C14.4336-12.8809 14.0625-12.5 14.0625-11.9531L14.0625-7.94922L10.0586-7.94922C9.50195-7.94922 9.13086-7.56836 9.13086-7.03125C9.13086-6.51367 9.51172-6.14258 10.0586-6.14258Z"/>
  </g>
  <text style="stroke:none;fill:black;font-family:-apple-system,&quot;SF Pro Display&quot;,&quot;SF Pro Text&quot;,Helvetica,sans-serif;font-weight:bold;" transform="matrix(1 0 0 1 263 1953)">Design Variations</text>
  <text style="stroke:none;fill:black;font-family:-apple-system,&quot;SF Pro Display&quot;,&quot;SF Pro Text&quot;,Helvetica,sans-serif;" transform="matrix(1 0 0 1 263 1971)">Symbols are supported in up to nine weights and three scales.</text>
  <text style="stroke:none;fill:black;font-family:-apple-system,&quot;SF Pro Display&quot;,&quot;SF Pro Text&quot;,Helvetica,sans-serif;" transform="matrix(1 0 0 1 263 1989)">For optimal layout with text and other symbols, vertically align</text>
  <text style="stroke:none;fill:black;font-family:-apple-system,&quot;SF Pro Display&quot;,&quot;SF Pro Text&quot;,Helvetica,sans-serif;" transform="matrix(1 0 0 1 263 2007)">symbols with the adjacent text.</text>
  <line id="" style="fill:none;stroke:#00AEEF;stroke-width:0.5;opacity:1.0;" x1="776" x2="776" y1="1919" y2="1933"/>
  <g id="" transform="matrix(1 0 0 1 776 1933)">
   <path d="M3.31055 0.126953C3.82812 0.126953 4.08203-0.0683594 4.26758-0.605469L5.52734-4.0625L11.2891-4.0625L12.5488-0.605469C12.7344-0.0683594 12.9883 0.126953 13.4961 0.126953C14.0137 0.126953 14.3457-0.185547 14.3457-0.673828C14.3457-0.839844 14.3164-0.986328 14.2383-1.20117L9.6582-13.3887C9.43359-13.9941 9.0332-14.2871 8.4082-14.2871C7.80273-14.2871 7.39258-13.9941 7.17773-13.3984L2.59766-1.19141C2.51953-0.976562 2.49023-0.830078 2.49023-0.664062C2.49023-0.175781 2.80273 0.126953 3.31055 0.126953ZM6.00586-5.53711L8.37891-12.1094L8.42773-12.1094L10.8008-5.53711Z"/>
  </g>
  <line id="" style="fill:none;stroke:#00AEEF;stroke-width:0.5;opacity:1.0;" x1="792.836" x2="792.836" y1="1919" y2="1933"/>
  <text style="stroke:none;fill:black;font-family:-apple-system,&quot;SF Pro Display&quot;,&quot;SF Pro Text&quot;,Helvetica,sans-serif;font-weight:bold;" transform="matrix(1 0 0 1 776 1953)">Margins</text>
  <text style="stroke:none;fill:black;font-family:-apple-system,&quot;SF Pro Display&quot;,&quot;SF Pro Text&quot;,Helvetica,sans-serif;" transform="matrix(1 0 0 1 776 1971)">Leading and trailing margins on the left and right side of each symbol</text>
  <text style="stroke:none;fill:black;font-family:-apple-system,&quot;SF Pro Display&quot;,&quot;SF Pro Text&quot;,Helvetica,sans-serif;" transform="matrix(1 0 0 1 776 1989)">can be adjusted by modifying the x-location of the margin guidelines.</text>
  <text style="stroke:none;fill:black;font-family:-apple-system,&quot;SF Pro Display&quot;,&quot;SF Pro Text&quot;,Helvetica,sans-serif;" transform="matrix(1 0 0 1 776 2007)">Modifications are automatically applied proportionally to all</text>
  <text style="stroke:none;fill:black;font-family:-apple-system,&quot;SF Pro Display&quot;,&quot;SF Pro Text&quot;,Helvetica,sans-serif;" transform="matrix(1 0 0 1 776 2025)">scales and weights.</text>
  <g id="" transform="matrix(1 0 0 1 1289 1933)">
   <path d="M2.8418 1.86523L4.54102 3.57422C5.40039 4.44336 6.38672 4.38477 7.31445 3.35938L17.4902-7.85156C17.7539-7.76367 18.0273-7.7832 18.3398-7.8418L19.4043-8.03711L20.0684-7.36328L20.0293-6.80664C19.9902-6.30859 20.1172-5.92773 20.6055-5.44922L21.3672-4.70703C21.8457-4.22852 22.4609-4.19922 22.9297-4.66797L25.8398-7.58789C26.3086-8.05664 26.2891-8.65234 25.8105-9.13086L25.0391-9.89258C24.5605-10.3711 24.1895-10.5273 23.7109-10.4883L23.1348-10.4395L22.4902-11.0742L22.7344-12.1973C22.8613-12.7637 22.7051-13.2031 22.1191-13.7891L19.9219-15.9766C16.582-19.2969 12.1484-19.2188 9.25781-16.3281C8.83789-15.918 8.80859-15.3418 9.04297-14.9512C9.27734-14.5898 9.73633-14.3555 10.3809-14.5215C11.8457-14.8633 13.3691-14.9219 14.7949-13.9844L14.209-12.5293C14.0137-12.0508 13.9844-11.6504 14.1113-11.2891L3.04688-0.898438C2.06055 0.0195312 1.98242 0.996094 2.8418 1.86523ZM10.752-15.957C13.1836-17.7344 16.4746-17.4316 18.7012-15.2051L21.1328-12.793C21.3672-12.5586 21.4062-12.373 21.3379-12.0312L21.0156-10.5469L22.5195-9.0625L23.5059-9.12109C23.7598-9.13086 23.8379-9.11133 24.0332-8.91602L24.6094-8.33984L22.168-5.89844L21.5918-6.47461C21.3965-6.66992 21.3672-6.74805 21.377-7.01172L21.4453-7.98828L19.9512-9.47266L18.4277-9.21875C18.1055-9.15039 17.959-9.17969 17.7148-9.41406L15.7129-11.416C15.459-11.6504 15.4297-11.8164 15.5859-12.1875L16.4648-14.2773C14.9023-15.7324 12.8711-16.3574 10.8398-15.7617C10.6836-15.7227 10.625-15.8496 10.752-15.957ZM5.27344 2.30469L4.10156 1.14258C3.63281 0.683594 3.74023 0.341797 4.14062-0.0195312L14.9512-10.1953L16.416-8.71094L6.42578 2.27539C6.07422 2.67578 5.74219 2.77344 5.27344 2.30469Z"/>
  </g>
  <text style="stroke:none;fill:black;font-family:-apple-system,&quot;SF Pro Display&quot;,&quot;SF Pro Text&quot;,Helvetica,sans-serif;font-weight:bold;" transform="matrix(1 0 0 1 1289 1953)">Exporting</text>
  <text style="stroke:none;fill:black;font-family:-apple-system,&quot;SF Pro Display&quot;,&quot;SF Pro Text&quot;,Helvetica,sans-serif;" transform="matrix(1 0 0 1 1289 1971)">Symbols should be outlined when exporting to ensure the</text>
  <text style="stroke:none;fill:black;font-family:-apple-system,&quot;SF Pro Display&quot;,&quot;SF Pro Text&quot;,Helvetica,sans-serif;" transform="matrix(1 0 0 1 1289 1989)">design is preserved when submitting to Xcode.</text>
  <text id="template-version" style="stroke:none;fill:black;font-family:-apple-system,&quot;SF Pro Display&quot;,&quot;SF Pro Text&quot;,Helvetica,sans-serif;text-anchor:end;" transform="matrix(1 0 0 1 3036 1933)">Template v.2.0</text>
  <text style="stroke:none;fill:black;font-family:-apple-system,&quot;SF Pro Display&quot;,&quot;SF Pro Text&quot;,Helvetica,sans-serif;text-anchor:end;" transform="matrix(1 0 0 1 3036 1951)">Requires Xcode 12 or greater</text>
  <text style="stroke:none;fill:black;font-family:-apple-system,&quot;SF Pro Display&quot;,&quot;SF Pro Text&quot;,Helvetica,sans-serif;text-anchor:end;" transform="matrix(1 0 0 1 3036 1969)">Generated from link</text>
  <text style="stroke:none;fill:black;font-family:-apple-system,&quot;SF Pro Display&quot;,&quot;SF Pro Text&quot;,Helvetica,sans-serif;text-anchor:end;" transform="matrix(1 0 0 1 3036 1987)">Typeset at 100 points</text>
  <text style="stroke:none;fill:black;font-family:-apple-system,&quot;SF Pro Display&quot;,&quot;SF Pro Text&quot;,Helvetica,sans-serif;" transform="matrix(1 0 0 1 263 726)">Small</text>
  <text style="stroke:none;fill:black;font-family:-apple-system,&quot;SF Pro Display&quot;,&quot;SF Pro Text&quot;,Helvetica,sans-serif;" transform="matrix(1 0 0 1 263 1156)">Medium</text>
  <text style="stroke:none;fill:black;font-family:-apple-system,&quot;SF Pro Display&quot;,&quot;SF Pro Text&quot;,Helvetica,sans-serif;" transform="matrix(1 0 0 1 263 1586)">Large</text>
 </g>
 <g id="Guides">
  <g id="H-reference" style="fill:#27AAE1;stroke:none;" transform="matrix(1 0 0 1 339 696)">
   <path d="M0.976562 0L3.66211 0L12.9883-24.4629L45.752-24.4629L55.127 0L57.7637 0L30.6152-70.459L28.125-70.459ZM29.3457-67.1387L29.4434-67.1387L44.873-26.709L13.8672-26.709Z"/>
  </g>
  <line id="Baseline-S" style="fill:none;stroke:#27AAE1;opacity:1;stroke-width:0.5;" x1="263" x2="3036" y1="696" y2="696"/>
  <line id="Capline-S" style="fill:none;stroke:#27AAE1;opacity:1;stroke-width:0.5;" x1="263" x2="3036" y1="625.541" y2="625.541"/>
  <g id="H-reference" style="fill:#27AAE1;stroke:none;" transform="matrix(1 0 0 1 339 1126)">
   <path d="M0.976562 0L3.66211 0L12.9883-24.4629L45.752-24.4629L55.127 0L57.7637 0L30.6152-70.459L28.125-70.459ZM29.3457-67.1387L29.4434-67.1387L44.873-26.709L13.8672-26.709Z"/>
  </g>
  <line id="Baseline-M" style="fill:none;stroke:#27AAE1;opacity:1;stroke-width:0.5;" x1="263" x2="3036" y1="1126" y2="1126"/>
  <line id="Capline-M" style="fill:none;stroke:#27AAE1;opacity:1;stroke-width:0.5;" x1="263" x2="3036" y1="1055.54" y2="1055.54"/>
  <g id="H-reference" style="fill:#27AAE1;stroke:none;" transform="matrix(1 0 0 1 339 1556)">
   <path d="M0.976562 0L3.66211 0L12.9883-24.4629L45.752-24.4629L55.127 0L57.7637 0L30.6152-70.459L28.125-70.459ZM29.3457-67.1387L29.4434-67.1387L44.873-26.709L13.8672-26.709Z"/>
  </g>
  <line id="Baseline-L" style="fill:none;stroke:#27AAE1;opacity:1;stroke-width:0.5;" x1="263" x2="3036" y1="1556" y2="1556"/>
  <line id="Capline-L" style="fill:none;stroke:#27AAE1;opacity:1;stroke-width:0.5;" x1="263" x2="3036" y1="1485.54" y2="1485.54"/>
  <line id="left-margin" style="fill:none;stroke:#00AEEF;stroke-width:0.5;opacity:1.0;" x1="1386.83" x2="1386.83" y1="1030.79" y2="1150.12"/>
  <line id="right-margin" style="fill:none;stroke:#00AEEF;stroke-width:0.5;opacity:1.0;" x1="1512.86" x2="1512.86" y1="1030.79" y2="1150.12"/>
 </g>
 <g id="Symbols">
  <g id="Black-L" transform="matrix(1 0 0 1 2847.71 1556)">
   <path d="M75.5859-6.93359L89.4531-20.8008C84.7168-21.6309 79.7363-23.877 76.9043-26.709C67.334-36.2793 67.2363-49.4629 76.7578-58.9355L98.8281-80.957C108.35-90.4785 121.484-90.4297 131.055-80.9082C140.625-71.2891 140.674-58.1543 131.201-48.6816L126.025-43.5059C128.906-36.7676 130.322-27.9297 127.832-20.3125L144.287-36.5723C161.182-53.2227 161.035-77.1973 144.189-93.9941C127.344-110.889 103.564-110.889 86.7676-94.0918L63.6719-70.9961C46.875-54.248 46.9238-30.3711 63.7207-13.5742C66.3574-10.9375 70.9961-8.25195 75.5859-6.93359ZM95.8008-64.2578L81.9336-50.4395C86.6699-49.5605 91.6504-47.3633 94.4824-44.5312C104.053-34.9121 104.15-21.7773 94.6289-12.2559L72.5586 9.76562C63.0371 19.2871 49.9023 19.2383 40.332 9.66797C30.7617 0.0976562 30.7129-13.0859 40.1855-22.5586L45.3613-27.7344C42.4805-34.4238 41.0645-43.3105 43.5547-50.8789L27.0996-34.6191C10.2051-17.9688 10.3516 6.00586 27.1973 22.8027C44.043 39.6973 67.8223 39.6484 84.6191 22.9004L107.715-0.195312C124.512-16.9922 124.463-40.8203 107.666-57.6172C105.029-60.2539 100.391-62.9883 95.8008-64.2578Z"/>
  </g>
  <g id="Heavy-L" transform="matrix(1 0 0 1 2552.27 1556)">
   <path d="M77.0508-7.71484L89.3555-20.0195C83.5938-20.752 78.418-23.0469 75.1465-26.2695C65.1855-36.2793 65.1367-50.0977 75.0488-60.0098L96.7773-81.6895C106.689-91.6016 120.508-91.6016 130.42-81.6406C140.43-71.6797 140.43-57.8613 130.566-47.9492L123.34-40.7227C125.879-34.8145 127.051-27.0996 125-20.4102L142.09-37.4023C158.496-53.6133 158.398-76.8555 142.041-93.2129C125.635-109.619 102.49-109.57 86.2305-93.2617L63.4766-70.5566C47.2168-54.248 47.168-31.1035 63.5742-14.7461C66.6016-11.7188 71.4355-8.93555 77.0508-7.71484ZM91.7969-63.5742L79.4922-51.2695C85.2539-50.5371 90.4297-48.2422 93.7012-45.0195C103.662-35.0098 103.711-21.1914 93.7988-11.2793L72.0703 10.4004C62.1582 20.3125 48.3398 20.3125 38.4277 10.3516C28.418 0.390625 28.418-13.4277 38.2812-23.3398L45.5078-30.5664C42.9688-36.4746 41.7969-44.1895 43.8477-50.8789L26.7578-33.8867C10.3516-17.6758 10.4492 5.56641 26.8066 21.9238C43.2129 38.3301 66.3574 38.2812 82.6172 21.9727L105.371-0.732422C121.631-17.041 121.68-40.1855 105.273-56.543C102.246-59.5703 97.4121-62.3535 91.7969-63.5742Z"/>
  </g>
  <g id="Bold-L" transform="matrix(1 0 0 1 2256.97 1556)">
   <path d="M78.6621-8.59375L89.2578-19.1406C82.373-19.7266 76.9043-22.1191 73.1934-25.8301C62.793-36.2305 62.793-50.8789 73.1445-61.1816L94.4824-82.4707C104.834-92.8711 119.434-92.8711 129.785-82.5195C140.234-72.0703 140.186-57.5195 129.834-47.168L120.312-37.6465C122.461-32.6172 123.389-26.123 121.777-20.5078L139.648-38.2812C155.469-54.0039 155.469-76.416 139.6-92.2852C123.682-108.203 101.318-108.105 85.5957-92.3828L63.2812-70.0195C47.5586-54.2969 47.5098-31.9336 63.3789-16.0645C66.8945-12.5488 71.9727-9.7168 78.6621-8.59375ZM87.3535-62.793L76.7578-52.1973C83.6426-51.6602 89.1113-49.2676 92.8223-45.5566C103.223-35.1562 103.223-20.5078 92.8711-10.2051L71.5332 11.084C61.1816 21.4844 46.582 21.4844 36.2305 11.1328C25.7812 0.683594 25.8301-13.8672 36.1816-24.2188L45.7031-33.7402C43.5547-38.7695 42.627-45.2148 44.2383-50.8789L26.3672-33.0566C10.5469-17.3828 10.5469 5.0293 26.416 20.8984C42.334 36.8164 64.6973 36.7188 80.3711 20.9961L102.734-1.31836C118.457-17.0898 118.506-39.4531 102.637-55.3223C99.1211-58.8379 94.043-61.6699 87.3535-62.793Z"/>
  </g>
  <g id="Semibold-L" transform="matrix(1 0 0 1 1961.24 1556)">
   <path d="M79.7852-9.17969L89.1602-18.5547C81.4941-19.043 75.8789-21.4844 71.8262-25.5371C61.1328-36.2305 61.1328-51.3672 71.8262-62.0117L92.8711-83.0078C103.564-93.7012 118.652-93.75 129.297-83.1055C140.039-72.3633 139.99-57.2754 129.346-46.582L118.213-35.498C120.117-31.1035 120.85-25.4883 119.58-20.5566L137.988-38.916C153.369-54.248 153.467-76.123 137.939-91.6504C122.363-107.227 100.537-107.08 85.2051-91.748L63.1836-69.6777C47.8027-54.3457 47.7051-32.4707 63.2324-16.9434C67.0898-13.0859 72.3145-10.2539 79.7852-9.17969ZM84.2773-62.2559L74.9023-52.8809C82.5684-52.3926 88.1836-49.9512 92.2363-45.8984C102.93-35.2051 102.881-20.0684 92.2363-9.42383L71.1914 11.5723C60.498 22.2656 45.4102 22.3145 34.7168 11.6699C23.9746 0.927734 24.0723-14.1602 34.7168-24.8535L45.8496-35.9375C43.9453-40.332 43.2129-45.9473 44.4824-50.8789L26.0742-32.5195C10.6934-17.1875 10.5957 4.6875 26.123 20.2148C41.6992 35.791 63.5254 35.6445 78.8574 20.3125L100.879-1.75781C116.26-17.0898 116.357-38.9648 100.83-54.4922C96.9727-58.3496 91.748-61.1816 84.2773-62.2559Z"/>
  </g>
  <g id="Medium-L" transform="matrix(1 0 0 1 1665.28 1556)">
   <path d="M80.6641-9.61914L89.1113-18.1152C80.8105-18.5059 75.0977-20.9961 70.8008-25.293C59.8633-36.2305 59.9121-51.7578 70.8008-62.6465L91.6504-83.4473C102.588-94.3848 118.066-94.4336 128.955-83.5449C139.941-72.5586 139.844-57.0801 128.955-46.1914L116.65-33.8867C118.359-29.9316 118.896-25 117.92-20.6055L136.719-39.4043C151.807-54.4434 151.904-75.9277 136.67-91.1621C121.338-106.494 99.9023-106.299 84.8633-91.2598L63.0371-69.4336C47.998-54.3457 47.8516-32.9102 63.1348-17.627C67.2363-13.5254 72.5586-10.6445 80.6641-9.61914ZM81.9336-61.8652L73.4375-53.3691C81.7383-52.9785 87.5-50.4883 91.748-46.1914C102.686-35.2539 102.637-19.7266 91.748-8.83789L70.8984 11.9629C59.9609 22.9004 44.4824 22.9492 33.5938 12.0605C22.6074 1.07422 22.7051-14.4043 33.6426-25.293L45.9473-37.5977C44.2383-41.5527 43.6523-46.4844 44.6777-50.8301L25.8789-32.0801C10.7422-17.041 10.6445 4.44336 25.9277 19.7266C41.2109 35.0098 62.6465 34.8145 77.6855 19.7754L99.5117-2.05078C114.6-17.1387 114.697-38.5742 99.4629-53.8574C95.3613-57.959 89.9902-60.791 81.9336-61.8652Z"/>
  </g>
  <g id="Regular-L" transform="matrix(1 0 0 1 1369.52 1556)">
   <path d="M81.7871-10.2051L89.0137-17.5293C79.9805-17.8223 74.0723-20.3613 69.4824-25C58.252-36.1816 58.3008-52.2461 69.5312-63.4277L90.0879-83.9844C101.367-95.2148 117.334-95.3125 128.516-84.1309C139.795-72.8516 139.697-56.8359 128.467-45.6543L114.6-31.7383C116.016-28.418 116.406-24.3652 115.723-20.7031L135.059-40.0391C149.756-54.7363 149.902-75.6348 135.01-90.5762C120.02-105.518 99.1211-105.322 84.4727-90.625L62.9395-69.0918C48.2422-54.3945 48.0469-33.4473 62.9883-18.5059C67.4316-14.1113 72.9004-11.1816 81.7871-10.2051ZM78.8574-61.3281L71.582-54.0039C80.6641-53.7109 86.5723-51.1719 91.1621-46.5332C102.393-35.3516 102.344-19.2871 91.1133-8.10547L70.5566 12.4512C59.2773 23.6816 43.3105 23.7793 32.1289 12.5977C20.8496 1.31836 20.9473-14.6973 32.1777-25.8789L46.0449-39.7949C44.6289-43.1152 44.2383-47.168 44.9219-50.8301L25.5859-31.4941C10.8887-16.7969 10.6934 4.10156 25.6348 19.043C40.5762 33.9844 61.5234 33.7891 76.1719 19.0918L97.7051-2.44141C112.402-17.1875 112.598-38.0859 97.6562-53.0273C93.2129-57.4219 87.6953-60.3516 78.8574-61.3281Z"/>
  </g>
  <g id="Light-L" transform="matrix(1 0 0 1 1074.18 1556)">
   <path d="M83.4473-10.7422L89.209-16.5039C79.1016-16.2109 72.5098-18.9453 67.2852-24.1699C55.7617-35.6934 55.8594-52.3926 67.4805-63.9648L87.9883-84.4238C99.6582-96.0449 116.26-96.1914 127.734-84.7168C139.307-73.1445 139.16-56.543 127.539-44.9219L111.572-28.9551C112.646-26.5625 112.988-23.3398 112.207-20.2637L132.715-40.7227C146.875-54.8828 147.07-75.1465 132.666-89.5996C118.213-104.053 97.9492-103.76 83.8379-89.6484L62.3047-68.1152C48.1445-53.9551 47.9004-33.6914 62.3535-19.2871C67.4316-14.209 73.584-11.1816 83.4473-10.7422ZM74.4141-60.8398L68.6523-55.0781C78.7598-55.3223 85.4004-52.5879 90.625-47.4121C102.148-35.8398 102.051-19.1895 90.4297-7.61719L69.873 12.8906C58.252 24.5117 41.6504 24.6582 30.1758 13.1348C18.6035 1.5625 18.7012-14.9902 30.3223-26.6113L46.2891-42.5781C45.2637-44.9707 44.9219-48.2422 45.7031-51.3184L25.1953-30.8105C11.0352-16.6504 10.791 3.61328 25.2441 18.0176C39.6973 32.5195 59.9609 32.2266 74.0723 18.1152L95.5566-3.41797C109.717-17.5781 109.961-37.8418 95.5566-52.2461C90.4785-57.3242 84.3262-60.4004 74.4141-60.8398Z"/>
  </g>
  <g id="Thin-L" transform="matrix(1 0 0 1 779.298 1556)">
   <path d="M85.6934-11.4258L89.4531-15.1367C77.9785-14.1113 70.459-17.041 64.4043-23.0957C52.4414-35.0586 52.5879-52.5391 64.7461-64.5996L85.2539-85.0586C97.4121-97.1191 114.844-97.3633 126.709-85.498C138.672-73.5352 138.525-56.1523 126.367-43.9453L107.617-25.2441C108.154-24.1211 108.398-21.9727 107.568-19.6777L129.59-41.6992C143.018-55.127 143.359-74.5117 129.59-88.2812C115.723-102.148 96.3867-101.758 82.959-88.3789L61.5234-66.8945C48.0469-53.418 47.7539-34.0332 61.5234-20.2637C67.3828-14.4043 74.4141-11.1328 85.6934-11.4258ZM68.5547-60.1562L64.7949-56.4453C76.2695-57.4707 83.8379-54.541 89.8926-48.4863C101.807-36.5234 101.66-19.043 89.502-6.98242L68.9941 13.4766C56.8359 25.5859 39.4531 25.7812 27.5391 13.916C15.5762 1.95312 15.7715-15.4297 27.9297-27.5879L46.6309-46.3379C46.0938-47.4609 45.8496-49.6094 46.6797-51.9043L24.6582-29.8828C11.2305-16.4062 10.9375 2.92969 24.6582 16.6992C38.5254 30.5664 57.9102 30.1758 71.2891 16.7969L92.7734-4.6875C106.201-18.1641 106.494-37.5488 92.7246-51.2695C86.8652-57.1777 79.834-60.4492 68.5547-60.1562Z"/>
  </g>
  <g id="Ultralight-L" transform="matrix(1 0 0 1 483.515 1556)">
   <path d="M86.8652-11.8164L89.5508-14.4043C77.3926-13.0371 69.3848-16.0645 62.8906-22.5586C50.7324-34.7168 50.9277-52.5879 63.3301-64.9414L83.8379-85.3516C96.2891-97.7051 114.111-97.9492 126.172-85.8887C138.33-73.7305 138.184-55.9082 125.732-43.457L105.566-23.3398C105.859-22.8516 106.104-21.2402 105.176-19.3848L127.979-42.1875C141.064-55.2734 141.406-74.2188 127.979-87.6465C114.502-101.123 95.5566-100.732 82.5684-87.6953L61.084-66.2598C47.998-53.1738 47.6562-34.2285 61.084-20.8008C67.3828-14.502 74.8535-11.1328 86.8652-11.8164ZM65.5273-59.7656L62.8418-57.1777C75-58.5449 83.0078-55.5176 89.502-49.0723C101.66-36.8652 101.465-18.9941 89.0625-6.64062L68.5547 13.7695C56.1035 26.123 38.2812 26.3672 26.2207 14.3066C14.0625 2.14844 14.209-15.6738 26.6602-28.125L46.8262-48.2422C46.5332-48.7305 46.3379-50.3418 47.2168-52.2461L24.4141-29.3945C11.3281-16.3086 10.9863 2.58789 24.4141 16.0156C37.8906 29.541 56.8359 29.1016 69.8242 16.1133L91.3086-5.32227C104.395-18.457 104.736-37.3535 91.3086-50.7812C85.0098-57.1289 77.5391-60.4492 65.5273-59.7656Z"/>
  </g>
  <g id="Black-M" transform="matrix(1 0 0 1 2866.02 1126)">
   <path d="M57.5195-12.5977L69.5801-24.5117C66.6992-25.0488 62.793-26.7578 60.791-28.7109C53.7109-35.791 53.6621-45.4102 60.6934-52.4414L78.2715-69.9707C85.3027-77.002 94.9219-76.9531 101.953-69.9219C108.984-62.8418 109.082-53.2227 102.051-46.1914L99.707-43.8477C102.197-38.0859 103.613-30.127 101.074-23.3398L113.525-35.5957C127.002-48.8281 126.807-68.0176 113.428-81.3477C100-94.7754 81.0059-94.7754 67.6758-81.4453L49.2188-63.0859C35.8398-49.707 35.9375-30.6641 49.2676-17.2852C51.0742-15.4785 54.7363-13.3789 57.5195-12.5977ZM77.2949-58.3496L65.1855-46.4355C68.0664-45.8984 72.0215-44.1895 73.9746-42.2363C81.0547-35.1562 81.1035-25.5371 74.1211-18.5059L56.4941-0.976562C49.4629 6.05469 39.8438 5.95703 32.8613-1.02539C25.7812-8.10547 25.6836-17.7246 32.7148-24.7559L35.0586-27.0996C32.5684-32.8613 31.1523-40.8203 33.6914-47.6074L21.2891-35.3516C7.76367-22.1191 7.95898-2.92969 21.3379 10.4004C34.7656 23.8281 53.7598 23.8281 67.1387 10.498L85.5469-7.86133C98.9258-21.2402 98.877-40.2832 85.498-53.6621C83.6914-55.4688 80.0293-57.5684 77.2949-58.3496Z"/>
  </g>
  <g id="Heavy-M" transform="matrix(1 0 0 1 2570.33 1126)">
   <path d="M58.6426-13.2812L69.3848-23.9258C65.7227-24.5117 61.7188-26.2207 59.4238-28.5156C52.0508-35.8887 52.002-46.0938 59.3262-53.4668L76.5625-70.6543C83.9355-77.9785 94.0918-77.9785 101.465-70.6055C108.887-63.1836 108.936-52.9785 101.562-45.6055L97.5098-41.5527C99.7559-36.4258 100.928-29.4922 98.8281-23.5352L111.719-36.2793C124.805-49.1699 124.658-67.7246 111.67-80.7129C98.6328-93.7988 80.1758-93.75 67.2363-80.8105L49.2188-62.793C36.2305-49.8535 36.2305-31.3477 49.2676-18.3594C51.3672-16.2598 55.0781-14.1113 58.6426-13.2812ZM74.0723-57.7637L63.2812-47.0703C66.9922-46.5332 70.9961-44.7754 73.2422-42.5293C80.6641-35.1074 80.7129-24.9023 73.3887-17.5781L56.1523-0.390625C48.7793 6.98242 38.5742 6.93359 31.25-0.439453C23.7793-7.86133 23.7793-18.0664 31.1035-25.3906L35.2051-29.4434C32.959-34.6191 31.7871-41.5527 33.8867-47.5098L20.9961-34.7656C7.91016-21.875 8.05664-3.32031 21.0449 9.7168C34.082 22.7539 52.5391 22.7539 65.4785 9.76562L83.4961-8.20312C96.4844-21.1914 96.4844-39.6484 83.4473-52.6855C81.3477-54.7852 77.6367-56.8848 74.0723-57.7637Z"/>
  </g>
  <g id="Bold-M" transform="matrix(1 0 0 1 2274.77 1126)">
   <path d="M59.9609-14.0625L69.2383-23.291C64.5996-23.8281 60.498-25.6348 57.9102-28.2227C50.1465-36.0352 50.0977-46.875 57.8613-54.6387L74.6094-71.3379C82.373-79.1016 93.2129-79.1016 100.977-71.3379C108.789-63.5254 108.789-52.6855 101.074-44.9707L95.0684-39.0137C97.0215-34.5703 97.9004-28.7598 96.3867-23.7793L109.766-37.0605C122.363-49.5117 122.314-67.4316 109.668-80.0293C97.0215-92.6758 79.248-92.627 66.6992-80.0781L49.1699-62.5488C36.6211-50 36.6211-32.1777 49.2188-19.5801C51.6602-17.1387 55.4688-14.9902 59.9609-14.0625ZM70.459-57.0801L61.1816-47.8027C65.8203-47.2656 69.873-45.459 72.4609-42.8711C80.2734-35.0586 80.2734-24.2188 72.5586-16.5039L55.7617 0.244141C47.998 8.00781 37.1582 8.00781 29.4434 0.244141C21.582-7.56836 21.582-18.4082 29.3457-26.1719L35.3027-32.1289C33.3984-36.5723 32.5195-42.334 34.0332-47.3633L20.6543-34.082C8.05664-21.582 8.10547-3.71094 20.7031 8.88672C33.3496 21.5332 51.1719 21.4844 63.6719 8.98438L81.25-8.59375C93.75-21.1426 93.7988-38.9648 81.1523-51.5625C78.7598-54.0039 74.9512-56.1035 70.459-57.0801Z"/>
  </g>
  <g id="Semibold-M" transform="matrix(1 0 0 1 1978.86 1126)">
   <path d="M60.8398-14.5996L69.0918-22.8516C63.8184-23.3887 59.7168-25.2441 56.8848-28.0762C48.8281-36.1328 48.8281-47.4121 56.8359-55.4199L73.291-71.875C81.3477-79.8828 92.5781-79.8828 100.635-71.875C108.74-63.7695 108.691-52.4902 100.684-44.4824L93.4082-37.207C95.1172-33.252 95.8008-28.2715 94.6777-23.9258L108.35-37.5977C120.654-49.7559 120.654-67.1875 108.301-79.541C95.9473-91.8945 78.6133-91.7969 66.4062-79.5898L49.1211-62.3535C36.9141-50.0977 36.8652-32.7148 49.2188-20.4102C51.8555-17.7246 55.7129-15.5762 60.8398-14.5996ZM67.9688-56.5918L59.7168-48.291C64.9902-47.7539 69.0918-45.9473 71.9238-43.1152C79.9805-35.0586 79.9805-23.7305 71.9727-15.7715L55.5176 0.683594C47.4609 8.69141 36.1816 8.74023 28.1738 0.683594C20.0684-7.42188 20.1172-18.6523 28.125-26.6602L35.4004-33.9355C33.6914-37.8906 33.0078-42.9199 34.1309-47.2656L20.4102-33.5938C8.1543-21.3867 8.1543-4.00391 20.459 8.34961C32.8613 20.7031 50.1953 20.6543 62.4023 8.39844L79.6387-8.83789C91.8945-21.0938 91.9434-38.4277 79.5898-50.7812C76.9531-53.4668 73.0957-55.6152 67.9688-56.5918Z"/>
  </g>
  <g id="Medium-M" transform="matrix(1 0 0 1 1682.76 1126)">
   <path d="M61.5234-14.9902L68.9941-22.5586C63.2324-23.0469 59.082-24.9512 56.1035-27.9297C47.8516-36.1816 47.8516-47.8516 56.0547-56.0059L72.2656-72.2656C80.5176-80.4688 92.1387-80.5176 100.391-72.2656C108.691-63.9648 108.594-52.3438 100.439-44.1406L92.1387-35.8887C93.7012-32.2754 94.2383-27.8809 93.3594-24.0723L107.324-37.9883C119.336-49.9512 119.385-67.041 107.275-79.1504C95.1172-91.3086 78.125-91.2109 66.1133-79.1992L49.1211-62.207C37.1094-50.1953 37.0605-33.1543 49.1699-21.0449C52.002-18.1641 55.9082-16.0156 61.5234-14.9902ZM66.0645-56.25L58.5938-48.6816C64.3555-48.1445 68.5059-46.2891 71.4844-43.3105C79.7852-35.0586 79.7363-23.3887 71.5332-15.1855L55.3223 1.02539C47.0703 9.27734 35.4492 9.27734 27.2461 1.02539C18.9453-7.27539 18.9941-18.8477 27.1973-27.0508L35.4492-35.3516C33.8867-38.916 33.3984-43.3105 34.2285-47.168L20.2637-33.2031C8.25195-21.2402 8.20312-4.19922 20.3125 7.91016C32.4707 20.0684 49.4629 19.9707 61.4746 8.00781L78.4668-9.0332C90.4785-21.0449 90.5273-38.0859 78.418-50.1953C75.5859-53.0273 71.7285-55.1758 66.0645-56.25Z"/>
  </g>
  <g id="Regular-M" transform="matrix(1 0 0 1 1386.83 1126)">
   <path d="M62.4023-15.5273L68.8965-22.1191C62.4512-22.6074 58.252-24.5605 55.0781-27.7344C46.5332-36.2793 46.582-48.3887 55.0293-56.8359L70.9473-72.7539C79.4922-81.25 91.5039-81.2988 100.049-72.7539C108.594-64.209 108.496-52.1484 100.049-43.7012L90.4785-34.1309C91.8457-31.0059 92.1387-27.3926 91.6504-24.2188L106.006-38.5254C117.676-50.2441 117.773-66.7969 105.957-78.6621C94.0918-90.5273 77.4902-90.4297 65.7715-78.7109L49.1211-62.0117C37.4023-50.293 37.3047-33.6914 49.1699-21.875C52.2461-18.7988 56.1523-16.6016 62.4023-15.5273ZM63.623-55.7617L57.1289-49.1699C63.5742-48.6328 67.7734-46.7285 70.9473-43.5547C79.4922-35.0098 79.4434-22.9004 70.9961-14.4531L55.0293 1.46484C46.5332 9.96094 34.5215 10.0098 25.9766 1.51367C17.4316-7.08008 17.4805-19.0918 25.9766-27.5879L35.5469-37.1582C34.1797-40.2344 33.8379-43.8965 34.375-47.0703L20.0195-32.7637C8.34961-21.0449 8.25195-4.44336 20.0684 7.37305C31.9336 19.2383 48.5352 19.1406 60.2051 7.4707L76.9043-9.27734C88.623-20.9961 88.7207-37.5977 76.8555-49.4141C73.7793-52.4902 69.873-54.6875 63.623-55.7617Z"/>
  </g>
  <g id="Light-M" transform="matrix(1 0 0 1 1091.37 1126)">
   <path d="M63.916-16.0156L69.043-21.1914C61.6699-21.1914 56.8848-23.2422 53.0762-27.002C44.2871-35.8398 44.3359-48.4863 53.1738-57.2754L69.0918-73.1445C77.9785-81.9824 90.5762-82.0801 99.3164-73.291C108.154-64.4531 108.057-51.9043 99.2188-43.0664L87.793-31.6406C88.7695-29.3457 89.0625-26.4648 88.5254-23.8281L103.857-39.1602C115.088-50.3906 115.234-66.4062 103.857-77.7832C92.3828-89.209 76.416-89.0625 65.2344-77.832L48.5352-61.1328C37.3535-49.9512 37.1582-33.9355 48.584-22.5098C52.2461-18.8965 56.6895-16.6016 63.916-16.0156ZM59.668-55.2734L54.4922-50.1465C61.8652-50.0977 66.6992-48.0469 70.459-44.2871C79.248-35.498 79.1992-22.8516 70.3613-14.0137L54.4434 1.85547C45.6055 10.6934 33.0078 10.791 24.2188 2.00195C15.3809-6.83594 15.4785-19.4336 24.3164-28.2227L35.7422-39.6973C34.7656-41.9434 34.4727-44.8242 35.0586-47.4609L19.6777-32.1289C8.44727-20.8984 8.30078-4.93164 19.7266 6.49414C31.1523 17.9199 47.1191 17.7246 58.3496 6.54297L75-10.1562C86.2305-21.3867 86.377-37.3535 74.9512-48.7793C71.3379-52.3926 66.8457-54.6875 59.668-55.2734Z"/>
  </g>
  <g id="Thin-M" transform="matrix(1 0 0 1 796.266 1126)">
   <path d="M65.918-16.6504L69.2383-19.9219C60.6445-19.3359 55.0293-21.5332 50.4883-26.0742C41.3086-35.2051 41.4551-48.584 50.7324-57.8613L66.6504-73.7305C75.9766-82.959 89.2578-83.1055 98.3887-74.0234C107.568-64.8438 107.471-51.5137 98.1445-42.1875L84.2285-28.2715C84.7656-27.1484 84.9609-25.2441 84.3262-23.291L101.074-40.0391C111.67-50.6348 111.865-65.8203 101.074-76.6113C90.1855-87.5 75-87.207 64.4531-76.709L47.8027-60.0098C37.2559-49.4629 37.0117-34.2285 47.8516-23.4375C52.1973-19.043 57.4707-16.5527 65.918-16.6504ZM54.3945-54.6875L51.0254-51.3672C59.6191-52.002 65.2832-49.7559 69.7754-45.2637C78.9551-36.084 78.8574-22.7051 69.5312-13.4766L53.6621 2.39258C44.3359 11.6699 31.0059 11.8164 21.875 2.68555C12.6953-6.49414 12.8418-19.8242 22.1191-29.1016L36.0352-43.0176C35.5469-44.1895 35.3027-46.0938 35.9375-48.0469L19.1895-31.2988C8.64258-20.7031 8.39844-5.51758 19.2383 5.32227C30.0781 16.1621 45.3125 15.918 55.8105 5.37109L72.4609-11.2793C83.0566-21.875 83.252-37.0605 72.4609-47.9004C68.0664-52.2949 62.8418-54.7363 54.3945-54.6875Z"/>
  </g>
  <g id="Ultralight-M" transform="matrix(1 0 0 1 500.409 1126)">
   <path d="M66.9434-16.9434L69.3359-19.3359C60.1562-18.3594 54.0527-20.6543 49.1699-25.5371C39.7949-34.9121 39.9414-48.6816 49.5117-58.1543L65.3809-73.9746C74.9512-83.4961 88.623-83.6914 97.9004-74.3652C107.275-64.9902 107.178-51.3184 97.6074-41.748L82.4219-26.5625C82.7148-26.0254 82.9102-24.6094 82.2266-23.0469L99.6582-40.4785C109.912-50.7324 110.156-65.5273 99.6582-76.0254C89.0625-86.6211 74.2676-86.2793 64.0625-76.0742L47.4609-59.4727C37.207-49.2188 36.9141-34.4238 47.4609-23.877C52.1973-19.1406 57.8613-16.5527 66.9434-16.9434ZM51.6602-54.3457L49.2676-52.002C58.4961-52.9785 64.5508-50.6836 69.4336-45.752C78.8086-36.4258 78.6621-22.6562 69.1406-13.1836L53.2227 2.63672C43.7012 12.1582 29.9805 12.3535 20.7031 3.02734C11.3281-6.34766 11.4746-20.0195 21.0449-29.541L36.2305-44.7266C35.9375-45.3125 35.7422-46.7285 36.4258-48.291L18.9941-30.8594C8.69141-20.6055 8.44727-5.81055 18.9941 4.6875C29.541 15.2832 44.3359 14.9414 54.541 4.78516L71.1914-11.8652C81.4453-22.1191 81.6895-36.9141 71.1914-47.4609C66.4062-52.1973 60.791-54.7852 51.6602-54.3457Z"/>
  </g>
  <g id="Black-S" transform="matrix(1 0 0 1 2880.67 696)">
   <path d="M45.1172-17.5293L54.4922-26.8066C52.1973-27.2461 49.1211-28.5645 47.5586-30.127C41.9922-35.6934 41.9434-43.2617 47.4609-48.7793L61.2305-62.5C66.748-68.0176 74.3164-67.9688 79.834-62.4512C85.4004-56.8848 85.4492-49.3164 79.9316-43.7988L77.9785-41.8457C79.9316-37.3535 81.0059-31.2012 79.0527-25.9277L88.8184-35.5469C99.3652-45.8984 99.2188-60.8887 88.7695-71.3379C78.2715-81.8359 63.4277-81.8359 52.9785-71.3867L38.5742-57.0312C28.125-46.582 28.1738-31.6895 38.623-21.2402C40.0391-19.8242 42.9199-18.1641 45.1172-17.5293ZM60.3516-53.3203L50.9766-44.043C53.2715-43.6035 56.3477-42.2852 57.9102-40.7227C63.4766-35.1562 63.5254-27.5879 58.0078-22.0703L44.2383-8.34961C38.7207-2.83203 31.1523-2.88086 25.6348-8.39844C20.0684-13.9648 20.0195-21.5332 25.5371-27.0508L27.4902-29.0039C25.5371-33.4961 24.4629-39.6484 26.416-44.9219L16.6504-35.3027C6.10352-24.9512 6.25-9.96094 16.6992 0.488281C27.1973 10.9863 42.041 10.9863 52.4902 0.537109L66.8945-13.8184C77.3438-24.2676 77.2949-39.1602 66.8457-49.6094C65.4297-51.0254 62.5488-52.6855 60.3516-53.3203Z"/>
  </g>
  <g id="Heavy-S" transform="matrix(1 0 0 1 2584.61 696)">
   <path d="M45.8008-18.0176L54.3457-26.4648C51.5137-26.9531 48.4375-28.3203 46.7285-30.0293C40.918-35.8398 40.918-43.7988 46.6309-49.5117L60.1074-62.9395C65.8691-68.7012 73.7793-68.6523 79.541-62.8906C85.3516-57.0801 85.4004-49.1699 79.6387-43.4082L76.6113-40.3809C78.3691-36.2793 79.248-30.8105 77.6855-26.123L87.6953-35.9863C97.9492-46.1426 97.8516-60.7422 87.6465-70.9473C77.3926-81.2012 62.8906-81.2012 52.6855-70.9961L38.623-56.9336C28.418-46.7285 28.418-32.2266 38.6719-21.9727C40.2344-20.4102 43.0664-18.75 45.8008-18.0176ZM58.3008-52.8809L49.8047-44.4336C52.6367-43.9453 55.6641-42.5781 57.4219-40.8691C63.1836-35.0586 63.2324-27.0996 57.5195-21.3867L44.043-7.95898C38.2812-2.19727 30.3223-2.24609 24.5605-8.00781C18.75-13.8184 18.75-21.7285 24.4629-27.4902L27.5391-30.5176C25.7324-34.6191 24.8535-40.0879 26.4648-44.7754L16.4551-34.9121C6.20117-24.7559 6.29883-10.2051 16.5039 0.0488281C26.7578 10.3027 41.2598 10.3027 51.4648 0.0976562L65.5273-13.9648C75.7324-24.1699 75.7324-38.6719 65.4785-48.9258C63.916-50.4883 61.0352-52.1484 58.3008-52.8809Z"/>
  </g>
  <g id="Bold-S" transform="matrix(1 0 0 1 2288.64 696)">
   <path d="M46.6309-18.5547L54.1992-26.123C50.7324-26.6602 47.7051-28.0273 45.8008-29.9316C39.7461-35.9863 39.7461-44.3848 45.7031-50.3418L58.8379-63.4766C64.8438-69.4824 73.2422-69.4336 79.248-63.4277C85.3516-57.3242 85.3516-48.9746 79.3457-42.9688L75.0977-38.7207C76.6602-35.0586 77.3438-30.3711 76.1719-26.3672L86.4258-36.5234C96.3867-46.3867 96.3379-60.5469 86.377-70.5078C76.3672-80.5176 62.3047-80.4688 52.3926-70.5566L38.623-56.8359C28.7109-46.875 28.7109-32.8125 38.6719-22.8516C40.4785-21.0449 43.3105-19.3848 46.6309-18.5547ZM56.0547-52.4414L48.4863-44.873C51.9531-44.3359 54.9805-42.9688 56.8359-41.0645C62.8906-35.0098 62.9395-26.6113 56.9336-20.6055L43.7988-7.51953C37.793-1.51367 29.4434-1.51367 23.3887-7.56836C17.334-13.623 17.334-21.9727 23.3398-27.9785L27.5879-32.2754C26.0254-35.9375 25.3418-40.625 26.4648-44.6289L16.2598-34.4727C6.25-24.5605 6.29883-10.4492 16.3086-0.439453C26.3184 9.52148 40.3809 9.52148 50.293-0.390625L64.0137-14.1602C73.9258-24.0723 73.9746-38.1836 63.9648-48.1445C62.207-49.9023 59.375-51.5625 56.0547-52.4414Z"/>
  </g>
  <g id="Semibold-S" transform="matrix(1 0 0 1 1992.44 696)">
   <path d="M47.168-18.8965L54.0527-25.8301C50.1953-26.416 47.2168-27.832 45.166-29.834C38.9648-36.084 38.916-44.7754 45.0684-50.9277L58.0078-63.8184C64.1602-69.9707 72.8516-69.9707 79.0527-63.7695C85.3027-57.5195 85.3027-48.877 79.1504-42.6758L74.0234-37.5977C75.4883-34.2285 76.0254-30.0781 75.1465-26.5137L85.5469-36.8652C95.3125-46.582 95.3125-60.4004 85.498-70.2148C75.6836-80.0293 61.9141-79.9805 52.1973-70.2637L38.6719-56.7383C28.9551-47.0215 28.9062-33.2031 38.7207-23.3887C40.625-21.4844 43.457-19.873 47.168-18.8965ZM54.4922-52.0996L47.6074-45.166C51.4648-44.5801 54.4434-43.2129 56.4941-41.1621C62.6953-34.9609 62.7441-26.2695 56.543-20.1172L43.6523-7.22656C37.5-1.02539 28.8086-1.02539 22.6074-7.22656C16.3574-13.5254 16.3574-22.168 22.5098-28.3203L27.6367-33.4473C26.1719-36.8164 25.6348-40.9668 26.5137-44.4824L16.1133-34.1309C6.34766-24.4141 6.34766-10.5957 16.1621-0.78125C25.9766 9.0332 39.7461 8.98438 49.4629-0.732422L62.9883-14.2578C72.7051-24.0234 72.7539-37.793 62.9395-47.6074C61.0352-49.5117 58.2031-51.1719 54.4922-52.0996Z"/>
  </g>
  <g id="Medium-S" transform="matrix(1 0 0 1 1696.12 696)">
   <path d="M47.5586-19.1895L54.0039-25.6348C49.8047-26.2695 46.8262-27.6855 44.6777-29.7852C38.3301-36.1328 38.3301-45.0684 44.6289-51.3672L57.3242-64.0625C63.6719-70.4102 72.5586-70.4102 78.9062-64.0625C85.3027-57.6172 85.2539-48.7793 78.9551-42.4805L73.2422-36.7188C74.5605-33.5938 75-29.834 74.3652-26.6602L84.9121-37.1582C94.4824-46.7285 94.5312-60.3027 84.8633-69.9707C75.1465-79.6875 61.6211-79.6387 52.002-70.0195L38.6719-56.6895C29.1016-47.1191 29.0527-33.5449 38.7207-23.8281C40.7715-21.8262 43.5547-20.2148 47.5586-19.1895ZM53.3203-51.8555L46.9238-45.4102C51.0742-44.7754 54.1016-43.3594 56.2012-41.2598C62.5488-34.9121 62.5488-25.9766 56.2988-19.6777L43.5547-6.98242C37.207-0.634766 28.3691-0.683594 21.9727-7.03125C15.5762-13.4277 15.625-22.3145 21.9238-28.5645L27.6855-34.3262C26.3184-37.4512 25.8789-41.2109 26.5137-44.4336L16.0156-33.8867C6.39648-24.3164 6.34766-10.7422 16.0645-1.07422C25.7324 8.59375 39.3066 8.54492 48.877-1.02539L62.207-14.3555C71.7773-23.9746 71.8262-37.5488 62.1582-47.2168C60.1562-49.2188 57.3242-50.8301 53.3203-51.8555Z"/>
  </g>
  <g id="Regular-S" transform="matrix(1 0 0 1 1399.89 696)">
   <path d="M48.1445-19.5801L53.8574-25.3906C49.2676-26.0254 46.2891-27.4902 44.0918-29.7363C37.5488-36.2793 37.5488-45.459 43.9941-51.9043L56.4941-64.4043C62.9883-70.8984 72.168-70.9473 78.7109-64.4043C85.2539-57.8125 85.2051-48.6328 78.7598-42.1875L72.168-35.5957C73.3887-32.7637 73.6816-29.541 73.3398-26.8066L84.0332-37.5C93.457-46.9238 93.5059-60.2051 83.9844-69.6777C74.5117-79.1992 61.1816-79.1504 51.8066-69.7266L38.7207-56.5918C29.3457-47.2168 29.248-33.9355 38.7695-24.4141C40.918-22.2656 43.7012-20.6543 48.1445-19.5801ZM51.7578-51.5625L45.9961-45.7031C50.5859-45.0684 53.5645-43.6035 55.8105-41.3574C62.3535-34.8145 62.3535-25.6348 55.9082-19.1895L43.4082-6.68945C36.9141-0.195312 27.7344-0.195312 21.1914-6.68945C14.5996-13.2812 14.6484-22.4609 21.1426-28.9062L27.7344-35.498C26.5137-38.3301 26.2207-41.5527 26.5625-44.2871L15.8691-33.5938C6.44531-24.2188 6.39648-10.8887 15.918-1.41602C25.3906 8.10547 38.6719 8.05664 48.0957-1.36719L61.1816-14.502C70.5566-23.877 70.6055-37.1582 61.1328-46.6797C58.9844-48.8281 56.2012-50.4395 51.7578-51.5625Z"/>
  </g>
  <g id="Light-S" transform="matrix(1 0 0 1 1104.26 696)">
   <path d="M49.4629-19.9707L54.0039-24.5605C48.6328-24.8047 45.0684-26.3184 42.334-29.0527C35.5469-35.8398 35.5957-45.5566 42.3828-52.3438L54.834-64.7949C61.6699-71.582 71.2891-71.6309 78.0762-64.8438C84.9121-58.0566 84.8145-48.3887 78.0762-41.6016L69.8242-33.3496C70.7031-31.25 70.9473-28.7109 70.5566-26.4648L82.1777-38.0859C91.1621-47.0703 91.2598-59.8145 82.1289-68.8965C73.0469-78.0273 60.2539-77.9297 51.3184-68.9453L38.2324-55.8594C29.2969-46.875 29.1504-34.1309 38.2812-25C40.918-22.3633 44.1895-20.6543 49.4629-19.9707ZM48.2422-51.123L43.7012-46.5332C49.1211-46.3379 52.6367-44.7754 55.3711-42.041C62.1582-35.2539 62.1582-25.5371 55.3711-18.7988L42.8711-6.34766C36.084 0.488281 26.416 0.537109 19.6777-6.25C12.8418-13.0859 12.8906-22.7051 19.6777-29.4922L27.9297-37.7441C27.002-39.8438 26.7578-42.3828 27.1973-44.6777L15.5762-33.0566C6.5918-24.0723 6.49414-11.3281 15.5762-2.19727C24.707 6.93359 37.4512 6.78711 46.4355-2.14844L59.4727-15.2344C68.457-24.2188 68.5547-36.9629 59.4727-46.0938C56.8359-48.7305 53.5156-50.4883 48.2422-51.123Z"/>
  </g>
  <g id="Thin-S" transform="matrix(1 0 0 1 808.986 696)">
   <path d="M51.2695-20.5566L54.248-23.4863C47.7539-23.1445 43.457-24.8535 40.0879-28.2227C32.959-35.3516 33.0078-45.6543 40.2344-52.832L52.6855-65.2832C59.9121-72.4609 70.2148-72.5586 77.2949-65.4785C84.4238-58.3496 84.3262-48.0469 77.0996-40.8691L66.6992-30.4199C67.1875-29.2969 67.3828-27.6367 66.8945-25.9766L79.7363-38.8184C88.1348-47.2168 88.2812-59.3262 79.7363-67.8711C71.0938-76.5137 59.0332-76.3184 50.6836-67.9199L37.5977-54.8828C29.1992-46.4844 29.0527-34.375 37.6465-25.8301C40.918-22.5098 44.873-20.6055 51.2695-20.5566ZM43.6035-50.5859L40.6738-47.6562C47.168-47.998 51.416-46.2891 54.834-42.9199C61.9141-35.791 61.8652-25.4395 54.6387-18.3105L42.1875-5.85938C34.9609 1.31836 24.707 1.41602 17.627-5.66406C10.498-12.793 10.5469-23.0469 17.7734-30.2734L28.2227-40.7227C27.6855-41.7969 27.5391-43.5059 28.0273-45.166L15.1367-32.3242C6.73828-23.877 6.5918-11.8164 15.1855-3.22266C23.7793 5.37109 35.8398 5.17578 44.2383-3.17383L57.2754-16.2598C65.6738-24.6582 65.8203-36.7188 57.2754-45.3125C53.9551-48.6328 50-50.4883 43.6035-50.5859Z"/>
  </g>
  <g id="Ultralight-S" transform="matrix(1 0 0 1 513.007 696)">
   <path d="M52.1973-20.8496L54.3457-22.9492C47.2656-22.2656 42.627-24.0723 38.916-27.7832C31.6406-35.0586 31.6895-45.752 39.1113-53.125L51.5625-65.5273C58.9844-72.9004 69.6289-73.0469 76.8555-65.8203C84.1309-58.4961 84.0332-47.9004 76.6602-40.4785L65.0879-28.9062C65.3809-28.3203 65.5273-27.0996 64.9902-25.7324L78.4668-39.209C86.6211-47.3633 86.7676-59.0332 78.4668-67.334C70.1172-75.7324 58.3984-75.4883 50.3418-67.3828L37.3047-54.3457C29.1504-46.2402 29.0039-34.5215 37.3047-26.2207C40.918-22.6074 45.2637-20.6055 52.1973-20.8496ZM41.2109-50.293L39.1113-48.1934C46.1426-48.877 50.7812-47.0703 54.541-43.3594C61.8164-36.084 61.7188-25.3906 54.2969-18.0176L41.8457-5.61523C34.4238 1.75781 23.7793 1.9043 16.5527-5.32227C9.27734-12.6465 9.375-23.2422 16.7969-30.6641L28.3691-42.2363C28.0762-42.8223 27.8809-44.043 28.418-45.4102L14.9414-31.9336C6.83594-23.7793 6.64062-12.1094 14.9414-3.75977C23.291 4.58984 35.0098 4.3457 43.1152-3.71094L56.1523-16.7969C64.2578-24.9023 64.4531-36.6211 56.1523-44.9219C52.4902-48.5352 48.1934-50.5371 41.2109-50.293Z"/>
  </g>
 </g>
</svg>
