<?xml version="1.0" encoding="UTF-8"?>
<!--Generator: Apple Native CoreSVG 149-->
<!DOCTYPE svg
PUBLIC "-//W3C//DTD SVG 1.1//EN"
       "http://www.w3.org/Graphics/SVG/1.1/DTD/svg11.dtd">
<svg version="1.1" xmlns="http://www.w3.org/2000/svg" xmlns:xlink="http://www.w3.org/1999/xlink" width="3300" height="2200">
 <!--glyph: "uni1002A7.medium", point size: 100.000000, font version: "Version 16.0d18e1", template writer version: "8"-->
 <g id="Notes">
  <rect height="2200" id="artboard" style="fill:white;opacity:1" width="3300" x="0" y="0"/>
  <line id="" style="fill:none;stroke:black;opacity:1;stroke-width:0.5;" x1="263" x2="3036" y1="292" y2="292"/>
  <text style="stroke:none;fill:black;font-family:-apple-system,&quot;SF Pro Display&quot;,&quot;SF Pro Text&quot;,Helvetica,sans-serif;font-weight:bold;" transform="matrix(1 0 0 1 263 322)">Weight/Scale Variations</text>
  <text style="stroke:none;fill:black;font-family:-apple-system,&quot;SF Pro Display&quot;,&quot;SF Pro Text&quot;,Helvetica,sans-serif;text-anchor:middle;" transform="matrix(1 0 0 1 559.711 322)">Ultralight</text>
  <text style="stroke:none;fill:black;font-family:-apple-system,&quot;SF Pro Display&quot;,&quot;SF Pro Text&quot;,Helvetica,sans-serif;text-anchor:middle;" transform="matrix(1 0 0 1 856.422 322)">Thin</text>
  <text style="stroke:none;fill:black;font-family:-apple-system,&quot;SF Pro Display&quot;,&quot;SF Pro Text&quot;,Helvetica,sans-serif;text-anchor:middle;" transform="matrix(1 0 0 1 1153.13 322)">Light</text>
  <text style="stroke:none;fill:black;font-family:-apple-system,&quot;SF Pro Display&quot;,&quot;SF Pro Text&quot;,Helvetica,sans-serif;text-anchor:middle;" transform="matrix(1 0 0 1 1449.84 322)">Regular</text>
  <text style="stroke:none;fill:black;font-family:-apple-system,&quot;SF Pro Display&quot;,&quot;SF Pro Text&quot;,Helvetica,sans-serif;text-anchor:middle;" transform="matrix(1 0 0 1 1746.56 322)">Medium</text>
  <text style="stroke:none;fill:black;font-family:-apple-system,&quot;SF Pro Display&quot;,&quot;SF Pro Text&quot;,Helvetica,sans-serif;text-anchor:middle;" transform="matrix(1 0 0 1 2043.27 322)">Semibold</text>
  <text style="stroke:none;fill:black;font-family:-apple-system,&quot;SF Pro Display&quot;,&quot;SF Pro Text&quot;,Helvetica,sans-serif;text-anchor:middle;" transform="matrix(1 0 0 1 2339.98 322)">Bold</text>
  <text style="stroke:none;fill:black;font-family:-apple-system,&quot;SF Pro Display&quot;,&quot;SF Pro Text&quot;,Helvetica,sans-serif;text-anchor:middle;" transform="matrix(1 0 0 1 2636.69 322)">Heavy</text>
  <text style="stroke:none;fill:black;font-family:-apple-system,&quot;SF Pro Display&quot;,&quot;SF Pro Text&quot;,Helvetica,sans-serif;text-anchor:middle;" transform="matrix(1 0 0 1 2933.4 322)">Black</text>
  <line id="" style="fill:none;stroke:black;opacity:1;stroke-width:0.5;" x1="263" x2="3036" y1="1903" y2="1903"/>
  <g id="" transform="matrix(1 0 0 1 263 1933)">
   <path d="M9.24805 0.830078C13.5547 0.830078 17.1387-2.74414 17.1387-7.05078C17.1387-11.3574 13.5449-14.9316 9.23828-14.9316C4.94141-14.9316 1.36719-11.3574 1.36719-7.05078C1.36719-2.74414 4.95117 0.830078 9.24805 0.830078ZM9.24805-0.654297C5.70312-0.654297 2.87109-3.49609 2.87109-7.05078C2.87109-10.6055 5.69336-13.4473 9.23828-13.4473C12.793-13.4473 15.6348-10.6055 15.6445-7.05078C15.6543-3.49609 12.8027-0.654297 9.24805-0.654297ZM6.39648-6.31836L8.50586-6.31836L8.50586-4.19922C8.50586-3.75977 8.79883-3.45703 9.22852-3.45703C9.67773-3.45703 9.9707-3.75977 9.9707-4.19922L9.9707-6.31836L12.0996-6.31836C12.5391-6.31836 12.8418-6.61133 12.8418-7.04102C12.8418-7.48047 12.5391-7.7832 12.0996-7.7832L9.9707-7.7832L9.9707-9.89258C9.9707-10.3418 9.67773-10.6445 9.22852-10.6445C8.79883-10.6445 8.50586-10.3418 8.50586-9.89258L8.50586-7.7832L6.39648-7.7832C5.94727-7.7832 5.64453-7.48047 5.64453-7.04102C5.64453-6.61133 5.94727-6.31836 6.39648-6.31836Z"/>
  </g>
  <g id="" transform="matrix(1 0 0 1 281.506 1933)">
   <path d="M11.709 2.91016C17.1582 2.91016 21.6699-1.61133 21.6699-7.05078C21.6699-12.5 17.1484-17.0117 11.6992-17.0117C6.25977-17.0117 1.74805-12.5 1.74805-7.05078C1.74805-1.61133 6.26953 2.91016 11.709 2.91016ZM11.709 1.25C7.09961 1.25 3.41797-2.44141 3.41797-7.05078C3.41797-11.6602 7.08984-15.3516 11.6992-15.3516C16.3086-15.3516 20-11.6602 20.0098-7.05078C20.0195-2.44141 16.3184 1.25 11.709 1.25ZM7.98828-6.23047L10.8789-6.23047L10.8789-3.32031C10.8789-2.83203 11.2109-2.5 11.6895-2.5C12.1777-2.5 12.5195-2.83203 12.5195-3.32031L12.5195-6.23047L15.4297-6.23047C15.918-6.23047 16.25-6.5625 16.25-7.04102C16.25-7.5293 15.918-7.87109 15.4297-7.87109L12.5195-7.87109L12.5195-10.7617C12.5195-11.2695 12.1777-11.6016 11.6895-11.6016C11.2109-11.6016 10.8789-11.2598 10.8789-10.7617L10.8789-7.87109L7.98828-7.87109C7.48047-7.87109 7.14844-7.5293 7.14844-7.04102C7.14844-6.5625 7.49023-6.23047 7.98828-6.23047Z"/>
  </g>
  <g id="" transform="matrix(1 0 0 1 304.924 1933)">
   <path d="M14.9707 5.66406C21.9336 5.66406 27.6953-0.0976562 27.6953-7.05078C27.6953-14.0137 21.9238-19.7754 14.9609-19.7754C8.00781-19.7754 2.25586-14.0137 2.25586-7.05078C2.25586-0.0976562 8.01758 5.66406 14.9707 5.66406ZM14.9707 3.84766C8.93555 3.84766 4.08203-1.01562 4.08203-7.05078C4.08203-13.0957 8.92578-17.9492 14.9609-17.9492C21.0059-17.9492 25.8594-13.0957 25.8691-7.05078C25.8789-1.01562 21.0156 3.84766 14.9707 3.84766ZM10.0586-6.14258L14.0625-6.14258L14.0625-2.12891C14.0625-1.5918 14.4336-1.2207 14.9512-1.2207C15.4883-1.2207 15.8594-1.5918 15.8594-2.12891L15.8594-6.14258L19.8828-6.14258C20.4102-6.14258 20.791-6.51367 20.791-7.03125C20.791-7.56836 20.4199-7.94922 19.8828-7.94922L15.8594-7.94922L15.8594-11.9531C15.8594-12.5098 15.4883-12.8809 14.9512-12.8809C14.4336-12.8809 14.0625-12.5 14.0625-11.9531L14.0625-7.94922L10.0586-7.94922C9.50195-7.94922 9.13086-7.56836 9.13086-7.03125C9.13086-6.51367 9.51172-6.14258 10.0586-6.14258Z"/>
  </g>
  <text style="stroke:none;fill:black;font-family:-apple-system,&quot;SF Pro Display&quot;,&quot;SF Pro Text&quot;,Helvetica,sans-serif;font-weight:bold;" transform="matrix(1 0 0 1 263 1953)">Design Variations</text>
  <text style="stroke:none;fill:black;font-family:-apple-system,&quot;SF Pro Display&quot;,&quot;SF Pro Text&quot;,Helvetica,sans-serif;" transform="matrix(1 0 0 1 263 1971)">Symbols are supported in up to nine weights and three scales.</text>
  <text style="stroke:none;fill:black;font-family:-apple-system,&quot;SF Pro Display&quot;,&quot;SF Pro Text&quot;,Helvetica,sans-serif;" transform="matrix(1 0 0 1 263 1989)">For optimal layout with text and other symbols, vertically align</text>
  <text style="stroke:none;fill:black;font-family:-apple-system,&quot;SF Pro Display&quot;,&quot;SF Pro Text&quot;,Helvetica,sans-serif;" transform="matrix(1 0 0 1 263 2007)">symbols with the adjacent text.</text>
  <line id="" style="fill:none;stroke:#00AEEF;stroke-width:0.5;opacity:1.0;" x1="776" x2="776" y1="1919" y2="1933"/>
  <g id="" transform="matrix(1 0 0 1 776 1933)">
   <path d="M3.31055 0.126953C3.82812 0.126953 4.08203-0.0683594 4.26758-0.605469L5.52734-4.0625L11.2891-4.0625L12.5488-0.605469C12.7344-0.0683594 12.9883 0.126953 13.4961 0.126953C14.0137 0.126953 14.3457-0.185547 14.3457-0.673828C14.3457-0.839844 14.3164-0.986328 14.2383-1.20117L9.6582-13.3887C9.43359-13.9941 9.0332-14.2871 8.4082-14.2871C7.80273-14.2871 7.39258-13.9941 7.17773-13.3984L2.59766-1.19141C2.51953-0.976562 2.49023-0.830078 2.49023-0.664062C2.49023-0.175781 2.80273 0.126953 3.31055 0.126953ZM6.00586-5.53711L8.37891-12.1094L8.42773-12.1094L10.8008-5.53711Z"/>
  </g>
  <line id="" style="fill:none;stroke:#00AEEF;stroke-width:0.5;opacity:1.0;" x1="792.836" x2="792.836" y1="1919" y2="1933"/>
  <text style="stroke:none;fill:black;font-family:-apple-system,&quot;SF Pro Display&quot;,&quot;SF Pro Text&quot;,Helvetica,sans-serif;font-weight:bold;" transform="matrix(1 0 0 1 776 1953)">Margins</text>
  <text style="stroke:none;fill:black;font-family:-apple-system,&quot;SF Pro Display&quot;,&quot;SF Pro Text&quot;,Helvetica,sans-serif;" transform="matrix(1 0 0 1 776 1971)">Leading and trailing margins on the left and right side of each symbol</text>
  <text style="stroke:none;fill:black;font-family:-apple-system,&quot;SF Pro Display&quot;,&quot;SF Pro Text&quot;,Helvetica,sans-serif;" transform="matrix(1 0 0 1 776 1989)">can be adjusted by modifying the x-location of the margin guidelines.</text>
  <text style="stroke:none;fill:black;font-family:-apple-system,&quot;SF Pro Display&quot;,&quot;SF Pro Text&quot;,Helvetica,sans-serif;" transform="matrix(1 0 0 1 776 2007)">Modifications are automatically applied proportionally to all</text>
  <text style="stroke:none;fill:black;font-family:-apple-system,&quot;SF Pro Display&quot;,&quot;SF Pro Text&quot;,Helvetica,sans-serif;" transform="matrix(1 0 0 1 776 2025)">scales and weights.</text>
  <g id="" transform="matrix(1 0 0 1 1289 1933)">
   <path d="M2.8418 1.86523L4.54102 3.57422C5.40039 4.44336 6.38672 4.38477 7.31445 3.35938L17.4902-7.85156C17.7539-7.76367 18.0273-7.7832 18.3398-7.8418L19.4043-8.03711L20.0684-7.36328L20.0293-6.80664C19.9902-6.30859 20.1172-5.92773 20.6055-5.44922L21.3672-4.70703C21.8457-4.22852 22.4609-4.19922 22.9297-4.66797L25.8398-7.58789C26.3086-8.05664 26.2891-8.65234 25.8105-9.13086L25.0391-9.89258C24.5605-10.3711 24.1895-10.5273 23.7109-10.4883L23.1348-10.4395L22.4902-11.0742L22.7344-12.1973C22.8613-12.7637 22.7051-13.2031 22.1191-13.7891L19.9219-15.9766C16.582-19.2969 12.1484-19.2188 9.25781-16.3281C8.83789-15.918 8.80859-15.3418 9.04297-14.9512C9.27734-14.5898 9.73633-14.3555 10.3809-14.5215C11.8457-14.8633 13.3691-14.9219 14.7949-13.9844L14.209-12.5293C14.0137-12.0508 13.9844-11.6504 14.1113-11.2891L3.04688-0.898438C2.06055 0.0195312 1.98242 0.996094 2.8418 1.86523ZM10.752-15.957C13.1836-17.7344 16.4746-17.4316 18.7012-15.2051L21.1328-12.793C21.3672-12.5586 21.4062-12.373 21.3379-12.0312L21.0156-10.5469L22.5195-9.0625L23.5059-9.12109C23.7598-9.13086 23.8379-9.11133 24.0332-8.91602L24.6094-8.33984L22.168-5.89844L21.5918-6.47461C21.3965-6.66992 21.3672-6.74805 21.377-7.01172L21.4453-7.98828L19.9512-9.47266L18.4277-9.21875C18.1055-9.15039 17.959-9.17969 17.7148-9.41406L15.7129-11.416C15.459-11.6504 15.4297-11.8164 15.5859-12.1875L16.4648-14.2773C14.9023-15.7324 12.8711-16.3574 10.8398-15.7617C10.6836-15.7227 10.625-15.8496 10.752-15.957ZM5.27344 2.30469L4.10156 1.14258C3.63281 0.683594 3.74023 0.341797 4.14062-0.0195312L14.9512-10.1953L16.416-8.71094L6.42578 2.27539C6.07422 2.67578 5.74219 2.77344 5.27344 2.30469Z"/>
  </g>
  <text style="stroke:none;fill:black;font-family:-apple-system,&quot;SF Pro Display&quot;,&quot;SF Pro Text&quot;,Helvetica,sans-serif;font-weight:bold;" transform="matrix(1 0 0 1 1289 1953)">Exporting</text>
  <text style="stroke:none;fill:black;font-family:-apple-system,&quot;SF Pro Display&quot;,&quot;SF Pro Text&quot;,Helvetica,sans-serif;" transform="matrix(1 0 0 1 1289 1971)">Symbols should be outlined when exporting to ensure the</text>
  <text style="stroke:none;fill:black;font-family:-apple-system,&quot;SF Pro Display&quot;,&quot;SF Pro Text&quot;,Helvetica,sans-serif;" transform="matrix(1 0 0 1 1289 1989)">design is preserved when submitting to Xcode.</text>
  <text id="template-version" style="stroke:none;fill:black;font-family:-apple-system,&quot;SF Pro Display&quot;,&quot;SF Pro Text&quot;,Helvetica,sans-serif;text-anchor:end;" transform="matrix(1 0 0 1 3036 1933)">Template v.2.0</text>
  <text style="stroke:none;fill:black;font-family:-apple-system,&quot;SF Pro Display&quot;,&quot;SF Pro Text&quot;,Helvetica,sans-serif;text-anchor:end;" transform="matrix(1 0 0 1 3036 1951)">Requires Xcode 12 or greater</text>
  <text style="stroke:none;fill:black;font-family:-apple-system,&quot;SF Pro Display&quot;,&quot;SF Pro Text&quot;,Helvetica,sans-serif;text-anchor:end;" transform="matrix(1 0 0 1 3036 1969)">Generated from speaker.wave.2.fill</text>
  <text style="stroke:none;fill:black;font-family:-apple-system,&quot;SF Pro Display&quot;,&quot;SF Pro Text&quot;,Helvetica,sans-serif;text-anchor:end;" transform="matrix(1 0 0 1 3036 1987)">Typeset at 100 points</text>
  <text style="stroke:none;fill:black;font-family:-apple-system,&quot;SF Pro Display&quot;,&quot;SF Pro Text&quot;,Helvetica,sans-serif;" transform="matrix(1 0 0 1 263 726)">Small</text>
  <text style="stroke:none;fill:black;font-family:-apple-system,&quot;SF Pro Display&quot;,&quot;SF Pro Text&quot;,Helvetica,sans-serif;" transform="matrix(1 0 0 1 263 1156)">Medium</text>
  <text style="stroke:none;fill:black;font-family:-apple-system,&quot;SF Pro Display&quot;,&quot;SF Pro Text&quot;,Helvetica,sans-serif;" transform="matrix(1 0 0 1 263 1586)">Large</text>
 </g>
 <g id="Guides">
  <g id="H-reference" style="fill:#27AAE1;stroke:none;" transform="matrix(1 0 0 1 339 696)">
   <path d="M0.976562 0L3.66211 0L12.9883-24.4629L45.752-24.4629L55.127 0L57.7637 0L30.6152-70.459L28.125-70.459ZM29.3457-67.1387L29.4434-67.1387L44.873-26.709L13.8672-26.709Z"/>
  </g>
  <line id="Baseline-S" style="fill:none;stroke:#27AAE1;opacity:1;stroke-width:0.5;" x1="263" x2="3036" y1="696" y2="696"/>
  <line id="Capline-S" style="fill:none;stroke:#27AAE1;opacity:1;stroke-width:0.5;" x1="263" x2="3036" y1="625.541" y2="625.541"/>
  <g id="H-reference" style="fill:#27AAE1;stroke:none;" transform="matrix(1 0 0 1 339 1126)">
   <path d="M0.976562 0L3.66211 0L12.9883-24.4629L45.752-24.4629L55.127 0L57.7637 0L30.6152-70.459L28.125-70.459ZM29.3457-67.1387L29.4434-67.1387L44.873-26.709L13.8672-26.709Z"/>
  </g>
  <line id="Baseline-M" style="fill:none;stroke:#27AAE1;opacity:1;stroke-width:0.5;" x1="263" x2="3036" y1="1126" y2="1126"/>
  <line id="Capline-M" style="fill:none;stroke:#27AAE1;opacity:1;stroke-width:0.5;" x1="263" x2="3036" y1="1055.54" y2="1055.54"/>
  <g id="H-reference" style="fill:#27AAE1;stroke:none;" transform="matrix(1 0 0 1 339 1556)">
   <path d="M0.976562 0L3.66211 0L12.9883-24.4629L45.752-24.4629L55.127 0L57.7637 0L30.6152-70.459L28.125-70.459ZM29.3457-67.1387L29.4434-67.1387L44.873-26.709L13.8672-26.709Z"/>
  </g>
  <line id="Baseline-L" style="fill:none;stroke:#27AAE1;opacity:1;stroke-width:0.5;" x1="263" x2="3036" y1="1556" y2="1556"/>
  <line id="Capline-L" style="fill:none;stroke:#27AAE1;opacity:1;stroke-width:0.5;" x1="263" x2="3036" y1="1485.54" y2="1485.54"/>
  <line id="left-margin" style="fill:none;stroke:#00AEEF;stroke-width:0.5;opacity:1.0;" x1="1380.46" x2="1380.46" y1="1030.79" y2="1150.12"/>
  <line id="right-margin" style="fill:none;stroke:#00AEEF;stroke-width:0.5;opacity:1.0;" x1="1519.23" x2="1519.23" y1="1030.79" y2="1150.12"/>
 </g>
 <g id="Symbols">
  <g id="Black-L" transform="matrix(1 0 0 1 2829.91 1556)">
   <path d="M93.7988 24.0234C100.439 24.0234 105.566 18.9941 105.566 12.3535L105.566-82.6172C105.566-89.209 100.439-94.4336 93.7988-94.4336C89.6484-94.4336 86.4258-92.8711 82.0312-88.7695L57.4219-66.0156C57.0801-65.7715 56.7871-65.625 56.3965-65.625L39.3066-65.625C27.5879-65.625 21.2891-58.9844 21.2891-46.7773L21.2891-23.6328C21.2891-11.4258 27.5879-4.78516 39.3066-4.78516L56.3477-4.78516C56.7383-4.78516 57.0312-4.73633 57.373-4.44336L82.0312 18.5547C86.1328 22.4121 89.4531 24.0234 93.7988 24.0234ZM159.082 14.6973C163.672 17.334 169.287 16.2109 172.217 11.6699C180.859-1.66016 185.693-18.0176 185.693-35.2539C185.693-52.5391 180.908-68.8965 172.217-82.2266C169.287-86.7676 163.672-87.8906 159.082-85.2539C153.857-82.3242 153.223-76.0254 156.689-70.3125C162.793-60.3516 166.309-48.0957 166.309-35.2539C166.309-22.4609 162.744-10.2051 156.689-0.195312C153.271 5.46875 153.857 11.7676 159.082 14.6973ZM127.539-3.4668C132.031-0.732422 137.5-1.80664 140.283-5.71289C146.094-13.8184 149.463-24.2676 149.463-35.2539C149.463-46.2402 146.094-56.6895 140.283-64.8926C137.5-68.7012 132.031-69.8242 127.539-67.041C122.754-64.1113 121.582-58.3984 125.586-51.6113C128.418-47.0215 129.98-41.2109 129.98-35.2539C129.98-29.3457 128.369-23.5352 125.586-18.9453C121.582-12.1094 122.754-6.39648 127.539-3.4668Z"/>
  </g>
  <g id="Heavy-L" transform="matrix(1 0 0 1 2536.91 1556)">
   <path d="M91.9434 22.998C97.9004 22.998 102.393 18.5059 102.393 12.5488L102.393-82.7637C102.393-88.7207 97.9004-93.3594 91.8945-93.3594C88.1348-93.3594 85.2051-91.8945 81.2012-88.1836L55.957-64.6973C55.6152-64.4043 55.2246-64.209 54.7852-64.209L37.3535-64.209C26.5625-64.209 20.6543-58.0566 20.6543-46.7773L20.6543-23.5352C20.6543-12.2559 26.5625-6.10352 37.3535-6.10352L54.7363-6.10352C55.1758-6.10352 55.5664-6.00586 55.9082-5.71289L81.2012 17.9688C84.9121 21.4844 87.9883 22.998 91.9434 22.998ZM154.15 13.0859C158.154 15.4297 162.988 14.4531 165.576 10.498C174.121-2.29492 178.906-18.4082 178.906-35.2539C178.906-52.1484 174.121-68.3105 165.576-81.0547C162.988-85.0098 158.154-85.9375 154.15-83.6426C149.658-81.0547 149.121-75.6836 152.148-70.8008C158.496-60.791 162.109-48.3398 162.109-35.2539C162.109-22.2168 158.447-9.76562 152.148 0.244141C149.17 5.12695 149.658 10.498 154.15 13.0859ZM124.707-4.6875C128.564-2.29492 133.35-3.22266 135.791-6.68945C141.406-14.4043 144.678-24.5605 144.678-35.2539C144.678-45.9961 141.406-56.1035 135.791-63.916C133.35-67.2852 128.564-68.2129 124.707-65.8203C120.557-63.2324 119.58-58.252 123.047-52.4902C126.123-47.7539 127.832-41.6504 127.832-35.2539C127.832-28.9062 126.123-22.8516 123.047-18.0176C119.58-12.3047 120.557-7.27539 124.707-4.6875Z"/>
  </g>
  <g id="Bold-L" transform="matrix(1 0 0 1 2244.35 1556)">
   <path d="M89.8438 21.8262C95.0684 21.8262 98.9258 17.9199 98.9258 12.7441L98.9258-82.959C98.9258-88.1348 95.0684-92.2363 89.7949-92.2363C86.377-92.2363 83.8379-90.8203 80.2246-87.5L54.2969-63.1836C53.9062-62.8418 53.4668-62.6465 52.9297-62.6465L35.1074-62.6465C25.3418-62.6465 19.9219-57.0801 19.9219-46.8262L19.9219-23.4375C19.9219-13.2324 25.3418-7.61719 35.1074-7.61719L52.8809-7.61719C53.418-7.61719 53.9062-7.4707 54.248-7.12891L80.2246 17.2852C83.5938 20.459 86.3281 21.8262 89.8438 21.8262ZM148.633 11.2793C151.904 13.2812 155.957 12.4512 158.154 9.17969C166.504-2.97852 171.338-18.7988 171.338-35.2539C171.338-51.709 166.553-67.6758 158.154-79.7363C155.957-83.0078 151.904-83.7891 148.633-81.8359C145.02-79.6387 144.531-75.2441 147.07-71.2891C153.711-61.3281 157.471-48.584 157.471-35.2539C157.471-21.9238 153.613-9.22852 147.07 0.78125C144.58 4.73633 145.02 9.13086 148.633 11.2793ZM121.582-6.05469C124.756-4.05273 128.711-4.83398 130.811-7.76367C136.133-15.0391 139.355-24.8535 139.355-35.2539C139.355-45.7031 136.133-55.4688 130.811-62.793C128.711-65.7227 124.756-66.4551 121.582-64.4531C118.066-62.2559 117.334-58.0566 120.166-53.5156C123.584-48.4863 125.439-42.0898 125.439-35.2539C125.439-28.418 123.535-22.0703 120.166-16.9922C117.334-12.4512 118.066-8.30078 121.582-6.05469Z"/>
  </g>
  <g id="Semibold-L" transform="matrix(1 0 0 1 1950.49 1556)">
   <path d="M88.4277 20.9961C93.1152 20.9961 96.4844 17.5293 96.4844 12.8906L96.4844-83.0566C96.4844-87.6953 93.1152-91.4551 88.3301-91.4551C85.2051-91.4551 82.9102-90.0879 79.5898-87.0117L53.1738-62.1582C52.7832-61.7676 52.2461-61.6211 51.6113-61.6211L33.5938-61.6211C24.5117-61.6211 19.4336-56.3477 19.4336-46.875L19.4336-23.3398C19.4336-13.8672 24.5117-8.64258 33.5938-8.64258L51.6113-8.64258C52.2461-8.64258 52.7344-8.44727 53.125-8.05664L79.5898 16.8457C82.6172 19.7266 85.2051 20.9961 88.4277 20.9961ZM144.824 10.0098C147.656 11.7676 151.123 11.1328 153.027 8.25195C161.279-3.41797 166.113-19.0918 166.113-35.2539C166.113-51.416 161.328-67.1875 153.027-78.8086C151.123-81.6406 147.656-82.3242 144.824-80.5664C141.797-78.7109 141.357-75 143.555-71.6797C150.391-61.6699 154.248-48.7793 154.248-35.2539C154.248-21.7773 150.293-8.88672 143.555 1.12305C141.406 4.44336 141.797 8.1543 144.824 10.0098ZM119.385-6.98242C122.07-5.27344 125.537-5.9082 127.393-8.54492C132.52-15.4297 135.693-25.0488 135.693-35.2539C135.693-45.459 132.52-55.0293 127.393-62.0117C125.537-64.6484 122.07-65.2832 119.385-63.4766C116.406-61.5723 115.771-57.9102 118.213-54.248C121.826-49.0234 123.779-42.4316 123.779-35.2539C123.779-28.0762 121.777-21.5332 118.213-16.3086C115.82-12.5977 116.406-8.98438 119.385-6.98242Z"/>
  </g>
  <g id="Medium-L" transform="matrix(1 0 0 1 1655.95 1556)">
   <path d="M87.3047 20.4102C91.6016 20.4102 94.6777 17.2363 94.6777 12.9883L94.6777-83.1543C94.6777-87.4023 91.6016-90.8203 87.2559-90.8203C84.2773-90.8203 82.2266-89.5508 79.1016-86.6699L52.2949-61.377C51.9043-60.9863 51.3184-60.791 50.6836-60.791L32.4219-60.791C23.877-60.791 19.043-55.8594 19.043-46.875L19.043-23.291C19.043-14.3555 23.877-9.42383 32.4219-9.42383L50.6348-9.42383C51.3184-9.42383 51.8555-9.22852 52.2949-8.78906L79.1016 16.5039C81.9336 19.1895 84.3262 20.4102 87.3047 20.4102ZM141.943 9.08203C144.385 10.6445 147.412 10.0586 149.121 7.56836C157.324-3.75977 162.158-19.3359 162.158-35.2539C162.158-51.2207 157.373-66.8457 149.121-78.125C147.412-80.6152 144.385-81.2012 141.943-79.5898C139.355-77.9785 138.965-74.7559 140.869-71.9238C147.852-61.9629 151.807-48.9258 151.807-35.2539C151.807-21.6309 147.754-8.64258 140.869 1.41602C139.014 4.24805 139.355 7.42188 141.943 9.08203ZM117.725-7.71484C120.068-6.20117 123.096-6.73828 124.805-9.13086C129.785-15.7715 132.861-25.2441 132.861-35.2539C132.861-45.3125 129.785-54.7363 124.805-61.4258C123.096-63.8184 120.068-64.3555 117.725-62.793C115.137-61.0352 114.6-57.8125 116.699-54.7852C120.508-49.4629 122.51-42.6758 122.51-35.2539C122.51-27.832 120.459-21.1426 116.699-15.7715C114.648-12.6953 115.137-9.52148 117.725-7.71484Z"/>
  </g>
  <g id="Regular-L" transform="matrix(1 0 0 1 1362.08 1556)">
   <path d="M85.8887 19.6289C89.6973 19.6289 92.2852 16.8457 92.2852 13.1348L92.2852-83.3008C92.2852-87.0117 89.6973-90.0391 85.791-90.0391C83.1055-90.0391 81.2988-88.8184 78.4668-86.2305L51.1719-60.3516C50.7324-59.9121 50.1465-59.7168 49.4141-59.7168L30.9082-59.7168C23.0957-59.7168 18.5547-55.1758 18.5547-46.875L18.5547-23.2422C18.5547-14.9902 23.0957-10.4492 30.9082-10.4492L49.4141-10.4492C50.1465-10.4492 50.7324-10.2051 51.1719-9.76562L78.4668 16.0645C81.0059 18.457 83.2031 19.6289 85.8887 19.6289ZM138.135 7.8125C140.137 9.17969 142.627 8.74023 144.043 6.68945C152.148-4.24805 156.982-19.6289 156.982-35.2539C156.982-50.9277 152.197-66.4062 144.043-77.1973C142.627-79.248 140.137-79.7363 138.135-78.3691C136.182-77.002 135.84-74.5117 137.402-72.2656C144.58-62.3047 148.633-49.0723 148.633-35.2539C148.633-21.4355 144.482-8.25195 137.402 1.75781C135.889 3.95508 136.182 6.49414 138.135 7.8125ZM115.576-8.64258C117.432-7.37305 119.971-7.8125 121.387-9.86328C126.221-16.2109 129.248-25.4395 129.248-35.2539C129.248-45.1172 126.221-54.2969 121.387-60.6934C119.971-62.7441 117.432-63.1348 115.576-61.8652C113.428-60.3516 113.086-57.7148 114.746-55.4688C118.75-50 120.898-43.0176 120.898-35.2539C120.898-27.5391 118.701-20.6055 114.746-15.0391C113.135-12.793 113.428-10.2051 115.576-8.64258Z"/>
  </g>
  <g id="Light-L" transform="matrix(1 0 0 1 1067.76 1556)">
   <path d="M84.1797 18.5547C87.5 18.5547 89.5508 16.1621 89.5508 12.9883L89.5508-83.252C89.5508-86.4746 87.5-89.0625 84.1309-89.0625C81.8359-89.0625 80.127-87.9395 77.9297-85.8887L50.0488-59.2285C49.5605-58.6914 48.877-58.4961 47.998-58.4961L28.8574-58.4961C22.0215-58.4961 17.627-54.0527 17.627-46.9727L17.627-22.998C17.627-15.9668 22.0215-11.5234 28.8574-11.5234L47.998-11.5234C48.877-11.5234 49.5605-11.2793 50.0488-10.7422L77.9297 15.625C79.9316 17.5293 81.8848 18.5547 84.1797 18.5547ZM135.449 7.61719C137.012 8.64258 138.867 8.30078 139.99 6.73828C148.096-3.95508 153.125-19.4824 153.125-35.2539C153.125-51.0742 148.096-66.6504 139.99-77.2949C138.867-78.8574 137.012-79.1992 135.449-78.125C133.887-77.0996 133.691-75.1465 134.912-73.4375C142.48-63.1348 146.68-49.6094 146.68-35.2539C146.68-20.9473 142.383-7.42188 134.912 2.92969C133.691 4.63867 133.887 6.54297 135.449 7.61719ZM113.965-8.98438C115.43-7.95898 117.334-8.30078 118.457-9.86328C123.291-16.1621 126.465-25.1465 126.465-35.2539C126.465-45.3613 123.291-54.3457 118.457-60.6934C117.334-62.2559 115.43-62.5488 113.965-61.5234C112.354-60.4004 112.061-58.3496 113.379-56.6406C117.773-50.5371 120.02-43.6035 120.02-35.2539C120.02-26.9531 117.773-20.0195 113.379-13.916C112.109-12.1582 112.354-10.1562 113.965-8.98438Z"/>
  </g>
  <g id="Thin-L" transform="matrix(1 0 0 1 774.22 1556)">
   <path d="M81.9336 17.1875C84.5703 17.1875 85.9375 15.2344 85.9375 12.7441L85.9375-83.2031C85.9375-85.7422 84.5703-87.7441 81.8848-87.7441C80.0781-87.7441 78.5645-86.8164 77.2461-85.498L48.584-57.7148C47.9492-57.0801 47.168-56.8359 46.0938-56.8359L26.123-56.8359C20.6543-56.8359 16.4062-52.6367 16.4062-47.0703L16.4062-22.7051C16.4062-17.2363 20.6543-12.9883 26.123-12.9883L46.0938-12.9883C47.168-12.9883 47.9492-12.6953 48.584-12.0605L77.2461 14.9902C78.5156 16.3086 80.0781 17.1875 81.9336 17.1875ZM131.885 7.27539C132.861 7.95898 133.936 7.76367 134.619 6.83594C142.725-3.61328 147.998-19.2871 147.998-35.2539C147.998-51.2207 142.725-66.9434 134.619-77.3926C133.936-78.2715 132.861-78.4668 131.885-77.832C130.908-77.1484 130.811-76.0742 131.592-75C139.648-64.2578 144.092-50.293 144.092-35.2539C144.092-20.2637 139.648-6.29883 131.592 4.44336C130.811 5.51758 130.908 6.5918 131.885 7.27539ZM111.816-9.42383C112.744-8.78906 113.867-8.93555 114.551-9.86328C119.336-16.0645 122.754-24.8047 122.754-35.2539C122.754-45.7031 119.336-54.4434 114.551-60.6934C113.867-61.5723 112.744-61.7676 111.816-61.1328C110.889-60.4492 110.693-59.2285 111.475-58.2031C116.504-51.3184 118.848-44.3848 118.848-35.2539C118.848-26.1719 116.504-19.2383 111.475-12.3535C110.742-11.2793 110.889-10.1074 111.816-9.42383Z"/>
  </g>
  <g id="Ultralight-L" transform="matrix(1 0 0 1 479.145 1556)">
   <path d="M80.7617 16.5039C83.1055 16.5039 84.1309 14.7461 84.1309 12.5977L84.1309-83.2031C84.1309-85.3516 83.1055-87.0605 80.7617-87.0605C79.1992-87.0605 77.7832-86.2305 76.8555-85.2539L47.8027-56.9336C47.1191-56.25 46.2891-56.0059 45.1172-56.0059L24.7559-56.0059C19.9219-56.0059 15.7715-51.9043 15.7715-47.1191L15.7715-22.5586C15.7715-17.8711 19.9219-13.7695 24.7559-13.7695L45.1172-13.7695C46.2891-13.7695 47.1191-13.4277 47.8027-12.7441L76.8555 14.6973C77.832 15.6738 79.1992 16.5039 80.7617 16.5039ZM130.029 7.12891C130.713 7.56836 131.396 7.4707 131.836 6.88477C139.99-3.41797 145.361-19.2383 145.361-35.2539C145.361-51.3184 139.99-67.0898 131.836-77.4414C131.396-77.9785 130.713-78.125 130.029-77.6367C129.395-77.1973 129.346-76.5137 129.883-75.7812C138.184-64.7949 142.773-50.6348 142.773-35.2539C142.773-19.9219 138.232-5.71289 129.883 5.22461C129.346 5.95703 129.395 6.64062 130.029 7.12891ZM110.693-9.66797C111.377-9.17969 112.061-9.27734 112.549-9.86328C117.334-16.0156 120.85-24.6582 120.85-35.2539C120.85-45.8984 117.334-54.4922 112.549-60.6934C112.061-61.2305 111.377-61.377 110.693-60.8887C110.156-60.4492 110.01-59.7168 110.547-58.9844C115.82-51.709 118.262-44.7754 118.262-35.2539C118.262-25.7324 115.82-18.8477 110.547-11.5723C110.01-10.8398 110.156-10.1074 110.693-9.66797Z"/>
  </g>
  <g id="Black-M" transform="matrix(1 0 0 1 2849.49 1126)">
   <path d="M74.2676 11.5723C80.0781 11.5723 84.5215 7.08008 84.5215 1.31836L84.5215-71.6797C84.5215-77.4902 80.0781-81.9336 74.2676-81.9336C70.8496-81.9336 67.9199-80.7129 64.3555-77.3926L45.8496-60.3027C45.6055-60.1074 45.4102-59.9609 45.166-59.9609L32.0312-59.9609C22.2656-59.9609 16.8457-54.248 16.8457-44.1895L16.8457-26.2207C16.8457-16.1133 22.2656-10.4004 32.0312-10.4004L45.1172-10.4004C45.3613-10.4004 45.5566-10.4004 45.8008-10.2539L64.3555 6.98242C67.8223 10.1562 70.5566 11.5723 74.2676 11.5723ZM128.516 5.56641C132.666 7.8125 137.695 6.78711 140.234 2.7832C147.168-8.25195 150.977-21.3379 150.977-35.2539C150.977-49.2188 147.168-62.2559 140.234-73.291C137.695-77.3438 132.666-78.3203 128.516-76.0742C123.633-73.4375 123.145-67.6758 126.221-62.4512C130.811-54.4922 133.447-45.166 133.447-35.2539C133.447-25.3418 130.811-16.0156 126.221-8.10547C123.145-2.83203 123.633 2.88086 128.516 5.56641ZM101.758-9.13086C105.859-6.68945 110.693-7.71484 113.086-11.0352C117.92-17.8711 120.752-26.2207 120.752-35.2539C120.752-44.2871 117.92-52.6367 113.086-59.5703C110.693-62.8418 105.859-63.8184 101.758-61.377C97.4609-58.8379 96.3379-53.7598 100-47.3145C102.051-43.75 103.174-39.5996 103.174-35.2539C103.174-30.9082 102.051-26.7578 100-23.2422C96.3379-16.748 97.4609-11.6699 101.758-9.13086Z"/>
  </g>
  <g id="Heavy-M" transform="matrix(1 0 0 1 2556.22 1126)">
   <path d="M72.7051 10.6934C77.8809 10.6934 81.8359 6.73828 81.8359 1.5625L81.8359-71.875C81.8359-77.0508 77.8809-81.1035 72.6562-81.1035C69.4824-81.1035 66.9434-79.8828 63.623-76.8066L44.5312-59.1309C44.2871-58.9355 44.043-58.7891 43.75-58.7891L30.3711-58.7891C21.3379-58.7891 16.4062-53.5645 16.4062-44.1895L16.4062-26.1719C16.4062-16.7969 21.3379-11.5723 30.3711-11.5723L43.7012-11.5723C43.9941-11.5723 44.2383-11.5723 44.4824-11.3281L63.623 6.44531C66.748 9.42383 69.3359 10.6934 72.7051 10.6934ZM123.779 3.80859C127.393 5.85938 131.787 4.98047 134.033 1.46484C140.771-8.98438 144.58-21.7773 144.58-35.2539C144.58-48.7793 140.82-61.5723 134.033-71.9727C131.787-75.4883 127.393-76.3672 123.779-74.3652C119.678-72.0215 119.189-67.0898 121.875-62.6465C126.66-54.7852 129.395-45.2637 129.395-35.2539C129.395-25.2441 126.66-15.7227 121.875-7.91016C119.189-3.41797 119.678 1.51367 123.779 3.80859ZM99.1211-10.4004C102.637-8.25195 106.885-9.13086 109.033-12.1094C113.574-18.5059 116.26-26.6113 116.26-35.2539C116.26-43.8965 113.574-52.002 109.033-58.4473C106.885-61.4258 102.637-62.2559 99.1211-60.1074C95.3613-57.8613 94.4336-53.418 97.5586-47.998C99.8047-44.3359 101.025-39.8926 101.025-35.2539C101.025-30.6152 99.8047-26.1719 97.5586-22.5098C94.4336-17.0898 95.3613-12.6465 99.1211-10.4004Z"/>
  </g>
  <g id="Bold-M" transform="matrix(1 0 0 1 2263.34 1126)">
   <path d="M70.8984 9.7168C75.3906 9.7168 78.8086 6.29883 78.8086 1.85547L78.8086-72.1191C78.8086-76.5625 75.3906-80.127 70.8496-80.127C68.0176-80.127 65.7715-78.9551 62.7441-76.1719L43.0664-57.8125C42.7734-57.5684 42.4805-57.4707 42.1387-57.4707L28.5645-57.4707C20.3613-57.4707 15.8691-52.7832 15.8691-44.1895L15.8691-26.123C15.8691-17.5781 20.3613-12.8906 28.5645-12.8906L42.0898-12.8906C42.4805-12.8906 42.7734-12.8418 43.0176-12.5977L62.7441 5.85938C65.5762 8.54492 67.9199 9.7168 70.8984 9.7168ZM118.555 1.9043C121.533 3.66211 125.146 2.92969 127.1 0C133.691-9.81445 137.402-22.2656 137.402-35.2539C137.402-48.2422 133.691-60.7422 127.1-70.5078C125.146-73.4375 121.533-74.1699 118.555-72.4121C115.234-70.5078 114.795-66.5039 117.09-62.8418C122.021-55.127 124.854-45.4102 124.854-35.2539C124.854-25.0977 121.973-15.4297 117.09-7.66602C114.844-4.05273 115.234 0 118.555 1.9043ZM96.1426-11.8164C99.0234-10.0098 102.588-10.6934 104.443-13.2812C108.691-19.1895 111.23-27.002 111.23-35.2539C111.23-43.5059 108.691-51.3184 104.443-57.2754C102.588-59.8145 99.0234-60.498 96.1426-58.6914C93.0176-56.7871 92.2852-53.0273 94.873-48.7793C97.3145-45.0195 98.6816-40.2832 98.6816-35.2539C98.6816-30.2734 97.3145-25.4883 94.873-21.7285C92.2852-17.4805 93.0176-13.7695 96.1426-11.8164Z"/>
  </g>
  <g id="Semibold-M" transform="matrix(1 0 0 1 1969.27 1126)">
   <path d="M69.6777 9.0332C73.6816 9.0332 76.709 6.05469 76.709 2.05078L76.709-72.2656C76.709-76.2695 73.6816-79.4434 69.6289-79.4434C66.9434-79.4434 64.9902-78.3691 62.1582-75.6836L42.041-56.9336C41.7969-56.6406 41.4062-56.543 41.0156-56.543L27.2949-56.543C19.6777-56.543 15.5273-52.2461 15.5273-44.1895L15.5273-26.123C15.5273-18.1152 19.6777-13.8184 27.2949-13.8184L41.0156-13.8184C41.4062-13.8184 41.748-13.7207 42.041-13.4277L62.1582 5.46875C64.7949 7.95898 66.9434 9.0332 69.6777 9.0332ZM114.941 0.585938C117.48 2.14844 120.605 1.51367 122.314-1.02539C128.76-10.4004 132.471-22.6074 132.471-35.2539C132.471-47.9004 128.809-60.2051 122.314-69.4824C120.605-72.0703 117.48-72.6562 114.941-71.0938C112.158-69.4336 111.768-66.0645 113.721-63.0371C118.848-55.3711 121.729-45.5078 121.729-35.2539C121.729-25 118.75-15.1855 113.721-7.51953C111.816-4.49219 112.158-1.07422 114.941 0.585938ZM94.0918-12.7441C96.5332-11.2305 99.6094-11.7676 101.27-14.1113C105.371-19.6777 107.764-27.2949 107.764-35.2539C107.764-43.2129 105.371-50.8301 101.27-56.3965C99.6094-58.7402 96.5332-59.3262 94.0918-57.7148C91.3574-56.0059 90.7715-52.7344 93.0176-49.3164C95.6055-45.5078 97.0215-40.5273 97.0215-35.2539C97.0215-30.0293 95.5566-25.0488 93.0176-21.1914C90.8203-17.7734 91.3574-14.502 94.0918-12.7441Z"/>
  </g>
  <g id="Medium-M" transform="matrix(1 0 0 1 1674.56 1126)">
   <path d="M68.75 8.54492C72.4121 8.54492 75.0977 5.81055 75.0977 2.19727L75.0977-72.3633C75.0977-76.0254 72.4121-78.9551 68.6523-78.9551C66.1621-78.9551 64.4043-77.8809 61.7188-75.3418L41.3086-56.25C41.0156-55.957 40.625-55.8105 40.1855-55.8105L26.3672-55.8105C19.1406-55.8105 15.2344-51.8066 15.2344-44.2383L15.2344-26.0742C15.2344-18.5059 19.1406-14.502 26.3672-14.502L40.1855-14.502C40.625-14.502 40.9668-14.3555 41.3086-14.0625L61.7188 5.17578C64.1602 7.51953 66.2109 8.54492 68.75 8.54492ZM112.158-0.390625C114.404 0.976562 117.139 0.488281 118.701-1.80664C125.049-10.791 128.76-22.8516 128.76-35.2539C128.76-47.6562 125.098-59.7656 118.701-68.7012C117.139-70.9961 114.404-71.5332 112.158-70.1172C109.814-68.6523 109.473-65.7227 111.23-63.1348C116.406-55.5176 119.385-45.6055 119.385-35.2539C119.385-24.9512 116.357-15.0391 111.23-7.37305C109.521-4.78516 109.814-1.9043 112.158-0.390625ZM92.5293-13.4766C94.6289-12.1094 97.3633-12.5977 98.877-14.7461C102.832-20.0195 105.176-27.4902 105.176-35.2539C105.176-43.0176 102.832-50.4395 98.877-55.7617C97.3633-57.9102 94.6289-58.3984 92.5293-56.9824C90.1367-55.4199 89.6484-52.5391 91.6016-49.707C94.2871-45.8496 95.8008-40.6738 95.8008-35.2539C95.8008-29.834 94.2383-24.707 91.6016-20.8008C89.6973-17.9688 90.1367-15.0879 92.5293-13.4766Z"/>
  </g>
  <g id="Regular-M" transform="matrix(1 0 0 1 1380.46 1126)">
   <path d="M67.5293 7.86133C70.752 7.86133 73.0469 5.56641 73.0469 2.39258L73.0469-72.5098C73.0469-75.6836 70.752-78.2715 67.4316-78.2715C65.1367-78.2715 63.623-77.2461 61.1328-74.9023L40.2832-55.3711C39.9902-55.0781 39.5508-54.9316 39.0625-54.9316L25.0977-54.9316C18.457-54.9316 14.8926-51.2695 14.8926-44.2383L14.8926-26.0742C14.8926-18.9941 18.457-15.3809 25.0977-15.3809L39.0625-15.3809C39.5508-15.3809 39.9902-15.2344 40.2832-14.9414L61.1328 4.78516C63.3301 6.93359 65.2344 7.86133 67.5293 7.86133ZM108.594-1.70898C110.4-0.488281 112.646-0.927734 113.965-2.7832C120.215-11.377 123.877-23.1934 123.877-35.2539C123.877-47.3145 120.264-59.2285 113.965-67.7246C112.646-69.5801 110.4-70.0195 108.594-68.7988C106.787-67.5781 106.494-65.2832 107.91-63.2812C113.232-55.7617 116.309-45.6543 116.309-35.2539C116.309-24.8535 113.135-14.8438 107.91-7.22656C106.543-5.22461 106.787-2.92969 108.594-1.70898ZM90.5273-14.4531C92.1387-13.3301 94.4336-13.6719 95.752-15.5762C99.5117-20.5078 101.758-27.7832 101.758-35.2539C101.758-42.7246 99.5117-49.9512 95.752-54.9316C94.4336-56.8359 92.1387-57.2266 90.5273-56.0547C88.5254-54.6875 88.2324-52.2461 89.7461-50.2441C92.5781-46.3379 94.1895-40.918 94.1895-35.2539C94.1895-29.5898 92.5293-24.2188 89.7461-20.2637C88.2812-18.2129 88.5254-15.8691 90.5273-14.4531Z"/>
  </g>
  <g id="Light-M" transform="matrix(1 0 0 1 1085.9 1126)">
   <path d="M66.0156 6.93359C68.7988 6.93359 70.6055 4.93164 70.6055 2.19727L70.6055-72.4609C70.6055-75.1953 68.7988-77.3926 65.918-77.3926C63.9648-77.3926 62.5977-76.4648 60.6445-74.6582L39.3066-54.3457C38.916-53.9551 38.4277-53.8086 37.8418-53.8086L23.291-53.8086C17.5293-53.8086 14.0625-50.293 14.0625-44.2871L14.0625-25.8789C14.0625-19.873 17.5293-16.3574 23.291-16.3574L37.8418-16.3574C38.4277-16.3574 38.916-16.2109 39.3066-15.8203L60.6445 4.39453C62.4023 6.10352 64.0625 6.93359 66.0156 6.93359ZM106.201-1.95312C107.568-0.976562 109.277-1.31836 110.303-2.73438C116.553-11.1328 120.41-23.0957 120.41-35.2539C120.41-47.4609 116.602-59.4727 110.303-67.7734C109.277-69.2383 107.568-69.5312 106.201-68.6035C104.785-67.627 104.541-65.8691 105.664-64.3066C111.328-56.4941 114.551-46.1426 114.551-35.2539C114.551-24.3652 111.279-14.0625 105.664-6.20117C104.59-4.63867 104.785-2.88086 106.201-1.95312ZM89.0625-14.7461C90.332-13.8672 92.0898-14.1113 93.1152-15.5762C96.875-20.459 99.2676-27.5391 99.2676-35.2539C99.2676-42.9688 96.875-50.0488 93.1152-54.9316C92.0898-56.3965 90.332-56.6895 89.0625-55.7617C87.5488-54.6875 87.3047-52.8809 88.4766-51.3184C91.748-46.875 93.4082-41.4551 93.4082-35.2539C93.4082-29.0527 91.6992-23.6816 88.4766-19.2383C87.3535-17.627 87.5488-15.8203 89.0625-14.7461Z"/>
  </g>
  <g id="Thin-M" transform="matrix(1 0 0 1 792.018 1126)">
   <path d="M63.9648 5.71289C66.1621 5.71289 67.3828 4.10156 67.3828 2.00195L67.3828-72.4121C67.3828-74.5117 66.1621-76.2207 63.9648-76.2207C62.4512-76.2207 61.2305-75.4395 60.0098-74.2676L37.9883-52.9785C37.5-52.5391 36.9141-52.3438 36.1328-52.3438L20.8496-52.3438C16.3086-52.3438 12.9883-49.0234 12.9883-44.3848L12.9883-25.5859C12.9883-20.9961 16.3086-17.6758 20.8496-17.6758L36.1328-17.6758C36.9141-17.6758 37.5-17.4805 37.9883-16.9922L60.0098 3.80859C61.1816 4.98047 62.4512 5.71289 63.9648 5.71289ZM102.979-2.19727C103.857-1.61133 104.883-1.80664 105.469-2.63672C111.768-10.791 115.82-22.9492 115.82-35.2539C115.82-47.6074 111.768-59.7656 105.469-67.8711C104.883-68.7012 103.857-68.8965 102.979-68.3105C102.1-67.7246 102.002-66.6504 102.686-65.7227C108.838-57.4707 112.207-46.7285 112.207-35.2539C112.207-23.7793 108.789-13.0371 102.686-4.83398C102.002-3.85742 102.1-2.83203 102.979-2.19727ZM87.1582-15.1367C87.9883-14.5508 89.0137-14.7461 89.6484-15.5762C93.3594-20.4102 95.9473-27.2461 95.9473-35.2539C95.9473-43.2617 93.3594-50.0977 89.6484-54.9316C89.0137-55.8105 87.9883-55.957 87.1582-55.3711C86.2793-54.7363 86.1328-53.6621 86.8164-52.6855C90.5762-47.5098 92.3828-42.1387 92.3828-35.2539C92.3828-28.3691 90.5762-22.998 86.8164-17.8223C86.1328-16.8457 86.2793-15.7715 87.1582-15.1367Z"/>
  </g>
  <g id="Ultralight-M" transform="matrix(1 0 0 1 496.772 1126)">
   <path d="M62.9395 5.07812C64.8438 5.07812 65.7715 3.66211 65.7715 1.85547L65.7715-72.4121C65.7715-74.1699 64.8438-75.5859 62.9395-75.5859C61.6699-75.5859 60.5469-74.9023 59.7168-74.0723L37.3047-52.2949C36.8164-51.7578 36.1816-51.6113 35.3027-51.6113L19.6289-51.6113C15.6738-51.6113 12.4512-48.3398 12.4512-44.4336L12.4512-25.4883C12.4512-21.582 15.6738-18.3594 19.6289-18.3594L35.3027-18.3594C36.1816-18.3594 36.8164-18.1152 37.3047-17.627L59.7168 3.56445C60.5469 4.39453 61.6699 5.07812 62.9395 5.07812ZM101.367-2.34375C101.953-1.95312 102.588-2.05078 103.027-2.58789C109.326-10.6445 113.428-22.8516 113.428-35.2539C113.428-47.6562 109.326-59.9121 103.027-67.9199C102.588-68.457 101.953-68.5547 101.367-68.1641C100.732-67.7246 100.684-67.0898 101.172-66.4062C107.568-58.0078 111.035-47.0703 111.035-35.2539C111.035-23.4375 107.568-12.5488 101.172-4.10156C100.684-3.4668 100.732-2.7832 101.367-2.34375ZM86.1328-15.332C86.7676-14.8926 87.4023-15.0391 87.8418-15.5762C91.5527-20.3613 94.2383-27.0996 94.2383-35.2539C94.2383-43.457 91.5527-50.1465 87.8418-54.9316C87.4023-55.4688 86.7676-55.6152 86.1328-55.1758C85.6445-54.7852 85.498-54.0527 85.9863-53.3691C89.9902-47.9004 91.8457-42.5293 91.8457-35.2539C91.8457-27.9785 89.9902-22.6562 85.9863-17.1387C85.498-16.4551 85.6445-15.7715 86.1328-15.332Z"/>
  </g>
  <g id="Black-S" transform="matrix(1 0 0 1 2867.9 696)">
   <path d="M58.1055 1.36719C62.5977 1.36719 66.0645-2.09961 66.0645-6.5918L66.0645-63.8184C66.0645-68.3105 62.5977-71.7773 58.1055-71.7773C55.4199-71.7773 53.1738-70.8008 50.3906-68.2129L35.8398-54.7852C35.6445-54.6387 35.498-54.541 35.3027-54.541L25-54.541C17.3828-54.541 13.1836-50.0977 13.1836-42.2363L13.1836-28.1738C13.1836-20.3125 17.3828-15.8691 25-15.8691L35.2539-15.8691C35.4492-15.8691 35.5957-15.8691 35.791-15.7227L50.3906-2.19727C53.0762 0.292969 55.2246 1.36719 58.1055 1.36719ZM100.342-3.41797C103.564-1.66016 107.471-2.44141 109.424-5.56641C114.844-14.1602 117.822-24.3652 117.822-35.2539C117.822-46.1426 114.844-56.3477 109.424-64.9414C107.471-68.0664 103.564-68.8477 100.342-67.0898C96.582-65.0391 96.1914-60.5957 98.584-56.543C102.197-50.3418 104.248-43.0176 104.248-35.2539C104.248-27.4902 102.197-20.166 98.584-13.9648C96.1914-9.91211 96.582-5.46875 100.342-3.41797ZM79.541-14.8926C82.7148-12.9883 86.4746-13.7695 88.3301-16.3574C92.0898-21.6797 94.2871-28.2227 94.2871-35.2539C94.2871-42.2852 92.0898-48.8281 88.3301-54.1992C86.4746-56.7383 82.7148-57.5195 79.541-55.6152C76.2207-53.6621 75.3418-49.707 78.1738-44.7266C79.7852-41.9434 80.6641-38.6719 80.6641-35.2539C80.6641-31.8359 79.7852-28.5645 78.1738-25.7812C75.3418-20.8008 76.2207-16.8457 79.541-14.8926Z"/>
  </g>
  <g id="Heavy-S" transform="matrix(1 0 0 1 2573.58 696)">
   <path d="M57.0312 0.78125C61.1328 0.78125 64.2578-2.29492 64.2578-6.39648L64.2578-63.9648C64.2578-68.0176 61.1328-71.1914 57.0312-71.1914C54.541-71.1914 52.4902-70.2637 49.8535-67.8223L34.9609-54.0039C34.7656-53.8574 34.5703-53.7598 34.3262-53.7598L23.9258-53.7598C16.7969-53.7598 12.9395-49.6582 12.9395-42.2363L12.9395-28.1738C12.9395-20.752 16.7969-16.6504 23.9258-16.6504L34.3262-16.6504C34.5215-16.6504 34.7168-16.6504 34.9121-16.4551L49.8535-2.53906C52.3926-0.195312 54.3945 0.78125 57.0312 0.78125ZM97.0215-4.6875C99.8535-3.125 103.32-3.80859 105.078-6.5918C110.352-14.7461 113.281-24.707 113.281-35.2539C113.281-45.8008 110.352-55.7617 105.078-63.916C103.32-66.6992 99.8535-67.3828 97.0215-65.8203C93.75-63.9648 93.4082-60.1074 95.5078-56.5918C99.2188-50.4883 101.318-43.0664 101.318-35.2539C101.318-27.4414 99.2188-20.0195 95.5078-13.916C93.4082-10.4004 93.75-6.54297 97.0215-4.6875ZM77.6367-15.8203C80.4199-14.1113 83.7891-14.7949 85.498-17.1875C89.0625-22.168 91.1133-28.5156 91.1133-35.2539C91.1133-41.9922 89.0625-48.3398 85.498-53.3691C83.7891-55.7129 80.4199-56.3965 77.6367-54.6875C74.707-52.8809 73.9746-49.3652 76.4648-45.166C78.1738-42.334 79.1016-38.8672 79.1016-35.2539C79.1016-31.6406 78.1738-28.1738 76.4648-25.3418C73.9746-21.1426 74.707-17.627 77.6367-15.8203Z"/>
  </g>
  <g id="Bold-S" transform="matrix(1 0 0 1 2279.53 696)">
   <path d="M55.8594 0.195312C59.4727 0.195312 62.207-2.53906 62.207-6.15234L62.207-64.1113C62.207-67.7246 59.4727-70.6055 55.8105-70.6055C53.5156-70.6055 51.7578-69.6777 49.2676-67.334L33.9355-53.125C33.7402-52.9785 33.5449-52.8809 33.252-52.8809L22.7539-52.8809C16.1621-52.8809 12.6465-49.1699 12.6465-42.2363L12.6465-28.1738C12.6465-21.1914 16.1621-17.5293 22.7539-17.5293L33.252-17.5293C33.4961-17.5293 33.7402-17.4805 33.9355-17.2852L49.2676-2.92969C51.5625-0.732422 53.4668 0.195312 55.8594 0.195312ZM93.2617-6.15234C95.7031-4.73633 98.6328-5.32227 100.195-7.71484C105.371-15.4297 108.252-25.0977 108.252-35.2539C108.252-45.4102 105.371-55.127 100.195-62.793C98.6328-65.1855 95.7031-65.7715 93.2617-64.3555C90.5762-62.793 90.2832-59.5215 92.0898-56.6406C95.8984-50.6348 98.0957-43.1152 98.0957-35.2539C98.0957-27.3926 95.8496-19.873 92.0898-13.8672C90.2832-10.9863 90.5762-7.71484 93.2617-6.15234ZM75.5859-16.8457C77.8809-15.3809 80.8105-15.9668 82.3242-18.1152C85.6445-22.7051 87.5977-28.8574 87.5977-35.2539C87.5977-41.6504 85.6445-47.8027 82.3242-52.4414C80.8105-54.541 77.8809-55.127 75.5859-53.6621C72.998-52.0508 72.4121-48.9746 74.5117-45.6055C76.3672-42.8223 77.3926-39.0625 77.3926-35.2539C77.3926-31.4453 76.3184-27.7344 74.5117-24.9023C72.4609-21.4844 72.998-18.457 75.5859-16.8457Z"/>
  </g>
  <g id="Semibold-S" transform="matrix(1 0 0 1 1984.67 696)">
   <path d="M55.0781-0.244141C58.3496-0.244141 60.8398-2.68555 60.8398-5.95703L60.8398-64.2578C60.8398-67.5293 58.3496-70.166 54.9805-70.166C52.832-70.166 51.2695-69.2383 48.8281-67.041L33.252-52.5391C33.0566-52.3438 32.8125-52.2461 32.5195-52.2461L21.9727-52.2461C15.7227-52.2461 12.4023-48.877 12.4023-42.2363L12.4023-28.1738C12.4023-21.5332 15.7227-18.1152 21.9727-18.1152L32.5195-18.1152C32.7637-18.1152 33.0566-18.0664 33.252-17.8711L48.8281-3.22266C51.0254-1.12305 52.832-0.244141 55.0781-0.244141ZM90.7227-7.12891C92.8223-5.85938 95.459-6.34766 96.875-8.49609C101.904-15.8691 104.785-25.3906 104.785-35.2539C104.785-45.1172 101.953-54.6875 96.875-62.0117C95.459-64.1602 92.8223-64.6484 90.7227-63.3789C88.4277-61.9629 88.0859-59.1797 89.7461-56.6406C93.6035-50.7324 95.8496-43.1152 95.8496-35.2539C95.8496-27.3926 93.5547-19.7754 89.7461-13.8672C88.1348-11.3281 88.4277-8.54492 90.7227-7.12891ZM74.1211-17.5781C76.123-16.2598 78.7109-16.748 80.127-18.7012C83.3008-23.0957 85.1562-29.1016 85.1562-35.2539C85.1562-41.4062 83.3008-47.4121 80.127-51.8066C78.7109-53.7598 76.123-54.248 74.1211-52.9297C71.8262-51.4648 71.3867-48.7305 73.1934-45.9473C75.1465-43.1152 76.2207-39.209 76.2207-35.2539C76.2207-31.2988 75.0977-27.3926 73.1934-24.5605C71.3867-21.7285 71.8262-19.043 74.1211-17.5781Z"/>
  </g>
  <g id="Medium-S" transform="matrix(1 0 0 1 1689.35 696)">
   <path d="M54.4434-0.585938C57.4707-0.585938 59.7656-2.83203 59.7656-5.85938L59.7656-64.3555C59.7656-67.3828 57.4707-69.8242 54.3945-69.8242C52.2949-69.8242 50.8789-68.9453 48.5352-66.7969L32.7148-52.0996C32.5195-51.9043 32.2754-51.8066 31.9824-51.8066L21.3379-51.8066C15.3809-51.8066 12.2559-48.6328 12.2559-42.2363L12.2559-28.125C12.2559-21.7773 15.3809-18.6035 21.3379-18.6035L31.9336-18.6035C32.2266-18.6035 32.5195-18.5059 32.7148-18.3105L48.5352-3.41797C50.6348-1.41602 52.3438-0.585938 54.4434-0.585938ZM88.7695-7.91016C90.6738-6.68945 93.0176-7.12891 94.3359-9.08203C99.3164-16.2109 102.148-25.5859 102.148-35.2539C102.148-44.9219 99.3652-54.3945 94.3359-61.4258C93.0176-63.3789 90.6738-63.8184 88.7695-62.5977C86.7676-61.377 86.4746-58.8867 87.9395-56.6895C91.8945-50.8301 94.1406-43.1641 94.1406-35.2539C94.1406-27.3438 91.7969-19.7266 87.9395-13.8184C86.5234-11.6211 86.7676-9.13086 88.7695-7.91016ZM72.998-18.1152C74.8047-16.9434 77.1484-17.334 78.4668-19.1895C81.543-23.3398 83.3008-29.2969 83.3008-35.2539C83.3008-41.2109 81.543-47.1191 78.4668-51.3184C77.1484-53.1738 74.8047-53.5645 72.998-52.3926C70.9473-51.0254 70.5566-48.5352 72.2168-46.1914C74.1699-43.3594 75.293-39.3066 75.293-35.2539C75.293-31.2012 74.1211-27.1973 72.2168-24.3164C70.6055-21.9238 70.9473-19.4824 72.998-18.1152Z"/>
  </g>
  <g id="Regular-S" transform="matrix(1 0 0 1 1394.45 696)">
   <path d="M53.6621-1.02539C56.3477-1.02539 58.3984-2.97852 58.3984-5.71289L58.3984-64.4531C58.3984-67.1387 56.3477-69.3848 53.5645-69.3848C51.6113-69.3848 50.3418-68.5547 48.0957-66.4551L32.0312-51.5137C31.8359-51.3184 31.543-51.1719 31.25-51.1719L20.5566-51.1719C14.9414-51.1719 12.0605-48.291 12.0605-42.2363L12.0605-28.125C12.0605-22.1191 14.9414-19.1895 20.5566-19.1895L31.25-19.1895C31.543-19.1895 31.8359-19.0918 32.0312-18.8965L48.0957-3.66211C50.0977-1.80664 51.709-1.02539 53.6621-1.02539ZM86.2305-8.88672C87.8418-7.8125 89.8438-8.1543 91.0156-9.86328C95.8984-16.6504 98.7305-25.8789 98.7305-35.2539C98.7305-44.6289 95.9473-53.9551 91.0156-60.6445C89.8438-62.3535 87.8418-62.6953 86.2305-61.6211C84.6191-60.5469 84.3262-58.4961 85.5957-56.6895C89.6484-50.9277 91.9434-43.1641 91.9434-35.2539C91.9434-27.3438 89.5508-19.6289 85.5957-13.8184C84.375-12.0117 84.6191-9.96094 86.2305-8.88672ZM71.582-18.7988C73.0469-17.8223 75.0977-18.1152 76.2695-19.8242C79.1992-23.7305 80.9082-29.4922 80.9082-35.2539C80.9082-41.0156 79.1992-46.7285 76.2695-50.6836C75.0977-52.3926 73.0469-52.6855 71.582-51.6602C69.8242-50.4395 69.5312-48.291 70.8984-46.4844C72.9492-43.7012 74.1211-39.4531 74.1211-35.2539C74.1211-31.0547 72.9004-26.8555 70.8984-24.0234C69.5801-22.168 69.8242-20.0684 71.582-18.7988Z"/>
  </g>
  <g id="Light-S" transform="matrix(1 0 0 1 1099.64 696)">
   <path d="M52.2949-1.85547C54.6387-1.85547 56.25-3.51562 56.25-5.85938L56.25-64.4043C56.25-66.6992 54.6387-68.6035 52.2461-68.6035C50.5859-68.6035 49.4629-67.8223 47.7051-66.2109L31.1523-50.5859C30.9082-50.3418 30.5176-50.1953 30.127-50.1953L18.9453-50.1953C14.1113-50.1953 11.3281-47.4121 11.3281-42.2852L11.3281-27.9785C11.3281-22.8516 14.1113-20.0684 18.9453-20.0684L30.127-20.0684C30.5176-20.0684 30.9082-19.9219 31.1523-19.6777L47.7051-4.05273C49.2676-2.53906 50.6348-1.85547 52.2949-1.85547ZM84.082-9.08203C85.3516-8.20312 86.9141-8.49609 87.793-9.81445C92.7246-16.4551 95.6543-25.7812 95.6543-35.2539C95.6543-44.7266 92.7246-54.1504 87.793-60.6934C86.9141-62.0117 85.3516-62.3047 84.082-61.4258C82.8613-60.5957 82.666-59.0332 83.6426-57.6172C87.9395-51.6113 90.3809-43.6035 90.3809-35.2539C90.3809-26.9043 87.8906-18.9453 83.6426-12.8906C82.666-11.4746 82.8613-9.91211 84.082-9.08203ZM70.3125-19.043C71.4355-18.2617 73.0469-18.5547 73.9258-19.8242C76.8555-23.6816 78.7109-29.2969 78.7109-35.2539C78.7109-41.2109 76.8555-46.7773 73.9258-50.6836C73.0469-51.9531 71.4355-52.2461 70.3125-51.416C68.9453-50.4883 68.75-48.8281 69.7754-47.4121C72.168-44.1406 73.4375-39.8926 73.4375-35.2539C73.4375-30.6152 72.168-26.416 69.7754-23.0957C68.75-21.6797 68.9453-20.0195 70.3125-19.043Z"/>
  </g>
  <g id="Thin-S" transform="matrix(1 0 0 1 805.446 696)">
   <path d="M50.4883-2.92969C52.3438-2.92969 53.418-4.24805 53.418-6.00586L53.418-64.4043C53.418-66.1621 52.3438-67.5781 50.4883-67.5781C49.2188-67.5781 48.2422-66.9434 47.1191-65.8691L29.9805-49.4141C29.6387-49.0723 29.1992-48.9258 28.6133-48.9258L16.7969-48.9258C12.9883-48.9258 10.3516-46.2891 10.3516-42.3828L10.3516-27.7344C10.3516-23.877 12.9883-21.2402 16.7969-21.2402L28.6133-21.2402C29.1992-21.2402 29.6387-21.0449 29.9805-20.7031L47.1191-4.54102C48.1445-3.51562 49.2188-2.92969 50.4883-2.92969ZM81.2988-9.32617C82.0801-8.78906 83.0078-8.93555 83.5449-9.7168C88.4766-16.1621 91.6016-25.6348 91.6016-35.2539C91.6016-44.873 88.4766-54.3945 83.5449-60.791C83.0078-61.5723 82.0801-61.7188 81.2988-61.1816C80.5176-60.6445 80.3711-59.7168 81.0059-58.8379C85.7422-52.4902 88.3789-44.1406 88.3789-35.2539C88.3789-26.3672 85.6934-18.0664 81.0059-11.6699C80.4199-10.791 80.5176-9.86328 81.2988-9.32617ZM68.6035-19.3848C69.3359-18.8965 70.3125-19.043 70.8496-19.8242C73.7793-23.6328 75.7812-29.0527 75.7812-35.2539C75.7812-41.4551 73.7793-46.875 70.8496-50.6836C70.3125-51.4648 69.3359-51.6113 68.6035-51.0742C67.8223-50.4883 67.6758-49.5117 68.3105-48.6328C71.1426-44.7266 72.5586-40.5273 72.5586-35.2539C72.5586-29.9805 71.1426-25.7812 68.3105-21.875C67.6758-20.9961 67.8223-20.0195 68.6035-19.3848Z"/>
  </g>
  <g id="Ultralight-S" transform="matrix(1 0 0 1 510.004 696)">
   <path d="M49.5605-3.4668C51.1719-3.4668 51.9531-4.63867 51.9531-6.15234L51.9531-64.3555C51.9531-65.8203 51.1719-67.041 49.5605-67.041C48.4863-67.041 47.6074-66.4551 46.8262-65.7227L29.3945-48.7793C29.0039-48.3887 28.5156-48.2422 27.8809-48.2422L15.6738-48.2422C12.4512-48.2422 9.86328-45.7031 9.86328-42.4316L9.86328-27.6367C9.86328-24.4141 12.4512-21.8262 15.6738-21.8262L27.8809-21.8262C28.5156-21.8262 29.0039-21.6309 29.3945-21.2402L46.8262-4.78516C47.6074-4.05273 48.4863-3.4668 49.5605-3.4668ZM79.834-9.42383C80.3711-9.08203 81.0059-9.17969 81.3965-9.66797C86.3281-16.0156 89.502-25.5371 89.502-35.2539C89.502-44.9707 86.3281-54.4922 81.3965-60.8398C81.0059-61.3281 80.3711-61.4258 79.834-61.084C79.2969-60.6934 79.248-60.0586 79.6875-59.4727C84.6191-52.9297 87.3047-44.4336 87.3047-35.2539C87.3047-26.0742 84.6191-17.5781 79.6875-11.0352C79.248-10.4492 79.2969-9.81445 79.834-9.42383ZM67.7246-19.5801C68.2617-19.2383 68.8965-19.3359 69.2871-19.8242C72.2168-23.584 74.2676-28.9062 74.2676-35.2539C74.2676-41.6016 72.2168-46.9238 69.2871-50.6836C68.8965-51.1719 68.2617-51.2695 67.7246-50.9277C67.2363-50.5371 67.1387-49.8535 67.5781-49.2676C70.6543-45.0684 72.0703-40.8691 72.0703-35.2539C72.0703-29.6387 70.6055-25.4395 67.5781-21.2402C67.1387-20.6543 67.2363-19.9707 67.7246-19.5801Z"/>
  </g>
 </g>
</svg>
