<?xml version="1.0" encoding="UTF-8"?>
<!--Generator: Apple Native CoreSVG 175-->
<!DOCTYPE svg
PUBLIC "-//W3C//DTD SVG 1.1//EN"
       "http://www.w3.org/Graphics/SVG/1.1/DTD/svg11.dtd">
<svg version="1.1" xmlns="http://www.w3.org/2000/svg" xmlns:xlink="http://www.w3.org/1999/xlink" width="3300" height="2200">
 <!--glyph: "uni100987.medium", point size: 100.0, font version: "17.0d11e1", template writer version: "65.1"-->
 <g id="Notes">
  <rect height="2200" id="artboard" style="fill:white;opacity:1" width="3300" x="0" y="0"/>
  <line style="fill:none;stroke:black;opacity:1;stroke-width:0.5;" x1="263" x2="3036" y1="292" y2="292"/>
  <text style="stroke:none;fill:black;font-family:sans-serif;font-size:13;font-weight:bold;" transform="matrix(1 0 0 1 263 322)">Weight/Scale Variations</text>
  <text style="stroke:none;fill:black;font-family:sans-serif;font-size:13;text-anchor:middle;" transform="matrix(1 0 0 1 559.711 322)">Ultralight</text>
  <text style="stroke:none;fill:black;font-family:sans-serif;font-size:13;text-anchor:middle;" transform="matrix(1 0 0 1 856.422 322)">Thin</text>
  <text style="stroke:none;fill:black;font-family:sans-serif;font-size:13;text-anchor:middle;" transform="matrix(1 0 0 1 1153.13 322)">Light</text>
  <text style="stroke:none;fill:black;font-family:sans-serif;font-size:13;text-anchor:middle;" transform="matrix(1 0 0 1 1449.84 322)">Regular</text>
  <text style="stroke:none;fill:black;font-family:sans-serif;font-size:13;text-anchor:middle;" transform="matrix(1 0 0 1 1746.56 322)">Medium</text>
  <text style="stroke:none;fill:black;font-family:sans-serif;font-size:13;text-anchor:middle;" transform="matrix(1 0 0 1 2043.27 322)">Semibold</text>
  <text style="stroke:none;fill:black;font-family:sans-serif;font-size:13;text-anchor:middle;" transform="matrix(1 0 0 1 2339.98 322)">Bold</text>
  <text style="stroke:none;fill:black;font-family:sans-serif;font-size:13;text-anchor:middle;" transform="matrix(1 0 0 1 2636.69 322)">Heavy</text>
  <text style="stroke:none;fill:black;font-family:sans-serif;font-size:13;text-anchor:middle;" transform="matrix(1 0 0 1 2933.4 322)">Black</text>
  <line style="fill:none;stroke:black;opacity:1;stroke-width:0.5;" x1="263" x2="3036" y1="1903" y2="1903"/>
  <g transform="matrix(1 0 0 1 263 1933)">
   <path d="M9.24805 0.830078Q10.8691 0.830078 12.2949 0.214844Q13.7207-0.400391 14.8096-1.49414Q15.8984-2.58789 16.5186-4.01367Q17.1387-5.43945 17.1387-7.05078Q17.1387-8.66211 16.5186-10.0879Q15.8984-11.5137 14.8047-12.6074Q13.7109-13.7012 12.2852-14.3164Q10.8594-14.9316 9.23828-14.9316Q7.62695-14.9316 6.20117-14.3164Q4.77539-13.7012 3.69141-12.6074Q2.60742-11.5137 1.9873-10.0879Q1.36719-8.66211 1.36719-7.05078Q1.36719-5.43945 1.9873-4.01367Q2.60742-2.58789 3.69629-1.49414Q4.78516-0.400391 6.21094 0.214844Q7.63672 0.830078 9.24805 0.830078ZM9.24805-0.654297Q7.91992-0.654297 6.7627-1.14746Q5.60547-1.64062 4.73145-2.51953Q3.85742-3.39844 3.36426-4.56055Q2.87109-5.72266 2.87109-7.05078Q2.87109-8.37891 3.35938-9.54102Q3.84766-10.7031 4.72168-11.582Q5.5957-12.4609 6.75293-12.9541Q7.91016-13.4473 9.23828-13.4473Q10.5762-13.4473 11.7334-12.9541Q12.8906-12.4609 13.7695-11.582Q14.6484-10.7031 15.1465-9.54102Q15.6445-8.37891 15.6445-7.05078Q15.6445-5.72266 15.1514-4.56055Q14.6582-3.39844 13.7842-2.51953Q12.9102-1.64062 11.748-1.14746Q10.5859-0.654297 9.24805-0.654297ZM5.6543-7.05078Q5.6543-6.72852 5.85938-6.52832Q6.06445-6.32812 6.40625-6.32812L8.51562-6.32812L8.51562-4.20898Q8.51562-3.88672 8.71094-3.67676Q8.90625-3.4668 9.23828-3.4668Q9.56055-3.4668 9.77051-3.67676Q9.98047-3.88672 9.98047-4.20898L9.98047-6.32812L12.0898-6.32812Q12.4219-6.32812 12.627-6.52832Q12.832-6.72852 12.832-7.05078Q12.832-7.38281 12.627-7.58789Q12.4219-7.79297 12.0898-7.79297L9.98047-7.79297L9.98047-9.90234Q9.98047-10.2344 9.77051-10.4443Q9.56055-10.6543 9.23828-10.6543Q8.90625-10.6543 8.71094-10.4443Q8.51562-10.2344 8.51562-9.90234L8.51562-7.79297L6.40625-7.79297Q6.06445-7.79297 5.85938-7.58789Q5.6543-7.38281 5.6543-7.05078Z"/>
  </g>
  <g transform="matrix(1 0 0 1 281.867 1933)">
   <path d="M11.709 2.91016Q13.75 2.91016 15.5518 2.12891Q17.3535 1.34766 18.7305-0.0292969Q20.1074-1.40625 20.8887-3.20801Q21.6699-5.00977 21.6699-7.05078Q21.6699-9.0918 20.8887-10.8936Q20.1074-12.6953 18.7305-14.0723Q17.3535-15.4492 15.5469-16.2305Q13.7402-17.0117 11.6992-17.0117Q9.6582-17.0117 7.85645-16.2305Q6.05469-15.4492 4.68262-14.0723Q3.31055-12.6953 2.5293-10.8936Q1.74805-9.0918 1.74805-7.05078Q1.74805-5.00977 2.5293-3.20801Q3.31055-1.40625 4.6875-0.0292969Q6.06445 1.34766 7.86621 2.12891Q9.66797 2.91016 11.709 2.91016ZM11.709 1.25Q9.98047 1.25 8.47656 0.605469Q6.97266-0.0390625 5.83496-1.17676Q4.69727-2.31445 4.05762-3.81836Q3.41797-5.32227 3.41797-7.05078Q3.41797-8.7793 4.05762-10.2832Q4.69727-11.7871 5.83008-12.9297Q6.96289-14.0723 8.4668-14.7119Q9.9707-15.3516 11.6992-15.3516Q13.4277-15.3516 14.9316-14.7119Q16.4355-14.0723 17.5781-12.9297Q18.7207-11.7871 19.3652-10.2832Q20.0098-8.7793 20.0098-7.05078Q20.0098-5.32227 19.3701-3.81836Q18.7305-2.31445 17.5928-1.17676Q16.4551-0.0390625 14.9463 0.605469Q13.4375 1.25 11.709 1.25ZM7.17773-7.05078Q7.17773-6.69922 7.41211-6.47461Q7.64648-6.25 8.01758-6.25L10.8887-6.25L10.8887-3.36914Q10.8887-2.99805 11.1133-2.76855Q11.3379-2.53906 11.6895-2.53906Q12.0605-2.53906 12.29-2.76855Q12.5195-2.99805 12.5195-3.36914L12.5195-6.25L15.4004-6.25Q15.7715-6.25 16.001-6.47461Q16.2305-6.69922 16.2305-7.05078Q16.2305-7.42188 16.001-7.65137Q15.7715-7.88086 15.4004-7.88086L12.5195-7.88086L12.5195-10.752Q12.5195-11.1328 12.29-11.3623Q12.0605-11.5918 11.6895-11.5918Q11.3379-11.5918 11.1133-11.3574Q10.8887-11.123 10.8887-10.752L10.8887-7.88086L8.01758-7.88086Q7.63672-7.88086 7.40723-7.65137Q7.17773-7.42188 7.17773-7.05078Z"/>
  </g>
  <g transform="matrix(1 0 0 1 305.646 1933)">
   <path d="M14.9707 5.66406Q17.0605 5.66406 18.96 5.01465Q20.8594 4.36523 22.4512 3.19336Q24.043 2.02148 25.2197 0.429688Q26.3965-1.16211 27.0459-3.06641Q27.6953-4.9707 27.6953-7.05078Q27.6953-9.14062 27.0459-11.04Q26.3965-12.9395 25.2197-14.5312Q24.043-16.123 22.4512-17.2998Q20.8594-18.4766 18.9551-19.126Q17.0508-19.7754 14.9609-19.7754Q12.8711-19.7754 10.9717-19.126Q9.07227-18.4766 7.48535-17.2998Q5.89844-16.123 4.72168-14.5312Q3.54492-12.9395 2.90039-11.04Q2.25586-9.14062 2.25586-7.05078Q2.25586-4.9707 2.90527-3.06641Q3.55469-1.16211 4.72656 0.429688Q5.89844 2.02148 7.49023 3.19336Q9.08203 4.36523 10.9814 5.01465Q12.8809 5.66406 14.9707 5.66406ZM14.9707 3.84766Q13.1641 3.84766 11.5283 3.2959Q9.89258 2.74414 8.53516 1.74805Q7.17773 0.751953 6.17676-0.610352Q5.17578-1.97266 4.62891-3.6084Q4.08203-5.24414 4.08203-7.05078Q4.08203-8.86719 4.62891-10.5029Q5.17578-12.1387 6.17188-13.501Q7.16797-14.8633 8.52539-15.8594Q9.88281-16.8555 11.5186-17.4023Q13.1543-17.9492 14.9609-17.9492Q16.7773-17.9492 18.4131-17.4023Q20.0488-16.8555 21.4111-15.8594Q22.7734-14.8633 23.7695-13.501Q24.7656-12.1387 25.3174-10.5029Q25.8691-8.86719 25.8691-7.05078Q25.8789-5.24414 25.332-3.6084Q24.7852-1.97266 23.7842-0.610352Q22.7832 0.751953 21.4209 1.74805Q20.0586 2.74414 18.4229 3.2959Q16.7871 3.84766 14.9707 3.84766ZM9.19922-7.05078Q9.19922-6.66992 9.45801-6.4209Q9.7168-6.17188 10.1172-6.17188L14.0625-6.17188L14.0625-2.2168Q14.0625-1.81641 14.3115-1.55762Q14.5605-1.29883 14.9512-1.29883Q15.3516-1.29883 15.6104-1.55273Q15.8691-1.80664 15.8691-2.2168L15.8691-6.17188L19.8242-6.17188Q20.2246-6.17188 20.4785-6.4209Q20.7324-6.66992 20.7324-7.05078Q20.7324-7.46094 20.4785-7.71484Q20.2246-7.96875 19.8242-7.96875L15.8691-7.96875L15.8691-11.9141Q15.8691-12.3242 15.6104-12.583Q15.3516-12.8418 14.9512-12.8418Q14.5605-12.8418 14.3115-12.583Q14.0625-12.3242 14.0625-11.9141L14.0625-7.96875L10.1172-7.96875Q9.70703-7.96875 9.45312-7.71484Q9.19922-7.46094 9.19922-7.05078Z"/>
  </g>
  <text style="stroke:none;fill:black;font-family:sans-serif;font-size:13;font-weight:bold;" transform="matrix(1 0 0 1 263 1953)">Design Variations</text>
  <text style="stroke:none;fill:black;font-family:sans-serif;font-size:13;" transform="matrix(1 0 0 1 263 1971)">Symbols are supported in up to nine weights and three scales.</text>
  <text style="stroke:none;fill:black;font-family:sans-serif;font-size:13;" transform="matrix(1 0 0 1 263 1989)">For optimal layout with text and other symbols, vertically align</text>
  <text style="stroke:none;fill:black;font-family:sans-serif;font-size:13;" transform="matrix(1 0 0 1 263 2007)">symbols with the adjacent text.</text>
  <line style="fill:none;stroke:#00AEEF;stroke-width:0.5;opacity:1.0;" x1="776" x2="776" y1="1919" y2="1933"/>
  <g transform="matrix(1 0 0 1 776 1933)">
   <path d="M3.31055 0.15625Q3.70117 0.15625 3.91602-0.00976562Q4.13086-0.175781 4.26758-0.585938L5.52734-4.0332L11.2891-4.0332L12.5488-0.585938Q12.6855-0.175781 12.9004-0.00976562Q13.1152 0.15625 13.4961 0.15625Q13.8867 0.15625 14.1162-0.0585938Q14.3457-0.273438 14.3457-0.644531Q14.3457-0.869141 14.2383-1.17188L9.6582-13.3691Q9.48242-13.8184 9.17969-14.043Q8.87695-14.2676 8.4082-14.2676Q7.5-14.2676 7.17773-13.3789L2.59766-1.16211Q2.49023-0.859375 2.49023-0.634766Q2.49023-0.263672 2.70996-0.0537109Q2.92969 0.15625 3.31055 0.15625ZM6.00586-5.51758L8.37891-12.0898L8.42773-12.0898L10.8008-5.51758Z"/>
  </g>
  <line style="fill:none;stroke:#00AEEF;stroke-width:0.5;opacity:1.0;" x1="793.197" x2="793.197" y1="1919" y2="1933"/>
  <text style="stroke:none;fill:black;font-family:sans-serif;font-size:13;font-weight:bold;" transform="matrix(1 0 0 1 776 1953)">Margins</text>
  <text style="stroke:none;fill:black;font-family:sans-serif;font-size:13;" transform="matrix(1 0 0 1 776 1971)">Leading and trailing margins on the left and right side of each symbol</text>
  <text style="stroke:none;fill:black;font-family:sans-serif;font-size:13;" transform="matrix(1 0 0 1 776 1989)">can be adjusted by modifying the x-location of the margin guidelines.</text>
  <text style="stroke:none;fill:black;font-family:sans-serif;font-size:13;" transform="matrix(1 0 0 1 776 2007)">Modifications are automatically applied proportionally to all</text>
  <text style="stroke:none;fill:black;font-family:sans-serif;font-size:13;" transform="matrix(1 0 0 1 776 2025)">scales and weights.</text>
  <g transform="matrix(1 0 0 1 1289 1933)">
   <path d="M2.8418 1.86523L4.54102 3.57422Q5.18555 4.22852 5.90332 4.17969Q6.62109 4.13086 7.31445 3.35938L18.0078-8.42773L17.041-9.4043L6.42578 2.27539Q6.16211 2.57812 5.89355 2.61719Q5.625 2.65625 5.27344 2.30469L4.10156 1.14258Q3.75 0.791016 3.79395 0.522461Q3.83789 0.253906 4.14062-0.0195312L15.6152-10.8203L14.6387-11.7871L3.04688-0.898438Q2.30469-0.214844 2.25098 0.498047Q2.19727 1.21094 2.8418 1.86523ZM9.25781-16.3281Q8.94531-16.0254 8.90625-15.6348Q8.86719-15.2441 9.04297-14.9512Q9.21875-14.6777 9.55566-14.541Q9.89258-14.4043 10.3809-14.5215Q11.4746-14.7754 12.5977-14.7314Q13.7207-14.6875 14.7949-13.9844L14.209-12.5293Q13.9551-11.9043 14.0674-11.4404Q14.1797-10.9766 14.5801-10.5664L16.875-8.25195Q17.2363-7.88086 17.5781-7.82227Q17.9199-7.76367 18.3398-7.8418L19.4043-8.03711L20.0684-7.36328L20.0293-6.80664Q20-6.43555 20.1221-6.12305Q20.2441-5.81055 20.6055-5.44922L21.3672-4.70703Q21.7285-4.3457 22.1533-4.33105Q22.5781-4.31641 22.9297-4.66797L25.8398-7.58789Q26.1914-7.93945 26.1816-8.35449Q26.1719-8.76953 25.8105-9.13086L25.0391-9.89258Q24.6875-10.2539 24.3799-10.3857Q24.0723-10.5176 23.7109-10.4883L23.1348-10.4395L22.4902-11.0742L22.7344-12.1973Q22.832-12.6172 22.6953-12.9834Q22.5586-13.3496 22.1191-13.7891L19.9219-15.9766Q18.6719-17.2168 17.2607-17.8369Q15.8496-18.457 14.4189-18.4814Q12.9883-18.5059 11.665-17.959Q10.3418-17.4121 9.25781-16.3281ZM10.752-15.957Q11.6602-16.6211 12.7002-16.9043Q13.7402-17.1875 14.8047-17.085Q15.8691-16.9824 16.8701-16.5137Q17.8711-16.0449 18.7012-15.2051L21.1328-12.793Q21.3086-12.6172 21.3525-12.4512Q21.3965-12.2852 21.3379-12.0312L21.0156-10.5469L22.5195-9.0625L23.5059-9.12109Q23.6914-9.13086 23.7891-9.09668Q23.8867-9.0625 24.0332-8.91602L24.6094-8.33984L22.168-5.89844L21.5918-6.47461Q21.4453-6.62109 21.4062-6.71875Q21.3672-6.81641 21.377-7.01172L21.4453-7.98828L19.9512-9.47266L18.4277-9.21875Q18.1836-9.16992 18.042-9.2041Q17.9004-9.23828 17.7148-9.41406L15.7129-11.416Q15.5176-11.5918 15.4932-11.7529Q15.4688-11.9141 15.5859-12.1875L16.4648-14.2773Q15.293-15.3711 13.8281-15.791Q12.3633-16.2109 10.8398-15.7617Q10.7227-15.7324 10.6885-15.8057Q10.6543-15.8789 10.752-15.957Z"/>
  </g>
  <text style="stroke:none;fill:black;font-family:sans-serif;font-size:13;font-weight:bold;" transform="matrix(1 0 0 1 1289 1953)">Exporting</text>
  <text style="stroke:none;fill:black;font-family:sans-serif;font-size:13;" transform="matrix(1 0 0 1 1289 1971)">Symbols should be outlined when exporting to ensure the</text>
  <text style="stroke:none;fill:black;font-family:sans-serif;font-size:13;" transform="matrix(1 0 0 1 1289 1989)">design is preserved when submitting to Xcode.</text>
  <text id="template-version" style="stroke:none;fill:black;font-family:sans-serif;font-size:13;text-anchor:end;" transform="matrix(1 0 0 1 3036 1933)">Template v.3.0</text>
  <text style="stroke:none;fill:black;font-family:sans-serif;font-size:13;text-anchor:end;" transform="matrix(1 0 0 1 3036 1951)">Requires Xcode 13 or greater</text>
  <text id="descriptive-name" style="stroke:none;fill:black;font-family:sans-serif;font-size:13;text-anchor:end;" transform="matrix(1 0 0 1 3036 1969)">Generated from highlighter</text>
  <text style="stroke:none;fill:black;font-family:sans-serif;font-size:13;text-anchor:end;" transform="matrix(1 0 0 1 3036 1987)">Typeset at 100 points</text>
  <text style="stroke:none;fill:black;font-family:sans-serif;font-size:13;" transform="matrix(1 0 0 1 263 726)">Small</text>
  <text style="stroke:none;fill:black;font-family:sans-serif;font-size:13;" transform="matrix(1 0 0 1 263 1156)">Medium</text>
  <text style="stroke:none;fill:black;font-family:sans-serif;font-size:13;" transform="matrix(1 0 0 1 263 1586)">Large</text>
 </g>
 <g id="Guides">
  <g id="H-reference" style="fill:#27AAE1;stroke:none;" transform="matrix(1 0 0 1 339 696)">
   <path d="M0.976562 0L3.66211 0L29.3457-67.1387L30.0293-67.1387L30.0293-70.459L28.125-70.459ZM11.6699-24.4629L46.9727-24.4629L46.2402-26.709L12.4512-26.709ZM55.127 0L57.7637 0L30.6152-70.459L29.4434-70.459L29.4434-67.1387Z"/>
  </g>
  <line id="Baseline-S" style="fill:none;stroke:#27AAE1;opacity:1;stroke-width:0.5;" x1="263" x2="3036" y1="696" y2="696"/>
  <line id="Capline-S" style="fill:none;stroke:#27AAE1;opacity:1;stroke-width:0.5;" x1="263" x2="3036" y1="625.541" y2="625.541"/>
  <g id="H-reference" style="fill:#27AAE1;stroke:none;" transform="matrix(1 0 0 1 339 1126)">
   <path d="M0.976562 0L3.66211 0L29.3457-67.1387L30.0293-67.1387L30.0293-70.459L28.125-70.459ZM11.6699-24.4629L46.9727-24.4629L46.2402-26.709L12.4512-26.709ZM55.127 0L57.7637 0L30.6152-70.459L29.4434-70.459L29.4434-67.1387Z"/>
  </g>
  <line id="Baseline-M" style="fill:none;stroke:#27AAE1;opacity:1;stroke-width:0.5;" x1="263" x2="3036" y1="1126" y2="1126"/>
  <line id="Capline-M" style="fill:none;stroke:#27AAE1;opacity:1;stroke-width:0.5;" x1="263" x2="3036" y1="1055.54" y2="1055.54"/>
  <g id="H-reference" style="fill:#27AAE1;stroke:none;" transform="matrix(1 0 0 1 339 1556)">
   <path d="M0.976562 0L3.66211 0L29.3457-67.1387L30.0293-67.1387L30.0293-70.459L28.125-70.459ZM11.6699-24.4629L46.9727-24.4629L46.2402-26.709L12.4512-26.709ZM55.127 0L57.7637 0L30.6152-70.459L29.4434-70.459L29.4434-67.1387Z"/>
  </g>
  <line id="Baseline-L" style="fill:none;stroke:#27AAE1;opacity:1;stroke-width:0.5;" x1="263" x2="3036" y1="1556" y2="1556"/>
  <line id="Capline-L" style="fill:none;stroke:#27AAE1;opacity:1;stroke-width:0.5;" x1="263" x2="3036" y1="1485.54" y2="1485.54"/>
  <line id="left-margin-Regular-M" style="fill:none;stroke:#00AEEF;stroke-width:0.5;opacity:1.0;" x1="1386.81" x2="1386.81" y1="1030.79" y2="1150.12"/>
  <line id="right-margin-Regular-M" style="fill:none;stroke:#00AEEF;stroke-width:0.5;opacity:1.0;" x1="1512.88" x2="1512.88" y1="1030.79" y2="1150.12"/>
 </g>
 <g id="Symbols">
  <g id="Black-L" transform="matrix(1 0 0 1 2849.27 1556)">
   <path d="M57.0801 2.53906L77.6855-6.44531Q78.9551-6.98242 79.8828-7.59277Q80.8105-8.20312 81.7871-9.17969L143.994-71.3379Q148.975-76.3672 149.023-82.251Q149.072-88.1348 144.141-93.0664L129.248-107.91Q124.316-112.842 118.433-112.769Q112.549-112.695 107.568-107.764L45.3613-45.6543Q44.3848-44.6289 43.7744-43.6768Q43.1641-42.7246 42.627-41.4551L33.6426-20.8984Q32.2266-17.5781 32.7393-14.4287Q33.252-11.2793 35.5957-8.93555L45.166 0.634766Q47.4609 2.92969 50.6104 3.4668Q53.7598 4.00391 57.0801 2.53906ZM54.9316-13.1348Q54.248-12.8906 53.7109-12.9395Q53.1738-12.9883 52.5879-13.5742L49.7559-16.4062Q49.2188-16.9434 49.1455-17.4805Q49.0723-18.0176 49.3652-18.7012L56.543-34.9609L116.895-95.2637Q117.725-96.1426 118.53-96.1426Q119.336-96.1426 120.117-95.3125L131.543-83.8867Q132.373-83.1055 132.373-82.2998Q132.373-81.4941 131.494-80.6641L71.1914-20.3125ZM27.1973 6.54297L37.5 6.54297Q39.4043 6.54297 40.2588 6.15234Q41.1133 5.76172 42.1387 4.98047L49.7559-1.02539L37.8418-13.0371L24.5605 0.488281Q22.8516 2.19727 23.5596 4.37012Q24.2676 6.54297 27.1973 6.54297ZM44.9707-36.2793L74.1211-7.17773L83.9844-16.9922L54.834-46.0449ZM98.2422-89.4531L127.295-60.4004L137.207-70.1172L108.057-99.1699ZM23.1934 28.7598L145.068 28.7598Q148.047 28.7598 150.122 26.5137Q152.197 24.2676 152.197 21.3867Q152.197 18.3594 150.122 16.2109Q148.047 14.0625 145.068 14.0625L23.1934 14.0625Q20.2148 14.0625 18.1396 16.2354Q16.0645 18.4082 16.0645 21.3867Q16.0645 24.2188 18.1641 26.4893Q20.2637 28.7598 23.1934 28.7598Z"/>
  </g>
  <g id="Heavy-L" transform="matrix(1 0 0 1 2553.22 1556)">
   <path d="M54.6875 1.12305L75.3906-7.71484Q76.6602-8.25195 77.4902-8.81348Q78.3203-9.375 79.248-10.3027L141.064-71.875Q145.85-76.709 145.874-82.2998Q145.898-87.8906 141.162-92.6758L126.66-107.178Q121.875-111.963 116.284-111.914Q110.693-111.865 105.859-107.129L44.043-45.6055Q43.1641-44.6777 42.5781-43.7988Q41.9922-42.9199 41.5039-41.6992L32.5684-20.9961Q31.2988-17.9688 31.7383-15.0635Q32.1777-12.1582 34.375-9.96094L43.7012-0.634766Q45.8496 1.46484 48.7305 1.95312Q51.6113 2.44141 54.6875 1.12305ZM52.832-12.8418Q52.0508-12.5488 51.4893-12.6221Q50.9277-12.6953 50.293-13.3301L47.0215-16.6016Q46.3867-17.1875 46.3135-17.7734Q46.2402-18.3594 46.582-19.0918L53.9062-36.0352L114.307-96.1426Q115.283-97.168 116.309-97.1924Q117.334-97.2168 118.262-96.2402L130.176-84.2773Q131.152-83.3008 131.152-82.2998Q131.152-81.2988 130.078-80.2734L69.7754-20.1172ZM26.3672 4.88281L35.8887 4.88281Q37.6465 4.88281 38.4521 4.5166Q39.2578 4.15039 40.2832 3.41797L47.5098-2.24609L36.4258-13.4277L23.9258-0.683594Q22.3633 0.927734 23.0225 2.90527Q23.6816 4.88281 26.3672 4.88281ZM43.9453-37.0117L72.2168-8.74023L80.957-17.4316L52.6855-45.7031ZM97.1191-89.9414L125.342-61.6699L134.131-70.3125L105.859-98.584ZM22.5586 27.0508L144.434 27.0508Q147.119 27.0508 148.999 25.0244Q150.879 22.998 150.879 20.3613Q150.879 17.627 148.999 15.6982Q147.119 13.7695 144.434 13.7695L22.5586 13.7695Q19.8242 13.7695 17.9443 15.7227Q16.0645 17.6758 16.0645 20.3613Q16.0645 22.9492 17.9688 25Q19.873 27.0508 22.5586 27.0508Z"/>
  </g>
  <g id="Bold-L" transform="matrix(1 0 0 1 2257.24 1556)">
   <path d="M52.002-0.488281L72.8516-9.17969Q74.0723-9.66797 74.8291-10.1807Q75.5859-10.6934 76.416-11.5234L137.793-72.4609Q142.383-77.0508 142.383-82.3242Q142.383-87.5977 137.793-92.2363L123.73-106.348Q119.141-110.986 113.867-110.986Q108.594-110.986 104.004-106.445L42.627-45.5566Q41.7969-44.7266 41.2598-43.9453Q40.7227-43.1641 40.2344-41.9434L31.3965-21.1426Q30.2246-18.3594 30.6152-15.7715Q31.0059-13.1836 33.0078-11.1816L42.041-2.09961Q44.043-0.146484 46.6309 0.292969Q49.2188 0.732422 52.002-0.488281ZM50.4395-12.5Q49.6582-12.207 49.0234-12.2803Q48.3887-12.3535 47.7051-13.0371L43.9453-16.7969Q43.2617-17.4805 43.1885-18.1152Q43.1152-18.75 43.457-19.5312L51.0254-37.207L111.426-97.168Q112.598-98.3398 113.843-98.3643Q115.088-98.3887 116.211-97.2656L128.662-84.7168Q129.834-83.5449 129.785-82.2998Q129.736-81.0547 128.516-79.8828L68.1641-19.9219ZM25.4395 3.07617L34.1309 3.07617Q35.6934 3.07617 36.4746 2.73438Q37.2559 2.39258 38.2324 1.66016L45.0684-3.66211L34.8633-13.916L23.291-2.00195Q21.7773-0.488281 22.4121 1.29395Q23.0469 3.07617 25.4395 3.07617ZM42.8223-37.8906L70.1172-10.4492L77.5879-17.9199L50.3418-45.3125ZM95.8984-90.5273L123.145-63.1348L130.664-70.5078L103.369-97.9004ZM21.8262 25.0977L143.701 25.0977Q146.045 25.0977 147.729 23.3398Q149.414 21.582 149.414 19.2383Q149.414 16.8457 147.729 15.1367Q146.045 13.4277 143.701 13.4277L21.8262 13.4277Q19.4336 13.4277 17.749 15.1611Q16.0645 16.8945 16.0645 19.2383Q16.0645 21.582 17.749 23.3398Q19.4336 25.0977 21.8262 25.0977Z"/>
  </g>
  <g id="Semibold-L" transform="matrix(1 0 0 1 1961.04 1556)">
   <path d="M50.0977-1.5625L71.0938-10.1562Q72.2656-10.5957 72.9736-11.1084Q73.6816-11.6211 74.4629-12.3535L135.498-72.8516Q139.941-77.2949 139.941-82.3486Q139.941-87.4023 135.498-91.9434L121.729-105.762Q117.236-110.254 112.183-110.303Q107.129-110.352 102.686-105.957L41.6016-45.5078Q40.8203-44.7266 40.332-44.0186Q39.8438-43.3105 39.3555-42.1387L30.5664-21.1914Q29.4922-18.6523 29.834-16.2598Q30.1758-13.8672 32.0801-11.9629L40.918-3.07617Q42.7734-1.2207 45.1416-0.830078Q47.5098-0.439453 50.0977-1.5625ZM48.8281-12.2559Q47.9492-11.9141 47.29-12.0117Q46.6309-12.1094 45.8984-12.793L41.7969-16.9434Q41.1133-17.627 41.04-18.3105Q40.9668-18.9941 41.2598-19.8242L48.9746-38.0371L109.424-97.8516Q110.693-99.1211 112.109-99.1699Q113.525-99.2188 114.795-97.9492L127.637-85.0098Q128.857-83.6914 128.809-82.2754Q128.76-80.8594 127.441-79.5898L67.041-19.7266ZM24.7559 1.75781L32.8613 1.75781Q34.3262 1.75781 35.083 1.46484Q35.8398 1.17188 36.8164 0.439453L43.3105-4.58984L33.7402-14.209L22.8027-2.92969Q21.3867-1.46484 21.9727 0.146484Q22.5586 1.75781 24.7559 1.75781ZM42.041-38.4277L68.6035-11.6211L75.2441-18.2129L48.6816-45.0195ZM95.0684-90.8691L121.582-64.1113L128.271-70.6543L101.66-97.4609ZM21.2891 23.7793L143.164 23.7793Q145.312 23.7793 146.851 22.1924Q148.389 20.6055 148.389 18.457Q148.389 16.3086 146.851 14.7461Q145.312 13.1836 143.164 13.1836L21.2891 13.1836Q19.0918 13.1836 17.5781 14.7461Q16.0645 16.3086 16.0645 18.457Q16.0645 20.6055 17.6025 22.1924Q19.1406 23.7793 21.2891 23.7793Z"/>
  </g>
  <g id="Medium-L" transform="matrix(1 0 0 1 1664.7 1556)">
   <path d="M48.7305-2.39258L69.7754-10.8887Q70.8984-11.3281 71.582-11.8164Q72.2656-12.3047 72.998-13.0371L133.789-73.1934Q138.135-77.4902 138.11-82.373Q138.086-87.2559 133.74-91.6992L120.215-105.371Q115.82-109.766 110.913-109.839Q106.006-109.912 101.66-105.615L40.8203-45.5078Q40.0879-44.7266 39.624-44.0674Q39.1602-43.4082 38.7207-42.2363L29.9805-21.2402Q28.9551-18.8477 29.2725-16.626Q29.5898-14.4043 31.3477-12.5977L40.0391-3.85742Q41.7969-2.09961 44.043-1.7334Q46.2891-1.36719 48.7305-2.39258ZM47.5586-12.1094Q46.6797-11.7188 45.9961-11.8164Q45.3125-11.9141 44.5312-12.6465L40.1855-17.041Q39.4531-17.7734 39.3799-18.4814Q39.3066-19.1895 39.6484-20.0684L47.4609-38.623L107.861-98.3887Q109.277-99.7559 110.815-99.7803Q112.354-99.8047 113.721-98.4863L126.807-85.2051Q128.174-83.8379 128.101-82.2754Q128.027-80.7129 126.611-79.3945L66.2109-19.6289ZM24.2676 0.830078L31.9336 0.830078Q33.3008 0.830078 34.0332 0.537109Q34.7656 0.244141 35.7422-0.488281L42.041-5.32227L32.9102-14.4531L22.4609-3.61328Q21.0938-2.19727 21.6553-0.683594Q22.2168 0.830078 24.2676 0.830078ZM41.4551-38.8672L67.5293-12.5488L73.4863-18.457L47.4121-44.8242ZM94.3848-91.1621L120.459-64.8438L126.416-70.752L100.391-97.0703ZM20.8984 22.7539L142.773 22.7539Q144.775 22.7539 146.216 21.3135Q147.656 19.873 147.656 17.8711Q147.656 15.8691 146.216 14.4531Q144.775 13.0371 142.773 13.0371L20.8984 13.0371Q18.8965 13.0371 17.4805 14.4531Q16.0645 15.8691 16.0645 17.8711Q16.0645 19.873 17.4805 21.3135Q18.8965 22.7539 20.8984 22.7539Z"/>
  </g>
  <g id="Regular-L" transform="matrix(1 0 0 1 1368.5 1556)">
   <path d="M46.875-3.4668L68.0176-11.8652Q69.1406-12.3047 69.751-12.7441Q70.3613-13.1836 71.0449-13.8672L131.543-73.584Q135.742-77.7344 135.718-82.3975Q135.693-87.0605 131.445-91.4062L118.213-104.785Q113.965-109.082 109.277-109.18Q104.59-109.277 100.391-105.127L39.8438-45.459Q39.1602-44.7754 38.7207-44.165Q38.2812-43.5547 37.8418-42.4316L29.1504-21.3379Q28.2227-19.1406 28.4912-17.1143Q28.7598-15.0879 30.4199-13.3789L38.916-4.83398Q40.5762-3.17383 42.6025-2.85645Q44.6289-2.53906 46.875-3.4668ZM45.9473-11.8652Q45.0195-11.4746 44.3115-11.5723Q43.6035-11.6699 42.7734-12.4512L38.0859-17.1875Q37.3047-17.9688 37.2314-18.7012Q37.1582-19.4336 37.5-20.3613L45.459-39.4531L105.908-99.0723Q107.422-100.537 109.131-100.586Q110.84-100.635 112.305-99.1699L125.781-85.498Q127.246-83.9844 127.173-82.2754Q127.1-80.5664 125.537-79.1016L65.1367-19.4824ZM23.6328-0.439453L30.7129-0.439453Q31.9824-0.439453 32.666-0.708008Q33.3496-0.976562 34.3262-1.70898L40.332-6.25L31.8359-14.7461L21.9727-4.49219Q20.7031-3.17383 21.2402-1.80664Q21.7773-0.439453 23.6328-0.439453ZM40.6738-39.4531L66.0645-13.7207L71.1914-18.7988L45.8008-44.5312ZM93.5547-91.5527L118.945-65.8203L124.072-70.8984L98.6816-96.6309ZM20.4102 21.4355L142.285 21.4355Q144.043 21.4355 145.337 20.166Q146.631 18.8965 146.631 17.0898Q146.631 15.332 145.337 14.0625Q144.043 12.793 142.285 12.793L20.4102 12.793Q18.6035 12.793 17.334 14.0625Q16.0645 15.332 16.0645 17.0898Q16.0645 18.8965 17.334 20.166Q18.6035 21.4355 20.4102 21.4355Z"/>
  </g>
  <g id="Light-L" transform="matrix(1 0 0 1 1071.79 1556)">
   <path d="M46.7285-3.80859L68.2129-11.8652Q69.2871-12.2559 69.8242-12.6221Q70.3613-12.9883 70.9961-13.6719L131.689-73.1445Q135.596-77.002 135.596-81.3232Q135.596-85.6445 131.641-89.6484L118.457-103.125Q114.551-107.08 110.205-107.202Q105.859-107.324 101.953-103.516L41.1621-44.0918Q40.5273-43.4082 40.1367-42.8955Q39.7461-42.3828 39.3555-41.3574L30.8105-19.9219Q30.0293-17.9688 30.249-16.2598Q30.4688-14.5508 31.9336-13.0371L39.8438-5.0293Q41.3086-3.51562 43.0176-3.24707Q44.7266-2.97852 46.7285-3.80859ZM45.9473-10.2051Q44.9707-9.81445 44.3359-9.93652Q43.7012-10.0586 42.9688-10.7422L37.7441-16.1133Q37.0605-16.7969 36.9629-17.4561Q36.8652-18.1152 37.207-19.0918L45.3613-39.2578L106.299-98.877Q108.057-100.586 110.034-100.635Q112.012-100.684 113.721-98.9258L127.441-84.9609Q129.15-83.1543 129.053-81.2012Q128.955-79.248 127.148-77.4902L66.2598-17.8711ZM25.3906-0.878906L31.6895-0.878906Q32.8613-0.878906 33.4473-1.09863Q34.0332-1.31836 34.8633-1.95312L41.0645-6.54297L33.3984-13.9648L23.9746-4.3457Q22.9004-3.27148 23.3398-2.0752Q23.7793-0.878906 25.3906-0.878906ZM41.8457-39.209L66.748-13.7695L70.8008-17.7734L45.8984-43.2129ZM95.5078-91.6504L120.361-66.2109L124.463-70.2148L99.5605-95.6543ZM19.3848 20.1172L143.311 20.1172Q144.678 20.1172 145.654 19.165Q146.631 18.2129 146.631 16.7969Q146.631 15.4785 145.654 14.502Q144.678 13.5254 143.311 13.5254L19.3848 13.5254Q18.0176 13.5254 17.041 14.502Q16.0645 15.4785 16.0645 16.7969Q16.0645 18.2129 17.041 19.165Q18.0176 20.1172 19.3848 20.1172Z"/>
  </g>
  <g id="Thin-L" transform="matrix(1 0 0 1 775.05 1556)">
   <path d="M46.5332-4.19922L68.5059-11.8652Q69.4336-12.207 69.873-12.4756Q70.3125-12.7441 70.9473-13.3789L131.885-72.5586Q135.4-76.0254 135.4-79.8828Q135.4-83.7402 131.934-87.3535L118.799-100.928Q115.381-104.492 111.45-104.614Q107.52-104.736 104.053-101.367L42.9199-42.2363Q42.334-41.6504 41.9922-41.2109Q41.6504-40.7715 41.3574-39.8926L33.0078-18.0664Q32.373-16.4551 32.5439-15.1855Q32.7148-13.916 33.9355-12.5977L41.0645-5.27344Q42.2852-4.00391 43.5791-3.80859Q44.873-3.61328 46.5332-4.19922ZM45.8984-8.05664Q44.9219-7.66602 44.3848-7.8125Q43.8477-7.95898 43.2617-8.49609L37.3047-14.6484Q36.7188-15.2832 36.5967-15.8447Q36.4746-16.4062 36.8164-17.3828L45.2148-38.9648L106.836-98.6328Q108.936-100.635 111.255-100.659Q113.574-100.684 115.625-98.6328L129.59-84.1797Q131.641-82.0312 131.543-79.7607Q131.445-77.4902 129.248-75.3906L67.7246-15.7227ZM27.6855-1.41602L33.0078-1.41602Q34.0332-1.41602 34.4727-1.61133Q34.9121-1.80664 35.498-2.24609L42.041-6.88477L35.4492-12.8906L26.6113-4.19922Q25.7812-3.36914 26.123-2.39258Q26.4648-1.41602 27.6855-1.41602ZM43.3594-38.8672L67.627-13.8672L70.2637-16.4062L45.9961-41.4551ZM98.0469-91.748L122.266-66.748L125-69.3359L100.684-94.3848ZM18.0176 18.4082L144.727 18.4082Q145.508 18.4082 146.094 17.8467Q146.68 17.2852 146.68 16.4551Q146.68 15.625 146.094 15.0635Q145.508 14.502 144.727 14.502L18.0176 14.502Q17.2363 14.502 16.6504 15.0635Q16.0645 15.625 16.0645 16.4551Q16.0645 17.2852 16.6504 17.8467Q17.2363 18.4082 18.0176 18.4082Z"/>
  </g>
  <g id="Ultralight-L" transform="matrix(1 0 0 1 478.339 1556)">
   <path d="M46.4355-4.44336L68.6523-11.8652Q69.5312-12.1582 69.9219-12.4023Q70.3125-12.6465 70.8984-13.2324L131.982-72.2656Q135.303-75.4883 135.327-79.1504Q135.352-82.8125 132.08-86.1816L118.994-99.8047Q115.771-103.125 112.085-103.271Q108.398-103.418 105.127-100.244L43.8477-41.3086Q43.2617-40.7227 42.9443-40.3564Q42.627-39.9902 42.3828-39.1602L34.1309-17.1387Q33.5938-15.625 33.7158-14.5752Q33.8379-13.5254 34.9609-12.4023L41.6992-5.41992Q42.8223-4.24805 43.8965-4.07715Q44.9707-3.90625 46.4355-4.44336ZM45.8984-6.93359Q44.873-6.54297 44.4092-6.68945Q43.9453-6.83594 43.4082-7.37305L37.1094-13.916Q36.5234-14.502 36.4014-15.0146Q36.2793-15.5273 36.6211-16.5039L45.1172-38.8184L107.08-98.4863Q109.375-100.684 111.89-100.708Q114.404-100.732 116.553-98.4863L130.713-83.8379Q132.91-81.4941 132.788-79.0283Q132.666-76.5625 130.322-74.3164L68.457-14.5996ZM28.8574-1.70898L33.6426-1.70898Q34.6191-1.70898 34.9854-1.87988Q35.3516-2.05078 35.8887-2.39258L42.5293-7.08008L36.5234-12.3535L27.9785-4.10156Q27.2461-3.41797 27.5391-2.56348Q27.832-1.70898 28.8574-1.70898ZM44.1406-38.7207L68.0664-13.916L69.9707-15.7227L46.0938-40.5273ZM99.3652-91.8457L123.242-66.9922L125.244-68.8965L101.27-93.7012ZM17.334 17.5293L145.41 17.5293Q145.898 17.5293 146.289 17.1631Q146.68 16.7969 146.68 16.2598Q146.68 15.7227 146.289 15.3564Q145.898 14.9902 145.41 14.9902L17.334 14.9902Q16.8457 14.9902 16.4551 15.3564Q16.0645 15.7227 16.0645 16.2598Q16.0645 16.7969 16.4551 17.1631Q16.8457 17.5293 17.334 17.5293Z"/>
  </g>
  <g id="Black-M" transform="matrix(1 0 0 1 2867.63 1126)">
   <path d="M46.2891-4.83398L62.207-11.8164Q63.1836-12.2559 63.9404-12.7197Q64.6973-13.1836 65.5273-14.0137L114.16-62.6465Q118.115-66.6016 118.14-71.2891Q118.164-75.9766 114.355-79.7852L102.49-91.6504Q98.6328-95.459 93.9453-95.3857Q89.2578-95.3125 85.3516-91.4062L36.7676-42.8711Q35.9375-42.041 35.4492-41.2598Q34.9609-40.4785 34.5215-39.502L27.5391-23.5352Q26.3672-20.8496 26.8066-18.2861Q27.2461-15.7227 29.1504-13.8184L36.5723-6.44531Q38.4277-4.54102 40.9912-4.10156Q43.5547-3.66211 46.2891-4.83398ZM44.3848-17.8223Q43.8965-17.627 43.5303-17.6758Q43.1641-17.7246 42.8223-18.1152L40.8203-20.1172Q40.4297-20.459 40.3809-20.8008Q40.332-21.1426 40.5273-21.6309L45.9961-34.082L92.9199-80.957Q93.5547-81.543 94.0674-81.543Q94.5801-81.543 95.166-80.957L103.662-72.4609Q104.785-71.3379 103.662-70.2148L56.7871-23.291ZM22.4121-1.61133L30.7617-1.61133Q32.373-1.61133 33.0078-1.9043Q33.6426-2.19727 34.4238-2.7832L40.7227-7.76367L31.0547-17.3828L20.2148-6.49414Q18.8477-5.12695 19.4092-3.36914Q19.9707-1.61133 22.4121-1.61133ZM36.1328-35.3516L59.3262-12.1582L67.5293-20.3613L44.3359-43.5059ZM77.7344-76.8555L100.83-53.7598L109.131-61.8652L85.9375-84.9609ZM18.2129 15.3809L113.33 15.3809Q115.771 15.3809 117.432 13.5498Q119.092 11.7188 119.092 9.375Q119.092 6.98242 117.432 5.22461Q115.771 3.4668 113.33 3.4668L18.2129 3.4668Q15.7715 3.4668 14.1113 5.24902Q12.4512 7.03125 12.4512 9.375Q12.4512 11.7188 14.1357 13.5498Q15.8203 15.3809 18.2129 15.3809Z"/>
  </g>
  <g id="Heavy-M" transform="matrix(1 0 0 1 2571.55 1126)">
   <path d="M43.9453-6.15234L59.9609-13.0859Q60.8887-13.4766 61.5967-13.9404Q62.3047-14.4043 63.0859-15.1367L111.279-63.2324Q115.088-67.0898 115.088-71.5576Q115.088-76.0254 111.377-79.7852L99.9023-91.2598Q96.1426-95.0195 91.6504-94.9707Q87.1582-94.9219 83.3496-91.1621L35.2051-43.1152Q34.4238-42.334 33.96-41.626Q33.4961-40.918 33.1055-39.9414L26.123-23.9258Q25.0488-21.4844 25.4395-19.0918Q25.8301-16.6992 27.6367-14.9414L34.9121-7.66602Q36.6699-5.85938 39.0381-5.46875Q41.4062-5.07812 43.9453-6.15234ZM42.334-17.8711Q41.7969-17.6758 41.3574-17.7246Q40.918-17.7734 40.5273-18.2129L38.1836-20.5078Q37.7441-20.9473 37.6953-21.3623Q37.6465-21.7773 37.8418-22.2656L43.457-35.1562L90.2832-81.8848Q91.0645-82.5684 91.7236-82.5684Q92.3828-82.5684 93.0664-81.8848L102.002-72.9492Q103.32-71.582 101.953-70.2148L55.127-23.4375ZM21.1914-3.125L29.0039-3.125Q30.4688-3.125 31.1035-3.39355Q31.7383-3.66211 32.5195-4.29688L38.3789-8.93555L29.3457-17.9688L19.1895-7.66602Q17.9199-6.34766 18.4326-4.73633Q18.9453-3.125 21.1914-3.125ZM34.9121-36.1328L57.3242-13.6719L64.6484-20.9961L42.2363-43.457ZM76.2207-77.2949L98.584-54.9316L106.006-62.207L83.5938-84.5703ZM17.7734 13.9648L112.451 13.9648Q114.697 13.9648 116.26 12.3047Q117.822 10.6445 117.822 8.44727Q117.822 6.25 116.26 4.63867Q114.697 3.02734 112.451 3.02734L17.7734 3.02734Q15.5273 3.02734 13.9893 4.66309Q12.4512 6.29883 12.4512 8.44727Q12.4512 10.6445 14.0137 12.3047Q15.5762 13.9648 17.7734 13.9648Z"/>
  </g>
  <g id="Bold-M" transform="matrix(1 0 0 1 2275.57 1126)">
   <path d="M41.3574-7.66602L57.4219-14.502Q58.3496-14.8926 58.9844-15.3076Q59.6191-15.7227 60.3516-16.4062L108.008-63.916Q111.719-67.627 111.719-71.875Q111.719-76.123 108.057-79.7852L97.0215-90.8691Q93.3105-94.5312 89.0625-94.5312Q84.8145-94.5312 81.1523-90.8691L33.4473-43.4082Q32.7637-42.7246 32.3486-42.0654Q31.9336-41.4062 31.4941-40.4785L24.6094-24.4141Q23.6328-22.168 23.9502-19.9951Q24.2676-17.8223 25.9277-16.1621L33.1055-8.98438Q34.7168-7.37305 36.8896-7.03125Q39.0625-6.68945 41.3574-7.66602ZM40.0391-17.9199Q39.4043-17.7246 38.9404-17.7734Q38.4766-17.8223 37.9395-18.3594L35.3027-20.9961Q34.7656-21.4844 34.7168-21.9727Q34.668-22.4609 34.9121-23.0469L40.6738-36.377L87.4023-82.9102Q88.2324-83.6914 89.0869-83.7158Q89.9414-83.7402 90.7227-82.959L100.098-73.4863Q101.709-71.875 100.049-70.166L53.3203-23.6328ZM19.873-4.83398L27.002-4.83398Q28.3203-4.83398 28.9551-5.10254Q29.5898-5.37109 30.3711-5.95703L35.791-10.2051L27.4414-18.6035L18.0664-8.98438Q16.8457-7.71484 17.3584-6.27441Q17.8711-4.83398 19.873-4.83398ZM33.4961-37.0117L55.0781-15.3809L61.4746-21.7285L39.8926-43.3594ZM74.5605-77.832L96.0938-56.25L102.539-62.5488L80.957-84.1797ZM17.2852 12.4023L111.523 12.4023Q113.525 12.4023 114.941 10.9131Q116.357 9.42383 116.357 7.42188Q116.357 5.41992 114.941 3.97949Q113.525 2.53906 111.523 2.53906L17.2852 2.53906Q15.2832 2.53906 13.8672 4.00391Q12.4512 5.46875 12.4512 7.42188Q12.4512 9.42383 13.8672 10.9131Q15.2832 12.4023 17.2852 12.4023Z"/>
  </g>
  <g id="Semibold-M" transform="matrix(1 0 0 1 1979.35 1126)">
   <path d="M39.5508-8.64258L55.6641-15.4297Q56.5918-15.8203 57.1777-16.2354Q57.7637-16.6504 58.4473-17.2852L105.762-64.3555Q109.375-67.9688 109.351-72.0459Q109.326-76.123 105.762-79.7363L95.0195-90.5762Q91.3574-94.1406 87.2559-94.165Q83.1543-94.1895 79.5898-90.625L32.2266-43.5547Q31.5918-42.9199 31.2012-42.334Q30.8105-41.748 30.3711-40.8203L23.4863-24.707Q22.6074-22.6074 22.9004-20.6055Q23.1934-18.6035 24.7559-16.9922L31.8359-9.91211Q33.3496-8.34961 35.376-8.05664Q37.4023-7.76367 39.5508-8.64258ZM38.4277-17.9688Q37.793-17.7246 37.2559-17.7734Q36.7188-17.8223 36.1816-18.4082L33.252-21.3379Q32.666-21.875 32.6172-22.3877Q32.5684-22.9004 32.8125-23.5352L38.7207-37.1582L85.3516-83.5938Q86.2793-84.4238 87.2559-84.4727Q88.2324-84.5215 89.0625-83.6426L98.7793-73.877Q100.586-72.0215 98.6816-70.166L52.0508-23.7305ZM18.9453-5.95703L25.6348-5.95703Q26.8555-5.95703 27.4658-6.22559Q28.0762-6.49414 28.8574-7.12891L33.9844-11.084L26.123-19.043L17.2852-9.91211Q16.1133-8.64258 16.6016-7.2998Q17.0898-5.95703 18.9453-5.95703ZM32.5195-37.5977L53.5156-16.5039L59.2773-22.2168L38.2812-43.3105ZM73.3887-78.1738L94.3848-57.1777L100.146-62.793L79.1504-83.8379ZM16.9434 11.3281L110.84 11.3281Q112.695 11.3281 114.038 9.93652Q115.381 8.54492 115.381 6.68945Q115.381 4.83398 114.038 3.49121Q112.695 2.14844 110.84 2.14844L16.9434 2.14844Q15.0879 2.14844 13.7695 3.51562Q12.4512 4.88281 12.4512 6.68945Q12.4512 8.54492 13.7695 9.93652Q15.0879 11.3281 16.9434 11.3281Z"/>
  </g>
  <g id="Medium-M" transform="matrix(1 0 0 1 1683.03 1126)">
   <path d="M38.1836-9.42383L54.2969-16.1621Q55.2734-16.5527 55.8105-16.9434Q56.3477-17.334 56.9824-17.9199L104.053-64.7461Q107.568-68.2617 107.568-72.2168Q107.568-76.1719 104.004-79.7363L93.457-90.3809Q89.8926-93.8965 85.9131-93.9453Q81.9336-93.9941 78.418-90.4785L31.2988-43.7012Q30.7129-43.1152 30.3223-42.5537Q29.9316-41.9922 29.541-41.1133L22.7051-24.9512Q21.8262-22.9492 22.0947-21.0693Q22.3633-19.1895 23.877-17.6758L30.9082-10.5957Q32.3242-9.13086 34.2285-8.8623Q36.1328-8.59375 38.1836-9.42383ZM37.207-17.9688Q36.5234-17.7246 35.9863-17.7734Q35.4492-17.8223 34.8145-18.457L31.7383-21.582Q31.1035-22.1191 31.0547-22.6807Q31.0059-23.2422 31.2988-23.9258L37.207-37.793L83.8379-84.1309Q84.8145-85.0098 85.8643-85.0586Q86.9141-85.1074 87.8418-84.1797L97.8027-74.1211Q99.7559-72.168 97.7051-70.1172L51.123-23.8281ZM18.2617-6.83594L24.6094-6.83594Q25.7324-6.83594 26.3428-7.10449Q26.9531-7.37305 27.7344-8.00781L32.6172-11.7676L25.1465-19.3848L16.6992-10.5957Q15.5762-9.375 16.04-8.10547Q16.5039-6.83594 18.2617-6.83594ZM31.7871-38.0371L52.3438-17.3828L57.6172-22.6074L37.0605-43.2617ZM72.5098-78.4668L93.0664-57.8613L98.3398-62.9883L77.7832-83.6426ZM16.6992 10.498L110.303 10.498Q112.109 10.498 113.354 9.2041Q114.6 7.91016 114.6 6.15234Q114.6 4.44336 113.354 3.17383Q112.109 1.9043 110.303 1.9043L16.6992 1.9043Q14.9414 1.9043 13.6963 3.17383Q12.4512 4.44336 12.4512 6.15234Q12.4512 7.91016 13.6963 9.2041Q14.9414 10.498 16.6992 10.498Z"/>
  </g>
  <g id="Regular-M" transform="matrix(1 0 0 1 1386.81 1126)">
   <path d="M36.377-10.4492L52.5879-17.1387Q53.5156-17.4805 54.0283-17.8711Q54.541-18.2617 55.127-18.7988L101.855-65.1855Q105.273-68.6035 105.249-72.4121Q105.225-76.2207 101.758-79.7363L91.5039-90.0879Q87.9883-93.5547 84.1553-93.6279Q80.3223-93.7012 76.9043-90.2832L30.127-43.8965Q29.5898-43.3594 29.2236-42.8467Q28.8574-42.334 28.4668-41.4551L21.6309-25.2441Q20.8496-23.4375 21.0693-21.6797Q21.2891-19.9219 22.7051-18.5059L29.6387-11.5234Q31.0059-10.1562 32.7637-9.91211Q34.5215-9.66797 36.377-10.4492ZM35.6445-18.0176Q34.9121-17.7734 34.3262-17.8223Q33.7402-17.8711 33.0566-18.5547L29.7363-21.875Q29.0527-22.5098 29.0039-23.1201Q28.9551-23.7305 29.248-24.4141L35.3027-38.623L81.8359-84.8145Q82.9102-85.791 84.082-85.8398Q85.2539-85.8887 86.2305-84.9121L96.5332-74.5117Q98.6328-72.3633 96.3867-70.1172L49.8535-23.9258ZM17.334-8.00781L23.2422-8.00781Q24.2676-8.00781 24.8779-8.25195Q25.4883-8.49609 26.2695-9.13086L30.8594-12.6465L23.8281-19.8242L15.918-11.4746Q14.8438-10.3027 15.2832-9.15527Q15.7227-8.00781 17.334-8.00781ZM30.8594-38.623L50.8301-18.5547L55.4199-23.0957L35.4492-43.2129ZM71.3867-78.8086L91.3574-58.7402L95.9473-63.2324L75.9766-83.3496ZM16.3574 9.42383L109.668 9.42383Q111.279 9.42383 112.451 8.25195Q113.623 7.08008 113.623 5.46875Q113.623 3.85742 112.451 2.70996Q111.279 1.5625 109.668 1.5625L16.3574 1.5625Q14.7461 1.5625 13.5986 2.70996Q12.4512 3.85742 12.4512 5.46875Q12.4512 7.08008 13.5986 8.25195Q14.7461 9.42383 16.3574 9.42383Z"/>
  </g>
  <g id="Light-M" transform="matrix(1 0 0 1 1090.1 1126)">
   <path d="M36.2793-10.7422L52.7832-17.1387Q53.6133-17.4316 54.0771-17.7734Q54.541-18.1152 55.0781-18.6035L102.002-64.7949Q105.127-67.9199 105.127-71.4355Q105.127-74.9512 101.953-78.1738L91.748-88.5742Q88.5254-91.7969 84.9854-91.8701Q81.4453-91.9434 78.3203-88.8672L31.2988-42.6758Q30.8105-42.1875 30.4932-41.7236Q30.1758-41.2598 29.834-40.4785L23.1445-23.9746Q22.4609-22.3633 22.6318-20.8984Q22.8027-19.4336 24.0723-18.2129L30.4688-11.7188Q31.6895-10.498 33.1543-10.2783Q34.6191-10.0586 36.2793-10.7422ZM35.5957-16.5527Q34.8633-16.3086 34.3506-16.3818Q33.8379-16.4551 33.252-17.041L29.4434-20.8984Q28.8086-21.4844 28.7598-22.0215Q28.7109-22.5586 29.0039-23.291L35.2051-38.4277L82.1777-84.668Q83.4961-85.8398 84.8877-85.8887Q86.2793-85.9375 87.5-84.7168L97.998-74.0234Q100.537-71.3867 97.8027-68.7012L50.8301-22.5098ZM18.8965-8.39844L24.1211-8.39844Q25.0488-8.39844 25.5615-8.61816Q26.0742-8.83789 26.7578-9.32617L31.4941-12.8906L25.2441-19.0918L17.7246-11.377Q16.7969-10.4004 17.1631-9.39941Q17.5293-8.39844 18.8965-8.39844ZM31.8848-38.4277L51.416-18.6035L55.0781-22.168L35.5469-42.041ZM73.1445-78.9062L92.627-59.082L96.2891-62.6465L76.7578-82.4707ZM15.4297 8.25195L110.596 8.25195Q111.816 8.25195 112.72 7.34863Q113.623 6.44531 113.623 5.22461Q113.623 3.95508 112.72 3.10059Q111.816 2.24609 110.596 2.24609L15.4297 2.24609Q14.209 2.24609 13.3301 3.10059Q12.4512 3.95508 12.4512 5.22461Q12.4512 6.44531 13.3301 7.34863Q14.209 8.25195 15.4297 8.25195Z"/>
  </g>
  <g id="Thin-M" transform="matrix(1 0 0 1 793.361 1126)">
   <path d="M36.084-11.084L53.0273-17.1387Q53.8086-17.3828 54.1504-17.627Q54.4922-17.8711 54.9805-18.3594L102.148-64.3066Q104.98-67.041 104.98-70.1416Q104.98-73.2422 102.197-76.123L92.041-86.6211Q89.2578-89.4531 86.1084-89.5508Q82.959-89.6484 80.1758-86.9629L32.9102-41.0645Q32.4219-40.5762 32.1533-40.2344Q31.8848-39.8926 31.6406-39.1602L25.0977-22.3145Q24.5605-20.9961 24.707-19.9219Q24.8535-18.8477 25.8789-17.8223L31.5918-11.9629Q32.5684-10.9375 33.6426-10.7666Q34.7168-10.5957 36.084-11.084ZM35.5957-14.5996Q34.8145-14.3066 34.375-14.4287Q33.9355-14.5508 33.4961-14.9902L29.0527-19.5801Q28.5156-20.1172 28.4424-20.5811Q28.3691-21.0449 28.6621-21.7773L35.0586-38.1836L82.666-84.4238Q84.2285-85.8887 85.9619-85.9131Q87.6953-85.9375 89.1602-84.4727L100-73.3398Q103.076-70.0195 99.707-66.7969L52.1973-20.6055ZM20.9473-8.93555L25.293-8.93555Q26.0742-8.93555 26.4648-9.08203Q26.8555-9.22852 27.3438-9.57031L32.373-13.1836L27.0508-18.1152L20.0684-11.2305Q19.3359-10.498 19.6289-9.7168Q19.9219-8.93555 20.9473-8.93555ZM33.252-38.1348L52.1973-18.6523L54.5898-20.9473L35.6445-40.4297ZM75.4395-79.0039L94.3359-59.5703L96.7773-61.8652L77.7832-81.3477ZM14.2578 6.73828L111.865 6.73828Q112.598 6.73828 113.135 6.17676Q113.672 5.61523 113.672 4.88281Q113.672 4.15039 113.135 3.6377Q112.598 3.125 111.865 3.125L14.2578 3.125Q13.5254 3.125 12.9883 3.6377Q12.4512 4.15039 12.4512 4.88281Q12.4512 5.61523 12.9883 6.17676Q13.5254 6.73828 14.2578 6.73828Z"/>
  </g>
  <g id="Ultralight-M" transform="matrix(1 0 0 1 496.65 1126)">
   <path d="M36.0352-11.2793L53.1738-17.1387Q53.8574-17.334 54.1748-17.5537Q54.4922-17.7734 54.9316-18.2617L102.246-64.0625Q104.883-66.6016 104.883-69.4824Q104.883-72.3633 102.344-75.0488L92.1875-85.5957Q89.5996-88.2324 86.6699-88.3545Q83.7402-88.4766 81.1035-85.9863L33.6914-40.2344Q33.2031-39.7949 32.9834-39.4775Q32.7637-39.1602 32.5684-38.5254L26.123-21.4844Q25.6836-20.2637 25.7812-19.3848Q25.8789-18.5059 26.8066-17.5781L32.1289-12.0605Q33.0078-11.1328 33.9111-10.9863Q34.8145-10.8398 36.0352-11.2793ZM35.5469-13.623Q34.7656-13.3301 34.3994-13.4521Q34.0332-13.5742 33.5938-13.9648L28.8086-18.9453Q28.3691-19.4336 28.2715-19.8242Q28.1738-20.2148 28.4668-20.9961L34.9609-38.0859L82.8613-84.3262Q84.6191-85.9375 86.499-85.9619Q88.3789-85.9863 90.0391-84.3262L100.977-72.998Q104.395-69.3848 100.635-65.8691L52.832-19.6289ZM22.0215-9.17969L25.8789-9.17969Q26.6113-9.17969 26.9287-9.32617Q27.2461-9.47266 27.6855-9.7168L32.8125-13.3301L28.0273-17.627L21.2891-11.1328Q20.6543-10.5469 20.8984-9.86328Q21.1426-9.17969 22.0215-9.17969ZM33.9355-37.9883L52.5879-18.7012L54.3457-20.3125L35.7422-39.6484ZM76.6113-79.1016L95.2148-59.7656L96.9727-61.4746L78.2715-80.7617ZM13.623 5.9082L112.5 5.9082Q112.939 5.9082 113.306 5.56641Q113.672 5.22461 113.672 4.73633Q113.672 4.19922 113.306 3.88184Q112.939 3.56445 112.5 3.56445L13.623 3.56445Q13.1348 3.56445 12.793 3.88184Q12.4512 4.19922 12.4512 4.73633Q12.4512 5.22461 12.793 5.56641Q13.1348 5.9082 13.623 5.9082Z"/>
  </g>
  <g id="Black-S" transform="matrix(1 0 0 1 2881.67 696)">
   <path d="M36.9629-11.0352L49.4629-16.5039Q51.0254-17.1875 52.0996-18.2617L90.332-56.4941Q93.457-59.6191 93.5059-63.3545Q93.5547-67.0898 90.5273-70.0684L81.1035-79.4434Q78.125-82.4707 74.3896-82.3975Q70.6543-82.3242 67.5781-79.248L29.3457-41.0645Q28.7109-40.4297 28.3203-39.7949Q27.9297-39.1602 27.5879-38.3789L22.1191-25.8789Q20.1172-21.3867 23.3887-18.1152L29.1992-12.3047Q32.4707-9.0332 36.9629-11.0352ZM35.4004-21.4844Q35.0586-21.3379 34.79-21.3867Q34.5215-21.4355 34.2773-21.6797L32.7637-23.1934Q32.3242-23.6328 32.5684-24.3164L36.8164-33.9844L73.6328-70.752Q74.4629-71.582 75.293-70.752L81.8359-64.209Q82.666-63.3789 81.8359-62.5488L45.0684-25.7324ZM18.0176-8.44727L24.707-8.44727Q25.9766-8.44727 26.4893-8.69141Q27.002-8.93555 27.5879-9.375L32.666-13.3789L24.9512-21.0449L16.2598-12.3535Q15.1855-11.2793 15.625-9.86328Q16.0645-8.44727 18.0176-8.44727ZM28.7598-35.0586L47.1191-16.6992L53.7598-23.3398L35.4004-41.6504ZM61.4746-67.7246L79.7852-49.4141L86.4746-55.957L68.1152-74.2676ZM14.3555 4.78516L89.1113 4.78516Q91.0645 4.78516 92.3828 3.32031Q93.7012 1.85547 93.7012 0Q93.7012-1.95312 92.3828-3.34473Q91.0645-4.73633 89.1113-4.73633L14.3555-4.73633Q12.4023-4.73633 11.084-3.32031Q9.76562-1.9043 9.76562 0Q9.76562 1.80664 11.1084 3.2959Q12.4512 4.78516 14.3555 4.78516Z"/>
  </g>
  <g id="Heavy-S" transform="matrix(1 0 0 1 2585.52 696)">
   <path d="M35.0098-12.1094L47.5098-17.5781Q48.9746-18.2129 50-19.2383L87.8418-57.0801Q90.8691-60.1074 90.918-63.6963Q90.9668-67.2852 87.9395-70.2637L78.8574-79.2969Q75.8789-82.3242 72.29-82.2754Q68.7012-82.2266 65.6738-79.1992L27.8809-41.4551Q27.2461-40.8203 26.8799-40.2344Q26.5137-39.6484 26.1719-38.916L20.752-26.3672Q18.8477-22.168 21.9238-19.0918L27.6855-13.3301Q30.7617-10.2539 35.0098-12.1094ZM33.6426-21.7285Q33.252-21.5332 32.9346-21.582Q32.6172-21.6309 32.2754-21.9727L30.5664-23.6816Q30.0293-24.2188 30.3223-25L34.668-34.9121L71.3379-71.5332Q72.3633-72.5586 73.3398-71.582L80.2246-64.6973Q81.2012-63.7207 80.1758-62.6953L43.5547-26.0254ZM16.7969-9.66797L23.0957-9.66797Q24.2676-9.66797 24.7803-9.91211Q25.293-10.1562 25.8789-10.6445L30.6152-14.3555L23.291-21.6309L15.1855-13.3789Q14.1113-12.3047 14.5508-10.9863Q14.9902-9.66797 16.7969-9.66797ZM27.5391-35.7422L45.3125-17.9688L51.3672-24.0234L33.5938-41.748ZM59.9609-68.1152L77.6855-50.3906L83.7891-56.2988L66.0156-74.0723ZM14.1113 3.71094L88.2812 3.71094Q90.0879 3.71094 91.333 2.36816Q92.5781 1.02539 92.5781-0.78125Q92.5781-2.58789 91.333-3.90625Q90.0879-5.22461 88.2812-5.22461L14.1113-5.22461Q12.2559-5.22461 11.0107-3.88184Q9.76562-2.53906 9.76562-0.78125Q9.76562 0.976562 11.0352 2.34375Q12.3047 3.71094 14.1113 3.71094Z"/>
  </g>
  <g id="Bold-S" transform="matrix(1 0 0 1 2289.42 696)">
   <path d="M32.8125-13.3789L45.3125-18.7988Q46.7285-19.3848 47.6562-20.3613L85.0586-57.7148Q88.0371-60.6445 88.0371-64.0869Q88.0371-67.5293 85.1074-70.459L76.3672-79.1992Q73.4375-82.1289 69.9951-82.1289Q66.5527-82.1289 63.5742-79.1504L26.2207-41.8457Q25.6836-41.3086 25.3174-40.7715Q24.9512-40.2344 24.6094-39.502L19.1895-26.9531Q17.4316-23.0469 20.2637-20.2148L26.0254-14.4531Q28.8574-11.6211 32.8125-13.3789ZM31.6895-21.9727Q31.25-21.8262 30.8594-21.8506Q30.4688-21.875 30.0781-22.3145L28.125-24.2188Q27.4414-24.9023 27.832-25.8301L32.2754-35.9863L68.7988-72.4609Q70.0195-73.6328 71.1426-72.5098L78.418-65.2344Q79.541-64.1113 78.3691-62.8906L41.8457-26.416ZM15.4297-11.084L21.2891-11.084Q22.3145-11.084 22.8271-11.3037Q23.3398-11.5234 23.9746-12.0605L28.2715-15.4297L21.4844-22.3145L13.9648-14.5508Q12.9395-13.4766 13.3545-12.2803Q13.7695-11.084 15.4297-11.084ZM26.2207-36.5234L43.3594-19.4336L48.6816-24.7559L31.5918-41.8457ZM58.3008-68.5547L75.3906-51.4648L80.7617-56.7383L63.623-73.8281ZM13.8184 2.53906L87.3047 2.53906Q89.0137 2.53906 90.1855 1.29395Q91.3574 0.0488281 91.3574-1.61133Q91.3574-3.32031 90.1855-4.54102Q89.0137-5.76172 87.3047-5.76172L13.8184-5.76172Q12.1582-5.76172 10.9619-4.5166Q9.76562-3.27148 9.76562-1.61133Q9.76562 0.0488281 10.9619 1.29395Q12.1582 2.53906 13.8184 2.53906Z"/>
  </g>
  <g id="Semibold-S" transform="matrix(1 0 0 1 1993.12 696)">
   <path d="M31.25-14.209L43.7988-19.5801Q45.1172-20.166 46.0449-21.0938L83.1055-58.1055Q86.0352-61.0352 86.0352-64.3555Q86.0352-67.6758 83.1055-70.6055L74.6094-79.0527Q71.6797-81.9824 68.3594-82.0068Q65.0391-82.0312 62.1094-79.1016L25.0488-42.1387Q24.5605-41.6504 24.2188-41.1377Q23.877-40.625 23.5352-39.8926L18.1152-27.3438Q16.4551-23.6328 19.1406-20.9473L24.8535-15.2344Q27.4902-12.5488 31.25-14.209ZM30.3223-22.168Q29.834-21.9727 29.3945-21.9971Q28.9551-22.0215 28.5156-22.5098L26.416-24.6094Q25.6836-25.3418 26.0742-26.3672L30.6152-36.6699L67.041-73.0469Q68.3594-74.3652 69.5801-73.0957L77.1484-65.5762Q78.3691-64.3555 77.0508-63.0371L40.625-26.6113ZM14.502-12.0605L20.0195-12.0605Q20.9961-12.0605 21.5088-12.2559Q22.0215-12.4512 22.6562-12.9883L26.6602-16.1621L20.166-22.7539L13.0859-15.332Q12.1094-14.2578 12.5-13.1592Q12.8906-12.0605 14.502-12.0605ZM25.293-37.0605L41.9434-20.4102L46.8262-25.293L30.1758-41.8945ZM57.1289-68.8477L73.7793-52.1973L78.6621-56.9824L62.0117-73.6328ZM13.623 1.70898L86.6699 1.70898Q88.2812 1.70898 89.4043 0.561523Q90.5273-0.585938 90.5273-2.19727Q90.5273-3.80859 89.4043-4.95605Q88.2812-6.10352 86.6699-6.10352L13.623-6.10352Q12.0117-6.10352 10.8887-4.93164Q9.76562-3.75977 9.76562-2.19727Q9.76562-0.634766 10.9131 0.537109Q12.0605 1.70898 13.623 1.70898Z"/>
  </g>
  <g id="Medium-S" transform="matrix(1 0 0 1 1696.75 696)">
   <path d="M30.127-14.8438L42.6758-20.2148Q43.9453-20.8008 44.8242-21.6797L81.6406-58.4473Q84.5215-61.2793 84.5215-64.5508Q84.5215-67.8223 81.5918-70.7031L73.291-79.0039Q70.4102-81.9336 67.1387-81.958Q63.8672-81.9824 61.0352-79.1016L24.1699-42.334Q23.6816-41.8945 23.3643-41.4062Q23.0469-40.918 22.7051-40.1855L17.334-27.6367Q15.7227-24.0723 18.2617-21.5332L23.9746-15.8203Q26.5137-13.2812 30.127-14.8438ZM29.2969-22.2656Q28.7598-22.1191 28.2959-22.1436Q27.832-22.168 27.3438-22.7051L25.0977-24.8535Q24.3164-25.6836 24.7559-26.7578L29.3457-37.207L65.7227-73.5352Q67.1387-74.9512 68.457-73.584L76.1719-65.8691Q77.4902-64.5508 76.123-63.0859L39.7461-26.8066ZM13.7695-12.793L19.043-12.793Q19.9707-12.793 20.4834-12.9883Q20.9961-13.1836 21.6797-13.7207L25.4395-16.6992L19.2383-23.0957L12.4512-15.918Q11.5234-14.8926 11.8896-13.8428Q12.2559-12.793 13.7695-12.793ZM24.6094-37.4512L40.918-21.1426L45.4102-25.6836L29.1016-41.9922ZM56.25-69.043L72.5586-52.7344L77.0508-57.1777L60.7422-73.4863ZM13.4766 1.12305L86.1328 1.12305Q87.6953 1.12305 88.7695 0Q89.8438-1.12305 89.8438-2.63672Q89.8438-4.15039 88.7695-5.27344Q87.6953-6.39648 86.1328-6.39648L13.4766-6.39648Q11.9629-6.39648 10.8643-5.27344Q9.76562-4.15039 9.76562-2.63672Q9.76562-1.12305 10.8643 0Q11.9629 1.12305 13.4766 1.12305Z"/>
  </g>
  <g id="Regular-S" transform="matrix(1 0 0 1 1400.45 696)">
   <path d="M28.6133-15.6738L41.1621-21.0449Q42.3828-21.582 43.2129-22.4121L79.7363-58.8867Q82.5684-61.6699 82.5439-64.8193Q82.5195-67.9688 79.6387-70.8496L71.582-78.9062Q68.7012-81.7871 65.5518-81.8359Q62.4023-81.8848 59.5703-79.0527L23.0469-42.627Q22.6074-42.1875 22.29-41.748Q21.9727-41.3086 21.6309-40.5762L16.2598-28.0273Q14.7461-24.6582 17.1387-22.2656L22.8516-16.6016Q25.1953-14.209 28.6133-15.6738ZM27.9297-22.4609Q27.3926-22.2656 26.8799-22.29Q26.3672-22.3145 25.8301-22.9004L23.4375-25.2441Q22.5586-26.123 23.0469-27.2949L27.7344-37.9395L63.9648-74.1211Q65.5273-75.6836 66.9434-74.2188L74.9512-66.2109Q76.3672-64.7949 74.8535-63.2324L38.5742-27.0508ZM12.8418-13.7207L17.8223-13.7207Q18.6523-13.7207 19.165-13.916Q19.6777-14.1113 20.3613-14.6973L23.877-17.4316L17.9688-23.5352L11.6211-16.6992Q10.6934-15.6738 11.0596-14.6973Q11.4258-13.7207 12.8418-13.7207ZM23.6816-37.9883L39.5508-22.1191L43.6035-26.1719L27.7344-42.041ZM55.127-69.3359L70.9473-53.4668L75-57.4707L59.1309-73.3398ZM13.2812 0.292969L85.498 0.292969Q86.9629 0.292969 87.9883-0.732422Q89.0137-1.75781 89.0137-3.22266Q89.0137-4.63867 87.9883-5.68848Q86.9629-6.73828 85.498-6.73828L13.2812-6.73828Q11.8652-6.73828 10.8154-5.68848Q9.76562-4.63867 9.76562-3.22266Q9.76562-1.75781 10.8154-0.732422Q11.8652 0.292969 13.2812 0.292969Z"/>
  </g>
  <g id="Light-S" transform="matrix(1 0 0 1 1103.74 696)">
   <path d="M28.5156-15.918L41.3086-21.0449Q42.4316-21.4844 43.1641-22.2656L79.834-58.5449Q82.4707-61.084 82.4463-63.9648Q82.4219-66.8457 79.7852-69.4824L71.7773-77.5879Q69.1895-80.2246 66.2842-80.2734Q63.3789-80.3223 60.8398-77.7832L24.1211-41.5527Q23.6816-41.1133 23.4131-40.7471Q23.1445-40.3809 22.8516-39.6973L17.5781-26.9043Q16.3086-24.0234 18.3594-22.0215L23.584-16.748Q25.5371-14.7461 28.5156-15.918ZM27.9297-21.1426Q27.3438-20.9473 26.9043-20.9961Q26.4648-21.0449 25.9766-21.5332L23.1934-24.3652Q22.3633-25.1953 22.8027-26.3184L27.6367-37.793L64.2578-73.9746Q66.2598-75.9277 68.0664-74.0723L76.2695-65.7715Q78.0762-63.916 76.123-61.9629L39.4531-25.7812ZM14.209-14.0625L18.6035-14.0625Q19.3359-14.0625 19.7754-14.2334Q20.2148-14.4043 20.8008-14.8438L24.4629-17.627L19.1895-22.9004L13.1836-16.6016Q12.4023-15.7227 12.7197-14.8926Q13.0371-14.0625 14.209-14.0625ZM24.6094-37.793L40.0879-22.168L43.2617-25.3418L27.832-40.9668ZM56.6406-69.4336L72.1191-53.7598L75.293-56.9336L59.8145-72.6074ZM12.5-0.732422L86.3281-0.732422Q87.4512-0.732422 88.2324-1.51367Q89.0137-2.29492 89.0137-3.41797Q89.0137-4.54102 88.2324-5.34668Q87.4512-6.15234 86.3281-6.15234L12.5-6.15234Q11.377-6.15234 10.5713-5.34668Q9.76562-4.54102 9.76562-3.41797Q9.76562-2.29492 10.5713-1.51367Q11.377-0.732422 12.5-0.732422Z"/>
  </g>
  <g id="Thin-S" transform="matrix(1 0 0 1 807.008 696)">
   <path d="M28.3203-16.2598L41.5039-21.0449Q42.4316-21.3867 43.1152-22.0703L80.0293-58.1055Q82.2754-60.3027 82.2754-62.8174Q82.2754-65.332 80.0293-67.627L72.0215-75.8301Q69.7754-78.125 67.2607-78.2227Q64.7461-78.3203 62.5-76.123L25.4883-40.0879Q25.0977-39.7461 24.8779-39.4287Q24.6582-39.1113 24.4629-38.5742L19.3359-25.4395Q18.4082-23.1934 19.9707-21.6797L24.5605-16.9434Q26.0254-15.3809 28.3203-16.2598ZM27.8809-19.4336Q27.2949-19.2383 26.9287-19.3115Q26.5625-19.3848 26.1719-19.7754L22.8516-23.2422Q22.1191-23.9258 22.5098-24.9512L27.5391-37.5977L64.6484-73.8281Q67.2363-76.2695 69.5801-73.8281L77.9785-65.1855Q80.3223-62.7441 77.7832-60.3027L40.625-24.1211ZM16.0645-14.502L19.6289-14.502Q20.2637-14.502 20.5811-14.6484Q20.8984-14.7949 21.3379-15.0879L25.1953-17.8711L20.8496-22.0215L15.2832-16.4551Q14.6973-15.8203 14.917-15.1611Q15.1367-14.502 16.0645-14.502ZM25.7812-37.5488L40.7715-22.2168L42.8711-24.2676L27.9297-39.5996ZM58.6914-69.5312L73.6328-54.1504L75.6836-56.25L60.7422-71.582ZM11.4258-2.05078L87.4023-2.05078Q88.0859-2.05078 88.5742-2.56348Q89.0625-3.07617 89.0625-3.71094Q89.0625-4.39453 88.5742-4.88281Q88.0859-5.37109 87.4023-5.37109L11.4258-5.37109Q10.7422-5.37109 10.2539-4.88281Q9.76562-4.39453 9.76562-3.71094Q9.76562-3.07617 10.2539-2.56348Q10.7422-2.05078 11.4258-2.05078Z"/>
  </g>
  <g id="Ultralight-S" transform="matrix(1 0 0 1 510.297 696)">
   <path d="M28.2715-16.4062L41.6016-21.0449Q42.4805-21.2891 43.0664-21.9727L80.0781-57.9102Q82.2266-59.9121 82.2021-62.2314Q82.1777-64.5508 80.127-66.6992L72.168-74.9512Q70.1172-77.0508 67.749-77.1484Q65.3809-77.2461 63.3301-75.2441L26.2207-39.3555Q25.8301-39.0137 25.6348-38.7451Q25.4395-38.4766 25.2441-37.9883L20.2148-24.6582Q19.4824-22.8027 20.752-21.4844L25.0488-17.041Q26.2695-15.7715 28.2715-16.4062ZM27.8809-18.5547Q27.2461-18.3594 26.9531-18.4326Q26.6602-18.5059 26.2695-18.8477L22.6562-22.6562Q21.9727-23.291 22.3633-24.3164L27.4414-37.5L64.8926-73.7305Q67.7246-76.416 70.3613-73.7305L78.8574-64.8926Q81.4453-62.1582 78.6133-59.4727L41.2109-23.2422ZM16.9922-14.6973L20.1172-14.6973Q20.752-14.6973 21.0205-14.8438Q21.2891-14.9902 21.6309-15.1855L25.5859-18.0176L21.6797-21.582L16.3574-16.3574Q15.8691-15.8691 16.0645-15.2832Q16.2598-14.6973 16.9922-14.6973ZM26.416-37.4512L41.1621-22.2656L42.627-23.7305L27.9785-38.8672ZM59.7168-69.5801L74.4141-54.3945L75.9277-55.8594L61.2305-71.0938ZM10.8887-2.73438L87.9395-2.73438Q88.4277-2.73438 88.7451-3.07617Q89.0625-3.41797 89.0625-3.85742Q89.0625-4.29688 88.7451-4.63867Q88.4277-4.98047 87.9395-4.98047L10.8887-4.98047Q10.4004-4.98047 10.083-4.63867Q9.76562-4.29688 9.76562-3.85742Q9.76562-3.41797 10.083-3.07617Q10.4004-2.73438 10.8887-2.73438Z"/>
  </g>
 </g>
</svg>
