<?xml version="1.0" encoding="UTF-8"?>
<!--Generator: Apple Native CoreSVG 149-->
<!DOCTYPE svg
PUBLIC "-//W3C//DTD SVG 1.1//EN"
       "http://www.w3.org/Graphics/SVG/1.1/DTD/svg11.dtd">
<svg version="1.1" xmlns="http://www.w3.org/2000/svg" xmlns:xlink="http://www.w3.org/1999/xlink" width="3300" height="2200">
 <!--glyph: "uni10004D.medium", point size: 100.000000, font version: "Version 16.0d18e1", template writer version: "8"-->
 <g id="Notes">
  <rect height="2200" id="artboard" style="fill:white;opacity:1" width="3300" x="0" y="0"/>
  <line id="" style="fill:none;stroke:black;opacity:1;stroke-width:0.5;" x1="263" x2="3036" y1="292" y2="292"/>
  <text style="stroke:none;fill:black;font-family:-apple-system,&quot;SF Pro Display&quot;,&quot;SF Pro Text&quot;,Helvetica,sans-serif;font-weight:bold;" transform="matrix(1 0 0 1 263 322)">Weight/Scale Variations</text>
  <text style="stroke:none;fill:black;font-family:-apple-system,&quot;SF Pro Display&quot;,&quot;SF Pro Text&quot;,Helvetica,sans-serif;text-anchor:middle;" transform="matrix(1 0 0 1 559.711 322)">Ultralight</text>
  <text style="stroke:none;fill:black;font-family:-apple-system,&quot;SF Pro Display&quot;,&quot;SF Pro Text&quot;,Helvetica,sans-serif;text-anchor:middle;" transform="matrix(1 0 0 1 856.422 322)">Thin</text>
  <text style="stroke:none;fill:black;font-family:-apple-system,&quot;SF Pro Display&quot;,&quot;SF Pro Text&quot;,Helvetica,sans-serif;text-anchor:middle;" transform="matrix(1 0 0 1 1153.13 322)">Light</text>
  <text style="stroke:none;fill:black;font-family:-apple-system,&quot;SF Pro Display&quot;,&quot;SF Pro Text&quot;,Helvetica,sans-serif;text-anchor:middle;" transform="matrix(1 0 0 1 1449.84 322)">Regular</text>
  <text style="stroke:none;fill:black;font-family:-apple-system,&quot;SF Pro Display&quot;,&quot;SF Pro Text&quot;,Helvetica,sans-serif;text-anchor:middle;" transform="matrix(1 0 0 1 1746.56 322)">Medium</text>
  <text style="stroke:none;fill:black;font-family:-apple-system,&quot;SF Pro Display&quot;,&quot;SF Pro Text&quot;,Helvetica,sans-serif;text-anchor:middle;" transform="matrix(1 0 0 1 2043.27 322)">Semibold</text>
  <text style="stroke:none;fill:black;font-family:-apple-system,&quot;SF Pro Display&quot;,&quot;SF Pro Text&quot;,Helvetica,sans-serif;text-anchor:middle;" transform="matrix(1 0 0 1 2339.98 322)">Bold</text>
  <text style="stroke:none;fill:black;font-family:-apple-system,&quot;SF Pro Display&quot;,&quot;SF Pro Text&quot;,Helvetica,sans-serif;text-anchor:middle;" transform="matrix(1 0 0 1 2636.69 322)">Heavy</text>
  <text style="stroke:none;fill:black;font-family:-apple-system,&quot;SF Pro Display&quot;,&quot;SF Pro Text&quot;,Helvetica,sans-serif;text-anchor:middle;" transform="matrix(1 0 0 1 2933.4 322)">Black</text>
  <line id="" style="fill:none;stroke:black;opacity:1;stroke-width:0.5;" x1="263" x2="3036" y1="1903" y2="1903"/>
  <g id="" transform="matrix(1 0 0 1 263 1933)">
   <path d="M9.24805 0.830078C13.5547 0.830078 17.1387-2.74414 17.1387-7.05078C17.1387-11.3574 13.5449-14.9316 9.23828-14.9316C4.94141-14.9316 1.36719-11.3574 1.36719-7.05078C1.36719-2.74414 4.95117 0.830078 9.24805 0.830078ZM9.24805-0.654297C5.70312-0.654297 2.87109-3.49609 2.87109-7.05078C2.87109-10.6055 5.69336-13.4473 9.23828-13.4473C12.793-13.4473 15.6348-10.6055 15.6445-7.05078C15.6543-3.49609 12.8027-0.654297 9.24805-0.654297ZM6.39648-6.31836L8.50586-6.31836L8.50586-4.19922C8.50586-3.75977 8.79883-3.45703 9.22852-3.45703C9.67773-3.45703 9.9707-3.75977 9.9707-4.19922L9.9707-6.31836L12.0996-6.31836C12.5391-6.31836 12.8418-6.61133 12.8418-7.04102C12.8418-7.48047 12.5391-7.7832 12.0996-7.7832L9.9707-7.7832L9.9707-9.89258C9.9707-10.3418 9.67773-10.6445 9.22852-10.6445C8.79883-10.6445 8.50586-10.3418 8.50586-9.89258L8.50586-7.7832L6.39648-7.7832C5.94727-7.7832 5.64453-7.48047 5.64453-7.04102C5.64453-6.61133 5.94727-6.31836 6.39648-6.31836Z"/>
  </g>
  <g id="" transform="matrix(1 0 0 1 281.506 1933)">
   <path d="M11.709 2.91016C17.1582 2.91016 21.6699-1.61133 21.6699-7.05078C21.6699-12.5 17.1484-17.0117 11.6992-17.0117C6.25977-17.0117 1.74805-12.5 1.74805-7.05078C1.74805-1.61133 6.26953 2.91016 11.709 2.91016ZM11.709 1.25C7.09961 1.25 3.41797-2.44141 3.41797-7.05078C3.41797-11.6602 7.08984-15.3516 11.6992-15.3516C16.3086-15.3516 20-11.6602 20.0098-7.05078C20.0195-2.44141 16.3184 1.25 11.709 1.25ZM7.98828-6.23047L10.8789-6.23047L10.8789-3.32031C10.8789-2.83203 11.2109-2.5 11.6895-2.5C12.1777-2.5 12.5195-2.83203 12.5195-3.32031L12.5195-6.23047L15.4297-6.23047C15.918-6.23047 16.25-6.5625 16.25-7.04102C16.25-7.5293 15.918-7.87109 15.4297-7.87109L12.5195-7.87109L12.5195-10.7617C12.5195-11.2695 12.1777-11.6016 11.6895-11.6016C11.2109-11.6016 10.8789-11.2598 10.8789-10.7617L10.8789-7.87109L7.98828-7.87109C7.48047-7.87109 7.14844-7.5293 7.14844-7.04102C7.14844-6.5625 7.49023-6.23047 7.98828-6.23047Z"/>
  </g>
  <g id="" transform="matrix(1 0 0 1 304.924 1933)">
   <path d="M14.9707 5.66406C21.9336 5.66406 27.6953-0.0976562 27.6953-7.05078C27.6953-14.0137 21.9238-19.7754 14.9609-19.7754C8.00781-19.7754 2.25586-14.0137 2.25586-7.05078C2.25586-0.0976562 8.01758 5.66406 14.9707 5.66406ZM14.9707 3.84766C8.93555 3.84766 4.08203-1.01562 4.08203-7.05078C4.08203-13.0957 8.92578-17.9492 14.9609-17.9492C21.0059-17.9492 25.8594-13.0957 25.8691-7.05078C25.8789-1.01562 21.0156 3.84766 14.9707 3.84766ZM10.0586-6.14258L14.0625-6.14258L14.0625-2.12891C14.0625-1.5918 14.4336-1.2207 14.9512-1.2207C15.4883-1.2207 15.8594-1.5918 15.8594-2.12891L15.8594-6.14258L19.8828-6.14258C20.4102-6.14258 20.791-6.51367 20.791-7.03125C20.791-7.56836 20.4199-7.94922 19.8828-7.94922L15.8594-7.94922L15.8594-11.9531C15.8594-12.5098 15.4883-12.8809 14.9512-12.8809C14.4336-12.8809 14.0625-12.5 14.0625-11.9531L14.0625-7.94922L10.0586-7.94922C9.50195-7.94922 9.13086-7.56836 9.13086-7.03125C9.13086-6.51367 9.51172-6.14258 10.0586-6.14258Z"/>
  </g>
  <text style="stroke:none;fill:black;font-family:-apple-system,&quot;SF Pro Display&quot;,&quot;SF Pro Text&quot;,Helvetica,sans-serif;font-weight:bold;" transform="matrix(1 0 0 1 263 1953)">Design Variations</text>
  <text style="stroke:none;fill:black;font-family:-apple-system,&quot;SF Pro Display&quot;,&quot;SF Pro Text&quot;,Helvetica,sans-serif;" transform="matrix(1 0 0 1 263 1971)">Symbols are supported in up to nine weights and three scales.</text>
  <text style="stroke:none;fill:black;font-family:-apple-system,&quot;SF Pro Display&quot;,&quot;SF Pro Text&quot;,Helvetica,sans-serif;" transform="matrix(1 0 0 1 263 1989)">For optimal layout with text and other symbols, vertically align</text>
  <text style="stroke:none;fill:black;font-family:-apple-system,&quot;SF Pro Display&quot;,&quot;SF Pro Text&quot;,Helvetica,sans-serif;" transform="matrix(1 0 0 1 263 2007)">symbols with the adjacent text.</text>
  <line id="" style="fill:none;stroke:#00AEEF;stroke-width:0.5;opacity:1.0;" x1="776" x2="776" y1="1919" y2="1933"/>
  <g id="" transform="matrix(1 0 0 1 776 1933)">
   <path d="M3.31055 0.126953C3.82812 0.126953 4.08203-0.0683594 4.26758-0.605469L5.52734-4.0625L11.2891-4.0625L12.5488-0.605469C12.7344-0.0683594 12.9883 0.126953 13.4961 0.126953C14.0137 0.126953 14.3457-0.185547 14.3457-0.673828C14.3457-0.839844 14.3164-0.986328 14.2383-1.20117L9.6582-13.3887C9.43359-13.9941 9.0332-14.2871 8.4082-14.2871C7.80273-14.2871 7.39258-13.9941 7.17773-13.3984L2.59766-1.19141C2.51953-0.976562 2.49023-0.830078 2.49023-0.664062C2.49023-0.175781 2.80273 0.126953 3.31055 0.126953ZM6.00586-5.53711L8.37891-12.1094L8.42773-12.1094L10.8008-5.53711Z"/>
  </g>
  <line id="" style="fill:none;stroke:#00AEEF;stroke-width:0.5;opacity:1.0;" x1="792.836" x2="792.836" y1="1919" y2="1933"/>
  <text style="stroke:none;fill:black;font-family:-apple-system,&quot;SF Pro Display&quot;,&quot;SF Pro Text&quot;,Helvetica,sans-serif;font-weight:bold;" transform="matrix(1 0 0 1 776 1953)">Margins</text>
  <text style="stroke:none;fill:black;font-family:-apple-system,&quot;SF Pro Display&quot;,&quot;SF Pro Text&quot;,Helvetica,sans-serif;" transform="matrix(1 0 0 1 776 1971)">Leading and trailing margins on the left and right side of each symbol</text>
  <text style="stroke:none;fill:black;font-family:-apple-system,&quot;SF Pro Display&quot;,&quot;SF Pro Text&quot;,Helvetica,sans-serif;" transform="matrix(1 0 0 1 776 1989)">can be adjusted by modifying the x-location of the margin guidelines.</text>
  <text style="stroke:none;fill:black;font-family:-apple-system,&quot;SF Pro Display&quot;,&quot;SF Pro Text&quot;,Helvetica,sans-serif;" transform="matrix(1 0 0 1 776 2007)">Modifications are automatically applied proportionally to all</text>
  <text style="stroke:none;fill:black;font-family:-apple-system,&quot;SF Pro Display&quot;,&quot;SF Pro Text&quot;,Helvetica,sans-serif;" transform="matrix(1 0 0 1 776 2025)">scales and weights.</text>
  <g id="" transform="matrix(1 0 0 1 1289 1933)">
   <path d="M2.8418 1.86523L4.54102 3.57422C5.40039 4.44336 6.38672 4.38477 7.31445 3.35938L17.4902-7.85156C17.7539-7.76367 18.0273-7.7832 18.3398-7.8418L19.4043-8.03711L20.0684-7.36328L20.0293-6.80664C19.9902-6.30859 20.1172-5.92773 20.6055-5.44922L21.3672-4.70703C21.8457-4.22852 22.4609-4.19922 22.9297-4.66797L25.8398-7.58789C26.3086-8.05664 26.2891-8.65234 25.8105-9.13086L25.0391-9.89258C24.5605-10.3711 24.1895-10.5273 23.7109-10.4883L23.1348-10.4395L22.4902-11.0742L22.7344-12.1973C22.8613-12.7637 22.7051-13.2031 22.1191-13.7891L19.9219-15.9766C16.582-19.2969 12.1484-19.2188 9.25781-16.3281C8.83789-15.918 8.80859-15.3418 9.04297-14.9512C9.27734-14.5898 9.73633-14.3555 10.3809-14.5215C11.8457-14.8633 13.3691-14.9219 14.7949-13.9844L14.209-12.5293C14.0137-12.0508 13.9844-11.6504 14.1113-11.2891L3.04688-0.898438C2.06055 0.0195312 1.98242 0.996094 2.8418 1.86523ZM10.752-15.957C13.1836-17.7344 16.4746-17.4316 18.7012-15.2051L21.1328-12.793C21.3672-12.5586 21.4062-12.373 21.3379-12.0312L21.0156-10.5469L22.5195-9.0625L23.5059-9.12109C23.7598-9.13086 23.8379-9.11133 24.0332-8.91602L24.6094-8.33984L22.168-5.89844L21.5918-6.47461C21.3965-6.66992 21.3672-6.74805 21.377-7.01172L21.4453-7.98828L19.9512-9.47266L18.4277-9.21875C18.1055-9.15039 17.959-9.17969 17.7148-9.41406L15.7129-11.416C15.459-11.6504 15.4297-11.8164 15.5859-12.1875L16.4648-14.2773C14.9023-15.7324 12.8711-16.3574 10.8398-15.7617C10.6836-15.7227 10.625-15.8496 10.752-15.957ZM5.27344 2.30469L4.10156 1.14258C3.63281 0.683594 3.74023 0.341797 4.14062-0.0195312L14.9512-10.1953L16.416-8.71094L6.42578 2.27539C6.07422 2.67578 5.74219 2.77344 5.27344 2.30469Z"/>
  </g>
  <text style="stroke:none;fill:black;font-family:-apple-system,&quot;SF Pro Display&quot;,&quot;SF Pro Text&quot;,Helvetica,sans-serif;font-weight:bold;" transform="matrix(1 0 0 1 1289 1953)">Exporting</text>
  <text style="stroke:none;fill:black;font-family:-apple-system,&quot;SF Pro Display&quot;,&quot;SF Pro Text&quot;,Helvetica,sans-serif;" transform="matrix(1 0 0 1 1289 1971)">Symbols should be outlined when exporting to ensure the</text>
  <text style="stroke:none;fill:black;font-family:-apple-system,&quot;SF Pro Display&quot;,&quot;SF Pro Text&quot;,Helvetica,sans-serif;" transform="matrix(1 0 0 1 1289 1989)">design is preserved when submitting to Xcode.</text>
  <text id="template-version" style="stroke:none;fill:black;font-family:-apple-system,&quot;SF Pro Display&quot;,&quot;SF Pro Text&quot;,Helvetica,sans-serif;text-anchor:end;" transform="matrix(1 0 0 1 3036 1933)">Template v.2.0</text>
  <text style="stroke:none;fill:black;font-family:-apple-system,&quot;SF Pro Display&quot;,&quot;SF Pro Text&quot;,Helvetica,sans-serif;text-anchor:end;" transform="matrix(1 0 0 1 3036 1951)">Requires Xcode 12 or greater</text>
  <text style="stroke:none;fill:black;font-family:-apple-system,&quot;SF Pro Display&quot;,&quot;SF Pro Text&quot;,Helvetica,sans-serif;text-anchor:end;" transform="matrix(1 0 0 1 3036 1969)">Generated from plus.circle.fill</text>
  <text style="stroke:none;fill:black;font-family:-apple-system,&quot;SF Pro Display&quot;,&quot;SF Pro Text&quot;,Helvetica,sans-serif;text-anchor:end;" transform="matrix(1 0 0 1 3036 1987)">Typeset at 100 points</text>
  <text style="stroke:none;fill:black;font-family:-apple-system,&quot;SF Pro Display&quot;,&quot;SF Pro Text&quot;,Helvetica,sans-serif;" transform="matrix(1 0 0 1 263 726)">Small</text>
  <text style="stroke:none;fill:black;font-family:-apple-system,&quot;SF Pro Display&quot;,&quot;SF Pro Text&quot;,Helvetica,sans-serif;" transform="matrix(1 0 0 1 263 1156)">Medium</text>
  <text style="stroke:none;fill:black;font-family:-apple-system,&quot;SF Pro Display&quot;,&quot;SF Pro Text&quot;,Helvetica,sans-serif;" transform="matrix(1 0 0 1 263 1586)">Large</text>
 </g>
 <g id="Guides">
  <g id="H-reference" style="fill:#27AAE1;stroke:none;" transform="matrix(1 0 0 1 339 696)">
   <path d="M0.976562 0L3.66211 0L12.9883-24.4629L45.752-24.4629L55.127 0L57.7637 0L30.6152-70.459L28.125-70.459ZM29.3457-67.1387L29.4434-67.1387L44.873-26.709L13.8672-26.709Z"/>
  </g>
  <line id="Baseline-S" style="fill:none;stroke:#27AAE1;opacity:1;stroke-width:0.5;" x1="263" x2="3036" y1="696" y2="696"/>
  <line id="Capline-S" style="fill:none;stroke:#27AAE1;opacity:1;stroke-width:0.5;" x1="263" x2="3036" y1="625.541" y2="625.541"/>
  <g id="H-reference" style="fill:#27AAE1;stroke:none;" transform="matrix(1 0 0 1 339 1126)">
   <path d="M0.976562 0L3.66211 0L12.9883-24.4629L45.752-24.4629L55.127 0L57.7637 0L30.6152-70.459L28.125-70.459ZM29.3457-67.1387L29.4434-67.1387L44.873-26.709L13.8672-26.709Z"/>
  </g>
  <line id="Baseline-M" style="fill:none;stroke:#27AAE1;opacity:1;stroke-width:0.5;" x1="263" x2="3036" y1="1126" y2="1126"/>
  <line id="Capline-M" style="fill:none;stroke:#27AAE1;opacity:1;stroke-width:0.5;" x1="263" x2="3036" y1="1055.54" y2="1055.54"/>
  <g id="H-reference" style="fill:#27AAE1;stroke:none;" transform="matrix(1 0 0 1 339 1556)">
   <path d="M0.976562 0L3.66211 0L12.9883-24.4629L45.752-24.4629L55.127 0L57.7637 0L30.6152-70.459L28.125-70.459ZM29.3457-67.1387L29.4434-67.1387L44.873-26.709L13.8672-26.709Z"/>
  </g>
  <line id="Baseline-L" style="fill:none;stroke:#27AAE1;opacity:1;stroke-width:0.5;" x1="263" x2="3036" y1="1556" y2="1556"/>
  <line id="Capline-L" style="fill:none;stroke:#27AAE1;opacity:1;stroke-width:0.5;" x1="263" x2="3036" y1="1485.54" y2="1485.54"/>
  <line id="left-margin" style="fill:none;stroke:#00AEEF;stroke-width:0.5;opacity:1.0;" x1="1391.3" x2="1391.3" y1="1030.79" y2="1150.12"/>
  <line id="right-margin" style="fill:none;stroke:#00AEEF;stroke-width:0.5;opacity:1.0;" x1="1508.39" x2="1508.39" y1="1030.79" y2="1150.12"/>
 </g>
 <g id="Symbols">
  <g id="Black-L" transform="matrix(1 0 0 1 2854.05 1556)">
   <path d="M79.3457 32.8613C116.748 32.8613 147.412 2.19727 147.412-35.2051C147.412-72.6074 116.748-103.271 79.2969-103.271C41.8945-103.271 11.2793-72.6074 11.2793-35.2051C11.2793 2.19727 41.9434 32.8613 79.3457 32.8613ZM48.3887-35.2539C48.3887-40.2832 52.0508-44.043 56.9824-44.043L70.5078-44.043L70.5078-57.6172C70.5078-62.5488 74.2676-66.2109 79.2969-66.2109C84.3262-66.2109 88.0859-62.5488 88.0859-57.6172L88.0859-44.043L101.66-44.043C106.592-44.043 110.254-40.2832 110.254-35.2539C110.254-30.2246 106.592-26.4648 101.66-26.4648L88.0859-26.4648L88.0859-12.8906C88.0859-8.00781 84.3262-4.3457 79.2969-4.3457C74.2676-4.3457 70.5078-8.00781 70.5078-12.8906L70.5078-26.4648L56.9824-26.4648C52.0508-26.4648 48.3887-30.2246 48.3887-35.2539Z"/>
  </g>
  <g id="Heavy-L" transform="matrix(1 0 0 1 2558.39 1556)">
   <path d="M78.2715 31.7871C115.088 31.7871 145.312 1.5625 145.312-35.2051C145.312-72.0215 115.039-102.246 78.2715-102.246C41.4551-102.246 11.2793-72.0215 11.2793-35.2051C11.2793 1.5625 41.5039 31.7871 78.2715 31.7871ZM47.5586-35.2539C47.5586-39.7461 50.8301-43.1152 55.2734-43.1152L70.459-43.1152L70.459-58.252C70.459-62.6953 73.7305-65.9668 78.2227-65.9668C82.7148-65.9668 86.084-62.6953 86.084-58.252L86.084-43.1152L101.27-43.1152C105.664-43.1152 108.936-39.7461 108.936-35.2539C108.936-30.7617 105.664-27.4414 101.27-27.4414L86.084-27.4414L86.084-12.2559C86.084-7.86133 82.7148-4.58984 78.2227-4.58984C73.7305-4.58984 70.459-7.86133 70.459-12.2559L70.459-27.4414L55.2734-27.4414C50.8301-27.4414 47.5586-30.7617 47.5586-35.2539Z"/>
  </g>
  <g id="Bold-L" transform="matrix(1 0 0 1 2262.88 1556)">
   <path d="M77.0996 30.5664C113.232 30.5664 142.92 0.878906 142.92-35.2539C142.92-71.3379 113.184-101.074 77.0508-101.074C40.9668-101.074 11.2793-71.3379 11.2793-35.2539C11.2793 0.878906 41.0156 30.5664 77.0996 30.5664ZM46.6309-35.2539C46.6309-39.1602 49.4629-41.9922 53.3203-41.9922L70.3613-41.9922L70.3613-59.0332C70.3613-62.8906 73.1445-65.7227 77.002-65.7227C80.957-65.7227 83.7891-62.8906 83.7891-59.0332L83.7891-41.9922L100.83-41.9922C104.639-41.9922 107.471-39.1602 107.471-35.2539C107.471-31.3965 104.639-28.5645 100.83-28.5645L83.7891-28.5645L83.7891-11.5234C83.7891-7.66602 80.957-4.88281 77.002-4.88281C73.1445-4.88281 70.3613-7.71484 70.3613-11.5234L70.3613-28.5645L53.3203-28.5645C49.4629-28.5645 46.6309-31.3965 46.6309-35.2539Z"/>
  </g>
  <g id="Semibold-L" transform="matrix(1 0 0 1 1966.97 1556)">
   <path d="M76.2695 29.7363C111.914 29.7363 141.309 0.390625 141.309-35.2539C141.309-70.8984 111.865-100.244 76.2695-100.244C40.625-100.244 11.2793-70.8984 11.2793-35.2539C11.2793 0.390625 40.6738 29.7363 76.2695 29.7363ZM46.0449-35.2051C46.0449-38.7207 48.5352-41.2598 52.002-41.2598L70.2637-41.2598L70.2637-59.5215C70.2637-62.9883 72.7539-65.5273 76.1719-65.5273C79.6875-65.5273 82.2266-62.9883 82.2266-59.5215L82.2266-41.2598L100.537-41.2598C103.955-41.2598 106.445-38.7207 106.445-35.2051C106.445-31.7871 103.955-29.3457 100.537-29.3457L82.2266-29.3457L82.2266-10.9863C82.2266-7.56836 79.6875-5.07812 76.1719-5.07812C72.7539-5.07812 70.2637-7.56836 70.2637-10.9863L70.2637-29.3457L52.002-29.3457C48.5352-29.3457 46.0449-31.7871 46.0449-35.2051Z"/>
  </g>
  <g id="Medium-L" transform="matrix(1 0 0 1 1670.87 1556)">
   <path d="M75.6836 29.1504C110.938 29.1504 140.088 0 140.088-35.2539C140.088-70.5078 110.889-99.6582 75.6348-99.6582C40.3809-99.6582 11.2793-70.5078 11.2793-35.2539C11.2793 0 40.3809 29.1504 75.6836 29.1504ZM45.5566-35.2051C45.5566-38.4277 47.8027-40.6738 50.9766-40.6738L70.2148-40.6738L70.2148-59.9121C70.2148-63.0859 72.4609-65.3809 75.5371-65.3809C78.7598-65.3809 81.0059-63.0859 81.0059-59.9121L81.0059-40.6738L100.293-40.6738C103.418-40.6738 105.713-38.4277 105.713-35.2051C105.713-32.1289 103.418-29.8828 100.293-29.8828L81.0059-29.8828L81.0059-10.5957C81.0059-7.4707 78.7598-5.22461 75.5371-5.22461C72.4609-5.22461 70.2148-7.51953 70.2148-10.5957L70.2148-29.8828L50.9766-29.8828C47.8516-29.8828 45.5566-32.1289 45.5566-35.2051Z"/>
  </g>
  <g id="Regular-L" transform="matrix(1 0 0 1 1374.97 1556)">
   <path d="M74.8535 28.3203C109.668 28.3203 138.477-0.488281 138.477-35.2539C138.477-70.0684 109.619-98.877 74.8047-98.877C40.0391-98.877 11.2793-70.0684 11.2793-35.2539C11.2793-0.488281 40.0879 28.3203 74.8535 28.3203ZM44.9219-35.2051C44.9219-38.0371 46.875-39.9414 49.6582-39.9414L70.166-39.9414L70.166-60.4492C70.166-63.1836 72.0703-65.1855 74.7559-65.1855C77.5391-65.1855 79.4434-63.2324 79.4434-60.4492L79.4434-39.9414L100-39.9414C102.734-39.9414 104.688-38.0371 104.688-35.2051C104.688-32.5195 102.734-30.6641 100-30.6641L79.4434-30.6641L79.4434-10.1074C79.4434-7.37305 77.5391-5.41992 74.7559-5.41992C72.0703-5.41992 70.166-7.42188 70.166-10.1074L70.166-30.6641L49.6582-30.6641C46.9238-30.6641 44.9219-32.5195 44.9219-35.2051Z"/>
  </g>
  <g id="Light-L" transform="matrix(1 0 0 1 1079.18 1556)">
   <path d="M73.9258 27.3926C108.301 27.3926 136.621-0.927734 136.621-35.2539C136.621-69.6289 108.252-97.9492 73.9258-97.9492C39.5508-97.9492 11.2793-69.6289 11.2793-35.2539C11.2793-0.927734 39.5996 27.3926 73.9258 27.3926ZM44.6289-35.2539C44.6289-37.3535 46.0938-38.8672 48.1934-38.8672L70.3613-38.8672L70.3613-60.9863C70.3613-63.0859 71.8262-64.5996 73.8281-64.5996C75.9277-64.5996 77.4414-63.1348 77.4414-60.9863L77.4414-38.8672L99.6094-38.8672C101.709-38.8672 103.223-37.3535 103.223-35.2539C103.223-33.252 101.66-31.7871 99.6094-31.7871L77.4414-31.7871L77.4414-9.61914C77.4414-7.51953 75.9277-6.00586 73.8281-6.00586C71.8262-6.00586 70.3613-7.56836 70.3613-9.61914L70.3613-31.7871L48.1934-31.7871C46.1426-31.7871 44.6289-33.252 44.6289-35.2539Z"/>
  </g>
  <g id="Thin-L" transform="matrix(1 0 0 1 783.693 1556)">
   <path d="M72.7051 26.1719C106.494 26.1719 134.18-1.51367 134.18-35.2539C134.18-69.043 106.494-96.7285 72.7051-96.7285C38.9648-96.7285 11.2793-69.043 11.2793-35.2539C11.2793-1.51367 38.9648 26.1719 72.7051 26.1719ZM44.1895-35.2539C44.1895-36.4746 45.0684-37.4023 46.2891-37.4023L70.6543-37.4023L70.6543-61.7676C70.6543-62.8906 71.582-63.8672 72.6074-63.8672C73.8281-63.8672 74.8047-62.9883 74.8047-61.7676L74.8047-37.4023L99.1211-37.4023C100.342-37.4023 101.221-36.4746 101.221-35.2539C101.221-34.2285 100.244-33.252 99.1211-33.252L74.8047-33.252L74.8047-8.93555C74.8047-7.71484 73.8281-6.83594 72.6074-6.83594C71.582-6.83594 70.6543-7.8125 70.6543-8.93555L70.6543-33.252L46.2891-33.252C45.166-33.252 44.1895-34.2285 44.1895-35.2539Z"/>
  </g>
  <g id="Ultralight-L" transform="matrix(1 0 0 1 487.616 1556)">
   <path d="M72.1191 25.5371C105.566 25.5371 132.91-1.80664 132.91-35.2539C132.91-68.75 105.566-96.0938 72.1191-96.0938C38.623-96.0938 11.2793-68.75 11.2793-35.2539C11.2793-1.80664 38.623 25.5371 72.1191 25.5371ZM43.9941-35.2539C43.9941-36.0352 44.5312-36.6699 45.3125-36.6699L70.752-36.6699L70.752-62.1582C70.752-62.793 71.4355-63.4766 72.0215-63.4766C72.7539-63.4766 73.4375-62.8906 73.4375-62.1582L73.4375-36.6699L98.877-36.6699C99.6582-36.6699 100.195-36.0352 100.195-35.2539C100.195-34.7168 99.5605-34.0332 98.877-34.0332L73.4375-34.0332L73.4375-8.54492C73.4375-7.8125 72.7539-7.22656 72.0215-7.22656C71.4355-7.22656 70.752-7.91016 70.752-8.54492L70.752-34.0332L45.3125-34.0332C44.6289-34.0332 43.9941-34.7168 43.9941-35.2539Z"/>
  </g>
  <g id="Black-M" transform="matrix(1 0 0 1 2870.97 1126)">
   <path d="M62.4023 18.457C91.9922 18.457 116.113-5.61523 116.113-35.2051C116.113-64.7949 91.9922-88.8672 62.4023-88.8672C32.8125-88.8672 8.74023-64.7949 8.74023-35.2051C8.74023-5.61523 32.8125 18.457 62.4023 18.457ZM38.4277-35.2539C38.4277-39.5508 41.5527-42.8223 45.7031-42.8223L54.8828-42.8223L54.8828-51.9531C54.8828-56.1035 58.1543-59.2773 62.4023-59.2773C66.6992-59.2773 69.9707-56.1035 69.9707-51.9531L69.9707-42.8223L79.1504-42.8223C83.252-42.8223 86.4258-39.5508 86.4258-35.2539C86.4258-31.0059 83.252-27.7344 79.1504-27.7344L69.9707-27.7344L69.9707-18.5547C69.9707-14.4043 66.6992-11.2793 62.4023-11.2793C58.1543-11.2793 54.8828-14.4043 54.8828-18.5547L54.8828-27.7344L45.7031-27.7344C41.5527-27.7344 38.4277-31.0059 38.4277-35.2539Z"/>
  </g>
  <g id="Heavy-M" transform="matrix(1 0 0 1 2575.19 1126)">
   <path d="M61.5234 17.5293C90.5273 17.5293 114.258-6.20117 114.258-35.2051C114.258-64.2578 90.5273-87.9883 61.4746-87.9883C32.4707-87.9883 8.74023-64.2578 8.74023-35.2051C8.74023-6.20117 32.4707 17.5293 61.5234 17.5293ZM37.5977-35.2539C37.5977-39.1113 40.4297-42.041 44.1895-42.041L54.7363-42.041L54.7363-52.5391C54.7363-56.2988 57.6172-59.1309 61.4746-59.1309C65.332-59.1309 68.2617-56.3477 68.2617-52.5391L68.2617-42.041L78.8086-42.041C82.5684-42.041 85.3516-39.1113 85.3516-35.2539C85.3516-31.3965 82.5684-28.5156 78.8086-28.5156L68.2617-28.5156L68.2617-17.9688C68.2617-14.209 65.332-11.377 61.4746-11.377C57.6172-11.377 54.7363-14.209 54.7363-17.9688L54.7363-28.5156L44.1895-28.5156C40.4297-28.5156 37.5977-31.3965 37.5977-35.2539Z"/>
  </g>
  <g id="Bold-M" transform="matrix(1 0 0 1 2279.5 1126)">
   <path d="M60.498 16.5039C88.8672 16.5039 112.207-6.83594 112.207-35.2051C112.207-63.623 88.8672-86.9629 60.4492-86.9629C32.0312-86.9629 8.74023-63.623 8.74023-35.2051C8.74023-6.83594 32.0801 16.5039 60.498 16.5039ZM36.7188-35.2539C36.7188-38.623 39.1602-41.1621 42.5293-41.1621L54.5898-41.1621L54.5898-53.2227C54.5898-56.543 57.0801-59.0332 60.4492-59.0332C63.8184-59.0332 66.3574-56.543 66.3574-53.2227L66.3574-41.1621L78.418-41.1621C81.7383-41.1621 84.2285-38.623 84.2285-35.2539C84.2285-31.8848 81.7383-29.3945 78.418-29.3945L66.3574-29.3945L66.3574-17.2852C66.3574-13.9648 63.8184-11.5234 60.4492-11.5234C57.0801-11.5234 54.5898-13.9648 54.5898-17.2852L54.5898-29.3945L42.5293-29.3945C39.1602-29.3945 36.7188-31.8848 36.7188-35.2539Z"/>
  </g>
  <g id="Semibold-M" transform="matrix(1 0 0 1 1983.5 1126)">
   <path d="M59.7656 15.8203C87.7441 15.8203 110.791-7.27539 110.791-35.2539C110.791-63.2324 87.6953-86.2793 59.7656-86.2793C31.7871-86.2793 8.74023-63.2324 8.74023-35.2539C8.74023-7.27539 31.7871 15.8203 59.7656 15.8203ZM36.084-35.2051C36.084-38.3301 38.2812-40.5762 41.3574-40.5762L54.4434-40.5762L54.4434-53.6621C54.4434-56.6895 56.6406-58.9355 59.7168-58.9355C62.793-58.9355 65.0391-56.7383 65.0391-53.6621L65.0391-40.5762L78.1738-40.5762C81.2012-40.5762 83.3984-38.3301 83.3984-35.2051C83.3984-32.1777 81.2012-29.9805 78.1738-29.9805L65.0391-29.9805L65.0391-16.8457C65.0391-13.8184 62.793-11.6211 59.7168-11.6211C56.6406-11.6211 54.4434-13.8184 54.4434-16.8457L54.4434-29.9805L41.3574-29.9805C38.3301-29.9805 36.084-32.1777 36.084-35.2051Z"/>
  </g>
  <g id="Medium-M" transform="matrix(1 0 0 1 1687.3 1126)">
   <path d="M59.2285 15.2344C86.9141 15.2344 109.766-7.61719 109.766-35.2539C109.766-62.8906 86.8652-85.7422 59.1797-85.7422C31.543-85.7422 8.74023-62.8906 8.74023-35.2539C8.74023-7.61719 31.5918 15.2344 59.2285 15.2344ZM35.5957-35.2051C35.5957-38.0859 37.6465-40.0879 40.4785-40.0879L54.3945-40.0879L54.3945-54.0039C54.3945-56.8359 56.3477-58.8379 59.1309-58.8379C62.0117-58.8379 64.0137-56.8359 64.0137-54.0039L64.0137-40.0879L77.9785-40.0879C80.7617-40.0879 82.8125-38.0859 82.8125-35.2051C82.8125-32.4219 80.7617-30.4199 77.9785-30.4199L64.0137-30.4199L64.0137-16.5039C64.0137-13.7207 62.0117-11.6699 59.1309-11.6699C56.3477-11.6699 54.3945-13.7207 54.3945-16.5039L54.3945-30.4199L40.4785-30.4199C37.6465-30.4199 35.5957-32.4219 35.5957-35.2051Z"/>
  </g>
  <g id="Regular-M" transform="matrix(1 0 0 1 1391.3 1126)">
   <path d="M58.5449 14.5508C85.791 14.5508 108.35-8.05664 108.35-35.2539C108.35-62.5 85.7422-85.0586 58.4961-85.0586C31.2988-85.0586 8.74023-62.5 8.74023-35.2539C8.74023-8.05664 31.3477 14.5508 58.5449 14.5508ZM35.0098-35.2051C35.0098-37.7441 36.7676-39.502 39.3555-39.502L54.248-39.502L54.248-54.4434C54.248-56.9824 55.957-58.7891 58.4473-58.7891C60.9863-58.7891 62.7441-56.9824 62.7441-54.4434L62.7441-39.502L77.7344-39.502C80.2246-39.502 81.9824-37.7441 81.9824-35.2051C81.9824-32.7148 80.2246-31.0547 77.7344-31.0547L62.7441-31.0547L62.7441-16.0645C62.7441-13.5742 60.9863-11.7676 58.4473-11.7676C55.957-11.7676 54.248-13.5742 54.248-16.0645L54.248-31.0547L39.3555-31.0547C36.8164-31.0547 35.0098-32.7148 35.0098-35.2051Z"/>
  </g>
  <g id="Light-M" transform="matrix(1 0 0 1 1095.42 1126)">
   <path d="M57.7148 13.7207C84.5215 13.7207 106.689-8.44727 106.689-35.2539C106.689-62.1094 84.5215-84.2285 57.666-84.2285C30.8594-84.2285 8.74023-62.1094 8.74023-35.2539C8.74023-8.44727 30.9082 13.7207 57.7148 13.7207ZM34.7168-35.2051C34.7168-37.1582 36.084-38.5254 38.0371-38.5254L54.4434-38.5254L54.4434-54.9316C54.4434-56.8848 55.7617-58.252 57.6172-58.252C59.5703-58.252 60.9375-56.8848 60.9375-54.9316L60.9375-38.5254L77.3926-38.5254C79.2969-38.5254 80.6641-37.1582 80.6641-35.2051C80.6641-33.3984 79.248-32.0312 77.3926-32.0312L60.9375-32.0312L60.9375-15.5762C60.9375-13.6719 59.5703-12.3047 57.6172-12.3047C55.7617-12.3047 54.4434-13.7207 54.4434-15.5762L54.4434-32.0312L38.0371-32.0312C36.1328-32.0312 34.7168-33.3984 34.7168-35.2051Z"/>
  </g>
  <g id="Thin-M" transform="matrix(1 0 0 1 799.806 1126)">
   <path d="M56.6406 12.5977C82.9102 12.5977 104.492-8.98438 104.492-35.2539C104.492-61.5723 82.9102-83.1543 56.5918-83.1543C30.3223-83.1543 8.74023-61.5723 8.74023-35.2539C8.74023-8.98438 30.3223 12.5977 56.6406 12.5977ZM34.3262-35.2539C34.3262-36.377 35.1562-37.2559 36.2793-37.2559L54.6875-37.2559L54.6875-55.6152C54.6875-56.6895 55.5176-57.5684 56.543-57.5684C57.666-57.5684 58.5449-56.7383 58.5449-55.6152L58.5449-37.2559L76.9531-37.2559C78.0762-37.2559 78.9062-36.377 78.9062-35.2539C78.9062-34.2285 78.0273-33.3984 76.9531-33.3984L58.5449-33.3984L58.5449-14.9902C58.5449-13.8672 57.666-13.0371 56.543-13.0371C55.5176-13.0371 54.6875-13.916 54.6875-14.9902L54.6875-33.3984L36.2793-33.3984C35.2051-33.3984 34.3262-34.2285 34.3262-35.2539Z"/>
  </g>
  <g id="Ultralight-M" transform="matrix(1 0 0 1 503.656 1126)">
   <path d="M56.0547 12.0605C82.0801 12.0605 103.369-9.22852 103.369-35.2539C103.369-61.2793 82.0801-82.5684 56.0547-82.5684C30.0293-82.5684 8.74023-61.2793 8.74023-35.2539C8.74023-9.22852 30.0293 12.0605 56.0547 12.0605ZM34.1797-35.2539C34.1797-35.9863 34.7168-36.5723 35.4004-36.5723L54.834-36.5723L54.834-55.957C54.834-56.6406 55.4199-57.2266 56.0059-57.2266C56.7383-57.2266 57.3242-56.6895 57.3242-55.957L57.3242-36.5723L76.709-36.5723C77.4414-36.5723 77.9785-35.9863 77.9785-35.2539C77.9785-34.668 77.3926-34.082 76.709-34.082L57.3242-34.082L57.3242-14.6484C57.3242-13.9648 56.7383-13.4277 56.0059-13.4277C55.4199-13.4277 54.834-14.0137 54.834-14.6484L54.834-34.082L35.4004-34.082C34.7656-34.082 34.1797-34.668 34.1797-35.2539Z"/>
  </g>
  <g id="Black-S" transform="matrix(1 0 0 1 2884.57 696)">
   <path d="M48.8281 6.78711C71.9727 6.78711 90.8203-12.0605 90.8203-35.2051C90.8203-58.3496 71.9727-77.1973 48.8281-77.1973C25.6836-77.1973 6.83594-58.3496 6.83594-35.2051C6.83594-12.0605 25.6836 6.78711 48.8281 6.78711ZM30.0293-35.2539C30.0293-38.5742 32.4707-41.1133 35.6934-41.1133L42.9688-41.1133L42.9688-48.3887C42.9688-51.6113 45.5078-54.0527 48.8281-54.0527C52.1484-54.0527 54.6875-51.6113 54.6875-48.3887L54.6875-41.1133L61.9629-41.1133C65.1855-41.1133 67.627-38.5742 67.627-35.2539C67.627-31.9336 65.1855-29.3945 61.9629-29.3945L54.6875-29.3945L54.6875-22.1191C54.6875-18.8965 52.1484-16.4551 48.8281-16.4551C45.5078-16.4551 42.9688-18.8965 42.9688-22.1191L42.9688-29.3945L35.6934-29.3945C32.4707-29.3945 30.0293-31.9336 30.0293-35.2539Z"/>
  </g>
  <g id="Heavy-S" transform="matrix(1 0 0 1 2588.47 696)">
   <path d="M48.2422 6.15234C70.9961 6.15234 89.5996-12.4512 89.5996-35.2051C89.5996-57.959 70.9961-76.6113 48.1934-76.6113C25.4395-76.6113 6.83594-57.959 6.83594-35.2051C6.83594-12.4512 25.4395 6.15234 48.2422 6.15234ZM29.4434-35.2539C29.4434-38.3301 31.6895-40.625 34.668-40.625L42.8223-40.625L42.8223-48.7793C42.8223-51.7578 45.1172-54.0039 48.1934-54.0039C51.2695-54.0039 53.5645-51.7578 53.5645-48.7793L53.5645-40.625L61.7676-40.625C64.7461-40.625 66.9922-38.3301 66.9922-35.2539C66.9922-32.1777 64.7461-29.8828 61.7676-29.8828L53.5645-29.8828L53.5645-21.7285C53.5645-18.75 51.2695-16.5039 48.1934-16.5039C45.1172-16.5039 42.8223-18.75 42.8223-21.7285L42.8223-29.8828L34.668-29.8828C31.6895-29.8828 29.4434-32.1777 29.4434-35.2539Z"/>
  </g>
  <g id="Bold-S" transform="matrix(1 0 0 1 2292.44 696)">
   <path d="M47.5586 5.46875C69.873 5.46875 88.2324-12.8906 88.2324-35.2539C88.2324-57.5684 69.873-75.9277 47.5098-75.9277C25.1953-75.9277 6.83594-57.5684 6.83594-35.2539C6.83594-12.8906 25.1953 5.46875 47.5586 5.46875ZM28.8086-35.2539C28.8086-38.0371 30.8105-40.0879 33.5449-40.0879L42.6758-40.0879L42.6758-49.2188C42.6758-51.9531 44.7266-54.0039 47.5098-54.0039C50.293-54.0039 52.3438-51.9531 52.3438-49.2188L52.3438-40.0879L61.4746-40.0879C64.2578-40.0879 66.2598-38.0371 66.2598-35.2539C66.2598-32.4707 64.2578-30.4199 61.4746-30.4199L52.3438-30.4199L52.3438-21.2891C52.3438-18.5547 50.293-16.5039 47.5098-16.5039C44.7266-16.5039 42.6758-18.5547 42.6758-21.2891L42.6758-30.4199L33.5449-30.4199C30.8105-30.4199 28.8086-32.4707 28.8086-35.2539Z"/>
  </g>
  <g id="Semibold-S" transform="matrix(1 0 0 1 1996.2 696)">
   <path d="M47.0703 4.98047C69.0918 4.98047 87.3047-13.1836 87.3047-35.2539C87.3047-57.2754 69.0918-75.4883 47.0215-75.4883C25-75.4883 6.83594-57.2754 6.83594-35.2539C6.83594-13.1836 25.0488 4.98047 47.0703 4.98047ZM28.3203-35.2051C28.3203-37.8418 30.1758-39.6973 32.8125-39.6973L42.5781-39.6973L42.5781-49.5117C42.5781-52.0996 44.4336-53.9551 47.0215-53.9551C49.6094-53.9551 51.5137-52.0996 51.5137-49.5117L51.5137-39.6973L61.3281-39.6973C63.8672-39.6973 65.7715-37.8418 65.7715-35.2051C65.7715-32.6172 63.8672-30.8105 61.3281-30.8105L51.5137-30.8105L51.5137-20.9473C51.5137-18.4082 49.6094-16.5527 47.0215-16.5527C44.4336-16.5527 42.5781-18.4082 42.5781-20.9473L42.5781-30.8105L32.8125-30.8105C30.2246-30.8105 28.3203-32.6172 28.3203-35.2051Z"/>
  </g>
  <g id="Medium-S" transform="matrix(1 0 0 1 1699.83 696)">
   <path d="M46.7285 4.63867C68.5547 4.63867 86.6211-13.4277 86.6211-35.2539C86.6211-57.0801 68.5059-75.1465 46.6797-75.1465C24.8535-75.1465 6.83594-57.0801 6.83594-35.2539C6.83594-13.4277 24.9023 4.63867 46.7285 4.63867ZM27.9785-35.2051C27.9785-37.6953 29.7363-39.4043 32.2266-39.4043L42.5293-39.4043L42.5293-49.7559C42.5293-52.1973 44.1895-53.9551 46.6309-53.9551C49.1211-53.9551 50.8301-52.1973 50.8301-49.7559L50.8301-39.4043L61.1816-39.4043C63.623-39.4043 65.3809-37.6953 65.3809-35.2051C65.3809-32.7637 63.623-31.1035 61.1816-31.1035L50.8301-31.1035L50.8301-20.752C50.8301-18.3105 49.1211-16.5527 46.6309-16.5527C44.1895-16.5527 42.5293-18.3105 42.5293-20.752L42.5293-31.1035L32.2266-31.1035C29.7363-31.1035 27.9785-32.7637 27.9785-35.2051Z"/>
  </g>
  <g id="Regular-S" transform="matrix(1 0 0 1 1403.58 696)">
   <path d="M46.2402 4.15039C67.7734 4.15039 85.6934-13.7207 85.6934-35.2539C85.6934-56.7871 67.7246-74.6582 46.1914-74.6582C24.707-74.6582 6.83594-56.7871 6.83594-35.2539C6.83594-13.7207 24.7559 4.15039 46.2402 4.15039ZM27.5391-35.2051C27.5391-37.5 29.1504-39.0625 31.4453-39.0625L42.4316-39.0625L42.4316-50.0488C42.4316-52.3438 43.8965-53.9062 46.1426-53.9062C48.4375-53.9062 50-52.3438 50-50.0488L50-39.0625L61.0352-39.0625C63.2812-39.0625 64.8926-37.5 64.8926-35.2051C64.8926-32.959 63.2812-31.4453 61.0352-31.4453L50-31.4453L50-20.459C50-18.1641 48.4375-16.6016 46.1426-16.6016C43.8965-16.6016 42.4316-18.1641 42.4316-20.459L42.4316-31.4453L31.4453-31.4453C29.1504-31.4453 27.5391-32.959 27.5391-35.2051Z"/>
  </g>
  <g id="Light-S" transform="matrix(1 0 0 1 1107.6 696)">
   <path d="M45.5078 3.41797C66.6992 3.41797 84.2285-14.0625 84.2285-35.2539C84.2285-56.4453 66.6504-73.9258 45.5078-73.9258C24.3164-73.9258 6.83594-56.4453 6.83594-35.2539C6.83594-14.0625 24.3652 3.41797 45.5078 3.41797ZM27.2949-35.2051C27.2949-36.9629 28.5156-38.1836 30.2734-38.1836L42.5781-38.1836L42.5781-50.4883C42.5781-52.2461 43.75-53.4668 45.459-53.4668C47.2168-53.4668 48.4375-52.2461 48.4375-50.4883L48.4375-38.1836L60.7422-38.1836C62.4512-38.1836 63.6719-36.9629 63.6719-35.2051C63.6719-33.5449 62.4512-32.373 60.7422-32.373L48.4375-32.373L48.4375-20.0195C48.4375-18.3105 47.2168-17.0898 45.459-17.0898C43.75-17.0898 42.5781-18.3105 42.5781-20.0195L42.5781-32.373L30.2734-32.373C28.5645-32.373 27.2949-33.5449 27.2949-35.2051Z"/>
  </g>
  <g id="Thin-S" transform="matrix(1 0 0 1 811.867 696)">
   <path d="M44.5801 2.49023C65.2832 2.49023 82.2754-14.5508 82.2754-35.2539C82.2754-55.957 65.2344-72.998 44.5312-72.998C23.8281-72.998 6.83594-55.957 6.83594-35.2539C6.83594-14.5508 23.877 2.49023 44.5801 2.49023ZM26.9531-35.2539C26.9531-36.2793 27.7344-37.0605 28.7598-37.0605L42.7734-37.0605L42.7734-51.0742C42.7734-52.0996 43.5547-52.8809 44.4824-52.8809C45.5566-52.8809 46.2891-52.1484 46.2891-51.0742L46.2891-37.0605L60.3516-37.0605C61.377-37.0605 62.1094-36.2793 62.1094-35.2539C62.1094-34.2773 61.3281-33.5449 60.3516-33.5449L46.2891-33.5449L46.2891-19.4824C46.2891-18.457 45.5566-17.7246 44.4824-17.7246C43.5547-17.7246 42.7734-18.5059 42.7734-19.4824L42.7734-33.5449L28.7598-33.5449C27.7344-33.5449 26.9531-34.2773 26.9531-35.2539Z"/>
  </g>
  <g id="Ultralight-S" transform="matrix(1 0 0 1 515.644 696)">
   <path d="M44.043 1.95312C64.502 1.95312 81.2988-14.7949 81.2988-35.2539C81.2988-55.7129 64.502-72.4609 44.043-72.4609C23.584-72.4609 6.83594-55.7129 6.83594-35.2539C6.83594-14.7949 23.584 1.95312 44.043 1.95312ZM26.8066-35.2539C26.8066-35.9375 27.2949-36.4746 27.9785-36.4746L42.8711-36.4746L42.8711-51.416C42.8711-52.002 43.457-52.5391 43.9941-52.5391C44.6777-52.5391 45.2148-52.0508 45.2148-51.416L45.2148-36.4746L60.1562-36.4746C60.8398-36.4746 61.3281-35.9375 61.3281-35.2539C61.3281-34.668 60.791-34.1309 60.1562-34.1309L45.2148-34.1309L45.2148-19.1895C45.2148-18.5547 44.6777-18.0176 43.9941-18.0176C43.457-18.0176 42.8711-18.6035 42.8711-19.1895L42.8711-34.1309L27.9785-34.1309C27.3438-34.1309 26.8066-34.668 26.8066-35.2539Z"/>
  </g>
 </g>
</svg>
