<?xml version="1.0" encoding="UTF-8"?>
<!--Generator: Apple Native CoreSVG 175-->
<!DOCTYPE svg
PUBLIC "-//W3C//DTD SVG 1.1//EN"
       "http://www.w3.org/Graphics/SVG/1.1/DTD/svg11.dtd">
<svg version="1.1" xmlns="http://www.w3.org/2000/svg" xmlns:xlink="http://www.w3.org/1999/xlink" width="3300" height="2200">
 <!--glyph: "uni100212.medium", point size: 100.0, font version: "17.0d11e1", template writer version: "65.1"-->
 <g id="Notes">
  <rect height="2200" id="artboard" style="fill:white;opacity:1" width="3300" x="0" y="0"/>
  <line style="fill:none;stroke:black;opacity:1;stroke-width:0.5;" x1="263" x2="3036" y1="292" y2="292"/>
  <text style="stroke:none;fill:black;font-family:sans-serif;font-size:13;font-weight:bold;" transform="matrix(1 0 0 1 263 322)">Weight/Scale Variations</text>
  <text style="stroke:none;fill:black;font-family:sans-serif;font-size:13;text-anchor:middle;" transform="matrix(1 0 0 1 559.711 322)">Ultralight</text>
  <text style="stroke:none;fill:black;font-family:sans-serif;font-size:13;text-anchor:middle;" transform="matrix(1 0 0 1 856.422 322)">Thin</text>
  <text style="stroke:none;fill:black;font-family:sans-serif;font-size:13;text-anchor:middle;" transform="matrix(1 0 0 1 1153.13 322)">Light</text>
  <text style="stroke:none;fill:black;font-family:sans-serif;font-size:13;text-anchor:middle;" transform="matrix(1 0 0 1 1449.84 322)">Regular</text>
  <text style="stroke:none;fill:black;font-family:sans-serif;font-size:13;text-anchor:middle;" transform="matrix(1 0 0 1 1746.56 322)">Medium</text>
  <text style="stroke:none;fill:black;font-family:sans-serif;font-size:13;text-anchor:middle;" transform="matrix(1 0 0 1 2043.27 322)">Semibold</text>
  <text style="stroke:none;fill:black;font-family:sans-serif;font-size:13;text-anchor:middle;" transform="matrix(1 0 0 1 2339.98 322)">Bold</text>
  <text style="stroke:none;fill:black;font-family:sans-serif;font-size:13;text-anchor:middle;" transform="matrix(1 0 0 1 2636.69 322)">Heavy</text>
  <text style="stroke:none;fill:black;font-family:sans-serif;font-size:13;text-anchor:middle;" transform="matrix(1 0 0 1 2933.4 322)">Black</text>
  <line style="fill:none;stroke:black;opacity:1;stroke-width:0.5;" x1="263" x2="3036" y1="1903" y2="1903"/>
  <g transform="matrix(1 0 0 1 263 1933)">
   <path d="M9.24805 0.830078Q10.8691 0.830078 12.2949 0.214844Q13.7207-0.400391 14.8096-1.49414Q15.8984-2.58789 16.5186-4.01367Q17.1387-5.43945 17.1387-7.05078Q17.1387-8.66211 16.5186-10.0879Q15.8984-11.5137 14.8047-12.6074Q13.7109-13.7012 12.2852-14.3164Q10.8594-14.9316 9.23828-14.9316Q7.62695-14.9316 6.20117-14.3164Q4.77539-13.7012 3.69141-12.6074Q2.60742-11.5137 1.9873-10.0879Q1.36719-8.66211 1.36719-7.05078Q1.36719-5.43945 1.9873-4.01367Q2.60742-2.58789 3.69629-1.49414Q4.78516-0.400391 6.21094 0.214844Q7.63672 0.830078 9.24805 0.830078ZM9.24805-0.654297Q7.91992-0.654297 6.7627-1.14746Q5.60547-1.64062 4.73145-2.51953Q3.85742-3.39844 3.36426-4.56055Q2.87109-5.72266 2.87109-7.05078Q2.87109-8.37891 3.35938-9.54102Q3.84766-10.7031 4.72168-11.582Q5.5957-12.4609 6.75293-12.9541Q7.91016-13.4473 9.23828-13.4473Q10.5762-13.4473 11.7334-12.9541Q12.8906-12.4609 13.7695-11.582Q14.6484-10.7031 15.1465-9.54102Q15.6445-8.37891 15.6445-7.05078Q15.6445-5.72266 15.1514-4.56055Q14.6582-3.39844 13.7842-2.51953Q12.9102-1.64062 11.748-1.14746Q10.5859-0.654297 9.24805-0.654297ZM5.6543-7.05078Q5.6543-6.72852 5.85938-6.52832Q6.06445-6.32812 6.40625-6.32812L8.51562-6.32812L8.51562-4.20898Q8.51562-3.88672 8.71094-3.67676Q8.90625-3.4668 9.23828-3.4668Q9.56055-3.4668 9.77051-3.67676Q9.98047-3.88672 9.98047-4.20898L9.98047-6.32812L12.0898-6.32812Q12.4219-6.32812 12.627-6.52832Q12.832-6.72852 12.832-7.05078Q12.832-7.38281 12.627-7.58789Q12.4219-7.79297 12.0898-7.79297L9.98047-7.79297L9.98047-9.90234Q9.98047-10.2344 9.77051-10.4443Q9.56055-10.6543 9.23828-10.6543Q8.90625-10.6543 8.71094-10.4443Q8.51562-10.2344 8.51562-9.90234L8.51562-7.79297L6.40625-7.79297Q6.06445-7.79297 5.85938-7.58789Q5.6543-7.38281 5.6543-7.05078Z"/>
  </g>
  <g transform="matrix(1 0 0 1 281.867 1933)">
   <path d="M11.709 2.91016Q13.75 2.91016 15.5518 2.12891Q17.3535 1.34766 18.7305-0.0292969Q20.1074-1.40625 20.8887-3.20801Q21.6699-5.00977 21.6699-7.05078Q21.6699-9.0918 20.8887-10.8936Q20.1074-12.6953 18.7305-14.0723Q17.3535-15.4492 15.5469-16.2305Q13.7402-17.0117 11.6992-17.0117Q9.6582-17.0117 7.85645-16.2305Q6.05469-15.4492 4.68262-14.0723Q3.31055-12.6953 2.5293-10.8936Q1.74805-9.0918 1.74805-7.05078Q1.74805-5.00977 2.5293-3.20801Q3.31055-1.40625 4.6875-0.0292969Q6.06445 1.34766 7.86621 2.12891Q9.66797 2.91016 11.709 2.91016ZM11.709 1.25Q9.98047 1.25 8.47656 0.605469Q6.97266-0.0390625 5.83496-1.17676Q4.69727-2.31445 4.05762-3.81836Q3.41797-5.32227 3.41797-7.05078Q3.41797-8.7793 4.05762-10.2832Q4.69727-11.7871 5.83008-12.9297Q6.96289-14.0723 8.4668-14.7119Q9.9707-15.3516 11.6992-15.3516Q13.4277-15.3516 14.9316-14.7119Q16.4355-14.0723 17.5781-12.9297Q18.7207-11.7871 19.3652-10.2832Q20.0098-8.7793 20.0098-7.05078Q20.0098-5.32227 19.3701-3.81836Q18.7305-2.31445 17.5928-1.17676Q16.4551-0.0390625 14.9463 0.605469Q13.4375 1.25 11.709 1.25ZM7.17773-7.05078Q7.17773-6.69922 7.41211-6.47461Q7.64648-6.25 8.01758-6.25L10.8887-6.25L10.8887-3.36914Q10.8887-2.99805 11.1133-2.76855Q11.3379-2.53906 11.6895-2.53906Q12.0605-2.53906 12.29-2.76855Q12.5195-2.99805 12.5195-3.36914L12.5195-6.25L15.4004-6.25Q15.7715-6.25 16.001-6.47461Q16.2305-6.69922 16.2305-7.05078Q16.2305-7.42188 16.001-7.65137Q15.7715-7.88086 15.4004-7.88086L12.5195-7.88086L12.5195-10.752Q12.5195-11.1328 12.29-11.3623Q12.0605-11.5918 11.6895-11.5918Q11.3379-11.5918 11.1133-11.3574Q10.8887-11.123 10.8887-10.752L10.8887-7.88086L8.01758-7.88086Q7.63672-7.88086 7.40723-7.65137Q7.17773-7.42188 7.17773-7.05078Z"/>
  </g>
  <g transform="matrix(1 0 0 1 305.646 1933)">
   <path d="M14.9707 5.66406Q17.0605 5.66406 18.96 5.01465Q20.8594 4.36523 22.4512 3.19336Q24.043 2.02148 25.2197 0.429688Q26.3965-1.16211 27.0459-3.06641Q27.6953-4.9707 27.6953-7.05078Q27.6953-9.14062 27.0459-11.04Q26.3965-12.9395 25.2197-14.5312Q24.043-16.123 22.4512-17.2998Q20.8594-18.4766 18.9551-19.126Q17.0508-19.7754 14.9609-19.7754Q12.8711-19.7754 10.9717-19.126Q9.07227-18.4766 7.48535-17.2998Q5.89844-16.123 4.72168-14.5312Q3.54492-12.9395 2.90039-11.04Q2.25586-9.14062 2.25586-7.05078Q2.25586-4.9707 2.90527-3.06641Q3.55469-1.16211 4.72656 0.429688Q5.89844 2.02148 7.49023 3.19336Q9.08203 4.36523 10.9814 5.01465Q12.8809 5.66406 14.9707 5.66406ZM14.9707 3.84766Q13.1641 3.84766 11.5283 3.2959Q9.89258 2.74414 8.53516 1.74805Q7.17773 0.751953 6.17676-0.610352Q5.17578-1.97266 4.62891-3.6084Q4.08203-5.24414 4.08203-7.05078Q4.08203-8.86719 4.62891-10.5029Q5.17578-12.1387 6.17188-13.501Q7.16797-14.8633 8.52539-15.8594Q9.88281-16.8555 11.5186-17.4023Q13.1543-17.9492 14.9609-17.9492Q16.7773-17.9492 18.4131-17.4023Q20.0488-16.8555 21.4111-15.8594Q22.7734-14.8633 23.7695-13.501Q24.7656-12.1387 25.3174-10.5029Q25.8691-8.86719 25.8691-7.05078Q25.8789-5.24414 25.332-3.6084Q24.7852-1.97266 23.7842-0.610352Q22.7832 0.751953 21.4209 1.74805Q20.0586 2.74414 18.4229 3.2959Q16.7871 3.84766 14.9707 3.84766ZM9.19922-7.05078Q9.19922-6.66992 9.45801-6.4209Q9.7168-6.17188 10.1172-6.17188L14.0625-6.17188L14.0625-2.2168Q14.0625-1.81641 14.3115-1.55762Q14.5605-1.29883 14.9512-1.29883Q15.3516-1.29883 15.6104-1.55273Q15.8691-1.80664 15.8691-2.2168L15.8691-6.17188L19.8242-6.17188Q20.2246-6.17188 20.4785-6.4209Q20.7324-6.66992 20.7324-7.05078Q20.7324-7.46094 20.4785-7.71484Q20.2246-7.96875 19.8242-7.96875L15.8691-7.96875L15.8691-11.9141Q15.8691-12.3242 15.6104-12.583Q15.3516-12.8418 14.9512-12.8418Q14.5605-12.8418 14.3115-12.583Q14.0625-12.3242 14.0625-11.9141L14.0625-7.96875L10.1172-7.96875Q9.70703-7.96875 9.45312-7.71484Q9.19922-7.46094 9.19922-7.05078Z"/>
  </g>
  <text style="stroke:none;fill:black;font-family:sans-serif;font-size:13;font-weight:bold;" transform="matrix(1 0 0 1 263 1953)">Design Variations</text>
  <text style="stroke:none;fill:black;font-family:sans-serif;font-size:13;" transform="matrix(1 0 0 1 263 1971)">Symbols are supported in up to nine weights and three scales.</text>
  <text style="stroke:none;fill:black;font-family:sans-serif;font-size:13;" transform="matrix(1 0 0 1 263 1989)">For optimal layout with text and other symbols, vertically align</text>
  <text style="stroke:none;fill:black;font-family:sans-serif;font-size:13;" transform="matrix(1 0 0 1 263 2007)">symbols with the adjacent text.</text>
  <line style="fill:none;stroke:#00AEEF;stroke-width:0.5;opacity:1.0;" x1="776" x2="776" y1="1919" y2="1933"/>
  <g transform="matrix(1 0 0 1 776 1933)">
   <path d="M3.31055 0.15625Q3.70117 0.15625 3.91602-0.00976562Q4.13086-0.175781 4.26758-0.585938L5.52734-4.0332L11.2891-4.0332L12.5488-0.585938Q12.6855-0.175781 12.9004-0.00976562Q13.1152 0.15625 13.4961 0.15625Q13.8867 0.15625 14.1162-0.0585938Q14.3457-0.273438 14.3457-0.644531Q14.3457-0.869141 14.2383-1.17188L9.6582-13.3691Q9.48242-13.8184 9.17969-14.043Q8.87695-14.2676 8.4082-14.2676Q7.5-14.2676 7.17773-13.3789L2.59766-1.16211Q2.49023-0.859375 2.49023-0.634766Q2.49023-0.263672 2.70996-0.0537109Q2.92969 0.15625 3.31055 0.15625ZM6.00586-5.51758L8.37891-12.0898L8.42773-12.0898L10.8008-5.51758Z"/>
  </g>
  <line style="fill:none;stroke:#00AEEF;stroke-width:0.5;opacity:1.0;" x1="793.197" x2="793.197" y1="1919" y2="1933"/>
  <text style="stroke:none;fill:black;font-family:sans-serif;font-size:13;font-weight:bold;" transform="matrix(1 0 0 1 776 1953)">Margins</text>
  <text style="stroke:none;fill:black;font-family:sans-serif;font-size:13;" transform="matrix(1 0 0 1 776 1971)">Leading and trailing margins on the left and right side of each symbol</text>
  <text style="stroke:none;fill:black;font-family:sans-serif;font-size:13;" transform="matrix(1 0 0 1 776 1989)">can be adjusted by modifying the x-location of the margin guidelines.</text>
  <text style="stroke:none;fill:black;font-family:sans-serif;font-size:13;" transform="matrix(1 0 0 1 776 2007)">Modifications are automatically applied proportionally to all</text>
  <text style="stroke:none;fill:black;font-family:sans-serif;font-size:13;" transform="matrix(1 0 0 1 776 2025)">scales and weights.</text>
  <g transform="matrix(1 0 0 1 1289 1933)">
   <path d="M2.8418 1.86523L4.54102 3.57422Q5.18555 4.22852 5.90332 4.17969Q6.62109 4.13086 7.31445 3.35938L18.0078-8.42773L17.041-9.4043L6.42578 2.27539Q6.16211 2.57812 5.89355 2.61719Q5.625 2.65625 5.27344 2.30469L4.10156 1.14258Q3.75 0.791016 3.79395 0.522461Q3.83789 0.253906 4.14062-0.0195312L15.6152-10.8203L14.6387-11.7871L3.04688-0.898438Q2.30469-0.214844 2.25098 0.498047Q2.19727 1.21094 2.8418 1.86523ZM9.25781-16.3281Q8.94531-16.0254 8.90625-15.6348Q8.86719-15.2441 9.04297-14.9512Q9.21875-14.6777 9.55566-14.541Q9.89258-14.4043 10.3809-14.5215Q11.4746-14.7754 12.5977-14.7314Q13.7207-14.6875 14.7949-13.9844L14.209-12.5293Q13.9551-11.9043 14.0674-11.4404Q14.1797-10.9766 14.5801-10.5664L16.875-8.25195Q17.2363-7.88086 17.5781-7.82227Q17.9199-7.76367 18.3398-7.8418L19.4043-8.03711L20.0684-7.36328L20.0293-6.80664Q20-6.43555 20.1221-6.12305Q20.2441-5.81055 20.6055-5.44922L21.3672-4.70703Q21.7285-4.3457 22.1533-4.33105Q22.5781-4.31641 22.9297-4.66797L25.8398-7.58789Q26.1914-7.93945 26.1816-8.35449Q26.1719-8.76953 25.8105-9.13086L25.0391-9.89258Q24.6875-10.2539 24.3799-10.3857Q24.0723-10.5176 23.7109-10.4883L23.1348-10.4395L22.4902-11.0742L22.7344-12.1973Q22.832-12.6172 22.6953-12.9834Q22.5586-13.3496 22.1191-13.7891L19.9219-15.9766Q18.6719-17.2168 17.2607-17.8369Q15.8496-18.457 14.4189-18.4814Q12.9883-18.5059 11.665-17.959Q10.3418-17.4121 9.25781-16.3281ZM10.752-15.957Q11.6602-16.6211 12.7002-16.9043Q13.7402-17.1875 14.8047-17.085Q15.8691-16.9824 16.8701-16.5137Q17.8711-16.0449 18.7012-15.2051L21.1328-12.793Q21.3086-12.6172 21.3525-12.4512Q21.3965-12.2852 21.3379-12.0312L21.0156-10.5469L22.5195-9.0625L23.5059-9.12109Q23.6914-9.13086 23.7891-9.09668Q23.8867-9.0625 24.0332-8.91602L24.6094-8.33984L22.168-5.89844L21.5918-6.47461Q21.4453-6.62109 21.4062-6.71875Q21.3672-6.81641 21.377-7.01172L21.4453-7.98828L19.9512-9.47266L18.4277-9.21875Q18.1836-9.16992 18.042-9.2041Q17.9004-9.23828 17.7148-9.41406L15.7129-11.416Q15.5176-11.5918 15.4932-11.7529Q15.4688-11.9141 15.5859-12.1875L16.4648-14.2773Q15.293-15.3711 13.8281-15.791Q12.3633-16.2109 10.8398-15.7617Q10.7227-15.7324 10.6885-15.8057Q10.6543-15.8789 10.752-15.957Z"/>
  </g>
  <text style="stroke:none;fill:black;font-family:sans-serif;font-size:13;font-weight:bold;" transform="matrix(1 0 0 1 1289 1953)">Exporting</text>
  <text style="stroke:none;fill:black;font-family:sans-serif;font-size:13;" transform="matrix(1 0 0 1 1289 1971)">Symbols should be outlined when exporting to ensure the</text>
  <text style="stroke:none;fill:black;font-family:sans-serif;font-size:13;" transform="matrix(1 0 0 1 1289 1989)">design is preserved when submitting to Xcode.</text>
  <text id="template-version" style="stroke:none;fill:black;font-family:sans-serif;font-size:13;text-anchor:end;" transform="matrix(1 0 0 1 3036 1933)">Template v.3.0</text>
  <text style="stroke:none;fill:black;font-family:sans-serif;font-size:13;text-anchor:end;" transform="matrix(1 0 0 1 3036 1951)">Requires Xcode 13 or greater</text>
  <text id="descriptive-name" style="stroke:none;fill:black;font-family:sans-serif;font-size:13;text-anchor:end;" transform="matrix(1 0 0 1 3036 1969)">Generated from trash.fill</text>
  <text style="stroke:none;fill:black;font-family:sans-serif;font-size:13;text-anchor:end;" transform="matrix(1 0 0 1 3036 1987)">Typeset at 100 points</text>
  <text style="stroke:none;fill:black;font-family:sans-serif;font-size:13;" transform="matrix(1 0 0 1 263 726)">Small</text>
  <text style="stroke:none;fill:black;font-family:sans-serif;font-size:13;" transform="matrix(1 0 0 1 263 1156)">Medium</text>
  <text style="stroke:none;fill:black;font-family:sans-serif;font-size:13;" transform="matrix(1 0 0 1 263 1586)">Large</text>
 </g>
 <g id="Guides">
  <g id="H-reference" style="fill:#27AAE1;stroke:none;" transform="matrix(1 0 0 1 339 696)">
   <path d="M0.976562 0L3.66211 0L29.3457-67.1387L30.0293-67.1387L30.0293-70.459L28.125-70.459ZM11.6699-24.4629L46.9727-24.4629L46.2402-26.709L12.4512-26.709ZM55.127 0L57.7637 0L30.6152-70.459L29.4434-70.459L29.4434-67.1387Z"/>
  </g>
  <line id="Baseline-S" style="fill:none;stroke:#27AAE1;opacity:1;stroke-width:0.5;" x1="263" x2="3036" y1="696" y2="696"/>
  <line id="Capline-S" style="fill:none;stroke:#27AAE1;opacity:1;stroke-width:0.5;" x1="263" x2="3036" y1="625.541" y2="625.541"/>
  <g id="H-reference" style="fill:#27AAE1;stroke:none;" transform="matrix(1 0 0 1 339 1126)">
   <path d="M0.976562 0L3.66211 0L29.3457-67.1387L30.0293-67.1387L30.0293-70.459L28.125-70.459ZM11.6699-24.4629L46.9727-24.4629L46.2402-26.709L12.4512-26.709ZM55.127 0L57.7637 0L30.6152-70.459L29.4434-70.459L29.4434-67.1387Z"/>
  </g>
  <line id="Baseline-M" style="fill:none;stroke:#27AAE1;opacity:1;stroke-width:0.5;" x1="263" x2="3036" y1="1126" y2="1126"/>
  <line id="Capline-M" style="fill:none;stroke:#27AAE1;opacity:1;stroke-width:0.5;" x1="263" x2="3036" y1="1055.54" y2="1055.54"/>
  <g id="H-reference" style="fill:#27AAE1;stroke:none;" transform="matrix(1 0 0 1 339 1556)">
   <path d="M0.976562 0L3.66211 0L29.3457-67.1387L30.0293-67.1387L30.0293-70.459L28.125-70.459ZM11.6699-24.4629L46.9727-24.4629L46.2402-26.709L12.4512-26.709ZM55.127 0L57.7637 0L30.6152-70.459L29.4434-70.459L29.4434-67.1387Z"/>
  </g>
  <line id="Baseline-L" style="fill:none;stroke:#27AAE1;opacity:1;stroke-width:0.5;" x1="263" x2="3036" y1="1556" y2="1556"/>
  <line id="Capline-L" style="fill:none;stroke:#27AAE1;opacity:1;stroke-width:0.5;" x1="263" x2="3036" y1="1485.54" y2="1485.54"/>
  <line id="left-margin-Regular-M" style="fill:none;stroke:#00AEEF;stroke-width:0.5;opacity:1.0;" x1="1395.08" x2="1395.08" y1="1030.79" y2="1150.12"/>
  <line id="right-margin-Regular-M" style="fill:none;stroke:#00AEEF;stroke-width:0.5;opacity:1.0;" x1="1504.61" x2="1504.61" y1="1030.79" y2="1150.12"/>
 </g>
 <g id="Symbols">
  <g id="Black-L" transform="matrix(1 0 0 1 2857.69 1556)">
   <path d="M46.0938 30.6641L105.322 30.6641Q110.938 30.6641 114.771 28.8818Q118.604 27.0996 120.63 23.4863Q122.656 19.873 122.9 14.4531L126.758-73.1445L133.105-73.1445Q136.865-73.1445 139.307-75.4883Q141.748-77.832 141.748-81.5918Q141.748-85.2539 139.307-87.5732Q136.865-89.8926 133.105-89.8926L18.3105-89.8926Q14.5996-89.8926 12.1338-87.5732Q9.66797-85.2539 9.66797-81.5918Q9.66797-77.832 12.1338-75.4883Q14.5996-73.1445 18.3105-73.1445L24.707-73.1445L28.5156 14.4531Q28.7598 19.873 30.7861 23.4863Q32.8125 27.0996 36.6455 28.8818Q40.4785 30.6641 46.0938 30.6641ZM54.6875 7.4707Q52.1973 7.4707 50.5859 5.9082Q48.9746 4.3457 48.877 1.80664L47.0703-59.7168Q47.0215-62.3047 48.5352-63.8916Q50.0488-65.4785 52.6855-65.4785Q55.3711-65.4785 57.0068-63.916Q58.6426-62.3535 58.6914-59.8145L60.498 1.66016Q60.5957 4.24805 59.0088 5.85938Q57.4219 7.4707 54.6875 7.4707ZM75.7324 7.4707Q73.0957 7.4707 71.5088 5.93262Q69.9219 4.39453 69.9219 1.85547L69.9219-59.8633Q69.9219-62.4023 71.5088-63.9404Q73.0957-65.4785 75.7324-65.4785Q78.3203-65.4785 79.9072-63.9404Q81.4941-62.4023 81.4941-59.8633L81.4941 1.85547Q81.4941 4.39453 79.9072 5.93262Q78.3203 7.4707 75.7324 7.4707ZM96.7285 7.4707Q93.9941 7.4707 92.4072 5.85938Q90.8203 4.24805 90.918 1.66016L92.7246-59.8145Q92.7734-62.3535 94.4092-63.916Q96.0449-65.4785 98.7305-65.4785Q101.367-65.4785 102.881-63.8916Q104.395-62.3047 104.346-59.7168L102.539 1.80664Q102.441 4.3457 100.83 5.9082Q99.2188 7.4707 96.7285 7.4707ZM43.0664-86.8652L61.8652-86.8652L61.8652-98.1445Q61.8652-99.4141 62.6953-100.122Q63.5254-100.83 65.0879-100.83L86.2793-100.83Q87.8906-100.83 88.7207-100.122Q89.5508-99.4141 89.5508-98.1445L89.5508-86.8652L108.301-86.8652L108.301-98.584Q108.301-107.471 102.979-112.207Q97.6562-116.943 87.6465-116.943L63.7207-116.943Q53.7109-116.943 48.3887-112.207Q43.0664-107.471 43.0664-98.584Z"/>
  </g>
  <g id="Heavy-L" transform="matrix(1 0 0 1 2562.3 1556)">
   <path d="M44.8242 29.8828L104.004 29.8828Q109.18 29.8828 112.769 28.1738Q116.357 26.4648 118.286 23.0713Q120.215 19.6777 120.41 14.6484L124.365-74.3164L131.592-74.3164Q134.863-74.3164 137.012-76.3916Q139.16-78.4668 139.16-81.7383Q139.16-84.9121 137.012-86.9873Q134.863-89.0625 131.592-89.0625L17.2363-89.0625Q14.0137-89.0625 11.8408-86.9873Q9.66797-84.9121 9.66797-81.7383Q9.66797-78.4668 11.8408-76.3916Q14.0137-74.3164 17.2363-74.3164L24.4629-74.3164L28.418 14.6484Q28.6133 19.6777 30.542 23.0713Q32.4707 26.4648 36.0596 28.1738Q39.6484 29.8828 44.8242 29.8828ZM53.6621 7.91016Q51.416 7.91016 49.9756 6.51855Q48.5352 5.12695 48.4375 2.83203L46.582-60.6445Q46.5332-62.9883 47.9004-64.4043Q49.2676-65.8203 51.6602-65.8203Q54.0527-65.8203 55.542-64.4287Q57.0312-63.0371 57.0801-60.7422L58.9355 2.68555Q58.9844 5.0293 57.5684 6.46973Q56.1523 7.91016 53.6621 7.91016ZM74.4141 7.91016Q72.0703 7.91016 70.6055 6.51855Q69.1406 5.12695 69.1406 2.88086L69.1406-60.791Q69.1406-63.0371 70.6055-64.4287Q72.0703-65.8203 74.4141-65.8203Q76.7578-65.8203 78.1982-64.4287Q79.6387-63.0371 79.6387-60.791L79.6387 2.88086Q79.6387 5.12695 78.1982 6.51855Q76.7578 7.91016 74.4141 7.91016ZM95.1172 7.91016Q92.6758 7.91016 91.2354 6.46973Q89.7949 5.0293 89.8926 2.68555L91.748-60.7422Q91.7969-63.0371 93.2617-64.4287Q94.7266-65.8203 97.1191-65.8203Q99.5117-65.8203 100.903-64.4043Q102.295-62.9883 102.246-60.6445L100.391 2.83203Q100.293 5.12695 98.8281 6.51855Q97.3633 7.91016 95.1172 7.91016ZM42.9199-86.2305L59.5703-86.2305L59.5703-97.6074Q59.5703-99.2188 60.5957-100.122Q61.6211-101.025 63.5254-101.025L85.2539-101.025Q87.1582-101.025 88.1836-100.122Q89.209-99.2188 89.209-97.6074L89.209-86.2305L105.811-86.2305L105.811-98.0469Q105.811-106.445 100.781-110.962Q95.752-115.479 86.377-115.479L62.3535-115.479Q53.0273-115.479 47.9736-110.962Q42.9199-106.445 42.9199-98.0469Z"/>
  </g>
  <g id="Bold-L" transform="matrix(1 0 0 1 2267.03 1556)">
   <path d="M43.4082 29.0039L102.539 29.0039Q107.227 29.0039 110.547 27.417Q113.867 25.8301 115.674 22.6807Q117.48 19.5312 117.676 14.9414L121.729-75.6348L129.883-75.6348Q132.617-75.6348 134.424-77.417Q136.23-79.1992 136.23-81.8848Q136.23-84.5703 134.424-86.3281Q132.617-88.0859 129.883-88.0859L16.0156-88.0859Q13.3301-88.0859 11.499-86.3281Q9.66797-84.5703 9.66797-81.8848Q9.66797-79.1992 11.499-77.417Q13.3301-75.6348 16.0156-75.6348L24.2188-75.6348L28.2715 14.9414Q28.4668 19.5312 30.2734 22.6807Q32.0801 25.8301 35.4004 27.417Q38.7207 29.0039 43.4082 29.0039ZM52.5879 8.44727Q50.5859 8.44727 49.3164 7.20215Q48.0469 5.95703 47.9492 3.95508L46.0449-61.7188Q45.9961-63.7695 47.2168-64.9902Q48.4375-66.2109 50.5371-66.2109Q52.6367-66.2109 53.9307-65.0146Q55.2246-63.8184 55.2734-61.8164L57.1777 3.90625Q57.2266 5.9082 55.9814 7.17773Q54.7363 8.44727 52.5879 8.44727ZM72.998 8.44727Q70.8984 8.44727 69.6045 7.20215Q68.3105 5.95703 68.3105 4.00391L68.3105-61.8164Q68.3105-63.7695 69.6045-64.9902Q70.8984-66.2109 72.998-66.2109Q75.0488-66.2109 76.3184-64.9902Q77.5879-63.7695 77.5879-61.8164L77.5879 4.00391Q77.5879 5.95703 76.3184 7.20215Q75.0488 8.44727 72.998 8.44727ZM93.3594 8.44727Q91.2109 8.44727 89.9414 7.17773Q88.6719 5.9082 88.7207 3.90625L90.6738-61.7676Q90.6738-63.7695 91.9922-64.9902Q93.3105-66.2109 95.3613-66.2109Q97.4609-66.2109 98.6816-64.9658Q99.9023-63.7207 99.8535-61.7188L97.9492 4.00391Q97.9004 6.00586 96.6309 7.22656Q95.3613 8.44727 93.3594 8.44727ZM42.7734-85.5957L57.0312-85.5957L57.0312-96.9727Q57.0312-98.9746 58.2764-100.122Q59.5215-101.27 61.7676-101.27L84.082-101.27Q86.3281-101.27 87.5977-100.122Q88.8672-98.9746 88.8672-96.9727L88.8672-85.5957L103.076-85.5957L103.076-97.4609Q103.076-105.273 98.3398-109.595Q93.6035-113.916 85.0098-113.916L60.8398-113.916Q52.2461-113.916 47.5098-109.595Q42.7734-105.273 42.7734-97.4609Z"/>
  </g>
  <g id="Semibold-L" transform="matrix(1 0 0 1 1971.34 1556)">
   <path d="M42.3828 28.418L101.514 28.418Q105.859 28.418 108.984 26.8799Q112.109 25.3418 113.843 22.3633Q115.576 19.3848 115.723 15.0879L119.922-76.5625L128.711-76.5625Q131.055-76.5625 132.642-78.125Q134.229-79.6875 134.229-81.9824Q134.229-84.3262 132.642-85.8887Q131.055-87.4512 128.711-87.4512L15.1367-87.4512Q12.8906-87.4512 11.2549-85.8643Q9.61914-84.2773 9.61914-81.9824Q9.61914-79.6875 11.2549-78.125Q12.8906-76.5625 15.1367-76.5625L24.0234-76.5625L28.1738 15.0879Q28.3691 19.3848 30.1025 22.3633Q31.8359 25.3418 34.9365 26.8799Q38.0371 28.418 42.3828 28.418ZM51.8066 8.78906Q49.9512 8.78906 48.8037 7.66602Q47.6562 6.54297 47.6074 4.73633L45.6543-62.4512Q45.6055-64.2578 46.7285-65.3564Q47.8516-66.4551 49.7559-66.4551Q51.6113-66.4551 52.7832-65.3809Q53.9551-64.3066 54.0039-62.5L55.957 4.6875Q56.0059 6.49414 54.8584 7.6416Q53.7109 8.78906 51.8066 8.78906ZM71.9727 8.78906Q70.0684 8.78906 68.8965 7.66602Q67.7246 6.54297 67.7246 4.73633L67.7246-62.5Q67.7246-64.2578 68.8965-65.3564Q70.0684-66.4551 71.9727-66.4551Q73.8281-66.4551 75-65.3564Q76.1719-64.2578 76.1719-62.5L76.1719 4.73633Q76.1719 6.54297 75 7.66602Q73.8281 8.78906 71.9727 8.78906ZM92.0898 8.78906Q90.1855 8.78906 89.0381 7.6416Q87.8906 6.49414 87.9395 4.6875L89.8926-62.5Q89.8926-64.3066 91.0889-65.3809Q92.2852-66.4551 94.0918-66.4551Q95.9961-66.4551 97.1436-65.3564Q98.291-64.2578 98.2422-62.4023L96.2891 4.78516Q96.1914 6.5918 95.0684 7.69043Q93.9453 8.78906 92.0898 8.78906ZM42.627-85.1074L55.2246-85.1074L55.2246-96.5332Q55.2246-98.7793 56.6406-100.098Q58.0566-101.416 60.5469-101.416L83.252-101.416Q85.7422-101.416 87.1826-100.098Q88.623-98.7793 88.623-96.5332L88.623-85.1074L101.172-85.1074L101.172-97.0215Q101.172-104.492 96.6309-108.643Q92.0898-112.793 84.0332-112.793L59.7656-112.793Q51.6602-112.793 47.1436-108.643Q42.627-104.492 42.627-97.0215Z"/>
  </g>
  <g id="Medium-L" transform="matrix(1 0 0 1 1675.39 1556)">
   <path d="M41.6504 27.9297L100.781 27.9297Q104.834 27.9297 107.812 26.4648Q110.791 25 112.451 22.1436Q114.111 19.2871 114.307 15.2344L118.506-77.2461L127.832-77.2461Q129.883-77.2461 131.299-78.6377Q132.715-80.0293 132.715-82.0801Q132.715-84.1309 131.299-85.5225Q129.883-86.9141 127.832-86.9141L14.502-86.9141Q12.5-86.9141 11.0596-85.498Q9.61914-84.082 9.61914-82.0801Q9.61914-80.0293 11.0596-78.6377Q12.5-77.2461 14.502-77.2461L23.9258-77.2461L28.125 15.2344Q28.2715 19.2871 29.9316 22.1436Q31.5918 25 34.5703 26.4648Q37.5488 27.9297 41.6504 27.9297ZM51.2207 9.0332Q49.5117 9.0332 48.4619 8.00781Q47.4121 6.98242 47.3633 5.32227L45.3613-62.9883Q45.3613-64.6484 46.3867-65.6738Q47.4121-66.6992 49.1699-66.6992Q50.8301-66.6992 51.9043-65.6982Q52.9785-64.6973 53.0273-63.0371L55.0293 5.32227Q55.0781 6.93359 54.0283 7.9834Q52.9785 9.0332 51.2207 9.0332ZM71.1914 9.0332Q69.4336 9.0332 68.3594 7.9834Q67.2852 6.93359 67.2852 5.32227L67.2852-63.0371Q67.2852-64.6484 68.3594-65.6738Q69.4336-66.6992 71.1914-66.6992Q72.9004-66.6992 73.999-65.6738Q75.0977-64.6484 75.0977-63.0371L75.0977 5.32227Q75.0977 6.93359 73.999 7.9834Q72.9004 9.0332 71.1914 9.0332ZM91.1621 9.0332Q89.4043 9.0332 88.3545 8.00781Q87.3047 6.98242 87.3047 5.32227L89.3066-63.0371Q89.3066-64.6973 90.4053-65.6982Q91.5039-66.6992 93.1641-66.6992Q94.9219-66.6992 95.9717-65.6738Q97.0215-64.6484 96.9727-62.9395L95.0195 5.37109Q94.9707 7.03125 93.9209 8.03223Q92.8711 9.0332 91.1621 9.0332ZM42.5293-84.7656L53.9062-84.7656L53.9062-96.2402Q53.9062-98.6328 55.4443-100.073Q56.9824-101.514 59.6191-101.514L82.6172-101.514Q85.3516-101.514 86.8896-100.073Q88.4277-98.6328 88.4277-96.2402L88.4277-84.7656L99.7559-84.7656L99.7559-96.6797Q99.7559-103.857 95.3613-107.886Q90.9668-111.914 83.3008-111.914L58.9355-111.914Q51.2695-111.914 46.8994-107.886Q42.5293-103.857 42.5293-96.6797Z"/>
  </g>
  <g id="Regular-L" transform="matrix(1 0 0 1 1379.68 1556)">
   <path d="M40.6738 27.3438L99.7559 27.3438Q103.467 27.3438 106.274 25.9277Q109.082 24.5117 110.669 21.8262Q112.256 19.1406 112.402 15.3809L116.699-78.125L126.66-78.125Q128.369-78.125 129.541-79.3213Q130.713-80.5176 130.713-82.1777Q130.713-83.8867 129.541-85.083Q128.369-86.2793 126.66-86.2793L13.6719-86.2793Q12.0605-86.2793 10.8398-85.0586Q9.61914-83.8379 9.61914-82.1777Q9.61914-80.5176 10.8398-79.3213Q12.0605-78.125 13.6719-78.125L23.7305-78.125L28.0273 15.3809Q28.1738 19.1406 29.7607 21.8262Q31.3477 24.5117 34.1309 25.9277Q36.9141 27.3438 40.6738 27.3438ZM50.4395 9.375Q48.9258 9.375 47.998 8.47168Q47.0703 7.56836 47.0215 6.10352L44.9707-63.7207Q44.9707-65.1855 45.8984-66.0645Q46.8262-66.9434 48.3887-66.9434Q49.8535-66.9434 50.8057-66.0889Q51.7578-65.2344 51.8066-63.7695L53.8086 6.10352Q53.8574 7.51953 52.9297 8.44727Q52.002 9.375 50.4395 9.375ZM70.2148 9.375Q68.6523 9.375 67.6758 8.44727Q66.6992 7.51953 66.6992 6.10352L66.6992-63.7207Q66.6992-65.1367 67.6758-66.04Q68.6523-66.9434 70.2148-66.9434Q71.7285-66.9434 72.7051-66.04Q73.6816-65.1367 73.6816-63.7207L73.6816 6.10352Q73.6816 7.51953 72.7051 8.44727Q71.7285 9.375 70.2148 9.375ZM89.9414 9.375Q88.3789 9.375 87.4512 8.47168Q86.5234 7.56836 86.5234 6.10352L88.5742-63.7207Q88.5742-65.1855 89.5508-66.0645Q90.5273-66.9434 91.9434-66.9434Q93.5059-66.9434 94.458-66.04Q95.4102-65.1367 95.3613-63.6719L93.3594 6.15234Q93.3105 7.61719 92.3828 8.49609Q91.4551 9.375 89.9414 9.375ZM42.4316-84.2773L52.1484-84.2773L52.1484-95.8008Q52.1484-98.4863 53.833-100.073Q55.5176-101.66 58.4473-101.66L81.8359-101.66Q84.7656-101.66 86.4746-100.073Q88.1836-98.4863 88.1836-95.8008L88.1836-84.2773L97.8516-84.2773L97.8516-96.2891Q97.8516-103.076 93.6768-106.958Q89.502-110.84 82.3242-110.84L57.9102-110.84Q50.7324-110.84 46.582-106.958Q42.4316-103.076 42.4316-96.2891Z"/>
  </g>
  <g id="Light-L" transform="matrix(1 0 0 1 1083.6 1556)">
   <path d="M40.625 27.7832L98.5352 27.7832Q102.051 27.7832 104.81 26.3184Q107.568 24.8535 109.204 22.2168Q110.84 19.5801 110.986 16.0645L115.625-79.3945L126.318-79.3945Q127.637-79.3945 128.54-80.3223Q129.443-81.25 129.443-82.5195Q129.443-83.8867 128.54-84.79Q127.637-85.6934 126.318-85.6934L12.793-85.6934Q11.5234-85.6934 10.5713-84.7656Q9.61914-83.8379 9.61914-82.5195Q9.61914-81.25 10.5713-80.3223Q11.5234-79.3945 12.793-79.3945L23.5352-79.3945L28.1738 16.0645Q28.3203 19.5801 29.9561 22.2168Q31.5918 24.8535 34.3262 26.3184Q37.0605 27.7832 40.625 27.7832ZM50.0488 9.81445Q48.8281 9.81445 48.0957 9.08203Q47.3633 8.34961 47.3633 7.22656L45.166-64.2578Q45.166-65.4785 45.8984-66.1621Q46.6309-66.8457 47.8516-66.8457Q49.0234-66.8457 49.7803-66.1865Q50.5371-65.5273 50.5859-64.3555L52.7344 7.17773Q52.7344 8.30078 52.002 9.05762Q51.2695 9.81445 50.0488 9.81445ZM69.5801 9.81445Q68.3594 9.81445 67.5781 9.05762Q66.7969 8.30078 66.7969 7.17773L66.7969-64.2578Q66.7969-65.4297 67.5781-66.1377Q68.3594-66.8457 69.5801-66.8457Q70.752-66.8457 71.5332-66.1377Q72.3145-65.4297 72.3145-64.2578L72.3145 7.17773Q72.3145 8.30078 71.5332 9.05762Q70.752 9.81445 69.5801 9.81445ZM89.0625 9.81445Q87.8418 9.81445 87.1094 9.08203Q86.377 8.34961 86.3281 7.22656L88.5254-64.3066Q88.5254-65.4297 89.3066-66.1377Q90.0879-66.8457 91.2109-66.8457Q92.4316-66.8457 93.1885-66.1133Q93.9453-65.3809 93.9453-64.209L91.748 7.27539Q91.748 8.39844 91.0156 9.10645Q90.2832 9.81445 89.0625 9.81445ZM42.5781-83.7891L49.9512-83.7891L49.9512-95.9473Q49.9512-99.0723 51.9043-100.854Q53.8574-102.637 57.2754-102.637L81.7383-102.637Q85.2051-102.637 87.1582-100.854Q89.1113-99.0723 89.1113-95.9473L89.1113-83.7891L96.4844-83.7891L96.4844-96.2891Q96.4844-102.539 92.627-106.128Q88.7695-109.717 81.9824-109.717L56.9824-109.717Q50.2441-109.717 46.4111-106.128Q42.5781-102.539 42.5781-96.2891Z"/>
  </g>
  <g id="Thin-L" transform="matrix(1 0 0 1 787.745 1556)">
   <path d="M40.5762 28.3691L96.875 28.3691Q100.146 28.3691 102.856 26.8311Q105.566 25.293 107.251 22.7051Q108.936 20.1172 109.082 16.9434L114.16-81.0547L125.83-81.0547Q126.66-81.0547 127.222-81.6406Q127.783-82.2266 127.783-83.0078Q127.783-83.8379 127.222-84.3994Q126.66-84.9609 125.83-84.9609L11.6211-84.9609Q10.791-84.9609 10.1807-84.375Q9.57031-83.7891 9.57031-83.0078Q9.57031-82.1777 10.1807-81.6162Q10.791-81.0547 11.6211-81.0547L23.291-81.0547L28.418 16.9434Q28.5645 20.1172 30.249 22.7051Q31.9336 25.293 34.6191 26.8311Q37.3047 28.3691 40.5762 28.3691ZM49.5117 10.3516Q48.7305 10.3516 48.2422 9.86328Q47.7539 9.375 47.7539 8.69141L45.4102-64.9902Q45.4102-65.8203 45.8984-66.2842Q46.3867-66.748 47.168-66.748Q47.9004-66.748 48.4131-66.3086Q48.9258-65.8691 48.9258-65.1367L51.2695 8.59375Q51.2695 9.32617 50.8057 9.83887Q50.3418 10.3516 49.5117 10.3516ZM68.75 10.3516Q67.9688 10.3516 67.4561 9.83887Q66.9434 9.32617 66.9434 8.59375L66.9434-64.9902Q66.9434-65.7715 67.4561-66.2598Q67.9688-66.748 68.75-66.748Q69.5312-66.748 70.0195-66.2598Q70.5078-65.7715 70.5078-64.9902L70.5078 8.59375Q70.5078 9.32617 70.0195 9.83887Q69.5312 10.3516 68.75 10.3516ZM87.8906 10.4004Q87.0605 10.4004 86.5967 9.8877Q86.1328 9.375 86.084 8.69141L88.4766-65.0391Q88.4766-65.7715 89.0137-66.2109Q89.5508-66.6504 90.2344-66.6504Q91.0645-66.6504 91.5527-66.1865Q92.041-65.7227 92.041-64.8926L89.6484 8.74023Q89.6484 9.42383 89.1846 9.91211Q88.7207 10.4004 87.8906 10.4004ZM42.7246-83.1055L47.0703-83.1055L47.0703-96.1914Q47.0703-99.9023 49.3408-101.953Q51.6113-104.004 55.6641-104.004L81.6406-104.004Q85.7422-104.004 88.0371-101.953Q90.332-99.9023 90.332-96.1914L90.332-83.1055L94.6289-83.1055L94.6289-96.2402Q94.6289-101.904 91.2109-105.078Q87.793-108.252 81.5918-108.252L55.7129-108.252Q49.6094-108.252 46.167-105.078Q42.7246-101.904 42.7246-96.2402Z"/>
  </g>
  <g id="Ultralight-L" transform="matrix(1 0 0 1 491.474 1556)">
   <path d="M40.5273 28.6621L96.0449 28.6621Q99.1699 28.6621 101.855 27.0752Q104.541 25.4883 106.25 22.9492Q107.959 20.4102 108.105 17.3828L113.428-81.9336L125.586-81.9336Q126.172-81.9336 126.538-82.3242Q126.904-82.7148 126.904-83.2031Q126.904-83.8379 126.514-84.2041Q126.123-84.5703 125.586-84.5703L10.9863-84.5703Q10.4492-84.5703 10.0098-84.1797Q9.57031-83.7891 9.57031-83.2031Q9.57031-82.666 10.0098-82.2998Q10.4492-81.9336 10.9863-81.9336L23.1934-81.9336L28.5156 17.3828Q28.6621 20.4102 30.3711 22.9492Q32.0801 25.4883 34.7412 27.0752Q37.4023 28.6621 40.5273 28.6621ZM49.2676 10.6445Q48.6328 10.6445 48.3154 10.2539Q47.998 9.86328 47.998 9.42383L45.5078-65.332Q45.5078-66.0156 45.874-66.333Q46.2402-66.6504 46.7773-66.6504Q47.3145-66.6504 47.7051-66.3574Q48.0957-66.0645 48.0957-65.5273L50.5371 9.32617Q50.5371 9.81445 50.1953 10.2295Q49.8535 10.6445 49.2676 10.6445ZM68.3105 10.6445Q67.7734 10.6445 67.4072 10.2539Q67.041 9.86328 67.041 9.32617L67.041-65.332Q67.041-65.9668 67.4072-66.3086Q67.7734-66.6504 68.3105-66.6504Q68.8477-66.6504 69.2139-66.3086Q69.5801-65.9668 69.5801-65.332L69.5801 9.32617Q69.5801 9.86328 69.2139 10.2539Q68.8477 10.6445 68.3105 10.6445ZM87.3047 10.6934Q86.7188 10.6934 86.377 10.2783Q86.0352 9.86328 85.9863 9.42383L88.4277-65.4297Q88.4277-65.9668 88.8428-66.2842Q89.2578-66.6016 89.7461-66.6016Q90.332-66.6016 90.6982-66.2598Q91.0645-65.918 91.0645-65.2832L88.5742 9.47266Q88.5742 9.96094 88.2324 10.3271Q87.8906 10.6934 87.3047 10.6934ZM42.8223-82.7637L45.6055-82.7637L45.6055-96.2891Q45.6055-100.293 48.0469-102.466Q50.4883-104.639 54.8828-104.639L81.5918-104.639Q86.0352-104.639 88.501-102.466Q90.9668-100.293 90.9668-96.2891L90.9668-82.7637L93.7012-82.7637L93.7012-96.2402Q93.7012-101.514 90.4785-104.517Q87.2559-107.52 81.3477-107.52L55.0781-107.52Q49.2676-107.52 46.0449-104.517Q42.8223-101.514 42.8223-96.2402Z"/>
  </g>
  <g id="Black-M" transform="matrix(1 0 0 1 2873.85 1126)">
   <path d="M36.7676 16.6504L82.3242 16.6504Q89.3066 16.6504 92.9199 13.3301Q96.5332 10.0098 96.875 3.32031L99.8535-64.0625L104.297-64.0625Q107.471-64.0625 109.546-66.0156Q111.621-67.9688 111.621-71.1426Q111.621-74.2676 109.546-76.1963Q107.471-78.125 104.297-78.125L14.7949-78.125Q11.6211-78.125 9.5459-76.1963Q7.4707-74.2676 7.4707-71.1426Q7.4707-67.9688 9.5459-66.0156Q11.6211-64.0625 14.7949-64.0625L19.2383-64.0625L22.2168 3.32031Q22.5098 10.0098 26.1475 13.3301Q29.7852 16.6504 36.7676 16.6504ZM43.1152-2.39258Q41.0645-2.39258 39.7217-3.66211Q38.3789-4.93164 38.3789-7.03125L36.9141-53.6133Q36.8652-55.7617 38.1104-57.0557Q39.3555-58.3496 41.5039-58.3496Q43.7012-58.3496 45.0439-57.0557Q46.3867-55.7617 46.4355-53.6621L47.8516-7.17773Q47.9004-5.0293 46.6309-3.71094Q45.3613-2.39258 43.1152-2.39258ZM59.5703-2.39258Q57.4219-2.39258 56.1279-3.6377Q54.834-4.88281 54.834-6.98242L54.834-53.7109Q54.834-55.8105 56.1279-57.0801Q57.4219-58.3496 59.5703-58.3496Q61.6699-58.3496 62.9639-57.0801Q64.2578-55.8105 64.2578-53.7109L64.2578-6.98242Q64.2578-4.88281 62.9639-3.6377Q61.6699-2.39258 59.5703-2.39258ZM75.9766-2.39258Q73.7793-2.39258 72.4854-3.71094Q71.1914-5.0293 71.2402-7.17773L72.6562-53.6621Q72.7051-55.7617 74.0479-57.0557Q75.3906-58.3496 77.5879-58.3496Q79.7363-58.3496 80.9814-57.0557Q82.2266-55.7617 82.1777-53.6133L80.7617-7.03125Q80.7129-4.93164 79.3701-3.66211Q78.0273-2.39258 75.9766-2.39258ZM33.4961-75.6348L49.1211-75.6348L49.1211-84.5215Q49.1211-85.3516 49.6826-85.791Q50.2441-86.2305 51.3672-86.2305L67.7246-86.2305Q68.8477-86.2305 69.4092-85.791Q69.9707-85.3516 69.9707-84.5215L69.9707-75.6348L85.5957-75.6348L85.5957-84.8145Q85.5957-91.9434 81.3232-95.6543Q77.0508-99.3652 68.8477-99.3652L50.2441-99.3652Q42.041-99.3652 37.7686-95.6543Q33.4961-91.9434 33.4961-84.8145Z"/>
  </g>
  <g id="Heavy-M" transform="matrix(1 0 0 1 2578.27 1126)">
   <path d="M35.5469 15.8203L81.2988 15.8203Q87.6953 15.8203 91.0889 12.6953Q94.4824 9.57031 94.7754 3.36914L97.8027-64.9414L102.881-64.9414Q105.664-64.9414 107.52-66.6748Q109.375-68.4082 109.375-71.1914Q109.375-73.9746 107.52-75.6836Q105.664-77.3926 102.881-77.3926L13.916-77.3926Q11.1816-77.3926 9.32617-75.6592Q7.4707-73.9258 7.4707-71.1914Q7.4707-68.4082 9.32617-66.6748Q11.1816-64.9414 13.916-64.9414L19.043-64.9414L22.0703 3.36914Q22.3633 9.57031 25.7568 12.6953Q29.1504 15.8203 35.5469 15.8203ZM42.2363-2.05078Q40.332-2.05078 39.1113-3.19824Q37.8906-4.3457 37.8906-6.25L36.4258-54.3945Q36.377-56.3477 37.5244-57.5195Q38.6719-58.6914 40.625-58.6914Q42.627-58.6914 43.8477-57.5195Q45.0684-56.3477 45.1172-54.4434L46.5332-6.39648Q46.582-4.44336 45.4346-3.24707Q44.2871-2.05078 42.2363-2.05078ZM58.4473-2.05078Q56.4453-2.05078 55.249-3.19824Q54.0527-4.3457 54.0527-6.25L54.0527-54.4922Q54.0527-56.3965 55.249-57.5439Q56.4453-58.6914 58.4473-58.6914Q60.3516-58.6914 61.5479-57.5439Q62.7441-56.3965 62.7441-54.4922L62.7441-6.25Q62.7441-4.3457 61.5479-3.19824Q60.3516-2.05078 58.4473-2.05078ZM74.6094-2.05078Q72.6074-2.05078 71.4111-3.24707Q70.2148-4.44336 70.2637-6.39648L71.7285-54.4434Q71.7773-56.3477 72.998-57.5195Q74.2188-58.6914 76.1719-58.6914Q78.1738-58.6914 79.3213-57.5195Q80.4688-56.3477 80.4199-54.3945L79.0039-6.25Q78.9551-4.3457 77.7344-3.19824Q76.5137-2.05078 74.6094-2.05078ZM33.3496-75.1465L47.3633-75.1465L47.3633-83.9355Q47.3633-85.0098 48.0713-85.6201Q48.7793-86.2305 50.0977-86.2305L66.6992-86.2305Q68.0664-86.2305 68.7744-85.6201Q69.4824-85.0098 69.4824-83.9355L69.4824-75.1465L83.4961-75.1465L83.4961-84.2773Q83.4961-91.0156 79.4189-94.6045Q75.3418-98.1934 67.6758-98.1934L49.1211-98.1934Q41.4551-98.1934 37.4023-94.6045Q33.3496-91.0156 33.3496-84.2773Z"/>
  </g>
  <g id="Bold-M" transform="matrix(1 0 0 1 2282.82 1126)">
   <path d="M34.1797 14.8438L80.1758 14.8438Q85.9375 14.8438 89.0381 11.9629Q92.1387 9.08203 92.4316 3.4668L95.459-65.918L101.367-65.918Q103.711-65.918 105.273-67.4316Q106.836-68.9453 106.836-71.2891Q106.836-73.6328 105.273-75.1221Q103.711-76.6113 101.367-76.6113L12.9883-76.6113Q10.6445-76.6113 9.05762-75.0977Q7.4707-73.584 7.4707-71.2891Q7.4707-68.9453 9.05762-67.4316Q10.6445-65.918 12.9883-65.918L18.8965-65.918L21.9238 3.4668Q22.168 9.08203 25.293 11.9629Q28.418 14.8438 34.1797 14.8438ZM41.2109-1.66016Q39.5508-1.66016 38.4521-2.68555Q37.3535-3.71094 37.3535-5.41992L35.8398-55.3223Q35.8398-57.0312 36.8652-58.0811Q37.8906-59.1309 39.6973-59.1309Q41.4062-59.1309 42.5049-58.0811Q43.6035-57.0312 43.6523-55.3711L45.1172-5.51758Q45.166-3.80859 44.1162-2.73438Q43.0664-1.66016 41.2109-1.66016ZM57.1777-1.66016Q55.4199-1.66016 54.3213-2.68555Q53.2227-3.71094 53.2227-5.41992L53.2227-55.3711Q53.2227-57.0312 54.3213-58.0811Q55.4199-59.1309 57.1777-59.1309Q58.9355-59.1309 60.0098-58.0811Q61.084-57.0312 61.084-55.3711L61.084-5.41992Q61.084-3.71094 60.0098-2.68555Q58.9355-1.66016 57.1777-1.66016ZM73.0957-1.66016Q71.2891-1.66016 70.2393-2.73438Q69.1895-3.80859 69.2383-5.51758L70.6543-55.3223Q70.7031-57.0312 71.8018-58.0811Q72.9004-59.1309 74.6582-59.1309Q76.416-59.1309 77.4658-58.0811Q78.5156-57.0312 78.4668-55.3223L77.002-5.41992Q77.002-3.71094 75.9033-2.68555Q74.8047-1.66016 73.0957-1.66016ZM33.1543-74.6094L45.4102-74.6094L45.4102-83.3008Q45.4102-84.668 46.2646-85.4492Q47.1191-86.2305 48.6816-86.2305L65.625-86.2305Q67.1875-86.2305 68.042-85.4492Q68.8965-84.668 68.8965-83.3008L68.8965-74.6094L81.1035-74.6094L81.1035-83.6914Q81.1035-90.0391 77.2705-93.4814Q73.4375-96.9238 66.4062-96.9238L47.8516-96.9238Q40.8203-96.9238 36.9873-93.4814Q33.1543-90.0391 33.1543-83.6914Z"/>
  </g>
  <g id="Semibold-M" transform="matrix(1 0 0 1 1986.99 1126)">
   <path d="M33.2031 14.209L79.3457 14.209Q84.668 14.209 87.5977 11.4746Q90.5273 8.74023 90.7715 3.51562L93.8477-66.5527L100.244-66.5527Q102.295-66.5527 103.687-67.9199Q105.078-69.2871 105.078-71.3379Q105.078-73.3887 103.687-74.7314Q102.295-76.0742 100.244-76.0742L12.3047-76.0742Q10.3027-76.0742 8.88672-74.707Q7.4707-73.3398 7.4707-71.3379Q7.4707-69.2871 8.88672-67.9199Q10.3027-66.5527 12.3047-66.5527L18.75-66.5527L21.8262 3.51562Q22.0215 8.74023 24.9756 11.4746Q27.9297 14.209 33.2031 14.209ZM40.5273-1.41602Q38.9648-1.41602 37.9639-2.34375Q36.9629-3.27148 36.9629-4.83398L35.4492-55.9082Q35.4492-57.4707 36.4014-58.4229Q37.3535-59.375 39.0137-59.375Q40.5762-59.375 41.5771-58.4229Q42.5781-57.4707 42.627-55.957L44.0918-4.88281Q44.1406-3.32031 43.1641-2.36816Q42.1875-1.41602 40.5273-1.41602ZM56.2988-1.41602Q54.6387-1.41602 53.6377-2.34375Q52.6367-3.27148 52.6367-4.83398L52.6367-55.957Q52.6367-57.4707 53.6377-58.4229Q54.6387-59.375 56.2988-59.375Q57.9102-59.375 58.9111-58.4229Q59.9121-57.4707 59.9121-55.957L59.9121-4.83398Q59.9121-3.27148 58.9111-2.34375Q57.9102-1.41602 56.2988-1.41602ZM72.0703-1.41602Q70.3613-1.41602 69.3848-2.36816Q68.4082-3.32031 68.457-4.88281L69.9219-55.9082Q69.9707-57.4707 70.9717-58.4229Q71.9727-59.375 73.5352-59.375Q75.1953-59.375 76.1719-58.4229Q77.1484-57.4707 77.0996-55.9082L75.6348-4.83398Q75.6348-3.27148 74.6094-2.34375Q73.584-1.41602 72.0703-1.41602ZM33.0078-74.2188L44.043-74.2188L44.043-82.8613Q44.043-84.375 45.0195-85.2783Q45.9961-86.1816 47.7051-86.1816L64.8438-86.1816Q66.5527-86.1816 67.5293-85.2783Q68.5059-84.375 68.5059-82.8613L68.5059-74.2188L79.4922-74.2188L79.4922-83.3008Q79.4922-89.3066 75.8057-92.6758Q72.1191-96.0449 65.5273-96.0449L46.9727-96.0449Q40.3809-96.0449 36.6943-92.6758Q33.0078-89.3066 33.0078-83.3008Z"/>
  </g>
  <g id="Medium-M" transform="matrix(1 0 0 1 1690.94 1126)">
   <path d="M32.4707 13.6719L78.7598 13.6719Q83.7402 13.6719 86.5234 11.084Q89.3066 8.49609 89.5508 3.56445L92.627-67.0898L99.4629-67.0898Q101.27-67.0898 102.515-68.335Q103.76-69.5801 103.76-71.3867Q103.76-73.1934 102.515-74.4141Q101.27-75.6348 99.4629-75.6348L11.7676-75.6348Q10.0098-75.6348 8.74023-74.3896Q7.4707-73.1445 7.4707-71.3867Q7.4707-69.5801 8.74023-68.335Q10.0098-67.0898 11.7676-67.0898L18.6523-67.0898L21.7285 3.56445Q21.9727 8.49609 24.7559 11.084Q27.5391 13.6719 32.4707 13.6719ZM39.9902-1.17188Q38.5254-1.17188 37.5977-2.05078Q36.6699-2.92969 36.6699-4.39453L35.1562-56.3965Q35.1562-57.8125 36.0596-58.6914Q36.9629-59.5703 38.4766-59.5703Q39.9414-59.5703 40.8936-58.7158Q41.8457-57.8613 41.8945-56.4453L43.3105-4.39453Q43.3594-2.97852 42.4561-2.0752Q41.5527-1.17188 39.9902-1.17188ZM55.6641-1.17188Q54.1016-1.17188 53.1494-2.0752Q52.1973-2.97852 52.1973-4.39453L52.1973-56.3965Q52.1973-57.8125 53.1494-58.6914Q54.1016-59.5703 55.6641-59.5703Q57.1289-59.5703 58.0811-58.6914Q59.0332-57.8125 59.0332-56.3965L59.0332-4.39453Q59.0332-2.97852 58.0811-2.0752Q57.1289-1.17188 55.6641-1.17188ZM71.2402-1.17188Q69.6777-1.17188 68.7744-2.0752Q67.8711-2.97852 67.9199-4.39453L69.3848-56.3965Q69.4336-57.8613 70.3613-58.7158Q71.2891-59.5703 72.7539-59.5703Q74.2676-59.5703 75.1953-58.6914Q76.123-57.8125 76.0742-56.3965L74.6094-4.39453Q74.6094-2.92969 73.6572-2.05078Q72.7051-1.17188 71.2402-1.17188ZM32.959-73.9258L43.0176-73.9258L43.0176-82.5195Q43.0176-84.1797 44.0674-85.1807Q45.1172-86.1816 46.9727-86.1816L64.2578-86.1816Q66.0645-86.1816 67.1387-85.1807Q68.2129-84.1797 68.2129-82.5195L68.2129-73.9258L78.2227-73.9258L78.2227-82.959Q78.2227-88.7695 74.6826-92.0654Q71.1426-95.3613 64.8438-95.3613L46.3379-95.3613Q40.0391-95.3613 36.499-92.0654Q32.959-88.7695 32.959-82.959Z"/>
  </g>
  <g id="Regular-M" transform="matrix(1 0 0 1 1395.08 1126)">
   <path d="M31.543 13.0371L77.9785 13.0371Q82.5195 13.0371 85.1318 10.5957Q87.7441 8.1543 87.9395 3.61328L91.0645-67.7246L98.3887-67.7246Q99.9023-67.7246 100.977-68.8232Q102.051-69.9219 102.051-71.4355Q102.051-72.9492 100.977-74.0234Q99.9023-75.0977 98.3887-75.0977L11.1328-75.0977Q9.66797-75.0977 8.56934-73.999Q7.4707-72.9004 7.4707-71.4355Q7.4707-69.9219 8.56934-68.8232Q9.66797-67.7246 11.1328-67.7246L18.5059-67.7246L21.6309 3.61328Q21.8262 8.1543 24.4385 10.5957Q27.0508 13.0371 31.543 13.0371ZM39.3066-0.927734Q37.9883-0.927734 37.1338-1.70898Q36.2793-2.49023 36.2793-3.80859L34.7656-56.9824Q34.7656-58.252 35.5957-59.0576Q36.4258-59.8633 37.8418-59.8633Q39.1113-59.8633 39.9658-59.082Q40.8203-58.3008 40.8691-57.0312L42.334-3.80859Q42.3828-2.53906 41.5527-1.7334Q40.7227-0.927734 39.3066-0.927734ZM54.7852-0.927734Q53.3691-0.927734 52.4902-1.7334Q51.6113-2.53906 51.6113-3.80859L51.6113-56.9824Q51.6113-58.252 52.4902-59.0576Q53.3691-59.8633 54.7852-59.8633Q56.1523-59.8633 57.0312-59.0576Q57.9102-58.252 57.9102-56.9824L57.9102-3.80859Q57.9102-2.53906 57.0312-1.7334Q56.1523-0.927734 54.7852-0.927734ZM70.2148-0.927734Q68.7988-0.927734 67.9688-1.7334Q67.1387-2.53906 67.1875-3.80859L68.6523-56.9824Q68.7012-58.3008 69.5557-59.082Q70.4102-59.8633 71.6797-59.8633Q73.0957-59.8633 73.9258-59.0576Q74.7559-58.252 74.7559-56.9824L73.2422-3.80859Q73.2422-2.49023 72.3877-1.70898Q71.5332-0.927734 70.2148-0.927734ZM32.8125-73.5352L41.6504-73.5352L41.6504-82.0801Q41.6504-83.9355 42.8223-85.0586Q43.9941-86.1816 45.9961-86.1816L63.4766-86.1816Q65.4785-86.1816 66.6504-85.0586Q67.8223-83.9355 67.8223-82.0801L67.8223-73.5352L76.6113-73.5352L76.6113-82.5684Q76.6113-88.0859 73.2178-91.2842Q69.8242-94.4824 63.9648-94.4824L45.459-94.4824Q39.5996-94.4824 36.2061-91.2842Q32.8125-88.0859 32.8125-82.5684Z"/>
  </g>
  <g id="Light-M" transform="matrix(1 0 0 1 1098.96 1126)">
   <path d="M31.4941 13.4277L76.8555 13.4277Q81.1035 13.4277 83.7891 10.9375Q86.4746 8.44727 86.6699 4.19922L90.0879-68.8965L98.0469-68.8965Q99.2676-68.8965 100.073-69.7266Q100.879-70.5566 100.879-71.7285Q100.879-72.9492 100.049-73.7549Q99.2188-74.5605 98.0469-74.5605L10.3027-74.5605Q9.17969-74.5605 8.3252-73.7305Q7.4707-72.9004 7.4707-71.7285Q7.4707-70.5566 8.3252-69.7266Q9.17969-68.8965 10.3027-68.8965L18.3594-68.8965L21.7773 4.19922Q21.9727 8.44727 24.6338 10.9375Q27.2949 13.4277 31.4941 13.4277ZM38.9648-0.537109Q37.8906-0.537109 37.2314-1.17188Q36.5723-1.80664 36.5723-2.83203L34.9121-57.4707Q34.9121-58.4961 35.5713-59.1309Q36.2305-59.7656 37.3535-59.7656Q38.3789-59.7656 39.0625-59.1553Q39.7461-58.5449 39.7461-57.5684L41.3574-2.83203Q41.4062-1.85547 40.7471-1.19629Q40.0879-0.537109 38.9648-0.537109ZM54.1992-0.537109Q53.125-0.537109 52.417-1.19629Q51.709-1.85547 51.709-2.83203L51.709-57.4707Q51.709-58.4961 52.417-59.1309Q53.125-59.7656 54.1992-59.7656Q55.2734-59.7656 55.9814-59.1309Q56.6895-58.4961 56.6895-57.4707L56.6895-2.83203Q56.6895-1.85547 55.9814-1.19629Q55.2734-0.537109 54.1992-0.537109ZM69.4336-0.537109Q68.3105-0.537109 67.6514-1.17188Q66.9922-1.80664 67.041-2.83203L68.6035-57.5195Q68.6523-58.5449 69.3359-59.1553Q70.0195-59.7656 71.0449-59.7656Q72.1191-59.7656 72.7783-59.1309Q73.4375-58.4961 73.4375-57.4707L71.8262-2.83203Q71.8262-1.75781 71.167-1.14746Q70.5078-0.537109 69.4336-0.537109ZM32.9102-73.0957L39.6973-73.0957L39.6973-82.2266Q39.6973-84.4727 41.0889-85.7666Q42.4805-87.0605 44.9219-87.0605L63.3789-87.0605Q65.8691-87.0605 67.2607-85.7666Q68.6523-84.4727 68.6523-82.2266L68.6523-73.0957L75.3906-73.0957L75.3906-82.5684Q75.3906-87.6465 72.2656-90.5762Q69.1406-93.5059 63.6719-93.5059L44.6289-93.5059Q39.1602-93.5059 36.0352-90.5762Q32.9102-87.6465 32.9102-82.5684Z"/>
  </g>
  <g id="Thin-M" transform="matrix(1 0 0 1 803.004 1126)">
   <path d="M31.4453 13.916L75.3906 13.916Q79.2969 13.916 82.0312 11.3525Q84.7656 8.78906 84.9609 5.0293L88.8184-70.4102L97.6074-70.4102Q98.3887-70.4102 98.877-70.9229Q99.3652-71.4355 99.3652-72.1191Q99.3652-72.9004 98.8525-73.4131Q98.3398-73.9258 97.6074-73.9258L9.22852-73.9258Q8.54492-73.9258 7.9834-73.3887Q7.42188-72.8516 7.42188-72.1191Q7.42188-71.3867 7.9834-70.8984Q8.54492-70.4102 9.22852-70.4102L18.1152-70.4102L21.9727 5.0293Q22.168 8.78906 24.8779 11.3525Q27.5879 13.916 31.4453 13.916ZM38.4766-0.0488281Q37.793-0.0488281 37.3535-0.463867Q36.9141-0.878906 36.9141-1.51367L35.1074-58.1543Q35.1074-58.8379 35.5469-59.2529Q35.9863-59.668 36.7188-59.668Q37.3535-59.668 37.8174-59.2773Q38.2812-58.8867 38.2812-58.252L40.0879-1.61133Q40.0391-0.976562 39.6484-0.512695Q39.2578-0.0488281 38.4766-0.0488281ZM53.4668-0.0488281Q52.7832-0.0488281 52.3193-0.488281Q51.8555-0.927734 51.8555-1.61133L51.8555-58.1543Q51.8555-58.8379 52.3193-59.2529Q52.7832-59.668 53.4668-59.668Q54.1504-59.668 54.6143-59.2529Q55.0781-58.8379 55.0781-58.1543L55.0781-1.61133Q55.0781-0.927734 54.6143-0.488281Q54.1504-0.0488281 53.4668-0.0488281ZM68.4082 0Q67.627 0 67.2119-0.439453Q66.7969-0.878906 66.7969-1.51367L68.6035-58.1543Q68.6035-58.8379 69.0674-59.2285Q69.5312-59.6191 70.166-59.6191Q70.8496-59.6191 71.2891-59.2285Q71.7285-58.8379 71.7285-58.0566L69.9219-1.46484Q69.9219-0.830078 69.5068-0.415039Q69.0918 0 68.4082 0ZM33.1055-72.4609L37.1094-72.4609L37.1094-82.4219Q37.1094-85.1562 38.7939-86.6943Q40.4785-88.2324 43.5059-88.2324L63.2812-88.2324Q66.3574-88.2324 68.042-86.6943Q69.7266-85.1562 69.7266-82.4219L69.7266-72.4609L73.7793-72.4609L73.7793-82.5195Q73.7793-87.0117 71.0205-89.5752Q68.2617-92.1387 63.3301-92.1387L43.5059-92.1387Q38.5742-92.1387 35.8398-89.5752Q33.1055-87.0117 33.1055-82.5195Z"/>
  </g>
  <g id="Ultralight-M" transform="matrix(1 0 0 1 506.708 1126)">
   <path d="M31.3965 14.1602L74.6582 14.1602Q78.3203 14.1602 81.1035 11.5723Q83.8867 8.98438 84.082 5.41992L88.1348-71.1914L97.4121-71.1914Q97.9492-71.1914 98.2666-71.5332Q98.584-71.875 98.584-72.3633Q98.584-72.9004 98.2422-73.2178Q97.9004-73.5352 97.4121-73.5352L8.69141-73.5352Q8.20312-73.5352 7.8125-73.1934Q7.42188-72.8516 7.42188-72.3633Q7.42188-71.8262 7.8125-71.5088Q8.20312-71.1914 8.69141-71.1914L18.0176-71.1914L22.0703 5.41992Q22.2656 8.98438 25 11.5723Q27.7344 14.1602 31.3965 14.1602ZM38.2812 0.195312Q37.6953 0.195312 37.4023-0.0976562Q37.1094-0.390625 37.1094-0.878906L35.2051-58.4961Q35.2051-59.0332 35.5469-59.3262Q35.8887-59.6191 36.377-59.6191Q36.8652-59.6191 37.207-59.3262Q37.5488-59.0332 37.5-58.6426L39.4043-0.927734Q39.4043-0.488281 39.1113-0.146484Q38.8184 0.195312 38.2812 0.195312ZM53.0762 0.195312Q52.5879 0.195312 52.2705-0.12207Q51.9531-0.439453 51.9531-0.927734L51.9531-58.4961Q51.9531-58.9844 52.2705-59.3018Q52.5879-59.6191 53.0762-59.6191Q53.5645-59.6191 53.9062-59.3018Q54.248-58.9844 54.248-58.4961L54.248-0.927734Q54.248-0.439453 53.9062-0.12207Q53.5645 0.195312 53.0762 0.195312ZM67.8711 0.292969Q67.2852 0.292969 66.9922-0.0488281Q66.6992-0.390625 66.6992-0.878906L68.5547-58.5449Q68.5547-58.9844 68.9209-59.2529Q69.2871-59.5215 69.7266-59.5215Q70.166-59.5215 70.5078-59.2529Q70.8496-58.9844 70.8496-58.3984L68.9941-0.830078Q68.9941-0.341797 68.7012-0.0244141Q68.4082 0.292969 67.8711 0.292969ZM33.1543-72.168L35.791-72.168L35.791-82.5195Q35.791-85.5469 37.6221-87.207Q39.4531-88.8672 42.7734-88.8672L63.2324-88.8672Q66.6016-88.8672 68.4326-87.207Q70.2637-85.5469 70.2637-82.5195L70.2637-72.168L72.9492-72.168L72.9492-82.5195Q72.9492-86.7188 70.3613-89.1113Q67.7734-91.5039 63.1348-91.5039L42.9199-91.5039Q38.2812-91.5039 35.7178-89.1113Q33.1543-86.7188 33.1543-82.5195Z"/>
  </g>
  <g id="Black-S" transform="matrix(1 0 0 1 2886.43 696)">
   <path d="M29.1992 5.71289L64.7461 5.71289Q70.4102 5.71289 73.3154 3.02734Q76.2207 0.341797 76.4648-5.0293L78.8086-57.6172L82.1289-57.6172Q84.7168-57.6172 86.4014-59.2041Q88.0859-60.791 88.0859-63.3789Q88.0859-65.918 86.4014-67.4805Q84.7168-69.043 82.1289-69.043L11.8164-69.043Q9.22852-69.043 7.54395-67.4805Q5.85938-65.918 5.85938-63.3789Q5.85938-60.791 7.54395-59.2041Q9.22852-57.6172 11.8164-57.6172L15.1367-57.6172L17.4805-5.0293Q17.7246 0.341797 20.6543 3.02734Q23.584 5.71289 29.1992 5.71289ZM34.0332-9.57031Q32.373-9.57031 31.3232-10.6201Q30.2734-11.6699 30.2246-13.3301L29.1016-49.4141Q29.0527-51.123 30.0537-52.1729Q31.0547-53.2227 32.7637-53.2227Q34.5215-53.2227 35.5957-52.1973Q36.6699-51.1719 36.7188-49.4629L37.8418-13.4277Q37.8906-11.7188 36.8652-10.6445Q35.8398-9.57031 34.0332-9.57031ZM46.9727-9.57031Q45.3125-9.57031 44.2627-10.5957Q43.2129-11.6211 43.2129-13.2812L43.2129-49.5117Q43.2129-51.2207 44.2627-52.2217Q45.3125-53.2227 46.9727-53.2227Q48.6816-53.2227 49.707-52.2217Q50.7324-51.2207 50.7324-49.5117L50.7324-13.2812Q50.7324-11.6211 49.707-10.5957Q48.6816-9.57031 46.9727-9.57031ZM59.9121-9.57031Q58.1055-9.57031 57.0801-10.6445Q56.0547-11.7188 56.1035-13.4277L57.2266-49.4629Q57.2754-51.1719 58.3496-52.1973Q59.4238-53.2227 61.1816-53.2227Q62.8906-53.2227 63.8916-52.1729Q64.8926-51.123 64.8438-49.4141L63.7207-13.3301Q63.6719-11.6699 62.6221-10.6201Q61.5723-9.57031 59.9121-9.57031ZM26.3184-66.9922L38.916-66.9922L38.916-74.0234Q38.916-74.6582 39.3311-74.9512Q39.7461-75.2441 40.5762-75.2441L53.3691-75.2441Q54.1992-75.2441 54.6143-74.9512Q55.0293-74.6582 55.0293-74.0234L55.0293-66.9922L67.627-66.9922L67.627-74.2188Q67.627-79.8828 64.2334-82.8369Q60.8398-85.791 54.2969-85.791L39.6484-85.791Q33.1055-85.791 29.7119-82.8369Q26.3184-79.8828 26.3184-74.2188Z"/>
  </g>
  <g id="Heavy-S" transform="matrix(1 0 0 1 2590.62 696)">
   <path d="M28.1738 4.93164L64.0137 4.93164Q69.1895 4.93164 71.8994 2.44141Q74.6094-0.0488281 74.8047-5.0293L77.1484-58.2031L80.957-58.2031Q83.252-58.2031 84.7656-59.6436Q86.2793-61.084 86.2793-63.3789Q86.2793-65.625 84.7656-67.0654Q83.252-68.5059 80.957-68.5059L11.1816-68.5059Q8.88672-68.5059 7.37305-67.0654Q5.85938-65.625 5.85938-63.3789Q5.85938-61.084 7.37305-59.6436Q8.88672-58.2031 11.1816-58.2031L14.9902-58.2031L17.334-5.0293Q17.5781-0.0488281 20.2881 2.44141Q22.998 4.93164 28.1738 4.93164ZM33.3008-9.32617Q31.7383-9.32617 30.7861-10.3027Q29.834-11.2793 29.7852-12.793L28.6621-50.0488Q28.6133-51.6113 29.541-52.5879Q30.4688-53.5645 32.0801-53.5645Q33.6914-53.5645 34.6924-52.6123Q35.6934-51.6602 35.7422-50.0977L36.8652-12.8906Q36.9141-11.3281 35.9375-10.3271Q34.9609-9.32617 33.3008-9.32617ZM46.0938-9.32617Q44.5312-9.32617 43.5303-10.2783Q42.5293-11.2305 42.5293-12.7441L42.5293-50.0977Q42.5293-51.6602 43.5303-52.6123Q44.5312-53.5645 46.0938-53.5645Q47.6562-53.5645 48.6328-52.6123Q49.6094-51.6602 49.6094-50.0977L49.6094-12.7441Q49.6094-11.2305 48.6328-10.2783Q47.6562-9.32617 46.0938-9.32617ZM58.8379-9.32617Q57.1777-9.32617 56.2256-10.3271Q55.2734-11.3281 55.3223-12.8906L56.3965-50.0977Q56.4453-51.6602 57.4463-52.6123Q58.4473-53.5645 60.0586-53.5645Q61.6699-53.5645 62.6221-52.5879Q63.5742-51.6113 63.5254-50.0488L62.4023-12.793Q62.3535-11.2793 61.377-10.3027Q60.4004-9.32617 58.8379-9.32617ZM26.1719-66.6504L37.6465-66.6504L37.6465-73.4863Q37.6465-74.2676 38.1592-74.6826Q38.6719-75.0977 39.6484-75.0977L52.5391-75.0977Q53.4668-75.0977 53.9795-74.6826Q54.4922-74.2676 54.4922-73.4863L54.4922-66.6504L65.9668-66.6504L65.9668-73.7793Q65.9668-79.1504 62.7197-82.0312Q59.4727-84.9121 53.3203-84.9121L38.7695-84.9121Q32.666-84.9121 29.4189-82.0312Q26.1719-79.1504 26.1719-73.7793Z"/>
  </g>
  <g id="Bold-S" transform="matrix(1 0 0 1 2294.91 696)">
   <path d="M27.002 4.05273L63.2324 4.05273Q67.8711 4.05273 70.3369 1.75781Q72.8027-0.537109 72.998-5.07812L75.3418-58.8867L79.6875-58.8867Q81.6406-58.8867 82.959-60.1807Q84.2773-61.4746 84.2773-63.4277Q84.2773-65.332 82.959-66.6016Q81.6406-67.8711 79.6875-67.8711L10.4492-67.8711Q8.54492-67.8711 7.20215-66.6016Q5.85938-65.332 5.85938-63.4277Q5.85938-61.4746 7.20215-60.1807Q8.54492-58.8867 10.4492-58.8867L14.8926-58.8867L17.1875-5.07812Q17.3828-0.537109 19.8486 1.75781Q22.3145 4.05273 27.002 4.05273ZM32.5195-9.08203Q31.1035-9.08203 30.2002-9.93652Q29.2969-10.791 29.248-12.207L28.1738-50.7324Q28.125-52.1484 28.9795-53.0273Q29.834-53.9062 31.3477-53.9062Q32.7637-53.9062 33.6914-53.0518Q34.6191-52.1973 34.668-50.7812L35.7422-12.2559Q35.791-10.8398 34.9121-9.96094Q34.0332-9.08203 32.5195-9.08203ZM45.0684-9.08203Q43.6523-9.08203 42.7246-9.93652Q41.7969-10.791 41.7969-12.207L41.7969-50.7812Q41.7969-52.1973 42.7246-53.0518Q43.6523-53.9062 45.0684-53.9062Q46.582-53.9062 47.4609-53.0518Q48.3398-52.1973 48.3398-50.7812L48.3398-12.207Q48.3398-10.791 47.4609-9.93652Q46.582-9.08203 45.0684-9.08203ZM57.666-9.08203Q56.1523-9.08203 55.2734-9.96094Q54.3945-10.8398 54.4434-12.2559L55.5176-50.7812Q55.5664-52.1973 56.4697-53.0518Q57.373-53.9062 58.8379-53.9062Q60.3027-53.9062 61.1816-53.0273Q62.0605-52.1484 62.0117-50.7324L60.9375-12.207Q60.8887-10.791 59.9854-9.93652Q59.082-9.08203 57.666-9.08203ZM25.9766-66.2598L36.2793-66.2598L36.2793-72.9492Q36.2793-73.877 36.8896-74.4385Q37.5-75 38.5742-75L51.5625-75Q52.6855-75 53.2959-74.4385Q53.9062-73.877 53.9062-72.9492L53.9062-66.2598L64.1113-66.2598L64.1113-73.291Q64.1113-78.3691 61.0352-81.1768Q57.959-83.9844 52.2949-83.9844L37.8418-83.9844Q32.1777-83.9844 29.0771-81.1768Q25.9766-78.3691 25.9766-73.291Z"/>
  </g>
  <g id="Semibold-S" transform="matrix(1 0 0 1 1998.88 696)">
   <path d="M26.1719 3.4668L62.6465 3.4668Q66.9434 3.4668 69.2627 1.31836Q71.582-0.830078 71.7285-5.07812L74.0234-59.3262L78.8086-59.3262Q80.5176-59.3262 81.7139-60.498Q82.9102-61.6699 82.9102-63.4277Q82.9102-65.1367 81.7139-66.2842Q80.5176-67.4316 78.8086-67.4316L9.96094-67.4316Q8.25195-67.4316 7.05566-66.2842Q5.85938-65.1367 5.85938-63.4277Q5.85938-61.6699 7.05566-60.498Q8.25195-59.3262 9.96094-59.3262L14.7461-59.3262L17.0898-5.07812Q17.2363-0.830078 19.5557 1.31836Q21.875 3.4668 26.1719 3.4668ZM31.9336-8.88672Q30.6152-8.88672 29.7852-9.66797Q28.9551-10.4492 28.9062-11.8164L27.7832-51.2207Q27.7344-52.5391 28.5645-53.3447Q29.3945-54.1504 30.8105-54.1504Q32.1289-54.1504 32.9834-53.3691Q33.8379-52.5879 33.8867-51.2207L34.9609-11.8164Q35.0098-10.498 34.1797-9.69238Q33.3496-8.88672 31.9336-8.88672ZM44.3848-8.88672Q43.0176-8.88672 42.1387-9.69238Q41.2598-10.498 41.2598-11.7676L41.2598-51.2207Q41.2598-52.5391 42.1387-53.3447Q43.0176-54.1504 44.3848-54.1504Q45.8008-54.1504 46.6309-53.3447Q47.4609-52.5391 47.4609-51.2207L47.4609-11.7676Q47.4609-10.498 46.6309-9.69238Q45.8008-8.88672 44.3848-8.88672ZM56.8359-8.88672Q55.4199-8.88672 54.5898-9.69238Q53.7598-10.498 53.8086-11.8164L54.8828-51.2207Q54.9316-52.5391 55.7861-53.3447Q56.6406-54.1504 58.0078-54.1504Q59.375-54.1504 60.2051-53.3447Q61.0352-52.5391 60.9863-51.2207L59.9121-11.8164Q59.8633-10.4492 59.0088-9.66797Q58.1543-8.88672 56.8359-8.88672ZM25.8301-65.9668L35.3027-65.9668L35.3027-72.5098Q35.3027-73.584 35.9863-74.2188Q36.6699-74.8535 37.8418-74.8535L50.9277-74.8535Q52.0996-74.8535 52.7832-74.2188Q53.4668-73.584 53.4668-72.5098L53.4668-65.9668L62.8418-65.9668L62.8418-72.9004Q62.8418-77.832 59.8633-80.5664Q56.8848-83.3008 51.5137-83.3008L37.1582-83.3008Q31.8359-83.3008 28.833-80.5664Q25.8301-77.832 25.8301-72.9004Z"/>
  </g>
  <g id="Medium-S" transform="matrix(1 0 0 1 1702.71 696)">
   <path d="M25.5371 2.97852L62.207 2.97852Q66.2598 2.97852 68.4326 0.952148Q70.6055-1.07422 70.8008-5.07812L73.0957-59.7168L78.125-59.7168Q79.6875-59.7168 80.7617-60.791Q81.8359-61.8652 81.8359-63.4277Q81.8359-64.9414 80.7617-66.04Q79.6875-67.1387 78.125-67.1387L9.57031-67.1387Q8.05664-67.1387 6.95801-66.04Q5.85938-64.9414 5.85938-63.4277Q5.85938-61.8652 6.95801-60.791Q8.05664-59.7168 9.57031-59.7168L14.6973-59.7168L16.9922-5.07812Q17.1875-1.07422 19.3359 0.952148Q21.4844 2.97852 25.5371 2.97852ZM31.4941-8.74023Q30.2734-8.74023 29.4678-9.47266Q28.6621-10.2051 28.6133-11.4746L27.5391-51.5625Q27.4902-52.7832 28.2715-53.5645Q29.0527-54.3457 30.4199-54.3457Q31.6406-54.3457 32.4463-53.5889Q33.252-52.832 33.3008-51.5625L34.375-11.5234Q34.4238-10.2539 33.6182-9.49707Q32.8125-8.74023 31.4941-8.74023ZM43.8477-8.74023Q42.5293-8.74023 41.6992-9.49707Q40.8691-10.2539 40.8691-11.4746L40.8691-51.6113Q40.8691-52.832 41.6992-53.5889Q42.5293-54.3457 43.8477-54.3457Q45.2148-54.3457 46.0205-53.5889Q46.8262-52.832 46.8262-51.6113L46.8262-11.4746Q46.8262-10.2539 46.0205-9.49707Q45.2148-8.74023 43.8477-8.74023ZM56.25-8.74023Q54.8828-8.74023 54.0771-9.49707Q53.2715-10.2539 53.3203-11.5234L54.4434-51.5625Q54.4922-52.832 55.2734-53.5889Q56.0547-54.3457 57.3242-54.3457Q58.6426-54.3457 59.4482-53.5645Q60.2539-52.7832 60.2051-51.5625L59.1309-11.4746Q59.082-10.2051 58.2764-9.47266Q57.4707-8.74023 56.25-8.74023ZM25.7812-65.7715L34.5703-65.7715L34.5703-72.2168Q34.5703-73.3887 35.3027-74.0967Q36.0352-74.8047 37.3047-74.8047L50.3906-74.8047Q51.6602-74.8047 52.3926-74.0967Q53.125-73.3887 53.125-72.2168L53.125-65.7715L61.8652-65.7715L61.8652-72.6562Q61.8652-77.3926 58.96-80.0781Q56.0547-82.7637 50.9766-82.7637L36.6211-82.7637Q31.5918-82.7637 28.6865-80.0781Q25.7812-77.3926 25.7812-72.6562Z"/>
  </g>
  <g id="Regular-S" transform="matrix(1 0 0 1 1406.68 696)">
   <path d="M24.7559 2.39258L61.6699 2.39258Q65.332 2.39258 67.3584 0.512695Q69.3848-1.36719 69.5312-5.07812L71.8262-60.1562L77.2461-60.1562Q78.5645-60.1562 79.5166-61.1328Q80.4688-62.1094 80.4688-63.4277Q80.4688-64.7461 79.5166-65.7227Q78.5645-66.6992 77.2461-66.6992L9.08203-66.6992Q7.8125-66.6992 6.83594-65.7227Q5.85938-64.7461 5.85938-63.4277Q5.85938-62.1094 6.83594-61.1328Q7.8125-60.1562 9.08203-60.1562L14.5996-60.1562L16.8945-5.07812Q17.041-1.36719 19.043 0.512695Q21.0449 2.39258 24.7559 2.39258ZM30.957-8.54492Q29.7852-8.54492 29.0527-9.22852Q28.3203-9.91211 28.2715-11.084L27.1973-52.0508Q27.1484-53.1738 27.8809-53.8818Q28.6133-54.5898 29.8828-54.5898Q31.0059-54.5898 31.7627-53.9062Q32.5195-53.2227 32.5684-52.0508L33.6426-11.084Q33.6914-9.96094 32.9346-9.25293Q32.1777-8.54492 30.957-8.54492ZM43.1641-8.54492Q41.9434-8.54492 41.1621-9.25293Q40.3809-9.96094 40.3809-11.084L40.3809-52.0508Q40.3809-53.1738 41.1621-53.8818Q41.9434-54.5898 43.1641-54.5898Q44.4336-54.5898 45.1904-53.8818Q45.9473-53.1738 45.9473-52.0508L45.9473-11.084Q45.9473-9.96094 45.1904-9.25293Q44.4336-8.54492 43.1641-8.54492ZM55.4199-8.54492Q54.1504-8.54492 53.418-9.25293Q52.6855-9.96094 52.7344-11.084L53.8086-52.0508Q53.8574-53.1738 54.5898-53.8818Q55.3223-54.5898 56.4941-54.5898Q57.7148-54.5898 58.4717-53.8818Q59.2285-53.1738 59.1797-52.0508L58.1055-11.084Q58.0566-9.91211 57.2998-9.22852Q56.543-8.54492 55.4199-8.54492ZM25.6348-65.4785L33.5938-65.4785L33.5938-71.8262Q33.5938-73.0957 34.3994-73.9014Q35.2051-74.707 36.5723-74.707L49.7559-74.707Q51.123-74.707 51.9287-73.9014Q52.7344-73.0957 52.7344-71.8262L52.7344-65.4785L60.5957-65.4785L60.5957-72.3145Q60.5957-76.8555 57.8125-79.4922Q55.0293-82.1289 50.2441-82.1289L35.9863-82.1289Q31.25-82.1289 28.4424-79.4922Q25.6348-76.8555 25.6348-72.3145Z"/>
  </g>
  <g id="Light-S" transform="matrix(1 0 0 1 1110.48 696)">
   <path d="M24.707 2.73438L60.6934 2.73438Q64.1113 2.73438 66.1621 0.805664Q68.2129-1.12305 68.3594-4.54102L70.9473-61.1328L76.9531-61.1328Q77.9785-61.1328 78.7354-61.9141Q79.4922-62.6953 79.4922-63.7207Q79.4922-64.7461 78.7354-65.5029Q77.9785-66.2598 76.9531-66.2598L8.34961-66.2598Q7.37305-66.2598 6.61621-65.5029Q5.85938-64.7461 5.85938-63.7207Q5.85938-62.6465 6.61621-61.8896Q7.37305-61.1328 8.34961-61.1328L14.4531-61.1328L16.9922-4.54102Q17.1387-1.12305 19.1895 0.805664Q21.2402 2.73438 24.707 2.73438ZM30.6641-8.20312Q29.6875-8.20312 29.126-8.76465Q28.5645-9.32617 28.5156-10.2051L27.2949-52.4902Q27.2949-53.3691 27.8809-53.9307Q28.4668-54.4922 29.4434-54.4922Q30.3223-54.4922 30.9326-53.9551Q31.543-53.418 31.5918-52.5391L32.7637-10.2539Q32.8125-9.375 32.2266-8.78906Q31.6406-8.20312 30.6641-8.20312ZM42.6758-8.20312Q41.6992-8.20312 41.0889-8.76465Q40.4785-9.32617 40.4785-10.2539L40.4785-52.4902Q40.4785-53.3691 41.0889-53.9307Q41.6992-54.4922 42.6758-54.4922Q43.6523-54.4922 44.2627-53.9307Q44.873-53.3691 44.873-52.4902L44.873-10.2539Q44.873-9.32617 44.2627-8.76465Q43.6523-8.20312 42.6758-8.20312ZM54.6875-8.20312Q53.7109-8.20312 53.125-8.76465Q52.5391-9.32617 52.5879-10.2051L53.7598-52.4902Q53.8086-53.3691 54.3945-53.9307Q54.9805-54.4922 55.9082-54.4922Q56.8848-54.4922 57.4707-53.9307Q58.0566-53.3691 58.0078-52.4902L56.8359-10.2051Q56.7871-9.27734 56.2012-8.74023Q55.6152-8.20312 54.6875-8.20312ZM25.7324-65.0879L31.8848-65.0879L31.8848-71.9727Q31.8848-73.584 32.8857-74.5361Q33.8867-75.4883 35.5957-75.4883L49.707-75.4883Q51.4648-75.4883 52.4658-74.5361Q53.4668-73.584 53.4668-71.9727L53.4668-65.0879L59.5215-65.0879L59.5215-72.3145Q59.5215-76.4648 56.9824-78.8574Q54.4434-81.25 50-81.25L35.2539-81.25Q30.8594-81.25 28.2959-78.8574Q25.7324-76.4648 25.7324-72.3145Z"/>
  </g>
  <g id="Thin-S" transform="matrix(1 0 0 1 814.43 696)">
   <path d="M24.6582 3.17383L59.375 3.17383Q62.4512 3.17383 64.5752 1.19629Q66.6992-0.78125 66.8457-3.85742L69.8242-62.5L76.5625-62.5Q77.2461-62.5 77.6855-62.9639Q78.125-63.4277 78.125-64.0625Q78.125-64.7461 77.6611-65.1855Q77.1973-65.625 76.5625-65.625L7.42188-65.625Q6.78711-65.625 6.29883-65.1611Q5.81055-64.6973 5.81055-64.0625Q5.81055-63.4277 6.29883-62.9639Q6.78711-62.5 7.42188-62.5L14.2578-62.5L17.1875-3.85742Q17.334-0.78125 19.4336 1.19629Q21.5332 3.17383 24.6582 3.17383ZM30.2734-7.76367Q29.5898-7.76367 29.2236-8.12988Q28.8574-8.49609 28.8574-9.08203L27.4902-53.0762Q27.4414-53.6621 27.8564-54.0283Q28.2715-54.3945 28.8574-54.3945Q29.4434-54.3945 29.8584-54.0527Q30.2734-53.7109 30.2734-53.125L31.6406-9.13086Q31.6406-8.54492 31.25-8.1543Q30.8594-7.76367 30.2734-7.76367ZM41.9922-7.76367Q41.3574-7.76367 40.9668-8.12988Q40.5762-8.49609 40.5762-9.13086L40.5762-53.0762Q40.5762-53.6621 40.9668-54.0283Q41.3574-54.3945 41.9922-54.3945Q42.627-54.3945 43.0176-54.0283Q43.4082-53.6621 43.4082-53.0762L43.4082-9.13086Q43.4082-8.49609 43.0176-8.12988Q42.627-7.76367 41.9922-7.76367ZM53.7598-7.71484Q53.0762-7.71484 52.7344-8.10547Q52.3926-8.49609 52.3926-9.08203L53.7598-53.125Q53.7598-53.6621 54.1504-54.0283Q54.541-54.3945 55.127-54.3945Q55.7617-54.3945 56.1523-54.0039Q56.543-53.6133 56.4941-53.0273L55.1758-9.0332Q55.127-8.44727 54.7607-8.08105Q54.3945-7.71484 53.7598-7.71484ZM25.8789-64.5508L29.5898-64.5508L29.5898-72.1191Q29.5898-74.2188 30.8594-75.3662Q32.1289-76.5137 34.375-76.5137L49.6094-76.5137Q51.9043-76.5137 53.1738-75.3662Q54.4434-74.2188 54.4434-72.1191L54.4434-64.5508L58.0566-64.5508L58.0566-72.2656Q58.0566-75.9277 55.835-78.0029Q53.6133-80.0781 49.6582-80.0781L34.2773-80.0781Q30.3223-80.0781 28.1006-78.0029Q25.8789-75.9277 25.8789-72.2656Z"/>
  </g>
  <g id="Ultralight-S" transform="matrix(1 0 0 1 518.061 696)">
   <path d="M24.6094 3.36914L58.7402 3.36914Q61.6211 3.36914 63.7695 1.36719Q65.918-0.634766 66.0645-3.4668L69.2383-63.1348L76.3672-63.1348Q76.8555-63.1348 77.1729-63.4766Q77.4902-63.8184 77.4902-64.2578Q77.4902-64.7461 77.1484-65.0391Q76.8066-65.332 76.3672-65.332L6.93359-65.332Q6.49414-65.332 6.15234-65.0146Q5.81055-64.6973 5.81055-64.2578Q5.81055-63.7695 6.15234-63.4521Q6.49414-63.1348 6.93359-63.1348L14.1602-63.1348L17.2363-3.4668Q17.3828-0.634766 19.5312 1.36719Q21.6797 3.36914 24.6094 3.36914ZM30.0293-7.56836Q29.541-7.56836 29.2725-7.83691Q29.0039-8.10547 29.0039-8.49609L27.5391-53.3691Q27.5391-53.8086 27.8564-54.0771Q28.1738-54.3457 28.5645-54.3457Q29.0039-54.3457 29.2969-54.1016Q29.5898-53.8574 29.6387-53.4668L31.0547-8.54492Q31.0547-8.1543 30.7861-7.86133Q30.5176-7.56836 30.0293-7.56836ZM41.6504-7.56836Q41.2109-7.56836 40.9424-7.83691Q40.6738-8.10547 40.6738-8.54492L40.6738-53.3691Q40.6738-53.8086 40.9424-54.0771Q41.2109-54.3457 41.6504-54.3457Q42.1387-54.3457 42.4072-54.0771Q42.6758-53.8086 42.6758-53.3691L42.6758-8.54492Q42.6758-8.10547 42.4072-7.83691Q42.1387-7.56836 41.6504-7.56836ZM53.2715-7.4707Q52.7832-7.4707 52.5391-7.78809Q52.2949-8.10547 52.2949-8.49609L53.7109-53.418Q53.7109-53.8086 54.0283-54.0527Q54.3457-54.2969 54.7363-54.2969Q55.1758-54.2969 55.4443-54.0283Q55.7129-53.7598 55.7129-53.3203L54.2969-8.44727Q54.2969-8.05664 54.0283-7.76367Q53.7598-7.4707 53.2715-7.4707ZM25.9766-64.2578L28.418-64.2578L28.418-72.2168Q28.418-74.5605 29.8096-75.8057Q31.2012-77.0508 33.6914-77.0508L49.5605-77.0508Q52.0996-77.0508 53.5156-75.8057Q54.9316-74.5605 54.9316-72.2168L54.9316-64.2578L57.3242-64.2578L57.3242-72.2656Q57.3242-75.6836 55.2734-77.5879Q53.2227-79.4922 49.5117-79.4922L33.7402-79.4922Q30.0781-79.4922 28.0273-77.5879Q25.9766-75.6836 25.9766-72.2656Z"/>
  </g>
 </g>
</svg>
