<?xml version="1.0" encoding="UTF-8"?>
<!--Generator: Apple Native CoreSVG 149-->
<!DOCTYPE svg
PUBLIC "-//W3C//DTD SVG 1.1//EN"
       "http://www.w3.org/Graphics/SVG/1.1/DTD/svg11.dtd">
<svg version="1.1" xmlns="http://www.w3.org/2000/svg" xmlns:xlink="http://www.w3.org/1999/xlink" width="3300" height="2200">
 <!--glyph: "uni100308.medium", point size: 100.000000, font version: "Version 16.0d18e1", template writer version: "8"-->
 <g id="Notes">
  <rect height="2200" id="artboard" style="fill:white;opacity:1" width="3300" x="0" y="0"/>
  <line id="" style="fill:none;stroke:black;opacity:1;stroke-width:0.5;" x1="263" x2="3036" y1="292" y2="292"/>
  <text style="stroke:none;fill:black;font-family:-apple-system,&quot;SF Pro Display&quot;,&quot;SF Pro Text&quot;,Helvetica,sans-serif;font-weight:bold;" transform="matrix(1 0 0 1 263 322)">Weight/Scale Variations</text>
  <text style="stroke:none;fill:black;font-family:-apple-system,&quot;SF Pro Display&quot;,&quot;SF Pro Text&quot;,Helvetica,sans-serif;text-anchor:middle;" transform="matrix(1 0 0 1 559.711 322)">Ultralight</text>
  <text style="stroke:none;fill:black;font-family:-apple-system,&quot;SF Pro Display&quot;,&quot;SF Pro Text&quot;,Helvetica,sans-serif;text-anchor:middle;" transform="matrix(1 0 0 1 856.422 322)">Thin</text>
  <text style="stroke:none;fill:black;font-family:-apple-system,&quot;SF Pro Display&quot;,&quot;SF Pro Text&quot;,Helvetica,sans-serif;text-anchor:middle;" transform="matrix(1 0 0 1 1153.13 322)">Light</text>
  <text style="stroke:none;fill:black;font-family:-apple-system,&quot;SF Pro Display&quot;,&quot;SF Pro Text&quot;,Helvetica,sans-serif;text-anchor:middle;" transform="matrix(1 0 0 1 1449.84 322)">Regular</text>
  <text style="stroke:none;fill:black;font-family:-apple-system,&quot;SF Pro Display&quot;,&quot;SF Pro Text&quot;,Helvetica,sans-serif;text-anchor:middle;" transform="matrix(1 0 0 1 1746.56 322)">Medium</text>
  <text style="stroke:none;fill:black;font-family:-apple-system,&quot;SF Pro Display&quot;,&quot;SF Pro Text&quot;,Helvetica,sans-serif;text-anchor:middle;" transform="matrix(1 0 0 1 2043.27 322)">Semibold</text>
  <text style="stroke:none;fill:black;font-family:-apple-system,&quot;SF Pro Display&quot;,&quot;SF Pro Text&quot;,Helvetica,sans-serif;text-anchor:middle;" transform="matrix(1 0 0 1 2339.98 322)">Bold</text>
  <text style="stroke:none;fill:black;font-family:-apple-system,&quot;SF Pro Display&quot;,&quot;SF Pro Text&quot;,Helvetica,sans-serif;text-anchor:middle;" transform="matrix(1 0 0 1 2636.69 322)">Heavy</text>
  <text style="stroke:none;fill:black;font-family:-apple-system,&quot;SF Pro Display&quot;,&quot;SF Pro Text&quot;,Helvetica,sans-serif;text-anchor:middle;" transform="matrix(1 0 0 1 2933.4 322)">Black</text>
  <line id="" style="fill:none;stroke:black;opacity:1;stroke-width:0.5;" x1="263" x2="3036" y1="1903" y2="1903"/>
  <g id="" transform="matrix(1 0 0 1 263 1933)">
   <path d="M9.24805 0.830078C13.5547 0.830078 17.1387-2.74414 17.1387-7.05078C17.1387-11.3574 13.5449-14.9316 9.23828-14.9316C4.94141-14.9316 1.36719-11.3574 1.36719-7.05078C1.36719-2.74414 4.95117 0.830078 9.24805 0.830078ZM9.24805-0.654297C5.70312-0.654297 2.87109-3.49609 2.87109-7.05078C2.87109-10.6055 5.69336-13.4473 9.23828-13.4473C12.793-13.4473 15.6348-10.6055 15.6445-7.05078C15.6543-3.49609 12.8027-0.654297 9.24805-0.654297ZM6.39648-6.31836L8.50586-6.31836L8.50586-4.19922C8.50586-3.75977 8.79883-3.45703 9.22852-3.45703C9.67773-3.45703 9.9707-3.75977 9.9707-4.19922L9.9707-6.31836L12.0996-6.31836C12.5391-6.31836 12.8418-6.61133 12.8418-7.04102C12.8418-7.48047 12.5391-7.7832 12.0996-7.7832L9.9707-7.7832L9.9707-9.89258C9.9707-10.3418 9.67773-10.6445 9.22852-10.6445C8.79883-10.6445 8.50586-10.3418 8.50586-9.89258L8.50586-7.7832L6.39648-7.7832C5.94727-7.7832 5.64453-7.48047 5.64453-7.04102C5.64453-6.61133 5.94727-6.31836 6.39648-6.31836Z"/>
  </g>
  <g id="" transform="matrix(1 0 0 1 281.506 1933)">
   <path d="M11.709 2.91016C17.1582 2.91016 21.6699-1.61133 21.6699-7.05078C21.6699-12.5 17.1484-17.0117 11.6992-17.0117C6.25977-17.0117 1.74805-12.5 1.74805-7.05078C1.74805-1.61133 6.26953 2.91016 11.709 2.91016ZM11.709 1.25C7.09961 1.25 3.41797-2.44141 3.41797-7.05078C3.41797-11.6602 7.08984-15.3516 11.6992-15.3516C16.3086-15.3516 20-11.6602 20.0098-7.05078C20.0195-2.44141 16.3184 1.25 11.709 1.25ZM7.98828-6.23047L10.8789-6.23047L10.8789-3.32031C10.8789-2.83203 11.2109-2.5 11.6895-2.5C12.1777-2.5 12.5195-2.83203 12.5195-3.32031L12.5195-6.23047L15.4297-6.23047C15.918-6.23047 16.25-6.5625 16.25-7.04102C16.25-7.5293 15.918-7.87109 15.4297-7.87109L12.5195-7.87109L12.5195-10.7617C12.5195-11.2695 12.1777-11.6016 11.6895-11.6016C11.2109-11.6016 10.8789-11.2598 10.8789-10.7617L10.8789-7.87109L7.98828-7.87109C7.48047-7.87109 7.14844-7.5293 7.14844-7.04102C7.14844-6.5625 7.49023-6.23047 7.98828-6.23047Z"/>
  </g>
  <g id="" transform="matrix(1 0 0 1 304.924 1933)">
   <path d="M14.9707 5.66406C21.9336 5.66406 27.6953-0.0976562 27.6953-7.05078C27.6953-14.0137 21.9238-19.7754 14.9609-19.7754C8.00781-19.7754 2.25586-14.0137 2.25586-7.05078C2.25586-0.0976562 8.01758 5.66406 14.9707 5.66406ZM14.9707 3.84766C8.93555 3.84766 4.08203-1.01562 4.08203-7.05078C4.08203-13.0957 8.92578-17.9492 14.9609-17.9492C21.0059-17.9492 25.8594-13.0957 25.8691-7.05078C25.8789-1.01562 21.0156 3.84766 14.9707 3.84766ZM10.0586-6.14258L14.0625-6.14258L14.0625-2.12891C14.0625-1.5918 14.4336-1.2207 14.9512-1.2207C15.4883-1.2207 15.8594-1.5918 15.8594-2.12891L15.8594-6.14258L19.8828-6.14258C20.4102-6.14258 20.791-6.51367 20.791-7.03125C20.791-7.56836 20.4199-7.94922 19.8828-7.94922L15.8594-7.94922L15.8594-11.9531C15.8594-12.5098 15.4883-12.8809 14.9512-12.8809C14.4336-12.8809 14.0625-12.5 14.0625-11.9531L14.0625-7.94922L10.0586-7.94922C9.50195-7.94922 9.13086-7.56836 9.13086-7.03125C9.13086-6.51367 9.51172-6.14258 10.0586-6.14258Z"/>
  </g>
  <text style="stroke:none;fill:black;font-family:-apple-system,&quot;SF Pro Display&quot;,&quot;SF Pro Text&quot;,Helvetica,sans-serif;font-weight:bold;" transform="matrix(1 0 0 1 263 1953)">Design Variations</text>
  <text style="stroke:none;fill:black;font-family:-apple-system,&quot;SF Pro Display&quot;,&quot;SF Pro Text&quot;,Helvetica,sans-serif;" transform="matrix(1 0 0 1 263 1971)">Symbols are supported in up to nine weights and three scales.</text>
  <text style="stroke:none;fill:black;font-family:-apple-system,&quot;SF Pro Display&quot;,&quot;SF Pro Text&quot;,Helvetica,sans-serif;" transform="matrix(1 0 0 1 263 1989)">For optimal layout with text and other symbols, vertically align</text>
  <text style="stroke:none;fill:black;font-family:-apple-system,&quot;SF Pro Display&quot;,&quot;SF Pro Text&quot;,Helvetica,sans-serif;" transform="matrix(1 0 0 1 263 2007)">symbols with the adjacent text.</text>
  <line id="" style="fill:none;stroke:#00AEEF;stroke-width:0.5;opacity:1.0;" x1="776" x2="776" y1="1919" y2="1933"/>
  <g id="" transform="matrix(1 0 0 1 776 1933)">
   <path d="M3.31055 0.126953C3.82812 0.126953 4.08203-0.0683594 4.26758-0.605469L5.52734-4.0625L11.2891-4.0625L12.5488-0.605469C12.7344-0.0683594 12.9883 0.126953 13.4961 0.126953C14.0137 0.126953 14.3457-0.185547 14.3457-0.673828C14.3457-0.839844 14.3164-0.986328 14.2383-1.20117L9.6582-13.3887C9.43359-13.9941 9.0332-14.2871 8.4082-14.2871C7.80273-14.2871 7.39258-13.9941 7.17773-13.3984L2.59766-1.19141C2.51953-0.976562 2.49023-0.830078 2.49023-0.664062C2.49023-0.175781 2.80273 0.126953 3.31055 0.126953ZM6.00586-5.53711L8.37891-12.1094L8.42773-12.1094L10.8008-5.53711Z"/>
  </g>
  <line id="" style="fill:none;stroke:#00AEEF;stroke-width:0.5;opacity:1.0;" x1="792.836" x2="792.836" y1="1919" y2="1933"/>
  <text style="stroke:none;fill:black;font-family:-apple-system,&quot;SF Pro Display&quot;,&quot;SF Pro Text&quot;,Helvetica,sans-serif;font-weight:bold;" transform="matrix(1 0 0 1 776 1953)">Margins</text>
  <text style="stroke:none;fill:black;font-family:-apple-system,&quot;SF Pro Display&quot;,&quot;SF Pro Text&quot;,Helvetica,sans-serif;" transform="matrix(1 0 0 1 776 1971)">Leading and trailing margins on the left and right side of each symbol</text>
  <text style="stroke:none;fill:black;font-family:-apple-system,&quot;SF Pro Display&quot;,&quot;SF Pro Text&quot;,Helvetica,sans-serif;" transform="matrix(1 0 0 1 776 1989)">can be adjusted by modifying the x-location of the margin guidelines.</text>
  <text style="stroke:none;fill:black;font-family:-apple-system,&quot;SF Pro Display&quot;,&quot;SF Pro Text&quot;,Helvetica,sans-serif;" transform="matrix(1 0 0 1 776 2007)">Modifications are automatically applied proportionally to all</text>
  <text style="stroke:none;fill:black;font-family:-apple-system,&quot;SF Pro Display&quot;,&quot;SF Pro Text&quot;,Helvetica,sans-serif;" transform="matrix(1 0 0 1 776 2025)">scales and weights.</text>
  <g id="" transform="matrix(1 0 0 1 1289 1933)">
   <path d="M2.8418 1.86523L4.54102 3.57422C5.40039 4.44336 6.38672 4.38477 7.31445 3.35938L17.4902-7.85156C17.7539-7.76367 18.0273-7.7832 18.3398-7.8418L19.4043-8.03711L20.0684-7.36328L20.0293-6.80664C19.9902-6.30859 20.1172-5.92773 20.6055-5.44922L21.3672-4.70703C21.8457-4.22852 22.4609-4.19922 22.9297-4.66797L25.8398-7.58789C26.3086-8.05664 26.2891-8.65234 25.8105-9.13086L25.0391-9.89258C24.5605-10.3711 24.1895-10.5273 23.7109-10.4883L23.1348-10.4395L22.4902-11.0742L22.7344-12.1973C22.8613-12.7637 22.7051-13.2031 22.1191-13.7891L19.9219-15.9766C16.582-19.2969 12.1484-19.2188 9.25781-16.3281C8.83789-15.918 8.80859-15.3418 9.04297-14.9512C9.27734-14.5898 9.73633-14.3555 10.3809-14.5215C11.8457-14.8633 13.3691-14.9219 14.7949-13.9844L14.209-12.5293C14.0137-12.0508 13.9844-11.6504 14.1113-11.2891L3.04688-0.898438C2.06055 0.0195312 1.98242 0.996094 2.8418 1.86523ZM10.752-15.957C13.1836-17.7344 16.4746-17.4316 18.7012-15.2051L21.1328-12.793C21.3672-12.5586 21.4062-12.373 21.3379-12.0312L21.0156-10.5469L22.5195-9.0625L23.5059-9.12109C23.7598-9.13086 23.8379-9.11133 24.0332-8.91602L24.6094-8.33984L22.168-5.89844L21.5918-6.47461C21.3965-6.66992 21.3672-6.74805 21.377-7.01172L21.4453-7.98828L19.9512-9.47266L18.4277-9.21875C18.1055-9.15039 17.959-9.17969 17.7148-9.41406L15.7129-11.416C15.459-11.6504 15.4297-11.8164 15.5859-12.1875L16.4648-14.2773C14.9023-15.7324 12.8711-16.3574 10.8398-15.7617C10.6836-15.7227 10.625-15.8496 10.752-15.957ZM5.27344 2.30469L4.10156 1.14258C3.63281 0.683594 3.74023 0.341797 4.14062-0.0195312L14.9512-10.1953L16.416-8.71094L6.42578 2.27539C6.07422 2.67578 5.74219 2.77344 5.27344 2.30469Z"/>
  </g>
  <text style="stroke:none;fill:black;font-family:-apple-system,&quot;SF Pro Display&quot;,&quot;SF Pro Text&quot;,Helvetica,sans-serif;font-weight:bold;" transform="matrix(1 0 0 1 1289 1953)">Exporting</text>
  <text style="stroke:none;fill:black;font-family:-apple-system,&quot;SF Pro Display&quot;,&quot;SF Pro Text&quot;,Helvetica,sans-serif;" transform="matrix(1 0 0 1 1289 1971)">Symbols should be outlined when exporting to ensure the</text>
  <text style="stroke:none;fill:black;font-family:-apple-system,&quot;SF Pro Display&quot;,&quot;SF Pro Text&quot;,Helvetica,sans-serif;" transform="matrix(1 0 0 1 1289 1989)">design is preserved when submitting to Xcode.</text>
  <text id="template-version" style="stroke:none;fill:black;font-family:-apple-system,&quot;SF Pro Display&quot;,&quot;SF Pro Text&quot;,Helvetica,sans-serif;text-anchor:end;" transform="matrix(1 0 0 1 3036 1933)">Template v.2.0</text>
  <text style="stroke:none;fill:black;font-family:-apple-system,&quot;SF Pro Display&quot;,&quot;SF Pro Text&quot;,Helvetica,sans-serif;text-anchor:end;" transform="matrix(1 0 0 1 3036 1951)">Requires Xcode 12 or greater</text>
  <text style="stroke:none;fill:black;font-family:-apple-system,&quot;SF Pro Display&quot;,&quot;SF Pro Text&quot;,Helvetica,sans-serif;text-anchor:end;" transform="matrix(1 0 0 1 3036 1969)">Generated from line.horizontal.3.decrease.circle</text>
  <text style="stroke:none;fill:black;font-family:-apple-system,&quot;SF Pro Display&quot;,&quot;SF Pro Text&quot;,Helvetica,sans-serif;text-anchor:end;" transform="matrix(1 0 0 1 3036 1987)">Typeset at 100 points</text>
  <text style="stroke:none;fill:black;font-family:-apple-system,&quot;SF Pro Display&quot;,&quot;SF Pro Text&quot;,Helvetica,sans-serif;" transform="matrix(1 0 0 1 263 726)">Small</text>
  <text style="stroke:none;fill:black;font-family:-apple-system,&quot;SF Pro Display&quot;,&quot;SF Pro Text&quot;,Helvetica,sans-serif;" transform="matrix(1 0 0 1 263 1156)">Medium</text>
  <text style="stroke:none;fill:black;font-family:-apple-system,&quot;SF Pro Display&quot;,&quot;SF Pro Text&quot;,Helvetica,sans-serif;" transform="matrix(1 0 0 1 263 1586)">Large</text>
 </g>
 <g id="Guides">
  <g id="H-reference" style="fill:#27AAE1;stroke:none;" transform="matrix(1 0 0 1 339 696)">
   <path d="M0.976562 0L3.66211 0L12.9883-24.4629L45.752-24.4629L55.127 0L57.7637 0L30.6152-70.459L28.125-70.459ZM29.3457-67.1387L29.4434-67.1387L44.873-26.709L13.8672-26.709Z"/>
  </g>
  <line id="Baseline-S" style="fill:none;stroke:#27AAE1;opacity:1;stroke-width:0.5;" x1="263" x2="3036" y1="696" y2="696"/>
  <line id="Capline-S" style="fill:none;stroke:#27AAE1;opacity:1;stroke-width:0.5;" x1="263" x2="3036" y1="625.541" y2="625.541"/>
  <g id="H-reference" style="fill:#27AAE1;stroke:none;" transform="matrix(1 0 0 1 339 1126)">
   <path d="M0.976562 0L3.66211 0L12.9883-24.4629L45.752-24.4629L55.127 0L57.7637 0L30.6152-70.459L28.125-70.459ZM29.3457-67.1387L29.4434-67.1387L44.873-26.709L13.8672-26.709Z"/>
  </g>
  <line id="Baseline-M" style="fill:none;stroke:#27AAE1;opacity:1;stroke-width:0.5;" x1="263" x2="3036" y1="1126" y2="1126"/>
  <line id="Capline-M" style="fill:none;stroke:#27AAE1;opacity:1;stroke-width:0.5;" x1="263" x2="3036" y1="1055.54" y2="1055.54"/>
  <g id="H-reference" style="fill:#27AAE1;stroke:none;" transform="matrix(1 0 0 1 339 1556)">
   <path d="M0.976562 0L3.66211 0L12.9883-24.4629L45.752-24.4629L55.127 0L57.7637 0L30.6152-70.459L28.125-70.459ZM29.3457-67.1387L29.4434-67.1387L44.873-26.709L13.8672-26.709Z"/>
  </g>
  <line id="Baseline-L" style="fill:none;stroke:#27AAE1;opacity:1;stroke-width:0.5;" x1="263" x2="3036" y1="1556" y2="1556"/>
  <line id="Capline-L" style="fill:none;stroke:#27AAE1;opacity:1;stroke-width:0.5;" x1="263" x2="3036" y1="1485.54" y2="1485.54"/>
  <line id="left-margin" style="fill:none;stroke:#00AEEF;stroke-width:0.5;opacity:1.0;" x1="1391.3" x2="1391.3" y1="1030.79" y2="1150.12"/>
  <line id="right-margin" style="fill:none;stroke:#00AEEF;stroke-width:0.5;opacity:1.0;" x1="1508.39" x2="1508.39" y1="1030.79" y2="1150.12"/>
 </g>
 <g id="Symbols">
  <g id="Black-L" transform="matrix(1 0 0 1 2854.05 1556)">
   <path d="M79.3457 32.8613C116.748 32.8613 147.412 2.19727 147.412-35.2051C147.412-72.6074 116.748-103.271 79.2969-103.271C41.8945-103.271 11.2793-72.6074 11.2793-35.2051C11.2793 2.19727 41.9434 32.8613 79.3457 32.8613ZM79.3457 12.4023C52.9785 12.4023 31.7383-8.83789 31.7383-35.2051C31.7383-61.5723 52.9297-82.8125 79.2969-82.8125C105.664-82.8125 126.953-61.5723 126.953-35.2051C127.002-8.83789 105.713 12.4023 79.3457 12.4023ZM50.8301-45.5566L107.861-45.5566C112.256-45.5566 115.234-48.291 115.234-52.3438C115.234-56.4941 112.256-59.2285 107.861-59.2285L50.8301-59.2285C46.4355-59.2285 43.457-56.4941 43.457-52.3438C43.457-48.291 46.4355-45.5566 50.8301-45.5566ZM57.5684-24.9512L101.123-24.9512C105.469-24.9512 108.496-27.6855 108.496-31.7383C108.496-35.8398 105.469-38.623 101.123-38.623L57.5684-38.623C53.2227-38.623 50.1953-35.8398 50.1953-31.7383C50.1953-27.6855 53.2227-24.9512 57.5684-24.9512ZM64.4043-4.3457L94.2871-4.3457C98.6328-4.3457 101.66-7.08008 101.66-11.1328C101.66-15.1855 98.6328-17.9688 94.2871-17.9688L64.4043-17.9688C60.0586-17.9688 57.0312-15.1855 57.0312-11.1328C57.0312-7.08008 60.0586-4.3457 64.4043-4.3457Z"/>
  </g>
  <g id="Heavy-L" transform="matrix(1 0 0 1 2558.39 1556)">
   <path d="M78.2715 31.7871C115.088 31.7871 145.312 1.5625 145.312-35.2051C145.312-72.0215 115.039-102.246 78.2715-102.246C41.4551-102.246 11.2793-72.0215 11.2793-35.2051C11.2793 1.5625 41.5039 31.7871 78.2715 31.7871ZM78.2715 14.0137C51.0254 14.0137 29.0527-7.95898 29.0527-35.2051C29.0527-62.5 50.9766-84.4727 78.2715-84.4727C105.518-84.4727 127.49-62.5 127.539-35.2051C127.539-7.95898 105.566 14.0137 78.2715 14.0137ZM48.3398-46.2402L108.252-46.2402C112.207-46.2402 114.844-48.6816 114.844-52.3438C114.844-56.0547 112.207-58.4961 108.252-58.4961L48.3398-58.4961C44.3848-58.4961 41.748-56.0547 41.748-52.3438C41.748-48.6816 44.3848-46.2402 48.3398-46.2402ZM55.6641-25.5859L100.928-25.5859C104.834-25.5859 107.52-28.0273 107.52-31.6895C107.52-35.3516 104.834-37.8418 100.928-37.8418L55.6641-37.8418C51.7578-37.8418 49.0723-35.3516 49.0723-31.6895C49.0723-28.0273 51.7578-25.5859 55.6641-25.5859ZM63.1836-4.88281L93.4082-4.88281C97.3145-4.88281 100.049-7.32422 100.049-10.9863C100.049-14.6484 97.3145-17.1387 93.4082-17.1387L63.1836-17.1387C59.2773-17.1387 56.543-14.6484 56.543-10.9863C56.543-7.32422 59.2773-4.88281 63.1836-4.88281Z"/>
  </g>
  <g id="Bold-L" transform="matrix(1 0 0 1 2262.88 1556)">
   <path d="M77.0996 30.5664C113.232 30.5664 142.92 0.878906 142.92-35.2539C142.92-71.3379 113.184-101.074 77.0508-101.074C40.9668-101.074 11.2793-71.3379 11.2793-35.2539C11.2793 0.878906 41.0156 30.5664 77.0996 30.5664ZM77.0996 15.8203C48.8281 15.8203 26.0742-6.98242 26.0742-35.2539C26.0742-63.5254 48.7793-86.2793 77.0508-86.2793C105.371-86.2793 128.125-63.5254 128.174-35.2539C128.174-6.98242 105.371 15.8203 77.0996 15.8203ZM45.5078-47.0215L108.74-47.0215C112.109-47.0215 114.453-49.1699 114.453-52.3438C114.453-55.5664 112.109-57.666 108.74-57.666L45.5078-57.666C42.1387-57.666 39.7949-55.5664 39.7949-52.3438C39.7949-49.1699 42.1387-47.0215 45.5078-47.0215ZM53.5156-26.3184L100.732-26.3184C104.102-26.3184 106.445-28.418 106.445-31.5918C106.445-34.8145 104.102-36.9629 100.732-36.9629L53.5156-36.9629C50.1465-36.9629 47.8027-34.8145 47.8027-31.5918C47.8027-28.418 50.1465-26.3184 53.5156-26.3184ZM61.7676-5.51758L92.4805-5.51758C95.8496-5.51758 98.1934-7.66602 98.1934-10.8398C98.1934-14.0137 95.8496-16.2109 92.4805-16.2109L61.7676-16.2109C58.3984-16.2109 56.0547-14.0137 56.0547-10.8398C56.0547-7.66602 58.3984-5.51758 61.7676-5.51758Z"/>
  </g>
  <g id="Semibold-L" transform="matrix(1 0 0 1 1966.97 1556)">
   <path d="M76.2695 29.7363C111.914 29.7363 141.309 0.390625 141.309-35.2539C141.309-70.8984 111.865-100.244 76.2695-100.244C40.625-100.244 11.2793-70.8984 11.2793-35.2539C11.2793 0.390625 40.6738 29.7363 76.2695 29.7363ZM76.2695 17.041C47.3145 17.041 24.0234-6.25 24.0234-35.2539C24.0234-64.209 47.2656-87.5488 76.2695-87.5488C105.225-87.5488 128.564-64.209 128.613-35.2539C128.662-6.25 105.273 17.041 76.2695 17.041ZM43.6035-47.5586L109.082-47.5586C112.061-47.5586 114.209-49.4629 114.209-52.3438C114.209-55.2246 112.061-57.1289 109.082-57.1289L43.6035-57.1289C40.5273-57.1289 38.4277-55.2246 38.4277-52.3438C38.4277-49.4629 40.5273-47.5586 43.6035-47.5586ZM52.0508-26.8066L100.586-26.8066C103.613-26.8066 105.713-28.7109 105.713-31.5918C105.713-34.4238 103.613-36.377 100.586-36.377L52.0508-36.377C49.0234-36.377 46.9238-34.4238 46.9238-31.5918C46.9238-28.7109 49.0234-26.8066 52.0508-26.8066ZM60.8398-5.95703L91.7969-5.95703C94.8242-5.95703 96.9238-7.91016 96.9238-10.7422C96.9238-13.623 94.8242-15.5273 91.7969-15.5273L60.8398-15.5273C57.8125-15.5273 55.6641-13.623 55.6641-10.7422C55.6641-7.91016 57.8125-5.95703 60.8398-5.95703Z"/>
  </g>
  <g id="Medium-L" transform="matrix(1 0 0 1 1670.87 1556)">
   <path d="M75.6836 29.1504C110.938 29.1504 140.088 0 140.088-35.2539C140.088-70.5078 110.889-99.6582 75.6348-99.6582C40.3809-99.6582 11.2793-70.5078 11.2793-35.2539C11.2793 0 40.3809 29.1504 75.6836 29.1504ZM75.6836 18.0176C46.1426 18.0176 22.4609-5.76172 22.4609-35.2539C22.4609-64.7461 46.1426-88.5254 75.6348-88.5254C105.127-88.5254 128.906-64.7461 128.906-35.2539C128.955-5.76172 105.176 18.0176 75.6836 18.0176ZM42.1387-47.9492L109.326-47.9492C112.061-47.9492 113.965-49.707 113.965-52.2949C113.965-54.9316 112.061-56.6895 109.326-56.6895L42.1387-56.6895C39.3555-56.6895 37.4023-54.9316 37.4023-52.2949C37.4023-49.707 39.3555-47.9492 42.1387-47.9492ZM50.9277-27.1484L100.488-27.1484C103.223-27.1484 105.176-28.9062 105.176-31.543C105.176-34.1309 103.223-35.8887 100.488-35.8887L50.9277-35.8887C48.1934-35.8887 46.2402-34.1309 46.2402-31.543C46.2402-28.9062 48.1934-27.1484 50.9277-27.1484ZM60.1074-6.29883L91.3086-6.29883C94.043-6.29883 95.9961-8.05664 95.9961-10.6934C95.9961-13.2812 94.043-15.0391 91.3086-15.0391L60.1074-15.0391C57.373-15.0391 55.4199-13.2812 55.4199-10.6934C55.4199-8.05664 57.373-6.29883 60.1074-6.29883Z"/>
  </g>
  <g id="Regular-L" transform="matrix(1 0 0 1 1374.97 1556)">
   <path d="M74.8535 28.3203C109.668 28.3203 138.477-0.488281 138.477-35.2539C138.477-70.0684 109.619-98.877 74.8047-98.877C40.0391-98.877 11.2793-70.0684 11.2793-35.2539C11.2793-0.488281 40.0879 28.3203 74.8535 28.3203ZM74.8535 19.2383C44.6777 19.2383 20.4102-5.07812 20.4102-35.2539C20.4102-65.4785 44.6289-89.7461 74.8047-89.7461C105.029-89.7461 129.297-65.4785 129.346-35.2539C129.395-5.07812 105.078 19.2383 74.8535 19.2383ZM40.1855-48.4863L109.619-48.4863C112.012-48.4863 113.721-50 113.721-52.2949C113.721-54.5898 112.012-56.1523 109.619-56.1523L40.1855-56.1523C37.793-56.1523 36.084-54.5898 36.084-52.2949C36.084-50 37.793-48.4863 40.1855-48.4863ZM49.4629-27.6367L100.342-27.6367C102.734-27.6367 104.443-29.1992 104.443-31.4941C104.443-33.7891 102.734-35.3027 100.342-35.3027L49.4629-35.3027C47.0703-35.3027 45.3613-33.7891 45.3613-31.4941C45.3613-29.1992 47.0703-27.6367 49.4629-27.6367ZM59.1797-6.73828L90.6738-6.73828C93.0176-6.73828 94.7266-8.30078 94.7266-10.5957C94.7266-12.8906 93.0176-14.4043 90.6738-14.4043L59.1797-14.4043C56.7871-14.4043 55.0781-12.8906 55.0781-10.5957C55.0781-8.30078 56.7871-6.73828 59.1797-6.73828Z"/>
  </g>
  <g id="Light-L" transform="matrix(1 0 0 1 1079.18 1556)">
   <path d="M73.9258 27.3926C108.301 27.3926 136.621-0.927734 136.621-35.2539C136.621-69.6289 108.252-97.9492 73.9258-97.9492C39.5508-97.9492 11.2793-69.6289 11.2793-35.2539C11.2793-0.927734 39.5996 27.3926 73.9258 27.3926ZM73.9258 20.5078C43.1152 20.5078 18.2129-4.44336 18.2129-35.2539C18.2129-66.1133 43.0664-91.0156 73.9258-91.0156C104.736-91.0156 129.688-66.1133 129.736-35.2539C129.736-4.44336 104.785 20.5078 73.9258 20.5078ZM38.8184-49.5605L109.229-49.5605C111.035-49.5605 112.354-50.7812 112.354-52.5879C112.354-54.3945 111.035-55.5664 109.229-55.5664L38.8184-55.5664C36.9141-55.5664 35.5957-54.3945 35.5957-52.5879C35.5957-50.7812 36.9141-49.5605 38.8184-49.5605ZM47.998-28.8086L100-28.8086C101.807-28.8086 103.174-30.0293 103.174-31.8359C103.174-33.5938 101.807-34.8145 100-34.8145L47.998-34.8145C46.1426-34.8145 44.8242-33.5938 44.8242-31.8359C44.8242-30.0293 46.1426-28.8086 47.998-28.8086ZM57.6172-7.91016L90.3809-7.91016C92.1875-7.91016 93.5547-9.13086 93.5547-10.8887C93.5547-12.6953 92.1875-13.916 90.3809-13.916L57.6172-13.916C55.7617-13.916 54.3945-12.6953 54.3945-10.8887C54.3945-9.13086 55.7617-7.91016 57.6172-7.91016Z"/>
  </g>
  <g id="Thin-L" transform="matrix(1 0 0 1 783.693 1556)">
   <path d="M72.7051 26.1719C106.494 26.1719 134.18-1.51367 134.18-35.2539C134.18-69.043 106.494-96.7285 72.7051-96.7285C38.9648-96.7285 11.2793-69.043 11.2793-35.2539C11.2793-1.51367 38.9648 26.1719 72.7051 26.1719ZM72.7051 22.168C41.0156 22.168 15.2832-3.56445 15.2832-35.2539C15.2832-66.9922 41.0156-92.7246 72.7051-92.7246C104.395-92.7246 130.176-66.9922 130.176-35.2539C130.176-3.56445 104.443 22.168 72.7051 22.168ZM36.9141-51.0254L108.643-51.0254C109.717-51.0254 110.596-51.8066 110.596-52.9297C110.596-54.1016 109.717-54.834 108.643-54.834L36.9141-54.834C35.791-54.834 34.9121-54.1016 34.9121-52.9297C34.9121-51.8066 35.791-51.0254 36.9141-51.0254ZM46.0449-30.3711L99.5605-30.3711C100.635-30.3711 101.465-31.1035 101.465-32.2754C101.465-33.3984 100.635-34.1797 99.5605-34.1797L46.0449-34.1797C44.9219-34.1797 44.043-33.3984 44.043-32.2754C44.043-31.1035 44.9219-30.3711 46.0449-30.3711ZM55.5664-9.47266L90.0391-9.47266C91.1133-9.47266 91.9434-10.2051 91.9434-11.3281C91.9434-12.5 91.1133-13.2324 90.0391-13.2324L55.5664-13.2324C54.3945-13.2324 53.5645-12.5 53.5645-11.3281C53.5645-10.2051 54.3945-9.47266 55.5664-9.47266Z"/>
  </g>
  <g id="Ultralight-L" transform="matrix(1 0 0 1 487.616 1556)">
   <path d="M72.1191 25.5371C105.566 25.5371 132.91-1.80664 132.91-35.2539C132.91-68.75 105.566-96.0938 72.1191-96.0938C38.623-96.0938 11.2793-68.75 11.2793-35.2539C11.2793-1.80664 38.623 25.5371 72.1191 25.5371ZM72.1191 23.0469C39.9414 23.0469 13.7695-3.125 13.7695-35.2539C13.7695-67.4316 39.9414-93.6035 72.1191-93.6035C104.248-93.6035 130.42-67.4316 130.42-35.2539C130.42-3.125 104.248 23.0469 72.1191 23.0469ZM35.9863-51.8066L108.35-51.8066C109.082-51.8066 109.668-52.3438 109.668-53.125C109.668-53.9551 109.082-54.4922 108.35-54.4922L35.9863-54.4922C35.2051-54.4922 34.5703-53.9551 34.5703-53.125C34.5703-52.3438 35.2051-51.8066 35.9863-51.8066ZM45.0684-31.1523L99.3164-31.1523C100-31.1523 100.586-31.6895 100.586-32.4707C100.586-33.3008 100-33.8379 99.3164-33.8379L45.0684-33.8379C44.2383-33.8379 43.6523-33.3008 43.6523-32.4707C43.6523-31.6895 44.2383-31.1523 45.0684-31.1523ZM54.4922-10.2539L89.8438-10.2539C90.5273-10.2539 91.1621-10.791 91.1621-11.5723C91.1621-12.3535 90.5273-12.8906 89.8438-12.8906L54.4922-12.8906C53.7109-12.8906 53.125-12.3535 53.125-11.5723C53.125-10.791 53.7109-10.2539 54.4922-10.2539Z"/>
  </g>
  <g id="Black-M" transform="matrix(1 0 0 1 2870.97 1126)">
   <path d="M62.4023 18.457C91.9922 18.457 116.113-5.61523 116.113-35.2051C116.113-64.7949 91.9922-88.8672 62.4023-88.8672C32.8125-88.8672 8.74023-64.7949 8.74023-35.2051C8.74023-5.61523 32.8125 18.457 62.4023 18.457ZM62.4023 0.195312C42.8711 0.195312 27.002-15.625 27.002-35.2051C27.002-54.7363 42.8711-70.6055 62.4023-70.6055C81.9824-70.6055 97.8027-54.7363 97.8027-35.2051C97.8027-15.625 81.9824 0.195312 62.4023 0.195312ZM42.041-42.9199L82.7637-42.9199C86.5723-42.9199 89.0625-45.2148 89.0625-48.6816C89.0625-52.1973 86.5723-54.4922 82.7637-54.4922L42.041-54.4922C38.2812-54.4922 35.791-52.1973 35.791-48.6816C35.791-45.2148 38.2812-42.9199 42.041-42.9199ZM46.3867-27.002L78.418-27.002C82.1289-27.002 84.7168-29.3457 84.7168-32.8125C84.7168-36.2305 82.1289-38.623 78.418-38.623L46.3867-38.623C42.7246-38.623 40.1367-36.2305 40.1367-32.8125C40.1367-29.3457 42.7246-27.002 46.3867-27.002ZM50.7324-11.1328L74.0723-11.1328C77.7832-11.1328 80.3711-13.4277 80.3711-16.8945C80.3711-20.3613 77.7832-22.7539 74.0723-22.7539L50.7324-22.7539C47.0703-22.7539 44.4824-20.3613 44.4824-16.8945C44.4824-13.4277 47.0703-11.1328 50.7324-11.1328Z"/>
  </g>
  <g id="Heavy-M" transform="matrix(1 0 0 1 2575.19 1126)">
   <path d="M61.5234 17.5293C90.5273 17.5293 114.258-6.20117 114.258-35.2051C114.258-64.2578 90.5273-87.9883 61.4746-87.9883C32.4707-87.9883 8.74023-64.2578 8.74023-35.2051C8.74023-6.20117 32.4707 17.5293 61.5234 17.5293ZM61.5234 1.61133C41.1133 1.61133 24.6582-14.8438 24.6582-35.2051C24.6582-55.6152 41.1133-72.0703 61.4746-72.0703C81.8848-72.0703 98.3398-55.6152 98.3398-35.2051C98.3398-14.8438 81.8848 1.61133 61.5234 1.61133ZM39.6484-43.3594L83.3496-43.3594C86.7188-43.3594 89.0137-45.459 89.0137-48.584C89.0137-51.7578 86.7188-53.8574 83.3496-53.8574L39.6484-53.8574C36.2793-53.8574 33.9844-51.7578 33.9844-48.584C33.9844-45.459 36.2793-43.3594 39.6484-43.3594ZM44.7266-27.3926L78.3203-27.3926C81.6406-27.3926 83.9844-29.4922 83.9844-32.6172C83.9844-35.7422 81.6406-37.8906 78.3203-37.8906L44.7266-37.8906C41.3574-37.8906 39.0137-35.7422 39.0137-32.6172C39.0137-29.4922 41.3574-27.3926 44.7266-27.3926ZM49.8047-11.4746L73.1934-11.4746C76.5625-11.4746 78.9062-13.5742 78.9062-16.6992C78.9062-19.8242 76.5625-21.9727 73.1934-21.9727L49.8047-21.9727C46.4844-21.9727 44.1406-19.8242 44.1406-16.6992C44.1406-13.5742 46.4844-11.4746 49.8047-11.4746Z"/>
  </g>
  <g id="Bold-M" transform="matrix(1 0 0 1 2279.5 1126)">
   <path d="M60.498 16.5039C88.8672 16.5039 112.207-6.83594 112.207-35.2051C112.207-63.623 88.8672-86.9629 60.4492-86.9629C32.0312-86.9629 8.74023-63.623 8.74023-35.2051C8.74023-6.83594 32.0801 16.5039 60.498 16.5039ZM60.498 3.22266C39.1602 3.22266 22.0703-13.916 22.0703-35.2051C22.0703-56.543 39.1602-73.6816 60.4492-73.6816C81.7383-73.6816 98.9258-56.543 98.9258-35.2051C98.9746-13.916 81.7871 3.22266 60.498 3.22266ZM37.0117-43.8965L83.9844-43.8965C86.9629-43.8965 88.9648-45.752 88.9648-48.4863C88.9648-51.2695 86.9629-53.125 83.9844-53.125L37.0117-53.125C34.0332-53.125 32.0312-51.2695 32.0312-48.4863C32.0312-45.752 34.0332-43.8965 37.0117-43.8965ZM42.8223-27.832L78.2227-27.832C81.1523-27.832 83.2031-29.6875 83.2031-32.4707C83.2031-35.2051 81.1523-37.1094 78.2227-37.1094L42.8223-37.1094C39.8926-37.1094 37.793-35.2051 37.793-32.4707C37.793-29.6875 39.8926-27.832 42.8223-27.832ZM48.7305-11.8164L72.2656-11.8164C75.1953-11.8164 77.2461-13.6719 77.2461-16.4062C77.2461-19.1895 75.1953-21.0449 72.2656-21.0449L48.7305-21.0449C45.8008-21.0449 43.75-19.1895 43.75-16.4062C43.75-13.6719 45.8008-11.8164 48.7305-11.8164Z"/>
  </g>
  <g id="Semibold-M" transform="matrix(1 0 0 1 1983.5 1126)">
   <path d="M59.7656 15.8203C87.7441 15.8203 110.791-7.27539 110.791-35.2539C110.791-63.2324 87.6953-86.2793 59.7656-86.2793C31.7871-86.2793 8.74023-63.2324 8.74023-35.2539C8.74023-7.27539 31.7871 15.8203 59.7656 15.8203ZM59.7656 4.3457C37.8418 4.3457 20.2637-13.3301 20.2637-35.2539C20.2637-57.1777 37.793-74.8047 59.7656-74.8047C81.6895-74.8047 99.3164-57.1777 99.3652-35.2539C99.3652-13.3301 81.6895 4.3457 59.7656 4.3457ZM35.1562-44.2383L84.4238-44.2383C87.1094-44.2383 88.9648-45.8984 88.9648-48.4375C88.9648-50.9277 87.1094-52.6367 84.4238-52.6367L35.1562-52.6367C32.5195-52.6367 30.6641-50.9277 30.6641-48.4375C30.6641-45.8984 32.5195-44.2383 35.1562-44.2383ZM41.5039-28.1738L78.125-28.1738C80.7617-28.1738 82.6172-29.834 82.6172-32.3242C82.6172-34.8633 80.7617-36.5723 78.125-36.5723L41.5039-36.5723C38.8184-36.5723 36.9629-34.8633 36.9629-32.3242C36.9629-29.834 38.8184-28.1738 41.5039-28.1738ZM47.998-12.0605L71.582-12.0605C74.2188-12.0605 76.123-13.7207 76.123-16.2598C76.123-18.75 74.2188-20.459 71.582-20.459L47.998-20.459C45.3613-20.459 43.5059-18.75 43.5059-16.2598C43.5059-13.7207 45.3613-12.0605 47.998-12.0605Z"/>
  </g>
  <g id="Medium-M" transform="matrix(1 0 0 1 1687.3 1126)">
   <path d="M59.2285 15.2344C86.9141 15.2344 109.766-7.61719 109.766-35.2539C109.766-62.8906 86.8652-85.7422 59.1797-85.7422C31.543-85.7422 8.74023-62.8906 8.74023-35.2539C8.74023-7.61719 31.5918 15.2344 59.2285 15.2344ZM59.2285 5.17578C36.8164 5.17578 18.8965-12.8418 18.8965-35.2539C18.8965-57.666 36.8164-75.6348 59.1797-75.6348C81.5918-75.6348 99.6094-57.666 99.6582-35.2539C99.707-12.8418 81.6406 5.17578 59.2285 5.17578ZM33.7891-44.5312L84.7656-44.5312C87.207-44.5312 88.916-46.0449 88.916-48.3887C88.916-50.6836 87.207-52.2461 84.7656-52.2461L33.7891-52.2461C31.3477-52.2461 29.5898-50.6836 29.5898-48.3887C29.5898-46.0449 31.3477-44.5312 33.7891-44.5312ZM40.4785-28.3691L78.0762-28.3691C80.4688-28.3691 82.2266-29.9316 82.2266-32.2754C82.2266-34.5703 80.4688-36.1328 78.0762-36.1328L40.4785-36.1328C38.0371-36.1328 36.3281-34.5703 36.3281-32.2754C36.3281-29.9316 38.0371-28.3691 40.4785-28.3691ZM47.4609-12.2559L71.0938-12.2559C73.5352-12.2559 75.2441-13.7695 75.2441-16.1133C75.2441-18.4082 73.5352-19.9707 71.0938-19.9707L47.4609-19.9707C45.0195-19.9707 43.3105-18.4082 43.3105-16.1133C43.3105-13.7695 45.0195-12.2559 47.4609-12.2559Z"/>
  </g>
  <g id="Regular-M" transform="matrix(1 0 0 1 1391.3 1126)">
   <path d="M58.5449 14.5508C85.791 14.5508 108.35-8.05664 108.35-35.2539C108.35-62.5 85.7422-85.0586 58.4961-85.0586C31.2988-85.0586 8.74023-62.5 8.74023-35.2539C8.74023-8.05664 31.3477 14.5508 58.5449 14.5508ZM58.5449 6.25C35.498 6.25 17.0898-12.207 17.0898-35.2539C17.0898-58.3008 35.4492-76.7578 58.4961-76.7578C81.543-76.7578 100-58.3008 100.049-35.2539C100.098-12.207 81.5918 6.25 58.5449 6.25ZM31.9824-44.873L85.2051-44.873C87.3535-44.873 88.916-46.2402 88.916-48.291C88.916-50.3906 87.3535-51.7578 85.2051-51.7578L31.9824-51.7578C29.7852-51.7578 28.2715-50.3906 28.2715-48.291C28.2715-46.2402 29.7852-44.873 31.9824-44.873ZM39.209-28.7109L77.9785-28.7109C80.127-28.7109 81.6406-30.0781 81.6406-32.1289C81.6406-34.1797 80.127-35.5957 77.9785-35.5957L39.209-35.5957C37.0117-35.5957 35.498-34.1797 35.498-32.1289C35.498-30.0781 37.0117-28.7109 39.209-28.7109ZM46.7285-12.5L70.4102-12.5C72.5586-12.5 74.1211-13.8672 74.1211-15.918C74.1211-18.0176 72.5586-19.3848 70.4102-19.3848L46.7285-19.3848C44.5801-19.3848 43.0664-18.0176 43.0664-15.918C43.0664-13.8672 44.5801-12.5 46.7285-12.5Z"/>
  </g>
  <g id="Light-M" transform="matrix(1 0 0 1 1095.42 1126)">
   <path d="M57.7148 13.7207C84.5215 13.7207 106.689-8.44727 106.689-35.2539C106.689-62.1094 84.5215-84.2285 57.666-84.2285C30.8594-84.2285 8.74023-62.1094 8.74023-35.2539C8.74023-8.44727 30.9082 13.7207 57.7148 13.7207ZM57.7148 7.37305C34.082 7.37305 15.0879-11.6699 15.0879-35.2539C15.0879-58.8867 34.082-77.9297 57.666-77.9297C81.2988-77.9297 100.342-58.8867 100.391-35.2539C100.391-11.6699 81.3477 7.37305 57.7148 7.37305ZM30.7129-45.8496L84.8145-45.8496C86.4746-45.8496 87.6953-46.9238 87.6953-48.5352C87.6953-50.1465 86.4746-51.2695 84.8145-51.2695L30.7129-51.2695C29.0039-51.2695 27.832-50.1465 27.832-48.5352C27.832-46.9238 29.0039-45.8496 30.7129-45.8496ZM37.8906-29.7363L77.6855-29.7363C79.2969-29.7363 80.5176-30.8105 80.5176-32.4219C80.5176-34.0332 79.2969-35.1562 77.6855-35.1562L37.8906-35.1562C36.1816-35.1562 34.9609-34.0332 34.9609-32.4219C34.9609-30.8105 36.1816-29.7363 37.8906-29.7363ZM45.3613-13.5254L70.166-13.5254C71.8262-13.5254 73.0469-14.5996 73.0469-16.2109C73.0469-17.8711 71.8262-18.9453 70.166-18.9453L45.3613-18.9453C43.6523-18.9453 42.4805-17.8711 42.4805-16.2109C42.4805-14.5996 43.6523-13.5254 45.3613-13.5254Z"/>
  </g>
  <g id="Thin-M" transform="matrix(1 0 0 1 799.806 1126)">
   <path d="M56.6406 12.5977C82.9102 12.5977 104.492-8.98438 104.492-35.2539C104.492-61.5723 82.9102-83.1543 56.5918-83.1543C30.3223-83.1543 8.74023-61.5723 8.74023-35.2539C8.74023-8.98438 30.3223 12.5977 56.6406 12.5977ZM56.6406 8.88672C32.2266 8.88672 12.4512-10.8887 12.4512-35.2539C12.4512-59.6191 32.2266-79.4434 56.5918-79.4434C81.0059-79.4434 100.781-59.6191 100.781-35.2539C100.781-10.8887 81.0059 8.88672 56.6406 8.88672ZM29.0527-47.168L84.3262-47.168C85.3027-47.168 86.084-47.8516 86.084-48.877C86.084-49.9023 85.3027-50.5859 84.3262-50.5859L29.0527-50.5859C27.9785-50.5859 27.1973-49.9023 27.1973-48.877C27.1973-47.8516 27.9785-47.168 29.0527-47.168ZM36.1328-31.1035L77.2461-31.1035C78.2227-31.1035 79.0039-31.7871 79.0039-32.8125C79.0039-33.8379 78.2227-34.5215 77.2461-34.5215L36.1328-34.5215C35.0586-34.5215 34.3262-33.8379 34.3262-32.8125C34.3262-31.7871 35.0586-31.1035 36.1328-31.1035ZM43.5059-14.8926L69.873-14.8926C70.8496-14.8926 71.6309-15.625 71.6309-16.6504C71.6309-17.6758 70.8496-18.3594 69.873-18.3594L43.5059-18.3594C42.4805-18.3594 41.6992-17.6758 41.6992-16.6504C41.6992-15.625 42.4805-14.8926 43.5059-14.8926Z"/>
  </g>
  <g id="Ultralight-M" transform="matrix(1 0 0 1 503.656 1126)">
   <path d="M56.0547 12.0605C82.0801 12.0605 103.369-9.22852 103.369-35.2539C103.369-61.2793 82.0801-82.5684 56.0547-82.5684C30.0293-82.5684 8.74023-61.2793 8.74023-35.2539C8.74023-9.22852 30.0293 12.0605 56.0547 12.0605ZM56.0547 9.66797C31.2988 9.66797 11.1328-10.498 11.1328-35.2539C11.1328-60.0586 31.2988-80.1758 56.0547-80.1758C80.8594-80.1758 100.977-60.0586 100.977-35.2539C100.977-10.498 80.8594 9.66797 56.0547 9.66797ZM28.1738-47.8516L84.082-47.8516C84.7168-47.8516 85.2539-48.3398 85.2539-49.0723C85.2539-49.7559 84.7168-50.2441 84.082-50.2441L28.1738-50.2441C27.4414-50.2441 26.9043-49.7559 26.9043-49.0723C26.9043-48.3398 27.4414-47.8516 28.1738-47.8516ZM35.2051-31.8359L77.0508-31.8359C77.6855-31.8359 78.2227-32.3242 78.2227-33.0566C78.2227-33.7402 77.6855-34.2285 77.0508-34.2285L35.2051-34.2285C34.5215-34.2285 33.9355-33.7402 33.9355-33.0566C33.9355-32.3242 34.5215-31.8359 35.2051-31.8359ZM42.5781-15.625L69.6777-15.625C70.3613-15.625 70.8984-16.1133 70.8984-16.8457C70.8984-17.5293 70.3613-18.0176 69.6777-18.0176L42.5781-18.0176C41.8457-18.0176 41.3086-17.5293 41.3086-16.8457C41.3086-16.1133 41.8457-15.625 42.5781-15.625Z"/>
  </g>
  <g id="Black-S" transform="matrix(1 0 0 1 2884.57 696)">
   <path d="M48.8281 6.78711C71.9727 6.78711 90.8203-12.0605 90.8203-35.2051C90.8203-58.3496 71.9727-77.1973 48.8281-77.1973C25.6836-77.1973 6.83594-58.3496 6.83594-35.2051C6.83594-12.0605 25.6836 6.78711 48.8281 6.78711ZM48.8281-7.37305C33.4473-7.37305 20.9961-19.8242 20.9961-35.2051C20.9961-50.5859 33.4473-63.0371 48.8281-63.0371C64.209-63.0371 76.6602-50.5859 76.6602-35.2051C76.6602-19.8242 64.209-7.37305 48.8281-7.37305ZM32.7637-41.2598L64.8926-41.2598C67.8223-41.2598 69.7754-43.0664 69.7754-45.752C69.7754-48.4863 67.8223-50.293 64.8926-50.293L32.7637-50.293C29.834-50.293 27.8809-48.4863 27.8809-45.752C27.8809-43.0664 29.834-41.2598 32.7637-41.2598ZM36.2305-28.8086L61.4258-28.8086C64.3066-28.8086 66.3086-30.6152 66.3086-33.3008C66.3086-35.9863 64.3066-37.8418 61.4258-37.8418L36.2305-37.8418C33.3496-37.8418 31.3477-35.9863 31.3477-33.3008C31.3477-30.6152 33.3496-28.8086 36.2305-28.8086ZM39.6973-16.3574L57.959-16.3574C60.8398-16.3574 62.8418-18.1641 62.8418-20.8496C62.8418-23.5352 60.8398-25.3906 57.959-25.3906L39.6973-25.3906C36.8164-25.3906 34.8145-23.5352 34.8145-20.8496C34.8145-18.1641 36.8164-16.3574 39.6973-16.3574Z"/>
  </g>
  <g id="Heavy-S" transform="matrix(1 0 0 1 2588.47 696)">
   <path d="M48.2422 6.15234C70.9961 6.15234 89.5996-12.4512 89.5996-35.2051C89.5996-57.959 70.9961-76.6113 48.1934-76.6113C25.4395-76.6113 6.83594-57.959 6.83594-35.2051C6.83594-12.4512 25.4395 6.15234 48.2422 6.15234ZM48.2422-6.39648C32.2754-6.39648 19.4336-19.2871 19.4336-35.2051C19.4336-51.1719 32.2754-64.0137 48.1934-64.0137C64.1602-64.0137 77.002-51.1719 77.0508-35.2051C77.0508-19.2871 64.1602-6.39648 48.2422-6.39648ZM31.1035-41.5039L65.3809-41.5039C68.0664-41.5039 69.873-43.1641 69.873-45.6543C69.873-48.1934 68.0664-49.8535 65.3809-49.8535L31.1035-49.8535C28.3691-49.8535 26.5625-48.1934 26.5625-45.6543C26.5625-43.1641 28.3691-41.5039 31.1035-41.5039ZM35.0586-29.0039L61.377-29.0039C64.0137-29.0039 65.8691-30.6641 65.8691-33.1543C65.8691-35.6445 64.0137-37.3535 61.377-37.3535L35.0586-37.3535C32.4219-37.3535 30.5664-35.6445 30.5664-33.1543C30.5664-30.6641 32.4219-29.0039 35.0586-29.0039ZM39.1113-16.5039L57.3242-16.5039C59.9609-16.5039 61.8164-18.1641 61.8164-20.6543C61.8164-23.1445 59.9609-24.8535 57.3242-24.8535L39.1113-24.8535C36.4746-24.8535 34.6191-23.1445 34.6191-20.6543C34.6191-18.1641 36.4746-16.5039 39.1113-16.5039Z"/>
  </g>
  <g id="Bold-S" transform="matrix(1 0 0 1 2292.44 696)">
   <path d="M47.5586 5.46875C69.873 5.46875 88.2324-12.8906 88.2324-35.2539C88.2324-57.5684 69.873-75.9277 47.5098-75.9277C25.1953-75.9277 6.83594-57.5684 6.83594-35.2539C6.83594-12.8906 25.1953 5.46875 47.5586 5.46875ZM47.5586-5.32227C30.957-5.32227 17.6758-18.6523 17.6758-35.2539C17.6758-51.8066 30.957-65.1367 47.5098-65.1367C64.1113-65.1367 77.4414-51.8066 77.4414-35.2539C77.4414-18.6523 64.1113-5.32227 47.5586-5.32227ZM29.1992-41.7969L65.918-41.7969C68.3594-41.7969 70.0195-43.3105 70.0195-45.5566C70.0195-47.8516 68.3594-49.3652 65.918-49.3652L29.1992-49.3652C26.7578-49.3652 25.0977-47.8516 25.0977-45.5566C25.0977-43.3105 26.7578-41.7969 29.1992-41.7969ZM33.7891-29.1992L61.3281-29.1992C63.7207-29.1992 65.4297-30.7129 65.4297-32.959C65.4297-35.2539 63.7207-36.7676 61.3281-36.7676L33.7891-36.7676C31.3965-36.7676 29.6875-35.2539 29.6875-32.959C29.6875-30.7129 31.3965-29.1992 33.7891-29.1992ZM38.4766-16.6504L56.6406-16.6504C59.0332-16.6504 60.6934-18.1641 60.6934-20.4102C60.6934-22.6562 59.0332-24.2188 56.6406-24.2188L38.4766-24.2188C36.084-24.2188 34.4238-22.6562 34.4238-20.4102C34.4238-18.1641 36.084-16.6504 38.4766-16.6504Z"/>
  </g>
  <g id="Semibold-S" transform="matrix(1 0 0 1 1996.2 696)">
   <path d="M47.0703 4.98047C69.0918 4.98047 87.3047-13.1836 87.3047-35.2539C87.3047-57.2754 69.0918-75.4883 47.0215-75.4883C25-75.4883 6.83594-57.2754 6.83594-35.2539C6.83594-13.1836 25.0488 4.98047 47.0703 4.98047ZM47.0703-4.58984C30.0781-4.58984 16.4551-18.2129 16.4551-35.2539C16.4551-52.2461 30.0293-65.8691 47.0215-65.8691C64.0625-65.8691 77.6855-52.2461 77.7344-35.2539C77.7344-18.2129 64.0625-4.58984 47.0703-4.58984ZM27.8809-41.9434L66.3086-41.9434C68.5059-41.9434 70.0684-43.3594 70.0684-45.459C70.0684-47.6074 68.5059-49.0234 66.3086-49.0234L27.8809-49.0234C25.6348-49.0234 24.1211-47.6074 24.1211-45.459C24.1211-43.3594 25.6348-41.9434 27.8809-41.9434ZM32.9102-29.3457L61.2793-29.3457C63.5254-29.3457 65.0879-30.7617 65.0879-32.8613C65.0879-34.9609 63.5254-36.377 61.2793-36.377L32.9102-36.377C30.6641-36.377 29.1016-34.9609 29.1016-32.8613C29.1016-30.7617 30.6641-29.3457 32.9102-29.3457ZM38.0371-16.748L56.1523-16.748C58.3496-16.748 59.9121-18.1641 59.9121-20.2637C59.9121-22.3633 58.3496-23.7793 56.1523-23.7793L38.0371-23.7793C35.8398-23.7793 34.2773-22.3633 34.2773-20.2637C34.2773-18.1641 35.8398-16.748 38.0371-16.748Z"/>
  </g>
  <g id="Medium-S" transform="matrix(1 0 0 1 1699.83 696)">
   <path d="M46.7285 4.63867C68.5547 4.63867 86.6211-13.4277 86.6211-35.2539C86.6211-57.0801 68.5059-75.1465 46.6797-75.1465C24.8535-75.1465 6.83594-57.0801 6.83594-35.2539C6.83594-13.4277 24.9023 4.63867 46.7285 4.63867ZM46.7285-4.00391C29.3945-4.00391 15.5273-17.9199 15.5273-35.2539C15.5273-52.5879 29.3457-66.4551 46.6797-66.4551C64.0137-66.4551 77.8809-52.5879 77.9297-35.2539C77.9785-17.9199 64.0625-4.00391 46.7285-4.00391ZM26.9043-42.0898L66.5527-42.0898C68.6523-42.0898 70.166-43.457 70.166-45.4102C70.166-47.4121 68.6523-48.7305 66.5527-48.7305L26.9043-48.7305C24.8047-48.7305 23.3398-47.4121 23.3398-45.4102C23.3398-43.457 24.8047-42.0898 26.9043-42.0898ZM32.2266-29.4434L61.2793-29.4434C63.3789-29.4434 64.8438-30.8105 64.8438-32.7637C64.8438-34.7656 63.3789-36.084 61.2793-36.084L32.2266-36.084C30.127-36.084 28.6621-34.7656 28.6621-32.7637C28.6621-30.8105 30.127-29.4434 32.2266-29.4434ZM37.6953-16.7969L55.7617-16.7969C57.8613-16.7969 59.3262-18.1152 59.3262-20.1172C59.3262-22.1191 57.8613-23.4375 55.7617-23.4375L37.6953-23.4375C35.5957-23.4375 34.1309-22.1191 34.1309-20.1172C34.1309-18.1152 35.5957-16.7969 37.6953-16.7969Z"/>
  </g>
  <g id="Regular-S" transform="matrix(1 0 0 1 1403.58 696)">
   <path d="M46.2402 4.15039C67.7734 4.15039 85.6934-13.7207 85.6934-35.2539C85.6934-56.7871 67.7246-74.6582 46.1914-74.6582C24.707-74.6582 6.83594-56.7871 6.83594-35.2539C6.83594-13.7207 24.7559 4.15039 46.2402 4.15039ZM46.2402-3.27148C28.5156-3.27148 14.3555-17.4805 14.3555-35.2539C14.3555-53.0273 28.4668-67.2363 46.1914-67.2363C63.9648-67.2363 78.1738-53.0273 78.2227-35.2539C78.2715-17.4805 64.0137-3.27148 46.2402-3.27148ZM25.6348-42.2852L66.9434-42.2852C68.8477-42.2852 70.2148-43.5059 70.2148-45.3613C70.2148-47.168 68.8477-48.3887 66.9434-48.3887L25.6348-48.3887C23.7305-48.3887 22.3633-47.168 22.3633-45.3613C22.3633-43.5059 23.7305-42.2852 25.6348-42.2852ZM31.3477-29.5898L61.2305-29.5898C63.1348-29.5898 64.502-30.8105 64.502-32.666C64.502-34.5215 63.1348-35.7422 61.2305-35.7422L31.3477-35.7422C29.3945-35.7422 28.0273-34.5215 28.0273-32.666C28.0273-30.8105 29.3945-29.5898 31.3477-29.5898ZM37.3047-16.8945L55.2734-16.8945C57.2266-16.8945 58.5938-18.1152 58.5938-19.9707C58.5938-21.8262 57.2266-23.0469 55.2734-23.0469L37.3047-23.0469C35.3516-23.0469 33.9844-21.8262 33.9844-19.9707C33.9844-18.1152 35.3516-16.8945 37.3047-16.8945Z"/>
  </g>
  <g id="Light-S" transform="matrix(1 0 0 1 1107.6 696)">
   <path d="M45.5078 3.41797C66.6992 3.41797 84.2285-14.0625 84.2285-35.2539C84.2285-56.4453 66.6504-73.9258 45.5078-73.9258C24.3164-73.9258 6.83594-56.4453 6.83594-35.2539C6.83594-14.0625 24.3652 3.41797 45.5078 3.41797ZM45.5078-2.29492C27.2461-2.29492 12.5977-16.9922 12.5977-35.2539C12.5977-53.5156 27.1973-68.2129 45.5078-68.2129C63.7695-68.2129 78.4668-53.5156 78.5156-35.2539C78.5156-16.9922 63.8184-2.29492 45.5078-2.29492ZM24.5117-43.1641L66.6016-43.1641C68.0664-43.1641 69.1406-44.1406 69.1406-45.5566C69.1406-47.0215 68.0664-47.9492 66.6016-47.9492L24.5117-47.9492C22.998-47.9492 21.9238-47.0215 21.9238-45.5566C21.9238-44.1406 22.998-43.1641 24.5117-43.1641ZM30.1758-30.5176L60.9375-30.5176C62.4512-30.5176 63.5254-31.4941 63.5254-32.9102C63.5254-34.375 62.4512-35.3027 60.9375-35.3027L30.1758-35.3027C28.6621-35.3027 27.5879-34.375 27.5879-32.9102C27.5879-31.4941 28.6621-30.5176 30.1758-30.5176ZM36.0352-17.8223L55.0781-17.8223C56.543-17.8223 57.6172-18.7988 57.6172-20.2148C57.6172-21.6797 56.543-22.6074 55.0781-22.6074L36.0352-22.6074C34.5703-22.6074 33.4961-21.6797 33.4961-20.2148C33.4961-18.7988 34.5703-17.8223 36.0352-17.8223Z"/>
  </g>
  <g id="Thin-S" transform="matrix(1 0 0 1 811.867 696)">
   <path d="M44.5801 2.49023C65.2832 2.49023 82.2754-14.5508 82.2754-35.2539C82.2754-55.957 65.2344-72.998 44.5312-72.998C23.8281-72.998 6.83594-55.957 6.83594-35.2539C6.83594-14.5508 23.877 2.49023 44.5801 2.49023ZM44.5801-0.927734C25.5859-0.927734 10.2539-16.3086 10.2539-35.2539C10.2539-54.1992 25.5859-69.5801 44.5312-69.5801C63.5254-69.5801 78.8574-54.1992 78.8574-35.2539C78.8574-16.3086 63.5254-0.927734 44.5801-0.927734ZM23.0469-44.3359L66.1621-44.3359C67.041-44.3359 67.7246-44.9219 67.7246-45.8496C67.7246-46.7773 67.041-47.4121 66.1621-47.4121L23.0469-47.4121C22.1191-47.4121 21.4355-46.7773 21.4355-45.8496C21.4355-44.9219 22.1191-44.3359 23.0469-44.3359ZM28.6133-31.7383L60.5957-31.7383C61.4746-31.7383 62.1582-32.373 62.1582-33.252C62.1582-34.1797 61.4746-34.8145 60.5957-34.8145L28.6133-34.8145C27.6855-34.8145 27.002-34.1797 27.002-33.252C27.002-32.373 27.6855-31.7383 28.6133-31.7383ZM34.4238-19.043L54.7852-19.043C55.6641-19.043 56.3477-19.6777 56.3477-20.5566C56.3477-21.4844 55.6641-22.1191 54.7852-22.1191L34.4238-22.1191C33.4961-22.1191 32.8125-21.4844 32.8125-20.5566C32.8125-19.6777 33.4961-19.043 34.4238-19.043Z"/>
  </g>
  <g id="Ultralight-S" transform="matrix(1 0 0 1 515.644 696)">
   <path d="M44.043 1.95312C64.502 1.95312 81.2988-14.7949 81.2988-35.2539C81.2988-55.7129 64.502-72.4609 44.043-72.4609C23.584-72.4609 6.83594-55.7129 6.83594-35.2539C6.83594-14.7949 23.584 1.95312 44.043 1.95312ZM44.043-0.244141C24.7559-0.244141 9.08203-15.9668 9.08203-35.2539C9.08203-54.541 24.7559-70.2637 44.043-70.2637C63.3789-70.2637 79.0527-54.541 79.0527-35.2539C79.0527-15.9668 63.3789-0.244141 44.043-0.244141ZM22.3145-44.9219L65.918-44.9219C66.5039-44.9219 66.9922-45.3613 66.9922-45.9961C66.9922-46.6797 66.5039-47.0703 65.918-47.0703L22.3145-47.0703C21.6309-47.0703 21.1426-46.6797 21.1426-45.9961C21.1426-45.3613 21.6309-44.9219 22.3145-44.9219ZM27.832-32.373L60.4004-32.373C60.9863-32.373 61.4746-32.8125 61.4746-33.4473C61.4746-34.082 60.9863-34.5215 60.4004-34.5215L27.832-34.5215C27.1484-34.5215 26.6602-34.082 26.6602-33.4473C26.6602-32.8125 27.1484-32.373 27.832-32.373ZM33.5938-19.6777L54.6387-19.6777C55.2246-19.6777 55.7129-20.1172 55.7129-20.752C55.7129-21.3867 55.2246-21.8262 54.6387-21.8262L33.5938-21.8262C32.959-21.8262 32.4707-21.3867 32.4707-20.752C32.4707-20.1172 32.959-19.6777 33.5938-19.6777Z"/>
  </g>
 </g>
</svg>
